<svg width="290" height="340" viewBox="0 0 290 340" fill="none" xmlns="http://www.w3.org/2000/svg">
<rect width="290" height="340" rx="10" fill="#FCFCFC" fill-opacity="0.7"/>
<path d="M38.592 58.012C38.5833 58.1593 38.5617 58.3153 38.527 58.48C38.501 58.6447 38.4187 58.779 38.28 58.883C38.176 58.9697 38.059 59.0217 37.929 59.039C37.799 59.0563 37.669 59.0477 37.539 59.013C37.4177 58.987 37.3007 58.9437 37.188 58.883C37.0753 58.8137 36.9843 58.7313 36.915 58.636C36.6203 58.272 36.3473 57.8993 36.096 57.518C35.8533 57.128 35.6063 56.738 35.355 56.348L34.263 54.697C34.1157 54.463 33.9597 54.203 33.795 53.917C33.6303 53.6223 33.4613 53.3493 33.288 53.098L33.249 58.064V58.181C33.249 58.3197 33.223 58.4583 33.171 58.597C33.1277 58.727 33.0497 58.8397 32.937 58.935C32.8503 59.0043 32.7377 59.052 32.599 59.078C32.3823 59.1213 32.2003 59.1083 32.053 59.039C31.9143 58.9697 31.8017 58.8743 31.715 58.753C31.637 58.6317 31.5807 58.493 31.546 58.337C31.52 58.1723 31.5157 58.012 31.533 57.856V57.635L31.559 56.621L31.572 54.736C31.5807 54.4587 31.585 54.177 31.585 53.891C31.585 53.5963 31.585 53.2973 31.585 52.994C31.5763 52.6213 31.5763 52.227 31.585 51.811C31.6023 51.395 31.6197 51.005 31.637 50.641C31.6543 50.4417 31.702 50.2727 31.78 50.134C31.8147 50.0127 31.9057 49.9087 32.053 49.822C32.1483 49.7613 32.2697 49.7223 32.417 49.705C32.573 49.6877 32.7073 49.692 32.82 49.718C32.8633 49.7353 32.9067 49.757 32.95 49.783C32.9933 49.8003 33.0367 49.822 33.08 49.848C33.1233 49.8827 33.1623 49.9173 33.197 49.952C33.2403 49.9867 33.2793 50.0257 33.314 50.069C33.3573 50.1123 33.3963 50.16 33.431 50.212C33.4657 50.2553 33.5003 50.2987 33.535 50.342C33.561 50.394 33.587 50.4417 33.613 50.485C33.639 50.5283 33.6693 50.5717 33.704 50.615L33.847 50.823L36.85 55.555V54.697C36.85 54.4197 36.8457 54.138 36.837 53.852C36.837 53.5573 36.8327 53.254 36.824 52.942C36.824 52.578 36.824 52.188 36.824 51.772C36.8327 51.356 36.8457 50.966 36.863 50.602C36.863 50.4547 36.9063 50.2857 36.993 50.095C37.0363 49.9823 37.11 49.8913 37.214 49.822C37.318 49.7527 37.435 49.705 37.565 49.679C37.695 49.653 37.825 49.653 37.955 49.679C38.085 49.705 38.1977 49.757 38.293 49.835C38.319 49.861 38.345 49.8913 38.371 49.926C38.397 49.9607 38.4187 49.9997 38.436 50.043C38.4793 50.1557 38.5053 50.2553 38.514 50.342C38.54 50.4633 38.553 50.5717 38.553 50.667C38.553 51.7503 38.553 52.8553 38.553 53.982C38.5617 55.1087 38.5703 56.2137 38.579 57.297C38.579 57.4183 38.5833 57.5397 38.592 57.661C38.6007 57.7737 38.6007 57.8907 38.592 58.012ZM41.166 53.527C41.426 53.397 41.699 53.306 41.985 53.254C42.271 53.1933 42.5527 53.1803 42.83 53.215C43.116 53.241 43.389 53.3147 43.649 53.436C43.909 53.5487 44.1517 53.7133 44.377 53.93C44.6023 54.1553 44.7757 54.4023 44.897 54.671C45.0183 54.9397 45.105 55.2387 45.157 55.568C45.1917 55.7933 45.248 56.0013 45.326 56.192C45.404 56.3827 45.4863 56.5733 45.573 56.764C45.6683 56.9547 45.755 57.1453 45.833 57.336C45.9197 57.5267 45.989 57.726 46.041 57.934C46.0843 58.1333 46.067 58.3283 45.989 58.519C45.9197 58.701 45.7723 58.8137 45.547 58.857C45.417 58.883 45.2913 58.8743 45.17 58.831C45.0573 58.779 44.9533 58.7097 44.858 58.623C44.7627 58.5277 44.676 58.428 44.598 58.324C44.5287 58.2113 44.4637 58.1073 44.403 58.012C44.2037 58.272 43.987 58.4757 43.753 58.623C43.519 58.7617 43.2373 58.8527 42.908 58.896C42.6307 58.9307 42.3663 58.9393 42.115 58.922C41.8637 58.9047 41.595 58.857 41.309 58.779C40.9363 58.6837 40.6287 58.519 40.386 58.285C40.152 58.0423 39.97 57.765 39.84 57.453C39.7187 57.1323 39.6537 56.79 39.645 56.426C39.6363 56.062 39.6797 55.7023 39.775 55.347C39.8963 54.879 40.0783 54.4977 40.321 54.203C40.5637 53.9083 40.8453 53.683 41.166 53.527ZM41.491 55.048C41.3697 55.1693 41.2743 55.3123 41.205 55.477C41.1357 55.6417 41.0923 55.815 41.075 55.997C41.0663 56.179 41.0837 56.361 41.127 56.543C41.1703 56.725 41.2397 56.8853 41.335 57.024C41.4217 57.1453 41.569 57.2493 41.777 57.336C41.985 57.414 42.2017 57.4617 42.427 57.479C42.687 57.4963 42.9123 57.427 43.103 57.271C43.3023 57.115 43.4497 56.92 43.545 56.686C43.649 56.4433 43.6967 56.1877 43.688 55.919C43.6793 55.6417 43.6057 55.3903 43.467 55.165C43.363 55.0003 43.2243 54.879 43.051 54.801C42.8863 54.723 42.7087 54.684 42.518 54.684C42.3273 54.6753 42.1367 54.7057 41.946 54.775C41.764 54.8357 41.6123 54.9267 41.491 55.048ZM54.1685 55.971C54.1859 56.2483 54.1945 56.5127 54.1945 56.764C54.1945 57.0067 54.1859 57.2667 54.1685 57.544C54.1685 57.648 54.1685 57.765 54.1685 57.895C54.1685 58.025 54.1599 58.1507 54.1425 58.272C54.1252 58.3933 54.0949 58.506 54.0515 58.61C54.0082 58.714 53.9432 58.7963 53.8565 58.857C53.7525 58.9263 53.6355 58.974 53.5055 59C53.3755 59.0173 53.2542 59.0087 53.1415 58.974C53.0289 58.9393 52.9292 58.8743 52.8425 58.779C52.7645 58.6837 52.7212 58.5493 52.7125 58.376C52.6865 57.9773 52.6735 57.5787 52.6735 57.18C52.6735 56.9807 52.6692 56.79 52.6605 56.608C52.6605 56.426 52.6649 56.1703 52.6735 55.841C52.6735 55.6763 52.6605 55.49 52.6345 55.282C52.6085 55.0653 52.5435 54.9137 52.4395 54.827C52.3615 54.7577 52.2749 54.7187 52.1795 54.71C52.0842 54.6927 51.9889 54.7013 51.8935 54.736C51.8069 54.7707 51.7289 54.8357 51.6595 54.931C51.5902 55.0177 51.5425 55.1303 51.5165 55.269C51.5165 55.3817 51.5122 55.4987 51.5035 55.62C51.5035 55.7327 51.5079 55.841 51.5165 55.945C51.5252 56.2223 51.5295 56.4867 51.5295 56.738C51.5295 56.9807 51.5252 57.2407 51.5165 57.518C51.5079 57.6307 51.5035 57.752 51.5035 57.882C51.5122 58.012 51.5122 58.142 51.5035 58.272C51.4949 58.3933 51.4689 58.506 51.4255 58.61C51.3909 58.714 51.3259 58.7963 51.2305 58.857C51.1265 58.9263 51.0139 58.9697 50.8925 58.987C50.7799 58.9957 50.6715 58.9783 50.5675 58.935C50.4722 58.883 50.3855 58.805 50.3075 58.701C50.2382 58.597 50.1992 58.4583 50.1905 58.285C50.1732 58.0857 50.1602 57.9037 50.1515 57.739C50.1515 57.5657 50.1515 57.3837 50.1515 57.193C50.1515 56.9937 50.1559 56.79 50.1645 56.582C50.1732 56.3653 50.1689 56.1573 50.1515 55.958C50.1515 55.8973 50.1472 55.828 50.1385 55.75C50.1385 55.6633 50.1342 55.5767 50.1255 55.49C50.1255 55.4033 50.1169 55.321 50.0995 55.243C50.0909 55.1563 50.0735 55.087 50.0475 55.035C49.9782 54.9137 49.8525 54.8357 49.6705 54.801C49.4972 54.7663 49.3499 54.7793 49.2285 54.84C49.1072 54.9007 49.0162 54.9787 48.9555 55.074C48.8949 55.1693 48.8515 55.2733 48.8255 55.386C48.7995 55.4987 48.7865 55.62 48.7865 55.75C48.7865 55.8713 48.7865 55.9883 48.7865 56.101C48.7865 56.6643 48.7865 57.154 48.7865 57.57C48.7952 57.9773 48.7519 58.3067 48.6565 58.558C48.6132 58.688 48.5222 58.7877 48.3835 58.857C48.2535 58.9263 48.1105 58.961 47.9545 58.961C47.8072 58.961 47.6685 58.9263 47.5385 58.857C47.4085 58.7877 47.3219 58.6793 47.2785 58.532C47.2525 58.4367 47.2265 58.3023 47.2005 58.129C47.1832 57.947 47.1702 57.7477 47.1615 57.531C47.1529 57.3143 47.1485 57.0977 47.1485 56.881C47.1485 56.6557 47.1485 56.452 47.1485 56.27V54.398C47.1399 54.1987 47.1355 53.982 47.1355 53.748C47.1355 53.514 47.1702 53.3017 47.2395 53.111C47.3002 52.9463 47.3955 52.8423 47.5255 52.799C47.6555 52.747 47.7899 52.7253 47.9285 52.734C48.0845 52.734 48.2059 52.7773 48.2925 52.864C48.3879 52.942 48.4572 53.0417 48.5005 53.163C48.5439 53.2757 48.5699 53.4057 48.5785 53.553C48.5872 53.6917 48.5959 53.826 48.6045 53.956C48.6999 53.7393 48.8125 53.5617 48.9425 53.423C49.0812 53.2757 49.2762 53.1803 49.5275 53.137C50.1689 53.0157 50.6802 53.1803 51.0615 53.631C51.2349 53.4577 51.4559 53.3147 51.7245 53.202C51.9325 53.124 52.1449 53.0893 52.3615 53.098C52.5782 53.098 52.7819 53.137 52.9725 53.215C53.1719 53.293 53.3495 53.4057 53.5055 53.553C53.6702 53.7003 53.8002 53.878 53.8955 54.086C54.0255 54.3633 54.0992 54.671 54.1165 55.009C54.1339 55.347 54.1512 55.6677 54.1685 55.971ZM56.7558 53.527C57.0158 53.397 57.2888 53.306 57.5748 53.254C57.8608 53.1933 58.1425 53.1803 58.4198 53.215C58.7058 53.241 58.9788 53.3147 59.2388 53.436C59.4988 53.5487 59.7415 53.7133 59.9668 53.93C60.1922 54.1553 60.3655 54.4023 60.4868 54.671C60.6082 54.9397 60.6948 55.2387 60.7468 55.568C60.7815 55.7933 60.8378 56.0013 60.9158 56.192C60.9938 56.3827 61.0762 56.5733 61.1628 56.764C61.2582 56.9547 61.3448 57.1453 61.4228 57.336C61.5095 57.5267 61.5788 57.726 61.6308 57.934C61.6742 58.1333 61.6568 58.3283 61.5788 58.519C61.5095 58.701 61.3622 58.8137 61.1368 58.857C61.0068 58.883 60.8812 58.8743 60.7598 58.831C60.6472 58.779 60.5432 58.7097 60.4478 58.623C60.3525 58.5277 60.2658 58.428 60.1878 58.324C60.1185 58.2113 60.0535 58.1073 59.9928 58.012C59.7935 58.272 59.5768 58.4757 59.3428 58.623C59.1088 58.7617 58.8272 58.8527 58.4978 58.896C58.2205 58.9307 57.9562 58.9393 57.7048 58.922C57.4535 58.9047 57.1848 58.857 56.8988 58.779C56.5262 58.6837 56.2185 58.519 55.9758 58.285C55.7418 58.0423 55.5598 57.765 55.4298 57.453C55.3085 57.1323 55.2435 56.79 55.2348 56.426C55.2262 56.062 55.2695 55.7023 55.3648 55.347C55.4862 54.879 55.6682 54.4977 55.9108 54.203C56.1535 53.9083 56.4352 53.683 56.7558 53.527ZM57.0808 55.048C56.9595 55.1693 56.8642 55.3123 56.7948 55.477C56.7255 55.6417 56.6822 55.815 56.6648 55.997C56.6562 56.179 56.6735 56.361 56.7168 56.543C56.7602 56.725 56.8295 56.8853 56.9248 57.024C57.0115 57.1453 57.1588 57.2493 57.3668 57.336C57.5748 57.414 57.7915 57.4617 58.0168 57.479C58.2768 57.4963 58.5022 57.427 58.6928 57.271C58.8922 57.115 59.0395 56.92 59.1348 56.686C59.2388 56.4433 59.2865 56.1877 59.2778 55.919C59.2692 55.6417 59.1955 55.3903 59.0568 55.165C58.9528 55.0003 58.8142 54.879 58.6408 54.801C58.4762 54.723 58.2985 54.684 58.1078 54.684C57.9172 54.6753 57.7265 54.7057 57.5358 54.775C57.3538 54.8357 57.2022 54.9267 57.0808 55.048Z" fill="black"/>
<path d="M38.254 110.217C38.2973 110.338 38.3277 110.477 38.345 110.633C38.371 110.78 38.384 110.932 38.384 111.088C38.384 111.244 38.371 111.4 38.345 111.556C38.3277 111.703 38.3017 111.833 38.267 111.946C38.1283 112.431 37.851 112.839 37.435 113.168C37.019 113.489 36.5423 113.723 36.005 113.87C35.4763 114.017 34.926 114.069 34.354 114.026C33.7907 113.983 33.288 113.84 32.846 113.597C32.5687 113.441 32.3303 113.25 32.131 113.025C31.9317 112.8 31.7627 112.548 31.624 112.271C31.572 112.176 31.5373 112.067 31.52 111.946C31.5113 111.816 31.5243 111.695 31.559 111.582C31.5937 111.461 31.65 111.357 31.728 111.27C31.806 111.175 31.9143 111.11 32.053 111.075C32.1397 111.058 32.235 111.049 32.339 111.049C32.4517 111.049 32.56 111.066 32.664 111.101C32.768 111.127 32.8633 111.175 32.95 111.244C33.0367 111.305 33.106 111.391 33.158 111.504C33.2533 111.686 33.3877 111.855 33.561 112.011C33.743 112.158 33.9337 112.28 34.133 112.375C34.419 112.47 34.705 112.509 34.991 112.492C35.2857 112.475 35.55 112.41 35.784 112.297C36.0267 112.184 36.2217 112.033 36.369 111.842C36.5163 111.643 36.59 111.417 36.59 111.166C36.59 110.958 36.5597 110.789 36.499 110.659C36.4383 110.52 36.3517 110.408 36.239 110.321C36.135 110.226 36.005 110.148 35.849 110.087C35.7017 110.026 35.537 109.974 35.355 109.931C35.147 109.888 34.9347 109.857 34.718 109.84C34.51 109.823 34.2977 109.801 34.081 109.775C33.8643 109.749 33.652 109.714 33.444 109.671C33.236 109.628 33.0323 109.563 32.833 109.476C32.4343 109.311 32.131 109.06 31.923 108.722C31.715 108.384 31.5893 108.02 31.546 107.63C31.5113 107.24 31.559 106.854 31.689 106.473C31.819 106.083 32.027 105.749 32.313 105.472C32.5903 105.221 32.9197 105.043 33.301 104.939C33.691 104.826 34.12 104.761 34.588 104.744C34.848 104.735 35.108 104.744 35.368 104.77C35.6367 104.796 35.8923 104.839 36.135 104.9C36.3863 104.961 36.616 105.039 36.824 105.134C37.0407 105.229 37.227 105.342 37.383 105.472C37.4957 105.559 37.6083 105.676 37.721 105.823C37.8337 105.962 37.9203 106.113 37.981 106.278C38.0417 106.434 38.059 106.586 38.033 106.733C38.0157 106.88 37.9247 107.006 37.76 107.11C37.6213 107.197 37.487 107.236 37.357 107.227C37.2357 107.21 37.1187 107.171 37.006 107.11C36.8933 107.041 36.785 106.963 36.681 106.876C36.577 106.789 36.4817 106.711 36.395 106.642C36.161 106.469 35.8707 106.352 35.524 106.291C35.1773 106.23 34.8523 106.217 34.549 106.252C34.3583 106.278 34.1807 106.321 34.016 106.382C33.8513 106.443 33.7083 106.525 33.587 106.629C33.4743 106.733 33.3833 106.863 33.314 107.019C33.2533 107.166 33.2317 107.335 33.249 107.526C33.2577 107.665 33.2967 107.782 33.366 107.877C33.444 107.972 33.535 108.05 33.639 108.111C33.7517 108.172 33.873 108.219 34.003 108.254C34.133 108.289 34.263 108.315 34.393 108.332C34.783 108.384 35.173 108.423 35.563 108.449C35.953 108.475 36.3343 108.562 36.707 108.709C37.0883 108.856 37.4133 109.056 37.682 109.307C37.9507 109.558 38.1413 109.862 38.254 110.217ZM44.2819 108.267C44.3513 108.432 44.3556 108.614 44.2949 108.813C44.2429 109.012 44.1433 109.142 43.9959 109.203C43.9179 109.238 43.8139 109.268 43.6839 109.294C43.5539 109.311 43.4109 109.329 43.2549 109.346C43.1076 109.363 42.9603 109.376 42.8129 109.385C42.6656 109.394 42.5399 109.398 42.4359 109.398C42.4446 109.658 42.4533 109.927 42.4619 110.204C42.4706 110.473 42.4793 110.737 42.4879 110.997C42.4966 111.257 42.5009 111.508 42.5009 111.751C42.5009 111.985 42.4966 112.197 42.4879 112.388C42.4879 112.518 42.4879 112.67 42.4879 112.843C42.4879 113.008 42.4749 113.168 42.4489 113.324C42.4316 113.48 42.4013 113.619 42.3579 113.74C42.3146 113.853 42.2496 113.926 42.1629 113.961C41.8943 114.074 41.6473 114.104 41.4219 114.052C41.2053 114.009 41.0493 113.918 40.9539 113.779C40.8846 113.666 40.8326 113.536 40.7979 113.389C40.7633 113.233 40.7373 113.077 40.7199 112.921C40.7113 112.756 40.7069 112.6 40.7069 112.453C40.7156 112.297 40.7199 112.163 40.7199 112.05C40.7286 111.686 40.7329 111.274 40.7329 110.815C40.7416 110.347 40.7459 109.879 40.7459 109.411H40.5509C40.4469 109.411 40.3126 109.411 40.1479 109.411C39.9919 109.402 39.8316 109.389 39.6669 109.372C39.5109 109.346 39.3636 109.316 39.2249 109.281C39.0863 109.238 38.9866 109.177 38.9259 109.099C38.8306 108.986 38.7699 108.865 38.7439 108.735C38.7266 108.605 38.7353 108.484 38.7699 108.371C38.8133 108.25 38.8783 108.146 38.9649 108.059C39.0516 107.964 39.1513 107.903 39.2639 107.877C39.4199 107.834 39.6409 107.812 39.9269 107.812C40.2129 107.803 40.4816 107.803 40.7329 107.812C40.7243 107.725 40.7199 107.643 40.7199 107.565C40.7199 107.478 40.7156 107.396 40.7069 107.318C40.6983 107.214 40.6939 107.084 40.6939 106.928C40.6939 106.763 40.7026 106.603 40.7199 106.447C40.7459 106.282 40.7849 106.131 40.8369 105.992C40.8889 105.845 40.9626 105.732 41.0579 105.654C41.1879 105.55 41.3179 105.494 41.4479 105.485C41.5866 105.468 41.7123 105.485 41.8249 105.537C41.9463 105.589 42.0459 105.667 42.1239 105.771C42.2106 105.866 42.2713 105.975 42.3059 106.096C42.3319 106.2 42.3536 106.326 42.3709 106.473C42.3883 106.612 42.3969 106.759 42.3969 106.915C42.4056 107.071 42.4099 107.227 42.4099 107.383C42.4099 107.539 42.4099 107.682 42.4099 107.812H42.5399C42.6699 107.812 42.8216 107.808 42.9949 107.799C43.1683 107.79 43.3373 107.795 43.5019 107.812C43.6753 107.829 43.8313 107.873 43.9699 107.942C44.1086 108.003 44.2126 108.111 44.2819 108.267ZM46.362 108.124C46.648 107.985 46.947 107.886 47.259 107.825C47.571 107.764 47.8787 107.751 48.182 107.786C48.494 107.821 48.793 107.903 49.079 108.033C49.3737 108.163 49.6424 108.345 49.885 108.579C50.0844 108.778 50.2577 109.021 50.405 109.307C50.5524 109.584 50.6607 109.857 50.73 110.126C50.8774 110.603 50.899 111.084 50.795 111.569C50.691 112.054 50.5134 112.505 50.262 112.921C50.1407 113.112 49.989 113.285 49.807 113.441C49.6337 113.588 49.4474 113.71 49.248 113.805C48.988 113.926 48.7064 114.009 48.403 114.052C48.0997 114.104 47.805 114.117 47.519 114.091C46.999 114.065 46.5397 113.935 46.141 113.701C45.751 113.467 45.4347 113.168 45.192 112.804C44.958 112.44 44.802 112.028 44.724 111.569C44.6547 111.101 44.685 110.624 44.815 110.139C44.9537 109.619 45.153 109.199 45.413 108.878C45.6817 108.549 45.998 108.297 46.362 108.124ZM46.752 109.866C46.622 109.987 46.5224 110.139 46.453 110.321C46.3837 110.503 46.3404 110.694 46.323 110.893C46.3057 111.084 46.3187 111.279 46.362 111.478C46.414 111.669 46.492 111.842 46.596 111.998C46.6827 112.128 46.8387 112.236 47.064 112.323C47.2894 112.41 47.5234 112.462 47.766 112.479C48.0434 112.496 48.286 112.423 48.494 112.258C48.702 112.085 48.858 111.872 48.962 111.621C49.0747 111.37 49.1267 111.097 49.118 110.802C49.1094 110.507 49.0314 110.239 48.884 109.996C48.78 109.823 48.6327 109.697 48.442 109.619C48.26 109.532 48.065 109.489 47.857 109.489C47.6577 109.48 47.4584 109.511 47.259 109.58C47.0597 109.641 46.8907 109.736 46.752 109.866ZM54.483 111.01C54.6736 111.209 54.8123 111.357 54.899 111.452C54.9943 111.539 55.0593 111.604 55.094 111.647C55.1373 111.69 55.1676 111.716 55.185 111.725C55.2023 111.734 55.2326 111.76 55.276 111.803C55.3193 111.846 55.3886 111.916 55.484 112.011C55.5793 112.098 55.7223 112.241 55.913 112.44C56.069 112.596 56.1946 112.778 56.29 112.986C56.394 113.185 56.3853 113.402 56.264 113.636C56.1946 113.757 56.1166 113.844 56.03 113.896C55.9433 113.939 55.848 113.957 55.744 113.948C55.6486 113.939 55.5446 113.909 55.432 113.857C55.328 113.805 55.224 113.74 55.12 113.662C54.9206 113.515 54.73 113.346 54.548 113.155C54.366 112.956 54.2186 112.804 54.106 112.7C54.028 112.622 53.9803 112.57 53.963 112.544C53.9456 112.527 53.9283 112.514 53.911 112.505C53.8936 112.488 53.8763 112.47 53.859 112.453C53.7983 112.392 53.7333 112.332 53.664 112.271C53.5946 112.21 53.5253 112.145 53.456 112.076V112.583C53.456 112.678 53.4603 112.748 53.469 112.791C53.469 112.878 53.4646 112.943 53.456 112.986C53.43 113.081 53.417 113.172 53.417 113.259C53.4083 113.302 53.3996 113.346 53.391 113.389C53.3823 113.424 53.3693 113.463 53.352 113.506C53.3433 113.523 53.3346 113.536 53.326 113.545C53.326 113.554 53.326 113.567 53.326 113.584C53.3173 113.601 53.3086 113.614 53.3 113.623C53.3 113.632 53.2956 113.645 53.287 113.662C53.2436 113.749 53.1743 113.831 53.079 113.909C52.9143 114.004 52.7106 114.03 52.468 113.987C52.338 113.961 52.2383 113.913 52.169 113.844C52.091 113.792 52.039 113.718 52.013 113.623C51.9956 113.58 51.9783 113.536 51.961 113.493C51.9523 113.441 51.9393 113.393 51.922 113.35C51.9046 113.307 51.896 113.268 51.896 113.233C51.896 113.19 51.896 113.155 51.896 113.129V105.732C51.896 105.68 51.896 105.628 51.896 105.576C51.896 105.524 51.9003 105.472 51.909 105.42C51.9176 105.368 51.9263 105.32 51.935 105.277C51.9523 105.225 51.9696 105.177 51.987 105.134C52.0216 105.047 52.065 104.978 52.117 104.926C52.1603 104.883 52.2036 104.852 52.247 104.835C52.299 104.809 52.3466 104.787 52.39 104.77C52.4333 104.761 52.481 104.757 52.533 104.757C52.5936 104.748 52.65 104.744 52.702 104.744C52.8233 104.744 52.9446 104.779 53.066 104.848C53.1786 104.926 53.261 105.026 53.313 105.147C53.3823 105.312 53.417 105.472 53.417 105.628C53.4256 105.715 53.4343 105.849 53.443 106.031C53.4516 106.204 53.456 106.334 53.456 106.421V106.473C53.4646 106.759 53.469 107.032 53.469 107.292C53.469 107.552 53.469 107.834 53.469 108.137C53.4603 108.44 53.456 108.731 53.456 109.008C53.456 109.277 53.456 109.545 53.456 109.814V109.957C53.5253 109.888 53.5946 109.823 53.664 109.762C53.7333 109.701 53.7983 109.636 53.859 109.567C53.8936 109.541 53.9283 109.511 53.963 109.476L54.106 109.333C54.2186 109.22 54.366 109.069 54.548 108.878C54.73 108.679 54.9206 108.505 55.12 108.358C55.3366 108.202 55.5446 108.107 55.744 108.072C55.952 108.037 56.1253 108.141 56.264 108.384C56.3853 108.618 56.394 108.839 56.29 109.047C56.1946 109.246 56.069 109.433 55.913 109.606C55.7223 109.805 55.5793 109.953 55.484 110.048C55.3886 110.135 55.3193 110.2 55.276 110.243C55.2326 110.278 55.2023 110.299 55.185 110.308C55.1676 110.317 55.1373 110.343 55.094 110.386C55.0593 110.421 54.9943 110.486 54.899 110.581C54.8123 110.668 54.6736 110.811 54.483 111.01Z" fill="black"/>
<path d="M38.384 161.433C38.3927 161.494 38.397 161.55 38.397 161.602C38.397 161.654 38.397 161.706 38.397 161.758V162.291L38.319 169.038V169.168C38.319 169.22 38.306 169.298 38.28 169.402C38.2713 169.445 38.2583 169.493 38.241 169.545C38.2237 169.588 38.2063 169.636 38.189 169.688C38.1457 169.792 38.085 169.87 38.007 169.922C37.9377 169.991 37.825 170.039 37.669 170.065C37.4263 170.117 37.2053 170.095 37.006 170C36.8933 169.931 36.8153 169.844 36.772 169.74C36.7547 169.723 36.7373 169.697 36.72 169.662C36.72 169.645 36.7113 169.619 36.694 169.584C36.6767 169.541 36.6637 169.497 36.655 169.454C36.6463 169.402 36.6377 169.35 36.629 169.298C36.629 169.255 36.6247 169.211 36.616 169.168C36.616 169.125 36.6117 169.081 36.603 169.038C36.5857 168.995 36.577 168.96 36.577 168.934C36.577 168.899 36.577 168.86 36.577 168.817C36.5943 168.782 36.603 168.717 36.603 168.622L36.616 167.595L36.629 165.957H35.927L33.288 165.97L33.262 169.038V169.168C33.262 169.22 33.249 169.298 33.223 169.402C33.2143 169.445 33.2013 169.493 33.184 169.545C33.1667 169.588 33.1493 169.636 33.132 169.688C33.0887 169.792 33.028 169.87 32.95 169.922C32.8807 169.991 32.768 170.039 32.612 170.065C32.3693 170.117 32.1483 170.095 31.949 170C31.8623 169.948 31.78 169.861 31.702 169.74C31.6847 169.705 31.676 169.679 31.676 169.662L31.637 169.584C31.6197 169.541 31.6067 169.497 31.598 169.454C31.5893 169.402 31.5807 169.35 31.572 169.298C31.572 169.255 31.5677 169.211 31.559 169.168C31.5503 169.125 31.5417 169.081 31.533 169.038C31.5243 168.969 31.5243 168.895 31.533 168.817V168.622L31.546 167.595L31.572 165.684C31.5807 165.407 31.585 165.121 31.585 164.826C31.585 164.531 31.585 164.228 31.585 163.916C31.5763 163.604 31.572 163.327 31.572 163.084C31.5807 162.841 31.5937 162.568 31.611 162.265V162.213C31.6197 162.126 31.624 162.04 31.624 161.953C31.624 161.858 31.6283 161.762 31.637 161.667C31.6457 161.58 31.6587 161.498 31.676 161.42C31.702 161.333 31.7367 161.247 31.78 161.16C31.806 161.091 31.8407 161.034 31.884 160.991C31.9273 160.939 31.9793 160.891 32.04 160.848C32.1787 160.779 32.3173 160.744 32.456 160.744C32.5253 160.744 32.586 160.748 32.638 160.757C32.69 160.757 32.742 160.761 32.794 160.77C32.898 160.779 32.9977 160.831 33.093 160.926C33.1623 160.987 33.21 161.056 33.236 161.134C33.2793 161.247 33.3053 161.346 33.314 161.433C33.3227 161.494 33.327 161.55 33.327 161.602C33.327 161.654 33.327 161.706 33.327 161.758V162.291L33.301 164.436C33.3703 164.436 33.4483 164.436 33.535 164.436C33.6303 164.436 33.7387 164.432 33.86 164.423C34.3107 164.423 34.757 164.427 35.199 164.436C35.6497 164.445 36.122 164.449 36.616 164.449H36.629C36.629 164.059 36.629 163.686 36.629 163.331C36.6377 162.976 36.6507 162.603 36.668 162.213C36.668 162.126 36.668 162.04 36.668 161.953C36.6767 161.858 36.6853 161.762 36.694 161.667C36.7027 161.58 36.7157 161.498 36.733 161.42C36.759 161.333 36.7937 161.247 36.837 161.16C36.8543 161.091 36.8847 161.034 36.928 160.991C36.98 160.939 37.0407 160.891 37.11 160.848C37.2313 160.779 37.3657 160.744 37.513 160.744C37.5823 160.744 37.643 160.748 37.695 160.757C37.7557 160.757 37.8077 160.761 37.851 160.77C37.9723 160.787 38.072 160.839 38.15 160.926C38.2193 160.969 38.267 161.039 38.293 161.134C38.3103 161.186 38.3233 161.238 38.332 161.29C38.3493 161.333 38.3667 161.381 38.384 161.433ZM40.9629 164.527C41.2229 164.397 41.4959 164.306 41.7819 164.254C42.0679 164.193 42.3495 164.18 42.6269 164.215C42.9129 164.241 43.1859 164.315 43.4459 164.436C43.7059 164.549 43.9485 164.713 44.1739 164.93C44.3992 165.155 44.5725 165.402 44.6939 165.671C44.8152 165.94 44.9019 166.239 44.9539 166.568C44.9885 166.793 45.0449 167.001 45.1229 167.192C45.2009 167.383 45.2832 167.573 45.3699 167.764C45.4652 167.955 45.5519 168.145 45.6299 168.336C45.7165 168.527 45.7859 168.726 45.8379 168.934C45.8812 169.133 45.8639 169.328 45.7859 169.519C45.7165 169.701 45.5692 169.814 45.3439 169.857C45.2139 169.883 45.0882 169.874 44.9669 169.831C44.8542 169.779 44.7502 169.71 44.6549 169.623C44.5595 169.528 44.4729 169.428 44.3949 169.324C44.3255 169.211 44.2605 169.107 44.1999 169.012C44.0005 169.272 43.7839 169.476 43.5499 169.623C43.3159 169.762 43.0342 169.853 42.7049 169.896C42.4275 169.931 42.1632 169.939 41.9119 169.922C41.6605 169.905 41.3919 169.857 41.1059 169.779C40.7332 169.684 40.4255 169.519 40.1829 169.285C39.9489 169.042 39.7669 168.765 39.6369 168.453C39.5155 168.132 39.4505 167.79 39.4419 167.426C39.4332 167.062 39.4765 166.702 39.5719 166.347C39.6932 165.879 39.8752 165.498 40.1179 165.203C40.3605 164.908 40.6422 164.683 40.9629 164.527ZM41.2879 166.048C41.1665 166.169 41.0712 166.312 41.0019 166.477C40.9325 166.642 40.8892 166.815 40.8719 166.997C40.8632 167.179 40.8805 167.361 40.9239 167.543C40.9672 167.725 41.0365 167.885 41.1319 168.024C41.2185 168.145 41.3659 168.249 41.5739 168.336C41.7819 168.414 41.9985 168.462 42.2239 168.479C42.4839 168.496 42.7092 168.427 42.8999 168.271C43.0992 168.115 43.2465 167.92 43.3419 167.686C43.4459 167.443 43.4935 167.188 43.4849 166.919C43.4762 166.642 43.4025 166.39 43.2639 166.165C43.1599 166 43.0212 165.879 42.8479 165.801C42.6832 165.723 42.5055 165.684 42.3149 165.684C42.1242 165.675 41.9335 165.706 41.7429 165.775C41.5609 165.836 41.4092 165.927 41.2879 166.048ZM46.9324 165.398C46.9324 165.294 46.9324 165.177 46.9324 165.047C46.9324 164.908 46.9367 164.77 46.9454 164.631C46.9541 164.484 46.9671 164.345 46.9844 164.215C47.0104 164.076 47.0451 163.955 47.0884 163.851C47.1577 163.695 47.2661 163.591 47.4134 163.539C47.5607 163.478 47.7211 163.452 47.8944 163.461C48.0764 163.461 48.2194 163.491 48.3234 163.552C48.4274 163.613 48.5054 163.695 48.5574 163.799C48.6094 163.894 48.6397 164.007 48.6484 164.137C48.6657 164.258 48.6744 164.388 48.6744 164.527C48.7524 164.388 48.8564 164.276 48.9864 164.189C49.1251 164.102 49.2637 164.033 49.4024 163.981C49.5411 163.929 49.6667 163.894 49.7794 163.877C49.8921 163.851 49.9571 163.838 49.9744 163.838C50.1911 163.821 50.3861 163.816 50.5594 163.825C50.7414 163.834 50.9407 163.873 51.1574 163.942C51.2961 163.994 51.4391 164.068 51.5864 164.163C51.7337 164.25 51.8637 164.354 51.9764 164.475C52.0891 164.596 52.1627 164.731 52.1974 164.878C52.2407 165.017 52.2234 165.164 52.1454 165.32C52.0241 165.537 51.8897 165.645 51.7424 165.645C51.5951 165.636 51.4347 165.61 51.2614 165.567C51.1661 165.55 51.0534 165.511 50.9234 165.45C50.7934 165.389 50.6807 165.35 50.5854 165.333C50.2907 165.29 50.0307 165.311 49.8054 165.398C49.5801 165.485 49.3851 165.589 49.2204 165.71C49.0297 165.857 48.8651 166.026 48.7264 166.217V168.089C48.7264 168.323 48.7221 168.566 48.7134 168.817C48.7134 169.068 48.6787 169.298 48.6094 169.506C48.5487 169.705 48.4404 169.87 48.2844 170C48.1371 170.121 47.9204 170.173 47.6344 170.156C47.4784 170.147 47.3397 170.074 47.2184 169.935C47.0971 169.788 47.0234 169.645 46.9974 169.506C46.9801 169.376 46.9671 169.22 46.9584 169.038C46.9497 168.856 46.9411 168.665 46.9324 168.466C46.9324 168.267 46.9324 168.067 46.9324 167.868C46.9324 167.66 46.9324 167.469 46.9324 167.296V165.398ZM58.6621 167.543C58.6621 167.82 58.6534 168.119 58.6361 168.44C58.6274 168.761 58.6144 169.06 58.5971 169.337C58.5971 169.597 58.5841 169.857 58.5581 170.117C58.5407 170.342 58.5061 170.585 58.4541 170.845C58.4021 171.114 58.3284 171.361 58.2331 171.586C58.1117 171.881 57.9471 172.132 57.7391 172.34C57.5311 172.557 57.2624 172.713 56.9331 172.808C56.6557 172.877 56.3957 172.921 56.1531 172.938C55.9104 172.964 55.6504 172.96 55.3731 172.925C55.1911 172.899 54.9961 172.847 54.7881 172.769C54.5801 172.7 54.3851 172.609 54.2031 172.496C54.0211 172.383 53.8607 172.249 53.7221 172.093C53.5834 171.946 53.4881 171.777 53.4361 171.586C53.3754 171.352 53.3711 171.148 53.4231 170.975C53.4837 170.802 53.5747 170.676 53.6961 170.598C53.8174 170.52 53.9604 170.507 54.1251 170.559C54.2897 170.611 54.4457 170.745 54.5931 170.962C54.6971 171.118 54.8487 171.244 55.0481 171.339C55.2474 171.434 55.4597 171.491 55.6851 171.508C55.9104 171.525 56.1271 171.495 56.3351 171.417C56.5517 171.348 56.7207 171.222 56.8421 171.04C56.9287 170.91 56.9894 170.724 57.0241 170.481C57.0674 170.238 57.0934 170 57.1021 169.766C56.6601 169.948 56.2051 170.017 55.7371 169.974C55.2777 169.922 54.8574 169.779 54.4761 169.545C54.1034 169.302 53.8001 168.982 53.5661 168.583C53.3407 168.176 53.2454 167.716 53.2801 167.205C53.3061 166.763 53.3971 166.347 53.5531 165.957C53.7177 165.567 53.9864 165.242 54.3591 164.982C54.6624 164.774 55.0047 164.64 55.3861 164.579C55.7674 164.51 56.1357 164.475 56.4911 164.475C56.6991 164.475 56.9027 164.475 57.1021 164.475C57.3101 164.475 57.5007 164.501 57.6741 164.553C57.8474 164.605 58.0034 164.692 58.1421 164.813C58.2807 164.934 58.3847 165.112 58.4541 165.346C58.5667 165.71 58.6274 166.07 58.6361 166.425C58.6534 166.78 58.6621 167.153 58.6621 167.543ZM56.1531 168.622C56.2397 168.622 56.3221 168.613 56.4001 168.596C56.4867 168.579 56.5691 168.557 56.6471 168.531C56.7944 168.479 56.9027 168.41 56.9721 168.323C57.0501 168.236 57.1021 168.141 57.1281 168.037C57.1541 167.924 57.1627 167.803 57.1541 167.673C57.1541 167.543 57.1541 167.409 57.1541 167.27C57.1541 167.157 57.1497 167.032 57.1411 166.893C57.1411 166.754 57.1324 166.624 57.1151 166.503C57.0977 166.373 57.0717 166.26 57.0371 166.165C57.0024 166.07 56.9504 166.009 56.8811 165.983C56.7597 165.948 56.6211 165.927 56.4651 165.918C56.3091 165.901 56.1531 165.901 55.9971 165.918C55.8411 165.927 55.6894 165.957 55.5421 166.009C55.4034 166.052 55.2864 166.113 55.1911 166.191C55.0611 166.304 54.9614 166.442 54.8921 166.607C54.8227 166.772 54.7794 166.945 54.7621 167.127C54.7534 167.309 54.7664 167.487 54.8011 167.66C54.8444 167.833 54.9181 167.989 55.0221 168.128C55.1434 168.301 55.3081 168.427 55.5161 168.505C55.7241 168.583 55.9364 168.622 56.1531 168.622ZM61.2373 164.527C61.4973 164.397 61.7703 164.306 62.0563 164.254C62.3423 164.193 62.624 164.18 62.9013 164.215C63.1873 164.241 63.4603 164.315 63.7203 164.436C63.9803 164.549 64.223 164.713 64.4483 164.93C64.6736 165.155 64.847 165.402 64.9683 165.671C65.0896 165.94 65.1763 166.239 65.2283 166.568C65.263 166.793 65.3193 167.001 65.3973 167.192C65.4753 167.383 65.5576 167.573 65.6443 167.764C65.7396 167.955 65.8263 168.145 65.9043 168.336C65.991 168.527 66.0603 168.726 66.1123 168.934C66.1556 169.133 66.1383 169.328 66.0603 169.519C65.991 169.701 65.8436 169.814 65.6183 169.857C65.4883 169.883 65.3626 169.874 65.2413 169.831C65.1286 169.779 65.0246 169.71 64.9293 169.623C64.834 169.528 64.7473 169.428 64.6693 169.324C64.6 169.211 64.535 169.107 64.4743 169.012C64.275 169.272 64.0583 169.476 63.8243 169.623C63.5903 169.762 63.3086 169.853 62.9793 169.896C62.702 169.931 62.4376 169.939 62.1863 169.922C61.935 169.905 61.6663 169.857 61.3803 169.779C61.0076 169.684 60.7 169.519 60.4573 169.285C60.2233 169.042 60.0413 168.765 59.9113 168.453C59.79 168.132 59.725 167.79 59.7163 167.426C59.7076 167.062 59.751 166.702 59.8463 166.347C59.9676 165.879 60.1496 165.498 60.3923 165.203C60.635 164.908 60.9166 164.683 61.2373 164.527ZM61.5623 166.048C61.441 166.169 61.3456 166.312 61.2763 166.477C61.207 166.642 61.1636 166.815 61.1463 166.997C61.1376 167.179 61.155 167.361 61.1983 167.543C61.2416 167.725 61.311 167.885 61.4063 168.024C61.493 168.145 61.6403 168.249 61.8483 168.336C62.0563 168.414 62.273 168.462 62.4983 168.479C62.7583 168.496 62.9836 168.427 63.1743 168.271C63.3736 168.115 63.521 167.92 63.6163 167.686C63.7203 167.443 63.768 167.188 63.7593 166.919C63.7506 166.642 63.677 166.39 63.5383 166.165C63.4343 166 63.2956 165.879 63.1223 165.801C62.9576 165.723 62.78 165.684 62.5893 165.684C62.3986 165.675 62.208 165.706 62.0173 165.775C61.8353 165.836 61.6836 165.927 61.5623 166.048Z" fill="black"/>
<rect x="31" y="63" width="221" height="29" fill="white"/>
<rect x="31" y="118" width="221" height="29" fill="white"/>
<rect x="31" y="174" width="221" height="29" fill="white"/>
<rect x="76" y="245" width="137" height="70" rx="20" fill="url(#paint0_linear_139_3)" fill-opacity="0.98"/>
<path d="M131.103 302.199C131.198 302.312 131.246 302.429 131.246 302.55C131.246 302.602 131.241 302.658 131.233 302.719C131.233 302.771 131.228 302.819 131.22 302.862C131.194 302.957 131.137 303.048 131.051 303.135C130.981 303.187 130.886 303.226 130.765 303.252C130.704 303.269 130.643 303.282 130.583 303.291C130.522 303.3 130.457 303.313 130.388 303.33C130.327 303.339 130.266 303.343 130.206 303.343C130.145 303.343 130.08 303.343 130.011 303.343H129.348C129.192 303.352 129.036 303.356 128.88 303.356C128.732 303.356 128.585 303.356 128.438 303.356C128.446 303.625 128.451 303.915 128.451 304.227C128.451 304.53 128.446 304.886 128.438 305.293C128.438 305.7 128.433 306.173 128.425 306.71C128.425 307.247 128.425 307.871 128.425 308.582V309.57C128.425 309.657 128.429 309.722 128.438 309.765C128.438 309.8 128.438 309.834 128.438 309.869C128.438 309.895 128.433 309.93 128.425 309.973C128.407 310.051 128.394 310.142 128.386 310.246C128.386 310.289 128.381 310.333 128.373 310.376C128.364 310.411 128.351 310.45 128.334 310.493C128.299 310.528 128.282 310.554 128.282 310.571L128.243 310.649C128.199 310.736 128.117 310.818 127.996 310.896C127.805 310.991 127.593 311.013 127.359 310.961C127.211 310.944 127.099 310.905 127.021 310.844C126.943 310.766 126.886 310.688 126.852 310.61C126.8 310.515 126.769 310.424 126.761 310.337C126.735 310.259 126.722 310.177 126.722 310.09V303.408C126.67 303.408 126.561 303.408 126.397 303.408C126.232 303.408 126.054 303.408 125.864 303.408C125.682 303.399 125.508 303.391 125.344 303.382C125.179 303.373 125.066 303.365 125.006 303.356C124.954 303.347 124.871 303.334 124.759 303.317C124.655 303.3 124.568 303.282 124.499 303.265C124.317 303.213 124.174 303.131 124.07 303.018C123.974 302.905 123.927 302.78 123.927 302.641C123.927 302.589 123.927 302.537 123.927 302.485C123.927 302.433 123.935 302.385 123.953 302.342C123.979 302.238 124.048 302.151 124.161 302.082C124.195 302.056 124.247 302.026 124.317 301.991C124.395 301.948 124.468 301.917 124.538 301.9C124.642 301.865 124.772 301.839 124.928 301.822C124.997 301.813 125.066 301.809 125.136 301.809C125.205 301.809 125.279 301.809 125.357 301.809C125.66 301.809 125.946 301.809 126.215 301.809C126.492 301.809 126.782 301.805 127.086 301.796C127.588 301.787 128.087 301.787 128.581 301.796C129.083 301.796 129.582 301.805 130.076 301.822C130.188 301.831 130.297 301.844 130.401 301.861C130.505 301.878 130.609 301.909 130.713 301.952C130.791 301.978 130.864 302.013 130.934 302.056C131.003 302.091 131.059 302.138 131.103 302.199ZM132.265 305.527C132.525 305.397 132.798 305.306 133.084 305.254C133.37 305.193 133.652 305.18 133.929 305.215C134.215 305.241 134.488 305.315 134.748 305.436C135.008 305.549 135.251 305.713 135.476 305.93C135.701 306.155 135.875 306.402 135.996 306.671C136.117 306.94 136.204 307.239 136.256 307.568C136.291 307.793 136.347 308.001 136.425 308.192C136.503 308.383 136.585 308.573 136.672 308.764C136.767 308.955 136.854 309.145 136.932 309.336C137.019 309.527 137.088 309.726 137.14 309.934C137.183 310.133 137.166 310.328 137.088 310.519C137.019 310.701 136.871 310.814 136.646 310.857C136.516 310.883 136.39 310.874 136.269 310.831C136.156 310.779 136.052 310.71 135.957 310.623C135.862 310.528 135.775 310.428 135.697 310.324C135.628 310.211 135.563 310.107 135.502 310.012C135.303 310.272 135.086 310.476 134.852 310.623C134.618 310.762 134.336 310.853 134.007 310.896C133.73 310.931 133.465 310.939 133.214 310.922C132.963 310.905 132.694 310.857 132.408 310.779C132.035 310.684 131.728 310.519 131.485 310.285C131.251 310.042 131.069 309.765 130.939 309.453C130.818 309.132 130.753 308.79 130.744 308.426C130.735 308.062 130.779 307.702 130.874 307.347C130.995 306.879 131.177 306.498 131.42 306.203C131.663 305.908 131.944 305.683 132.265 305.527ZM132.59 307.048C132.469 307.169 132.373 307.312 132.304 307.477C132.235 307.642 132.191 307.815 132.174 307.997C132.165 308.179 132.183 308.361 132.226 308.543C132.269 308.725 132.339 308.885 132.434 309.024C132.521 309.145 132.668 309.249 132.876 309.336C133.084 309.414 133.301 309.462 133.526 309.479C133.786 309.496 134.011 309.427 134.202 309.271C134.401 309.115 134.549 308.92 134.644 308.686C134.748 308.443 134.796 308.188 134.787 307.919C134.778 307.642 134.705 307.39 134.566 307.165C134.462 307 134.323 306.879 134.15 306.801C133.985 306.723 133.808 306.684 133.617 306.684C133.426 306.675 133.236 306.706 133.045 306.775C132.863 306.836 132.711 306.927 132.59 307.048ZM145.268 307.971C145.285 308.248 145.294 308.513 145.294 308.764C145.294 309.007 145.285 309.267 145.268 309.544C145.268 309.648 145.268 309.765 145.268 309.895C145.268 310.025 145.259 310.151 145.242 310.272C145.224 310.393 145.194 310.506 145.151 310.61C145.107 310.714 145.042 310.796 144.956 310.857C144.852 310.926 144.735 310.974 144.605 311C144.475 311.017 144.353 311.009 144.241 310.974C144.128 310.939 144.028 310.874 143.942 310.779C143.864 310.684 143.82 310.549 143.812 310.376C143.786 309.977 143.773 309.579 143.773 309.18C143.773 308.981 143.768 308.79 143.76 308.608C143.76 308.426 143.764 308.17 143.773 307.841C143.773 307.676 143.76 307.49 143.734 307.282C143.708 307.065 143.643 306.914 143.539 306.827C143.461 306.758 143.374 306.719 143.279 306.71C143.183 306.693 143.088 306.701 142.993 306.736C142.906 306.771 142.828 306.836 142.759 306.931C142.689 307.018 142.642 307.13 142.616 307.269C142.616 307.382 142.611 307.499 142.603 307.62C142.603 307.733 142.607 307.841 142.616 307.945C142.624 308.222 142.629 308.487 142.629 308.738C142.629 308.981 142.624 309.241 142.616 309.518C142.607 309.631 142.603 309.752 142.603 309.882C142.611 310.012 142.611 310.142 142.603 310.272C142.594 310.393 142.568 310.506 142.525 310.61C142.49 310.714 142.425 310.796 142.33 310.857C142.226 310.926 142.113 310.97 141.992 310.987C141.879 310.996 141.771 310.978 141.667 310.935C141.571 310.883 141.485 310.805 141.407 310.701C141.337 310.597 141.298 310.458 141.29 310.285C141.272 310.086 141.259 309.904 141.251 309.739C141.251 309.566 141.251 309.384 141.251 309.193C141.251 308.994 141.255 308.79 141.264 308.582C141.272 308.365 141.268 308.157 141.251 307.958C141.251 307.897 141.246 307.828 141.238 307.75C141.238 307.663 141.233 307.577 141.225 307.49C141.225 307.403 141.216 307.321 141.199 307.243C141.19 307.156 141.173 307.087 141.147 307.035C141.077 306.914 140.952 306.836 140.77 306.801C140.596 306.766 140.449 306.779 140.328 306.84C140.206 306.901 140.115 306.979 140.055 307.074C139.994 307.169 139.951 307.273 139.925 307.386C139.899 307.499 139.886 307.62 139.886 307.75C139.886 307.871 139.886 307.988 139.886 308.101C139.886 308.664 139.886 309.154 139.886 309.57C139.894 309.977 139.851 310.307 139.756 310.558C139.712 310.688 139.621 310.788 139.483 310.857C139.353 310.926 139.21 310.961 139.054 310.961C138.906 310.961 138.768 310.926 138.638 310.857C138.508 310.788 138.421 310.679 138.378 310.532C138.352 310.437 138.326 310.302 138.3 310.129C138.282 309.947 138.269 309.748 138.261 309.531C138.252 309.314 138.248 309.098 138.248 308.881C138.248 308.656 138.248 308.452 138.248 308.27V306.398C138.239 306.199 138.235 305.982 138.235 305.748C138.235 305.514 138.269 305.302 138.339 305.111C138.399 304.946 138.495 304.842 138.625 304.799C138.755 304.747 138.889 304.725 139.028 304.734C139.184 304.734 139.305 304.777 139.392 304.864C139.487 304.942 139.556 305.042 139.6 305.163C139.643 305.276 139.669 305.406 139.678 305.553C139.686 305.692 139.695 305.826 139.704 305.956C139.799 305.739 139.912 305.562 140.042 305.423C140.18 305.276 140.375 305.18 140.627 305.137C141.268 305.016 141.779 305.18 142.161 305.631C142.334 305.458 142.555 305.315 142.824 305.202C143.032 305.124 143.244 305.089 143.461 305.098C143.677 305.098 143.881 305.137 144.072 305.215C144.271 305.293 144.449 305.406 144.605 305.553C144.769 305.7 144.899 305.878 144.995 306.086C145.125 306.363 145.198 306.671 145.216 307.009C145.233 307.347 145.25 307.668 145.268 307.971ZM146.36 302.784C146.377 302.472 146.473 302.221 146.646 302.03C146.828 301.839 147.084 301.787 147.413 301.874C147.569 301.917 147.682 301.982 147.751 302.069C147.829 302.156 147.881 302.26 147.907 302.381C147.942 302.494 147.959 302.619 147.959 302.758C147.959 302.888 147.959 303.018 147.959 303.148V304.942C147.95 305.011 147.946 305.081 147.946 305.15C147.955 305.211 147.959 305.267 147.959 305.319V305.488H148.284C148.379 305.488 148.47 305.488 148.557 305.488C148.652 305.488 148.735 305.484 148.804 305.475C149.281 305.475 149.688 305.544 150.026 305.683C150.373 305.822 150.65 306.017 150.858 306.268C151.075 306.511 151.231 306.805 151.326 307.152C151.43 307.49 151.478 307.863 151.469 308.27C151.46 308.755 151.382 309.171 151.235 309.518C151.088 309.865 150.88 310.151 150.611 310.376C150.342 310.601 150.017 310.77 149.636 310.883C149.263 310.987 148.843 311.039 148.375 311.039C147.838 311.039 147.43 311.035 147.153 311.026C146.876 311.017 146.676 310.939 146.555 310.792C146.442 310.645 146.382 310.389 146.373 310.025C146.364 309.661 146.36 309.128 146.36 308.426C146.36 307.75 146.36 307.083 146.36 306.424C146.369 305.765 146.369 305.102 146.36 304.435C146.36 304.348 146.356 304.257 146.347 304.162C146.347 304.067 146.347 303.958 146.347 303.837C146.347 303.716 146.347 303.573 146.347 303.408C146.347 303.235 146.351 303.027 146.36 302.784ZM148.791 309.583C149.268 309.557 149.597 309.427 149.779 309.193C149.874 309.063 149.948 308.907 150 308.725C150.052 308.543 150.074 308.361 150.065 308.179C150.056 307.997 150.017 307.824 149.948 307.659C149.887 307.486 149.788 307.343 149.649 307.23C149.528 307.126 149.406 307.052 149.285 307.009C149.164 306.957 149.038 306.927 148.908 306.918C148.778 306.901 148.639 306.896 148.492 306.905C148.345 306.905 148.176 306.909 147.985 306.918V308.478L147.959 309.557C148.046 309.566 148.137 309.574 148.232 309.583C148.397 309.6 148.583 309.6 148.791 309.583ZM154.038 305.527C154.298 305.397 154.571 305.306 154.857 305.254C155.143 305.193 155.424 305.18 155.702 305.215C155.988 305.241 156.261 305.315 156.521 305.436C156.781 305.549 157.023 305.713 157.249 305.93C157.474 306.155 157.647 306.402 157.769 306.671C157.89 306.94 157.977 307.239 158.029 307.568C158.063 307.793 158.12 308.001 158.198 308.192C158.276 308.383 158.358 308.573 158.445 308.764C158.54 308.955 158.627 309.145 158.705 309.336C158.791 309.527 158.861 309.726 158.913 309.934C158.956 310.133 158.939 310.328 158.861 310.519C158.791 310.701 158.644 310.814 158.419 310.857C158.289 310.883 158.163 310.874 158.042 310.831C157.929 310.779 157.825 310.71 157.73 310.623C157.634 310.528 157.548 310.428 157.47 310.324C157.4 310.211 157.335 310.107 157.275 310.012C157.075 310.272 156.859 310.476 156.625 310.623C156.391 310.762 156.109 310.853 155.78 310.896C155.502 310.931 155.238 310.939 154.987 310.922C154.735 310.905 154.467 310.857 154.181 310.779C153.808 310.684 153.5 310.519 153.258 310.285C153.024 310.042 152.842 309.765 152.712 309.453C152.59 309.132 152.525 308.79 152.517 308.426C152.508 308.062 152.551 307.702 152.647 307.347C152.768 306.879 152.95 306.498 153.193 306.203C153.435 305.908 153.717 305.683 154.038 305.527ZM154.363 307.048C154.241 307.169 154.146 307.312 154.077 307.477C154.007 307.642 153.964 307.815 153.947 307.997C153.938 308.179 153.955 308.361 153.999 308.543C154.042 308.725 154.111 308.885 154.207 309.024C154.293 309.145 154.441 309.249 154.649 309.336C154.857 309.414 155.073 309.462 155.299 309.479C155.559 309.496 155.784 309.427 155.975 309.271C156.174 309.115 156.321 308.92 156.417 308.686C156.521 308.443 156.568 308.188 156.56 307.919C156.551 307.642 156.477 307.39 156.339 307.165C156.235 307 156.096 306.879 155.923 306.801C155.758 306.723 155.58 306.684 155.39 306.684C155.199 306.675 155.008 306.706 154.818 306.775C154.636 306.836 154.484 306.927 154.363 307.048ZM165.064 308.439C165.073 308.612 165.077 308.794 165.077 308.985C165.077 309.167 165.073 309.336 165.064 309.492C165.055 309.726 165.042 309.943 165.025 310.142C165.008 310.333 164.973 310.497 164.921 310.636C164.869 310.766 164.787 310.866 164.674 310.935C164.57 310.996 164.423 311.013 164.232 310.987C164.033 310.961 163.89 310.866 163.803 310.701C163.716 310.536 163.656 310.35 163.621 310.142C163.595 309.925 163.586 309.709 163.595 309.492C163.604 309.275 163.604 309.106 163.595 308.985C163.586 308.794 163.578 308.578 163.569 308.335C163.569 308.084 163.543 307.85 163.491 307.633C163.448 307.408 163.37 307.217 163.257 307.061C163.144 306.905 162.975 306.823 162.75 306.814C162.464 306.797 162.243 306.818 162.087 306.879C161.94 306.94 161.831 307.031 161.762 307.152C161.693 307.265 161.649 307.403 161.632 307.568C161.623 307.733 161.606 307.91 161.58 308.101L161.567 308.608V309.557C161.567 309.713 161.563 309.878 161.554 310.051C161.554 310.216 161.528 310.367 161.476 310.506C161.424 310.645 161.342 310.762 161.229 310.857C161.125 310.952 160.969 311 160.761 311C160.501 311 160.306 310.918 160.176 310.753C160.055 310.58 159.994 310.367 159.994 310.116V302.641C159.994 302.589 159.994 302.541 159.994 302.498C160.003 302.446 160.011 302.394 160.02 302.342C160.037 302.29 160.05 302.242 160.059 302.199C160.068 302.147 160.081 302.099 160.098 302.056C160.124 301.969 160.167 301.904 160.228 301.861C160.271 301.818 160.315 301.783 160.358 301.757C160.401 301.731 160.449 301.714 160.501 301.705C160.544 301.696 160.592 301.692 160.644 301.692C160.696 301.683 160.748 301.679 160.8 301.679C160.93 301.679 161.056 301.718 161.177 301.796C161.229 301.831 161.277 301.87 161.32 301.913C161.363 301.948 161.398 302 161.424 302.069C161.493 302.234 161.528 302.39 161.528 302.537C161.537 302.58 161.541 302.645 161.541 302.732C161.55 302.81 161.554 302.892 161.554 302.979C161.554 303.066 161.554 303.152 161.554 303.239C161.563 303.317 161.567 303.378 161.567 303.421V303.486C161.576 303.763 161.58 304.045 161.58 304.331C161.58 304.617 161.58 304.907 161.58 305.202V305.423C161.944 305.302 162.325 305.245 162.724 305.254C163.123 305.254 163.478 305.332 163.79 305.488C164.111 305.653 164.353 305.839 164.518 306.047C164.691 306.255 164.817 306.485 164.895 306.736C164.973 306.987 165.016 307.256 165.025 307.542C165.042 307.828 165.055 308.127 165.064 308.439Z" fill="white"/>
<defs>
<linearGradient id="paint0_linear_139_3" x1="76" y1="281.207" x2="213.001" y2="281.127" gradientUnits="userSpaceOnUse">
<stop stop-color="#35AEFF"/>
</linearGradient>
</defs>
</svg>
