<svg width="290" height="340" viewBox="0 0 290 340" fill="none" xmlns="http://www.w3.org/2000/svg">
<rect width="290" height="340" rx="10" fill="#FCFCFC" fill-opacity="0.7"/>
<path d="M38.592 58.012C38.5833 58.1593 38.5617 58.3153 38.527 58.48C38.501 58.6447 38.4187 58.779 38.28 58.883C38.176 58.9697 38.059 59.0217 37.929 59.039C37.799 59.0563 37.669 59.0477 37.539 59.013C37.4177 58.987 37.3007 58.9437 37.188 58.883C37.0753 58.8137 36.9843 58.7313 36.915 58.636C36.6203 58.272 36.3473 57.8993 36.096 57.518C35.8533 57.128 35.6063 56.738 35.355 56.348L34.263 54.697C34.1157 54.463 33.9597 54.203 33.795 53.917C33.6303 53.6223 33.4613 53.3493 33.288 53.098L33.249 58.064V58.181C33.249 58.3197 33.223 58.4583 33.171 58.597C33.1277 58.727 33.0497 58.8397 32.937 58.935C32.8503 59.0043 32.7377 59.052 32.599 59.078C32.3823 59.1213 32.2003 59.1083 32.053 59.039C31.9143 58.9697 31.8017 58.8743 31.715 58.753C31.637 58.6317 31.5807 58.493 31.546 58.337C31.52 58.1723 31.5157 58.012 31.533 57.856V57.635L31.559 56.621L31.572 54.736C31.5807 54.4587 31.585 54.177 31.585 53.891C31.585 53.5963 31.585 53.2973 31.585 52.994C31.5763 52.6213 31.5763 52.227 31.585 51.811C31.6023 51.395 31.6197 51.005 31.637 50.641C31.6543 50.4417 31.702 50.2727 31.78 50.134C31.8147 50.0127 31.9057 49.9087 32.053 49.822C32.1483 49.7613 32.2697 49.7223 32.417 49.705C32.573 49.6877 32.7073 49.692 32.82 49.718C32.8633 49.7353 32.9067 49.757 32.95 49.783C32.9933 49.8003 33.0367 49.822 33.08 49.848C33.1233 49.8827 33.1623 49.9173 33.197 49.952C33.2403 49.9867 33.2793 50.0257 33.314 50.069C33.3573 50.1123 33.3963 50.16 33.431 50.212C33.4657 50.2553 33.5003 50.2987 33.535 50.342C33.561 50.394 33.587 50.4417 33.613 50.485C33.639 50.5283 33.6693 50.5717 33.704 50.615L33.847 50.823L36.85 55.555V54.697C36.85 54.4197 36.8457 54.138 36.837 53.852C36.837 53.5573 36.8327 53.254 36.824 52.942C36.824 52.578 36.824 52.188 36.824 51.772C36.8327 51.356 36.8457 50.966 36.863 50.602C36.863 50.4547 36.9063 50.2857 36.993 50.095C37.0363 49.9823 37.11 49.8913 37.214 49.822C37.318 49.7527 37.435 49.705 37.565 49.679C37.695 49.653 37.825 49.653 37.955 49.679C38.085 49.705 38.1977 49.757 38.293 49.835C38.319 49.861 38.345 49.8913 38.371 49.926C38.397 49.9607 38.4187 49.9997 38.436 50.043C38.4793 50.1557 38.5053 50.2553 38.514 50.342C38.54 50.4633 38.553 50.5717 38.553 50.667C38.553 51.7503 38.553 52.8553 38.553 53.982C38.5617 55.1087 38.5703 56.2137 38.579 57.297C38.579 57.4183 38.5833 57.5397 38.592 57.661C38.6007 57.7737 38.6007 57.8907 38.592 58.012ZM41.166 53.527C41.426 53.397 41.699 53.306 41.985 53.254C42.271 53.1933 42.5527 53.1803 42.83 53.215C43.116 53.241 43.389 53.3147 43.649 53.436C43.909 53.5487 44.1517 53.7133 44.377 53.93C44.6023 54.1553 44.7757 54.4023 44.897 54.671C45.0183 54.9397 45.105 55.2387 45.157 55.568C45.1917 55.7933 45.248 56.0013 45.326 56.192C45.404 56.3827 45.4863 56.5733 45.573 56.764C45.6683 56.9547 45.755 57.1453 45.833 57.336C45.9197 57.5267 45.989 57.726 46.041 57.934C46.0843 58.1333 46.067 58.3283 45.989 58.519C45.9197 58.701 45.7723 58.8137 45.547 58.857C45.417 58.883 45.2913 58.8743 45.17 58.831C45.0573 58.779 44.9533 58.7097 44.858 58.623C44.7627 58.5277 44.676 58.428 44.598 58.324C44.5287 58.2113 44.4637 58.1073 44.403 58.012C44.2037 58.272 43.987 58.4757 43.753 58.623C43.519 58.7617 43.2373 58.8527 42.908 58.896C42.6307 58.9307 42.3663 58.9393 42.115 58.922C41.8637 58.9047 41.595 58.857 41.309 58.779C40.9363 58.6837 40.6287 58.519 40.386 58.285C40.152 58.0423 39.97 57.765 39.84 57.453C39.7187 57.1323 39.6537 56.79 39.645 56.426C39.6363 56.062 39.6797 55.7023 39.775 55.347C39.8963 54.879 40.0783 54.4977 40.321 54.203C40.5637 53.9083 40.8453 53.683 41.166 53.527ZM41.491 55.048C41.3697 55.1693 41.2743 55.3123 41.205 55.477C41.1357 55.6417 41.0923 55.815 41.075 55.997C41.0663 56.179 41.0837 56.361 41.127 56.543C41.1703 56.725 41.2397 56.8853 41.335 57.024C41.4217 57.1453 41.569 57.2493 41.777 57.336C41.985 57.414 42.2017 57.4617 42.427 57.479C42.687 57.4963 42.9123 57.427 43.103 57.271C43.3023 57.115 43.4497 56.92 43.545 56.686C43.649 56.4433 43.6967 56.1877 43.688 55.919C43.6793 55.6417 43.6057 55.3903 43.467 55.165C43.363 55.0003 43.2243 54.879 43.051 54.801C42.8863 54.723 42.7087 54.684 42.518 54.684C42.3273 54.6753 42.1367 54.7057 41.946 54.775C41.764 54.8357 41.6123 54.9267 41.491 55.048ZM54.1685 55.971C54.1859 56.2483 54.1945 56.5127 54.1945 56.764C54.1945 57.0067 54.1859 57.2667 54.1685 57.544C54.1685 57.648 54.1685 57.765 54.1685 57.895C54.1685 58.025 54.1599 58.1507 54.1425 58.272C54.1252 58.3933 54.0949 58.506 54.0515 58.61C54.0082 58.714 53.9432 58.7963 53.8565 58.857C53.7525 58.9263 53.6355 58.974 53.5055 59C53.3755 59.0173 53.2542 59.0087 53.1415 58.974C53.0289 58.9393 52.9292 58.8743 52.8425 58.779C52.7645 58.6837 52.7212 58.5493 52.7125 58.376C52.6865 57.9773 52.6735 57.5787 52.6735 57.18C52.6735 56.9807 52.6692 56.79 52.6605 56.608C52.6605 56.426 52.6649 56.1703 52.6735 55.841C52.6735 55.6763 52.6605 55.49 52.6345 55.282C52.6085 55.0653 52.5435 54.9137 52.4395 54.827C52.3615 54.7577 52.2749 54.7187 52.1795 54.71C52.0842 54.6927 51.9889 54.7013 51.8935 54.736C51.8069 54.7707 51.7289 54.8357 51.6595 54.931C51.5902 55.0177 51.5425 55.1303 51.5165 55.269C51.5165 55.3817 51.5122 55.4987 51.5035 55.62C51.5035 55.7327 51.5079 55.841 51.5165 55.945C51.5252 56.2223 51.5295 56.4867 51.5295 56.738C51.5295 56.9807 51.5252 57.2407 51.5165 57.518C51.5079 57.6307 51.5035 57.752 51.5035 57.882C51.5122 58.012 51.5122 58.142 51.5035 58.272C51.4949 58.3933 51.4689 58.506 51.4255 58.61C51.3909 58.714 51.3259 58.7963 51.2305 58.857C51.1265 58.9263 51.0139 58.9697 50.8925 58.987C50.7799 58.9957 50.6715 58.9783 50.5675 58.935C50.4722 58.883 50.3855 58.805 50.3075 58.701C50.2382 58.597 50.1992 58.4583 50.1905 58.285C50.1732 58.0857 50.1602 57.9037 50.1515 57.739C50.1515 57.5657 50.1515 57.3837 50.1515 57.193C50.1515 56.9937 50.1559 56.79 50.1645 56.582C50.1732 56.3653 50.1689 56.1573 50.1515 55.958C50.1515 55.8973 50.1472 55.828 50.1385 55.75C50.1385 55.6633 50.1342 55.5767 50.1255 55.49C50.1255 55.4033 50.1169 55.321 50.0995 55.243C50.0909 55.1563 50.0735 55.087 50.0475 55.035C49.9782 54.9137 49.8525 54.8357 49.6705 54.801C49.4972 54.7663 49.3499 54.7793 49.2285 54.84C49.1072 54.9007 49.0162 54.9787 48.9555 55.074C48.8949 55.1693 48.8515 55.2733 48.8255 55.386C48.7995 55.4987 48.7865 55.62 48.7865 55.75C48.7865 55.8713 48.7865 55.9883 48.7865 56.101C48.7865 56.6643 48.7865 57.154 48.7865 57.57C48.7952 57.9773 48.7519 58.3067 48.6565 58.558C48.6132 58.688 48.5222 58.7877 48.3835 58.857C48.2535 58.9263 48.1105 58.961 47.9545 58.961C47.8072 58.961 47.6685 58.9263 47.5385 58.857C47.4085 58.7877 47.3219 58.6793 47.2785 58.532C47.2525 58.4367 47.2265 58.3023 47.2005 58.129C47.1832 57.947 47.1702 57.7477 47.1615 57.531C47.1529 57.3143 47.1485 57.0977 47.1485 56.881C47.1485 56.6557 47.1485 56.452 47.1485 56.27V54.398C47.1399 54.1987 47.1355 53.982 47.1355 53.748C47.1355 53.514 47.1702 53.3017 47.2395 53.111C47.3002 52.9463 47.3955 52.8423 47.5255 52.799C47.6555 52.747 47.7899 52.7253 47.9285 52.734C48.0845 52.734 48.2059 52.7773 48.2925 52.864C48.3879 52.942 48.4572 53.0417 48.5005 53.163C48.5439 53.2757 48.5699 53.4057 48.5785 53.553C48.5872 53.6917 48.5959 53.826 48.6045 53.956C48.6999 53.7393 48.8125 53.5617 48.9425 53.423C49.0812 53.2757 49.2762 53.1803 49.5275 53.137C50.1689 53.0157 50.6802 53.1803 51.0615 53.631C51.2349 53.4577 51.4559 53.3147 51.7245 53.202C51.9325 53.124 52.1449 53.0893 52.3615 53.098C52.5782 53.098 52.7819 53.137 52.9725 53.215C53.1719 53.293 53.3495 53.4057 53.5055 53.553C53.6702 53.7003 53.8002 53.878 53.8955 54.086C54.0255 54.3633 54.0992 54.671 54.1165 55.009C54.1339 55.347 54.1512 55.6677 54.1685 55.971ZM56.7558 53.527C57.0158 53.397 57.2888 53.306 57.5748 53.254C57.8608 53.1933 58.1425 53.1803 58.4198 53.215C58.7058 53.241 58.9788 53.3147 59.2388 53.436C59.4988 53.5487 59.7415 53.7133 59.9668 53.93C60.1922 54.1553 60.3655 54.4023 60.4868 54.671C60.6082 54.9397 60.6948 55.2387 60.7468 55.568C60.7815 55.7933 60.8378 56.0013 60.9158 56.192C60.9938 56.3827 61.0762 56.5733 61.1628 56.764C61.2582 56.9547 61.3448 57.1453 61.4228 57.336C61.5095 57.5267 61.5788 57.726 61.6308 57.934C61.6742 58.1333 61.6568 58.3283 61.5788 58.519C61.5095 58.701 61.3622 58.8137 61.1368 58.857C61.0068 58.883 60.8812 58.8743 60.7598 58.831C60.6472 58.779 60.5432 58.7097 60.4478 58.623C60.3525 58.5277 60.2658 58.428 60.1878 58.324C60.1185 58.2113 60.0535 58.1073 59.9928 58.012C59.7935 58.272 59.5768 58.4757 59.3428 58.623C59.1088 58.7617 58.8272 58.8527 58.4978 58.896C58.2205 58.9307 57.9562 58.9393 57.7048 58.922C57.4535 58.9047 57.1848 58.857 56.8988 58.779C56.5262 58.6837 56.2185 58.519 55.9758 58.285C55.7418 58.0423 55.5598 57.765 55.4298 57.453C55.3085 57.1323 55.2435 56.79 55.2348 56.426C55.2262 56.062 55.2695 55.7023 55.3648 55.347C55.4862 54.879 55.6682 54.4977 55.9108 54.203C56.1535 53.9083 56.4352 53.683 56.7558 53.527ZM57.0808 55.048C56.9595 55.1693 56.8642 55.3123 56.7948 55.477C56.7255 55.6417 56.6822 55.815 56.6648 55.997C56.6562 56.179 56.6735 56.361 56.7168 56.543C56.7602 56.725 56.8295 56.8853 56.9248 57.024C57.0115 57.1453 57.1588 57.2493 57.3668 57.336C57.5748 57.414 57.7915 57.4617 58.0168 57.479C58.2768 57.4963 58.5022 57.427 58.6928 57.271C58.8922 57.115 59.0395 56.92 59.1348 56.686C59.2388 56.4433 59.2865 56.1877 59.2778 55.919C59.2692 55.6417 59.1955 55.3903 59.0568 55.165C58.9528 55.0003 58.8142 54.879 58.6408 54.801C58.4762 54.723 58.2985 54.684 58.1078 54.684C57.9172 54.6753 57.7265 54.7057 57.5358 54.775C57.3538 54.8357 57.2022 54.9267 57.0808 55.048Z" fill="black"/>
<path d="M38.254 110.217C38.2973 110.338 38.3277 110.477 38.345 110.633C38.371 110.78 38.384 110.932 38.384 111.088C38.384 111.244 38.371 111.4 38.345 111.556C38.3277 111.703 38.3017 111.833 38.267 111.946C38.1283 112.431 37.851 112.839 37.435 113.168C37.019 113.489 36.5423 113.723 36.005 113.87C35.4763 114.017 34.926 114.069 34.354 114.026C33.7907 113.983 33.288 113.84 32.846 113.597C32.5687 113.441 32.3303 113.25 32.131 113.025C31.9317 112.8 31.7627 112.548 31.624 112.271C31.572 112.176 31.5373 112.067 31.52 111.946C31.5113 111.816 31.5243 111.695 31.559 111.582C31.5937 111.461 31.65 111.357 31.728 111.27C31.806 111.175 31.9143 111.11 32.053 111.075C32.1397 111.058 32.235 111.049 32.339 111.049C32.4517 111.049 32.56 111.066 32.664 111.101C32.768 111.127 32.8633 111.175 32.95 111.244C33.0367 111.305 33.106 111.391 33.158 111.504C33.2533 111.686 33.3877 111.855 33.561 112.011C33.743 112.158 33.9337 112.28 34.133 112.375C34.419 112.47 34.705 112.509 34.991 112.492C35.2857 112.475 35.55 112.41 35.784 112.297C36.0267 112.184 36.2217 112.033 36.369 111.842C36.5163 111.643 36.59 111.417 36.59 111.166C36.59 110.958 36.5597 110.789 36.499 110.659C36.4383 110.52 36.3517 110.408 36.239 110.321C36.135 110.226 36.005 110.148 35.849 110.087C35.7017 110.026 35.537 109.974 35.355 109.931C35.147 109.888 34.9347 109.857 34.718 109.84C34.51 109.823 34.2977 109.801 34.081 109.775C33.8643 109.749 33.652 109.714 33.444 109.671C33.236 109.628 33.0323 109.563 32.833 109.476C32.4343 109.311 32.131 109.06 31.923 108.722C31.715 108.384 31.5893 108.02 31.546 107.63C31.5113 107.24 31.559 106.854 31.689 106.473C31.819 106.083 32.027 105.749 32.313 105.472C32.5903 105.221 32.9197 105.043 33.301 104.939C33.691 104.826 34.12 104.761 34.588 104.744C34.848 104.735 35.108 104.744 35.368 104.77C35.6367 104.796 35.8923 104.839 36.135 104.9C36.3863 104.961 36.616 105.039 36.824 105.134C37.0407 105.229 37.227 105.342 37.383 105.472C37.4957 105.559 37.6083 105.676 37.721 105.823C37.8337 105.962 37.9203 106.113 37.981 106.278C38.0417 106.434 38.059 106.586 38.033 106.733C38.0157 106.88 37.9247 107.006 37.76 107.11C37.6213 107.197 37.487 107.236 37.357 107.227C37.2357 107.21 37.1187 107.171 37.006 107.11C36.8933 107.041 36.785 106.963 36.681 106.876C36.577 106.789 36.4817 106.711 36.395 106.642C36.161 106.469 35.8707 106.352 35.524 106.291C35.1773 106.23 34.8523 106.217 34.549 106.252C34.3583 106.278 34.1807 106.321 34.016 106.382C33.8513 106.443 33.7083 106.525 33.587 106.629C33.4743 106.733 33.3833 106.863 33.314 107.019C33.2533 107.166 33.2317 107.335 33.249 107.526C33.2577 107.665 33.2967 107.782 33.366 107.877C33.444 107.972 33.535 108.05 33.639 108.111C33.7517 108.172 33.873 108.219 34.003 108.254C34.133 108.289 34.263 108.315 34.393 108.332C34.783 108.384 35.173 108.423 35.563 108.449C35.953 108.475 36.3343 108.562 36.707 108.709C37.0883 108.856 37.4133 109.056 37.682 109.307C37.9507 109.558 38.1413 109.862 38.254 110.217ZM44.2819 108.267C44.3513 108.432 44.3556 108.614 44.2949 108.813C44.2429 109.012 44.1433 109.142 43.9959 109.203C43.9179 109.238 43.8139 109.268 43.6839 109.294C43.5539 109.311 43.4109 109.329 43.2549 109.346C43.1076 109.363 42.9603 109.376 42.8129 109.385C42.6656 109.394 42.5399 109.398 42.4359 109.398C42.4446 109.658 42.4533 109.927 42.4619 110.204C42.4706 110.473 42.4793 110.737 42.4879 110.997C42.4966 111.257 42.5009 111.508 42.5009 111.751C42.5009 111.985 42.4966 112.197 42.4879 112.388C42.4879 112.518 42.4879 112.67 42.4879 112.843C42.4879 113.008 42.4749 113.168 42.4489 113.324C42.4316 113.48 42.4013 113.619 42.3579 113.74C42.3146 113.853 42.2496 113.926 42.1629 113.961C41.8943 114.074 41.6473 114.104 41.4219 114.052C41.2053 114.009 41.0493 113.918 40.9539 113.779C40.8846 113.666 40.8326 113.536 40.7979 113.389C40.7633 113.233 40.7373 113.077 40.7199 112.921C40.7113 112.756 40.7069 112.6 40.7069 112.453C40.7156 112.297 40.7199 112.163 40.7199 112.05C40.7286 111.686 40.7329 111.274 40.7329 110.815C40.7416 110.347 40.7459 109.879 40.7459 109.411H40.5509C40.4469 109.411 40.3126 109.411 40.1479 109.411C39.9919 109.402 39.8316 109.389 39.6669 109.372C39.5109 109.346 39.3636 109.316 39.2249 109.281C39.0863 109.238 38.9866 109.177 38.9259 109.099C38.8306 108.986 38.7699 108.865 38.7439 108.735C38.7266 108.605 38.7353 108.484 38.7699 108.371C38.8133 108.25 38.8783 108.146 38.9649 108.059C39.0516 107.964 39.1513 107.903 39.2639 107.877C39.4199 107.834 39.6409 107.812 39.9269 107.812C40.2129 107.803 40.4816 107.803 40.7329 107.812C40.7243 107.725 40.7199 107.643 40.7199 107.565C40.7199 107.478 40.7156 107.396 40.7069 107.318C40.6983 107.214 40.6939 107.084 40.6939 106.928C40.6939 106.763 40.7026 106.603 40.7199 106.447C40.7459 106.282 40.7849 106.131 40.8369 105.992C40.8889 105.845 40.9626 105.732 41.0579 105.654C41.1879 105.55 41.3179 105.494 41.4479 105.485C41.5866 105.468 41.7123 105.485 41.8249 105.537C41.9463 105.589 42.0459 105.667 42.1239 105.771C42.2106 105.866 42.2713 105.975 42.3059 106.096C42.3319 106.2 42.3536 106.326 42.3709 106.473C42.3883 106.612 42.3969 106.759 42.3969 106.915C42.4056 107.071 42.4099 107.227 42.4099 107.383C42.4099 107.539 42.4099 107.682 42.4099 107.812H42.5399C42.6699 107.812 42.8216 107.808 42.9949 107.799C43.1683 107.79 43.3373 107.795 43.5019 107.812C43.6753 107.829 43.8313 107.873 43.9699 107.942C44.1086 108.003 44.2126 108.111 44.2819 108.267ZM46.362 108.124C46.648 107.985 46.947 107.886 47.259 107.825C47.571 107.764 47.8787 107.751 48.182 107.786C48.494 107.821 48.793 107.903 49.079 108.033C49.3737 108.163 49.6424 108.345 49.885 108.579C50.0844 108.778 50.2577 109.021 50.405 109.307C50.5524 109.584 50.6607 109.857 50.73 110.126C50.8774 110.603 50.899 111.084 50.795 111.569C50.691 112.054 50.5134 112.505 50.262 112.921C50.1407 113.112 49.989 113.285 49.807 113.441C49.6337 113.588 49.4474 113.71 49.248 113.805C48.988 113.926 48.7064 114.009 48.403 114.052C48.0997 114.104 47.805 114.117 47.519 114.091C46.999 114.065 46.5397 113.935 46.141 113.701C45.751 113.467 45.4347 113.168 45.192 112.804C44.958 112.44 44.802 112.028 44.724 111.569C44.6547 111.101 44.685 110.624 44.815 110.139C44.9537 109.619 45.153 109.199 45.413 108.878C45.6817 108.549 45.998 108.297 46.362 108.124ZM46.752 109.866C46.622 109.987 46.5224 110.139 46.453 110.321C46.3837 110.503 46.3404 110.694 46.323 110.893C46.3057 111.084 46.3187 111.279 46.362 111.478C46.414 111.669 46.492 111.842 46.596 111.998C46.6827 112.128 46.8387 112.236 47.064 112.323C47.2894 112.41 47.5234 112.462 47.766 112.479C48.0434 112.496 48.286 112.423 48.494 112.258C48.702 112.085 48.858 111.872 48.962 111.621C49.0747 111.37 49.1267 111.097 49.118 110.802C49.1094 110.507 49.0314 110.239 48.884 109.996C48.78 109.823 48.6327 109.697 48.442 109.619C48.26 109.532 48.065 109.489 47.857 109.489C47.6577 109.48 47.4584 109.511 47.259 109.58C47.0597 109.641 46.8907 109.736 46.752 109.866ZM54.483 111.01C54.6736 111.209 54.8123 111.357 54.899 111.452C54.9943 111.539 55.0593 111.604 55.094 111.647C55.1373 111.69 55.1676 111.716 55.185 111.725C55.2023 111.734 55.2326 111.76 55.276 111.803C55.3193 111.846 55.3886 111.916 55.484 112.011C55.5793 112.098 55.7223 112.241 55.913 112.44C56.069 112.596 56.1946 112.778 56.29 112.986C56.394 113.185 56.3853 113.402 56.264 113.636C56.1946 113.757 56.1166 113.844 56.03 113.896C55.9433 113.939 55.848 113.957 55.744 113.948C55.6486 113.939 55.5446 113.909 55.432 113.857C55.328 113.805 55.224 113.74 55.12 113.662C54.9206 113.515 54.73 113.346 54.548 113.155C54.366 112.956 54.2186 112.804 54.106 112.7C54.028 112.622 53.9803 112.57 53.963 112.544C53.9456 112.527 53.9283 112.514 53.911 112.505C53.8936 112.488 53.8763 112.47 53.859 112.453C53.7983 112.392 53.7333 112.332 53.664 112.271C53.5946 112.21 53.5253 112.145 53.456 112.076V112.583C53.456 112.678 53.4603 112.748 53.469 112.791C53.469 112.878 53.4646 112.943 53.456 112.986C53.43 113.081 53.417 113.172 53.417 113.259C53.4083 113.302 53.3996 113.346 53.391 113.389C53.3823 113.424 53.3693 113.463 53.352 113.506C53.3433 113.523 53.3346 113.536 53.326 113.545C53.326 113.554 53.326 113.567 53.326 113.584C53.3173 113.601 53.3086 113.614 53.3 113.623C53.3 113.632 53.2956 113.645 53.287 113.662C53.2436 113.749 53.1743 113.831 53.079 113.909C52.9143 114.004 52.7106 114.03 52.468 113.987C52.338 113.961 52.2383 113.913 52.169 113.844C52.091 113.792 52.039 113.718 52.013 113.623C51.9956 113.58 51.9783 113.536 51.961 113.493C51.9523 113.441 51.9393 113.393 51.922 113.35C51.9046 113.307 51.896 113.268 51.896 113.233C51.896 113.19 51.896 113.155 51.896 113.129V105.732C51.896 105.68 51.896 105.628 51.896 105.576C51.896 105.524 51.9003 105.472 51.909 105.42C51.9176 105.368 51.9263 105.32 51.935 105.277C51.9523 105.225 51.9696 105.177 51.987 105.134C52.0216 105.047 52.065 104.978 52.117 104.926C52.1603 104.883 52.2036 104.852 52.247 104.835C52.299 104.809 52.3466 104.787 52.39 104.77C52.4333 104.761 52.481 104.757 52.533 104.757C52.5936 104.748 52.65 104.744 52.702 104.744C52.8233 104.744 52.9446 104.779 53.066 104.848C53.1786 104.926 53.261 105.026 53.313 105.147C53.3823 105.312 53.417 105.472 53.417 105.628C53.4256 105.715 53.4343 105.849 53.443 106.031C53.4516 106.204 53.456 106.334 53.456 106.421V106.473C53.4646 106.759 53.469 107.032 53.469 107.292C53.469 107.552 53.469 107.834 53.469 108.137C53.4603 108.44 53.456 108.731 53.456 109.008C53.456 109.277 53.456 109.545 53.456 109.814V109.957C53.5253 109.888 53.5946 109.823 53.664 109.762C53.7333 109.701 53.7983 109.636 53.859 109.567C53.8936 109.541 53.9283 109.511 53.963 109.476L54.106 109.333C54.2186 109.22 54.366 109.069 54.548 108.878C54.73 108.679 54.9206 108.505 55.12 108.358C55.3366 108.202 55.5446 108.107 55.744 108.072C55.952 108.037 56.1253 108.141 56.264 108.384C56.3853 108.618 56.394 108.839 56.29 109.047C56.1946 109.246 56.069 109.433 55.913 109.606C55.7223 109.805 55.5793 109.953 55.484 110.048C55.3886 110.135 55.3193 110.2 55.276 110.243C55.2326 110.278 55.2023 110.299 55.185 110.308C55.1676 110.317 55.1373 110.343 55.094 110.386C55.0593 110.421 54.9943 110.486 54.899 110.581C54.8123 110.668 54.6736 110.811 54.483 111.01Z" fill="black"/>
<path d="M38.384 161.433C38.3927 161.494 38.397 161.55 38.397 161.602C38.397 161.654 38.397 161.706 38.397 161.758V162.291L38.319 169.038V169.168C38.319 169.22 38.306 169.298 38.28 169.402C38.2713 169.445 38.2583 169.493 38.241 169.545C38.2237 169.588 38.2063 169.636 38.189 169.688C38.1457 169.792 38.085 169.87 38.007 169.922C37.9377 169.991 37.825 170.039 37.669 170.065C37.4263 170.117 37.2053 170.095 37.006 170C36.8933 169.931 36.8153 169.844 36.772 169.74C36.7547 169.723 36.7373 169.697 36.72 169.662C36.72 169.645 36.7113 169.619 36.694 169.584C36.6767 169.541 36.6637 169.497 36.655 169.454C36.6463 169.402 36.6377 169.35 36.629 169.298C36.629 169.255 36.6247 169.211 36.616 169.168C36.616 169.125 36.6117 169.081 36.603 169.038C36.5857 168.995 36.577 168.96 36.577 168.934C36.577 168.899 36.577 168.86 36.577 168.817C36.5943 168.782 36.603 168.717 36.603 168.622L36.616 167.595L36.629 165.957H35.927L33.288 165.97L33.262 169.038V169.168C33.262 169.22 33.249 169.298 33.223 169.402C33.2143 169.445 33.2013 169.493 33.184 169.545C33.1667 169.588 33.1493 169.636 33.132 169.688C33.0887 169.792 33.028 169.87 32.95 169.922C32.8807 169.991 32.768 170.039 32.612 170.065C32.3693 170.117 32.1483 170.095 31.949 170C31.8623 169.948 31.78 169.861 31.702 169.74C31.6847 169.705 31.676 169.679 31.676 169.662L31.637 169.584C31.6197 169.541 31.6067 169.497 31.598 169.454C31.5893 169.402 31.5807 169.35 31.572 169.298C31.572 169.255 31.5677 169.211 31.559 169.168C31.5503 169.125 31.5417 169.081 31.533 169.038C31.5243 168.969 31.5243 168.895 31.533 168.817V168.622L31.546 167.595L31.572 165.684C31.5807 165.407 31.585 165.121 31.585 164.826C31.585 164.531 31.585 164.228 31.585 163.916C31.5763 163.604 31.572 163.327 31.572 163.084C31.5807 162.841 31.5937 162.568 31.611 162.265V162.213C31.6197 162.126 31.624 162.04 31.624 161.953C31.624 161.858 31.6283 161.762 31.637 161.667C31.6457 161.58 31.6587 161.498 31.676 161.42C31.702 161.333 31.7367 161.247 31.78 161.16C31.806 161.091 31.8407 161.034 31.884 160.991C31.9273 160.939 31.9793 160.891 32.04 160.848C32.1787 160.779 32.3173 160.744 32.456 160.744C32.5253 160.744 32.586 160.748 32.638 160.757C32.69 160.757 32.742 160.761 32.794 160.77C32.898 160.779 32.9977 160.831 33.093 160.926C33.1623 160.987 33.21 161.056 33.236 161.134C33.2793 161.247 33.3053 161.346 33.314 161.433C33.3227 161.494 33.327 161.55 33.327 161.602C33.327 161.654 33.327 161.706 33.327 161.758V162.291L33.301 164.436C33.3703 164.436 33.4483 164.436 33.535 164.436C33.6303 164.436 33.7387 164.432 33.86 164.423C34.3107 164.423 34.757 164.427 35.199 164.436C35.6497 164.445 36.122 164.449 36.616 164.449H36.629C36.629 164.059 36.629 163.686 36.629 163.331C36.6377 162.976 36.6507 162.603 36.668 162.213C36.668 162.126 36.668 162.04 36.668 161.953C36.6767 161.858 36.6853 161.762 36.694 161.667C36.7027 161.58 36.7157 161.498 36.733 161.42C36.759 161.333 36.7937 161.247 36.837 161.16C36.8543 161.091 36.8847 161.034 36.928 160.991C36.98 160.939 37.0407 160.891 37.11 160.848C37.2313 160.779 37.3657 160.744 37.513 160.744C37.5823 160.744 37.643 160.748 37.695 160.757C37.7557 160.757 37.8077 160.761 37.851 160.77C37.9723 160.787 38.072 160.839 38.15 160.926C38.2193 160.969 38.267 161.039 38.293 161.134C38.3103 161.186 38.3233 161.238 38.332 161.29C38.3493 161.333 38.3667 161.381 38.384 161.433ZM40.9629 164.527C41.2229 164.397 41.4959 164.306 41.7819 164.254C42.0679 164.193 42.3495 164.18 42.6269 164.215C42.9129 164.241 43.1859 164.315 43.4459 164.436C43.7059 164.549 43.9485 164.713 44.1739 164.93C44.3992 165.155 44.5725 165.402 44.6939 165.671C44.8152 165.94 44.9019 166.239 44.9539 166.568C44.9885 166.793 45.0449 167.001 45.1229 167.192C45.2009 167.383 45.2832 167.573 45.3699 167.764C45.4652 167.955 45.5519 168.145 45.6299 168.336C45.7165 168.527 45.7859 168.726 45.8379 168.934C45.8812 169.133 45.8639 169.328 45.7859 169.519C45.7165 169.701 45.5692 169.814 45.3439 169.857C45.2139 169.883 45.0882 169.874 44.9669 169.831C44.8542 169.779 44.7502 169.71 44.6549 169.623C44.5595 169.528 44.4729 169.428 44.3949 169.324C44.3255 169.211 44.2605 169.107 44.1999 169.012C44.0005 169.272 43.7839 169.476 43.5499 169.623C43.3159 169.762 43.0342 169.853 42.7049 169.896C42.4275 169.931 42.1632 169.939 41.9119 169.922C41.6605 169.905 41.3919 169.857 41.1059 169.779C40.7332 169.684 40.4255 169.519 40.1829 169.285C39.9489 169.042 39.7669 168.765 39.6369 168.453C39.5155 168.132 39.4505 167.79 39.4419 167.426C39.4332 167.062 39.4765 166.702 39.5719 166.347C39.6932 165.879 39.8752 165.498 40.1179 165.203C40.3605 164.908 40.6422 164.683 40.9629 164.527ZM41.2879 166.048C41.1665 166.169 41.0712 166.312 41.0019 166.477C40.9325 166.642 40.8892 166.815 40.8719 166.997C40.8632 167.179 40.8805 167.361 40.9239 167.543C40.9672 167.725 41.0365 167.885 41.1319 168.024C41.2185 168.145 41.3659 168.249 41.5739 168.336C41.7819 168.414 41.9985 168.462 42.2239 168.479C42.4839 168.496 42.7092 168.427 42.8999 168.271C43.0992 168.115 43.2465 167.92 43.3419 167.686C43.4459 167.443 43.4935 167.188 43.4849 166.919C43.4762 166.642 43.4025 166.39 43.2639 166.165C43.1599 166 43.0212 165.879 42.8479 165.801C42.6832 165.723 42.5055 165.684 42.3149 165.684C42.1242 165.675 41.9335 165.706 41.7429 165.775C41.5609 165.836 41.4092 165.927 41.2879 166.048ZM46.9324 165.398C46.9324 165.294 46.9324 165.177 46.9324 165.047C46.9324 164.908 46.9367 164.77 46.9454 164.631C46.9541 164.484 46.9671 164.345 46.9844 164.215C47.0104 164.076 47.0451 163.955 47.0884 163.851C47.1577 163.695 47.2661 163.591 47.4134 163.539C47.5607 163.478 47.7211 163.452 47.8944 163.461C48.0764 163.461 48.2194 163.491 48.3234 163.552C48.4274 163.613 48.5054 163.695 48.5574 163.799C48.6094 163.894 48.6397 164.007 48.6484 164.137C48.6657 164.258 48.6744 164.388 48.6744 164.527C48.7524 164.388 48.8564 164.276 48.9864 164.189C49.1251 164.102 49.2637 164.033 49.4024 163.981C49.5411 163.929 49.6667 163.894 49.7794 163.877C49.8921 163.851 49.9571 163.838 49.9744 163.838C50.1911 163.821 50.3861 163.816 50.5594 163.825C50.7414 163.834 50.9407 163.873 51.1574 163.942C51.2961 163.994 51.4391 164.068 51.5864 164.163C51.7337 164.25 51.8637 164.354 51.9764 164.475C52.0891 164.596 52.1627 164.731 52.1974 164.878C52.2407 165.017 52.2234 165.164 52.1454 165.32C52.0241 165.537 51.8897 165.645 51.7424 165.645C51.5951 165.636 51.4347 165.61 51.2614 165.567C51.1661 165.55 51.0534 165.511 50.9234 165.45C50.7934 165.389 50.6807 165.35 50.5854 165.333C50.2907 165.29 50.0307 165.311 49.8054 165.398C49.5801 165.485 49.3851 165.589 49.2204 165.71C49.0297 165.857 48.8651 166.026 48.7264 166.217V168.089C48.7264 168.323 48.7221 168.566 48.7134 168.817C48.7134 169.068 48.6787 169.298 48.6094 169.506C48.5487 169.705 48.4404 169.87 48.2844 170C48.1371 170.121 47.9204 170.173 47.6344 170.156C47.4784 170.147 47.3397 170.074 47.2184 169.935C47.0971 169.788 47.0234 169.645 46.9974 169.506C46.9801 169.376 46.9671 169.22 46.9584 169.038C46.9497 168.856 46.9411 168.665 46.9324 168.466C46.9324 168.267 46.9324 168.067 46.9324 167.868C46.9324 167.66 46.9324 167.469 46.9324 167.296V165.398ZM58.6621 167.543C58.6621 167.82 58.6534 168.119 58.6361 168.44C58.6274 168.761 58.6144 169.06 58.5971 169.337C58.5971 169.597 58.5841 169.857 58.5581 170.117C58.5407 170.342 58.5061 170.585 58.4541 170.845C58.4021 171.114 58.3284 171.361 58.2331 171.586C58.1117 171.881 57.9471 172.132 57.7391 172.34C57.5311 172.557 57.2624 172.713 56.9331 172.808C56.6557 172.877 56.3957 172.921 56.1531 172.938C55.9104 172.964 55.6504 172.96 55.3731 172.925C55.1911 172.899 54.9961 172.847 54.7881 172.769C54.5801 172.7 54.3851 172.609 54.2031 172.496C54.0211 172.383 53.8607 172.249 53.7221 172.093C53.5834 171.946 53.4881 171.777 53.4361 171.586C53.3754 171.352 53.3711 171.148 53.4231 170.975C53.4837 170.802 53.5747 170.676 53.6961 170.598C53.8174 170.52 53.9604 170.507 54.1251 170.559C54.2897 170.611 54.4457 170.745 54.5931 170.962C54.6971 171.118 54.8487 171.244 55.0481 171.339C55.2474 171.434 55.4597 171.491 55.6851 171.508C55.9104 171.525 56.1271 171.495 56.3351 171.417C56.5517 171.348 56.7207 171.222 56.8421 171.04C56.9287 170.91 56.9894 170.724 57.0241 170.481C57.0674 170.238 57.0934 170 57.1021 169.766C56.6601 169.948 56.2051 170.017 55.7371 169.974C55.2777 169.922 54.8574 169.779 54.4761 169.545C54.1034 169.302 53.8001 168.982 53.5661 168.583C53.3407 168.176 53.2454 167.716 53.2801 167.205C53.3061 166.763 53.3971 166.347 53.5531 165.957C53.7177 165.567 53.9864 165.242 54.3591 164.982C54.6624 164.774 55.0047 164.64 55.3861 164.579C55.7674 164.51 56.1357 164.475 56.4911 164.475C56.6991 164.475 56.9027 164.475 57.1021 164.475C57.3101 164.475 57.5007 164.501 57.6741 164.553C57.8474 164.605 58.0034 164.692 58.1421 164.813C58.2807 164.934 58.3847 165.112 58.4541 165.346C58.5667 165.71 58.6274 166.07 58.6361 166.425C58.6534 166.78 58.6621 167.153 58.6621 167.543ZM56.1531 168.622C56.2397 168.622 56.3221 168.613 56.4001 168.596C56.4867 168.579 56.5691 168.557 56.6471 168.531C56.7944 168.479 56.9027 168.41 56.9721 168.323C57.0501 168.236 57.1021 168.141 57.1281 168.037C57.1541 167.924 57.1627 167.803 57.1541 167.673C57.1541 167.543 57.1541 167.409 57.1541 167.27C57.1541 167.157 57.1497 167.032 57.1411 166.893C57.1411 166.754 57.1324 166.624 57.1151 166.503C57.0977 166.373 57.0717 166.26 57.0371 166.165C57.0024 166.07 56.9504 166.009 56.8811 165.983C56.7597 165.948 56.6211 165.927 56.4651 165.918C56.3091 165.901 56.1531 165.901 55.9971 165.918C55.8411 165.927 55.6894 165.957 55.5421 166.009C55.4034 166.052 55.2864 166.113 55.1911 166.191C55.0611 166.304 54.9614 166.442 54.8921 166.607C54.8227 166.772 54.7794 166.945 54.7621 167.127C54.7534 167.309 54.7664 167.487 54.8011 167.66C54.8444 167.833 54.9181 167.989 55.0221 168.128C55.1434 168.301 55.3081 168.427 55.5161 168.505C55.7241 168.583 55.9364 168.622 56.1531 168.622ZM61.2373 164.527C61.4973 164.397 61.7703 164.306 62.0563 164.254C62.3423 164.193 62.624 164.18 62.9013 164.215C63.1873 164.241 63.4603 164.315 63.7203 164.436C63.9803 164.549 64.223 164.713 64.4483 164.93C64.6736 165.155 64.847 165.402 64.9683 165.671C65.0896 165.94 65.1763 166.239 65.2283 166.568C65.263 166.793 65.3193 167.001 65.3973 167.192C65.4753 167.383 65.5576 167.573 65.6443 167.764C65.7396 167.955 65.8263 168.145 65.9043 168.336C65.991 168.527 66.0603 168.726 66.1123 168.934C66.1556 169.133 66.1383 169.328 66.0603 169.519C65.991 169.701 65.8436 169.814 65.6183 169.857C65.4883 169.883 65.3626 169.874 65.2413 169.831C65.1286 169.779 65.0246 169.71 64.9293 169.623C64.834 169.528 64.7473 169.428 64.6693 169.324C64.6 169.211 64.535 169.107 64.4743 169.012C64.275 169.272 64.0583 169.476 63.8243 169.623C63.5903 169.762 63.3086 169.853 62.9793 169.896C62.702 169.931 62.4376 169.939 62.1863 169.922C61.935 169.905 61.6663 169.857 61.3803 169.779C61.0076 169.684 60.7 169.519 60.4573 169.285C60.2233 169.042 60.0413 168.765 59.9113 168.453C59.79 168.132 59.725 167.79 59.7163 167.426C59.7076 167.062 59.751 166.702 59.8463 166.347C59.9676 165.879 60.1496 165.498 60.3923 165.203C60.635 164.908 60.9166 164.683 61.2373 164.527ZM61.5623 166.048C61.441 166.169 61.3456 166.312 61.2763 166.477C61.207 166.642 61.1636 166.815 61.1463 166.997C61.1376 167.179 61.155 167.361 61.1983 167.543C61.2416 167.725 61.311 167.885 61.4063 168.024C61.493 168.145 61.6403 168.249 61.8483 168.336C62.0563 168.414 62.273 168.462 62.4983 168.479C62.7583 168.496 62.9836 168.427 63.1743 168.271C63.3736 168.115 63.521 167.92 63.6163 167.686C63.7203 167.443 63.768 167.188 63.7593 166.919C63.7506 166.642 63.677 166.39 63.5383 166.165C63.4343 166 63.2956 165.879 63.1223 165.801C62.9576 165.723 62.78 165.684 62.5893 165.684C62.3986 165.675 62.208 165.706 62.0173 165.775C61.8353 165.836 61.6836 165.927 61.5623 166.048Z" fill="black"/>
<rect x="31" y="63" width="221" height="29" fill="white"/>
<rect x="31" y="118" width="221" height="29" fill="white"/>
<rect x="31" y="174" width="221" height="29" fill="white"/>
<rect x="76" y="245" width="137" height="70" rx="20" fill="url(#paint0_linear_139_3)" fill-opacity="0.98"/>
<path d="M135.445 303.356L135.419 305.397H135.939C136.294 305.388 136.611 305.384 136.888 305.384C137.165 305.384 137.473 305.388 137.811 305.397H137.876C137.98 305.397 138.08 305.401 138.175 305.41C138.279 305.41 138.379 305.41 138.474 305.41C138.578 305.419 138.678 305.436 138.773 305.462C138.868 305.479 138.964 305.501 139.059 305.527C139.206 305.579 139.328 305.657 139.423 305.761C139.51 305.874 139.553 305.999 139.553 306.138C139.553 306.181 139.553 306.233 139.553 306.294C139.553 306.346 139.544 306.394 139.527 306.437C139.51 306.532 139.453 306.619 139.358 306.697C139.315 306.758 139.232 306.801 139.111 306.827C138.998 306.862 138.886 306.883 138.773 306.892C138.652 306.918 138.53 306.931 138.409 306.931H137.798L135.393 306.944L135.367 309.492L137.954 309.518H138.565C138.634 309.518 138.699 309.518 138.76 309.518C138.821 309.518 138.877 309.522 138.929 309.531C138.998 309.548 139.059 309.561 139.111 309.57C139.172 309.57 139.228 309.579 139.28 309.596C139.384 309.631 139.471 309.678 139.54 309.739C139.627 309.826 139.683 309.917 139.709 310.012C139.718 310.055 139.722 310.103 139.722 310.155C139.731 310.198 139.731 310.246 139.722 310.298C139.722 310.437 139.679 310.562 139.592 310.675C139.488 310.796 139.367 310.874 139.228 310.909C139.046 310.987 138.847 311.026 138.63 311.026C138.535 311.035 138.435 311.039 138.331 311.039C138.227 311.039 138.127 311.043 138.032 311.052H137.954C137.278 311.069 136.576 311.069 135.848 311.052C135.675 311.052 135.536 311.048 135.432 311.039C135.328 311.039 135.233 311.039 135.146 311.039C135.068 311.039 134.986 311.039 134.899 311.039C134.812 311.039 134.7 311.039 134.561 311.039C134.362 311.056 134.197 311.022 134.067 310.935C133.972 310.874 133.898 310.792 133.846 310.688C133.82 310.662 133.807 310.636 133.807 310.61C133.798 310.593 133.79 310.58 133.781 310.571C133.772 310.562 133.764 310.549 133.755 310.532C133.738 310.489 133.725 310.445 133.716 310.402C133.707 310.35 133.703 310.302 133.703 310.259C133.694 310.216 133.686 310.172 133.677 310.129C133.677 310.086 133.673 310.042 133.664 309.999V309.791C133.664 309.756 133.664 309.722 133.664 309.687C133.673 309.652 133.677 309.618 133.677 309.583V308.569L133.703 306.697V304.968C133.703 304.656 133.703 304.379 133.703 304.136C133.712 303.893 133.72 303.629 133.729 303.343V303.278C133.738 303.183 133.742 303.096 133.742 303.018C133.751 302.931 133.755 302.845 133.755 302.758C133.764 302.585 133.811 302.416 133.898 302.251C133.933 302.182 133.967 302.121 134.002 302.069C134.045 302.017 134.102 301.974 134.171 301.939C134.301 301.861 134.435 301.822 134.574 301.822C134.643 301.822 134.695 301.826 134.73 301.835V301.822C134.886 301.822 135.012 301.822 135.107 301.822C135.202 301.822 135.293 301.822 135.38 301.822C135.475 301.822 135.575 301.822 135.679 301.822C135.783 301.813 135.926 301.809 136.108 301.809C136.455 301.8 136.784 301.796 137.096 301.796C137.408 301.796 137.729 301.8 138.058 301.809H138.11C138.205 301.818 138.305 301.822 138.409 301.822C138.513 301.822 138.613 301.826 138.708 301.835C138.803 301.835 138.899 301.848 138.994 301.874C139.089 301.891 139.185 301.917 139.28 301.952C139.427 301.995 139.549 302.069 139.644 302.173C139.722 302.294 139.761 302.416 139.761 302.537C139.761 302.589 139.761 302.641 139.761 302.693C139.761 302.736 139.752 302.78 139.735 302.823C139.726 302.91 139.674 303.001 139.579 303.096C139.544 303.113 139.505 303.135 139.462 303.161C139.427 303.187 139.384 303.209 139.332 303.226C139.28 303.243 139.224 303.256 139.163 303.265C139.111 303.265 139.059 303.269 139.007 303.278C138.938 303.295 138.873 303.304 138.812 303.304C138.76 303.304 138.699 303.304 138.63 303.304H138.045L135.445 303.317V303.356ZM144.855 301.913C145.019 301.87 145.162 301.865 145.284 301.9C145.414 301.926 145.522 301.982 145.609 302.069C145.704 302.156 145.773 302.264 145.817 302.394C145.869 302.524 145.895 302.667 145.895 302.823C145.903 303.256 145.903 303.594 145.895 303.837C145.895 304.08 145.895 304.292 145.895 304.474V308.465C145.895 308.933 145.895 309.323 145.895 309.635C145.895 309.947 145.877 310.203 145.843 310.402C145.817 310.593 145.765 310.736 145.687 310.831C145.617 310.926 145.509 310.991 145.362 311.026C145.214 311.069 145.019 311.091 144.777 311.091C144.543 311.091 144.248 311.091 143.893 311.091C142.957 311.091 142.216 310.87 141.67 310.428C141.132 309.986 140.846 309.284 140.812 308.322C140.794 307.906 140.846 307.525 140.968 307.178C141.089 306.831 141.267 306.537 141.501 306.294C141.743 306.043 142.038 305.852 142.385 305.722C142.74 305.583 143.143 305.518 143.594 305.527H144.309V303.2C144.309 303.061 144.309 302.927 144.309 302.797C144.309 302.658 144.322 302.533 144.348 302.42C144.374 302.299 144.426 302.195 144.504 302.108C144.582 302.021 144.699 301.956 144.855 301.913ZM142.593 309.128C142.775 309.379 143.104 309.518 143.581 309.544C143.676 309.553 143.767 309.557 143.854 309.557C143.94 309.548 144.018 309.535 144.088 309.518C144.166 309.509 144.239 309.496 144.309 309.479V307.074C144.005 307.022 143.728 306.992 143.477 306.983C143.234 306.966 142.991 307.052 142.749 307.243C142.619 307.347 142.519 307.481 142.45 307.646C142.38 307.802 142.341 307.971 142.333 308.153C142.324 308.326 142.341 308.5 142.385 308.673C142.428 308.846 142.497 308.998 142.593 309.128ZM148.581 306.073C148.581 306.316 148.581 306.589 148.581 306.892C148.59 307.195 148.594 307.512 148.594 307.841C148.594 308.162 148.594 308.482 148.594 308.803C148.594 309.115 148.59 309.405 148.581 309.674C148.573 309.804 148.56 309.947 148.542 310.103C148.525 310.25 148.49 310.389 148.438 310.519C148.386 310.649 148.304 310.757 148.191 310.844C148.087 310.922 147.944 310.957 147.762 310.948C147.494 310.931 147.299 310.814 147.177 310.597C147.065 310.38 147 310.077 146.982 309.687C146.982 309.488 146.978 309.258 146.969 308.998C146.969 308.738 146.965 308.474 146.956 308.205C146.956 307.936 146.956 307.676 146.956 307.425C146.956 307.165 146.956 306.931 146.956 306.723C146.956 306.602 146.952 306.454 146.943 306.281C146.943 306.108 146.948 305.93 146.956 305.748C146.965 305.566 146.987 305.393 147.021 305.228C147.056 305.055 147.112 304.912 147.19 304.799C147.251 304.73 147.338 304.678 147.45 304.643C147.563 304.6 147.68 304.578 147.801 304.578C147.931 304.578 148.053 304.6 148.165 304.643C148.287 304.686 148.373 304.747 148.425 304.825C148.46 304.877 148.486 304.951 148.503 305.046C148.521 305.141 148.534 305.25 148.542 305.371C148.56 305.484 148.568 305.605 148.568 305.735C148.577 305.856 148.581 305.969 148.581 306.073ZM148.087 303.447C147.819 303.516 147.593 303.49 147.411 303.369C147.238 303.239 147.13 303.048 147.086 302.797C147.052 302.615 147.065 302.455 147.125 302.316C147.186 302.177 147.277 302.073 147.398 302.004C147.52 301.926 147.658 301.891 147.814 301.9C147.97 301.909 148.126 301.969 148.282 302.082C148.43 302.186 148.534 302.307 148.594 302.446C148.664 302.585 148.685 302.719 148.659 302.849C148.642 302.979 148.586 303.1 148.49 303.213C148.395 303.317 148.261 303.395 148.087 303.447ZM155.275 305.267C155.344 305.432 155.348 305.614 155.288 305.813C155.236 306.012 155.136 306.142 154.989 306.203C154.911 306.238 154.807 306.268 154.677 306.294C154.547 306.311 154.404 306.329 154.248 306.346C154.1 306.363 153.953 306.376 153.806 306.385C153.658 306.394 153.533 306.398 153.429 306.398C153.437 306.658 153.446 306.927 153.455 307.204C153.463 307.473 153.472 307.737 153.481 307.997C153.489 308.257 153.494 308.508 153.494 308.751C153.494 308.985 153.489 309.197 153.481 309.388C153.481 309.518 153.481 309.67 153.481 309.843C153.481 310.008 153.468 310.168 153.442 310.324C153.424 310.48 153.394 310.619 153.351 310.74C153.307 310.853 153.242 310.926 153.156 310.961C152.887 311.074 152.64 311.104 152.415 311.052C152.198 311.009 152.042 310.918 151.947 310.779C151.877 310.666 151.825 310.536 151.791 310.389C151.756 310.233 151.73 310.077 151.713 309.921C151.704 309.756 151.7 309.6 151.7 309.453C151.708 309.297 151.713 309.163 151.713 309.05C151.721 308.686 151.726 308.274 151.726 307.815C151.734 307.347 151.739 306.879 151.739 306.411H151.544C151.44 306.411 151.305 306.411 151.141 306.411C150.985 306.402 150.824 306.389 150.66 306.372C150.504 306.346 150.356 306.316 150.218 306.281C150.079 306.238 149.979 306.177 149.919 306.099C149.823 305.986 149.763 305.865 149.737 305.735C149.719 305.605 149.728 305.484 149.763 305.371C149.806 305.25 149.871 305.146 149.958 305.059C150.044 304.964 150.144 304.903 150.257 304.877C150.413 304.834 150.634 304.812 150.92 304.812C151.206 304.803 151.474 304.803 151.726 304.812C151.717 304.725 151.713 304.643 151.713 304.565C151.713 304.478 151.708 304.396 151.7 304.318C151.691 304.214 151.687 304.084 151.687 303.928C151.687 303.763 151.695 303.603 151.713 303.447C151.739 303.282 151.778 303.131 151.83 302.992C151.882 302.845 151.955 302.732 152.051 302.654C152.181 302.55 152.311 302.494 152.441 302.485C152.579 302.468 152.705 302.485 152.818 302.537C152.939 302.589 153.039 302.667 153.117 302.771C153.203 302.866 153.264 302.975 153.299 303.096C153.325 303.2 153.346 303.326 153.364 303.473C153.381 303.612 153.39 303.759 153.39 303.915C153.398 304.071 153.403 304.227 153.403 304.383C153.403 304.539 153.403 304.682 153.403 304.812H153.533C153.663 304.812 153.814 304.808 153.988 304.799C154.161 304.79 154.33 304.795 154.495 304.812C154.668 304.829 154.824 304.873 154.963 304.942C155.101 305.003 155.205 305.111 155.275 305.267Z" fill="white"/>
<defs>
<linearGradient id="paint0_linear_139_3" x1="76" y1="281.207" x2="213.001" y2="281.127" gradientUnits="userSpaceOnUse">
<stop stop-color="#35AEFF"/>
</linearGradient>
</defs>
</svg>
