<svg width="880" height="413" viewBox="0 0 880 413" fill="none" xmlns="http://www.w3.org/2000/svg">
<rect width="880" height="413" rx="10" fill="#FCFCFC" fill-opacity="0.7"/>
<rect x="653" y="330" width="168" height="23" rx="11.5" fill="url(#paint0_linear_119_103)" fill-opacity="0.98"/>
<path d="M724.722 342.217C724.766 342.338 724.796 342.477 724.813 342.633C724.839 342.78 724.852 342.932 724.852 343.088C724.852 343.244 724.839 343.4 724.813 343.556C724.796 343.703 724.77 343.833 724.735 343.946C724.597 344.431 724.319 344.839 723.903 345.168C723.487 345.489 723.011 345.723 722.473 345.87C721.945 346.017 721.394 346.069 720.822 346.026C720.259 345.983 719.756 345.84 719.314 345.597C719.037 345.441 718.799 345.25 718.599 345.025C718.4 344.8 718.231 344.548 718.092 344.271C718.04 344.176 718.006 344.067 717.988 343.946C717.98 343.816 717.993 343.695 718.027 343.582C718.062 343.461 718.118 343.357 718.196 343.27C718.274 343.175 718.383 343.11 718.521 343.075C718.608 343.058 718.703 343.049 718.807 343.049C718.92 343.049 719.028 343.066 719.132 343.101C719.236 343.127 719.332 343.175 719.418 343.244C719.505 343.305 719.574 343.391 719.626 343.504C719.722 343.686 719.856 343.855 720.029 344.011C720.211 344.158 720.402 344.28 720.601 344.375C720.887 344.47 721.173 344.509 721.459 344.492C721.754 344.475 722.018 344.41 722.252 344.297C722.495 344.184 722.69 344.033 722.837 343.842C722.985 343.643 723.058 343.417 723.058 343.166C723.058 342.958 723.028 342.789 722.967 342.659C722.907 342.52 722.82 342.408 722.707 342.321C722.603 342.226 722.473 342.148 722.317 342.087C722.17 342.026 722.005 341.974 721.823 341.931C721.615 341.888 721.403 341.857 721.186 341.84C720.978 341.823 720.766 341.801 720.549 341.775C720.333 341.749 720.12 341.714 719.912 341.671C719.704 341.628 719.501 341.563 719.301 341.476C718.903 341.311 718.599 341.06 718.391 340.722C718.183 340.384 718.058 340.02 718.014 339.63C717.98 339.24 718.027 338.854 718.157 338.473C718.287 338.083 718.495 337.749 718.781 337.472C719.059 337.221 719.388 337.043 719.769 336.939C720.159 336.826 720.588 336.761 721.056 336.744C721.316 336.735 721.576 336.744 721.836 336.77C722.105 336.796 722.361 336.839 722.603 336.9C722.855 336.961 723.084 337.039 723.292 337.134C723.509 337.229 723.695 337.342 723.851 337.472C723.964 337.559 724.077 337.676 724.189 337.823C724.302 337.962 724.389 338.113 724.449 338.278C724.51 338.434 724.527 338.586 724.501 338.733C724.484 338.88 724.393 339.006 724.228 339.11C724.09 339.197 723.955 339.236 723.825 339.227C723.704 339.21 723.587 339.171 723.474 339.11C723.362 339.041 723.253 338.963 723.149 338.876C723.045 338.789 722.95 338.711 722.863 338.642C722.629 338.469 722.339 338.352 721.992 338.291C721.646 338.23 721.321 338.217 721.017 338.252C720.827 338.278 720.649 338.321 720.484 338.382C720.32 338.443 720.177 338.525 720.055 338.629C719.943 338.733 719.852 338.863 719.782 339.019C719.722 339.166 719.7 339.335 719.717 339.526C719.726 339.665 719.765 339.782 719.834 339.877C719.912 339.972 720.003 340.05 720.107 340.111C720.22 340.172 720.341 340.219 720.471 340.254C720.601 340.289 720.731 340.315 720.861 340.332C721.251 340.384 721.641 340.423 722.031 340.449C722.421 340.475 722.803 340.562 723.175 340.709C723.557 340.856 723.882 341.056 724.15 341.307C724.419 341.558 724.61 341.862 724.722 342.217ZM727.535 341.073C727.535 341.316 727.535 341.589 727.535 341.892C727.544 342.195 727.548 342.512 727.548 342.841C727.548 343.162 727.548 343.482 727.548 343.803C727.548 344.115 727.544 344.405 727.535 344.674C727.527 344.804 727.514 344.947 727.496 345.103C727.479 345.25 727.444 345.389 727.392 345.519C727.34 345.649 727.258 345.757 727.145 345.844C727.041 345.922 726.898 345.957 726.716 345.948C726.448 345.931 726.253 345.814 726.131 345.597C726.019 345.38 725.954 345.077 725.936 344.687C725.936 344.488 725.932 344.258 725.923 343.998C725.923 343.738 725.919 343.474 725.91 343.205C725.91 342.936 725.91 342.676 725.91 342.425C725.91 342.165 725.91 341.931 725.91 341.723C725.91 341.602 725.906 341.454 725.897 341.281C725.897 341.108 725.902 340.93 725.91 340.748C725.919 340.566 725.941 340.393 725.975 340.228C726.01 340.055 726.066 339.912 726.144 339.799C726.205 339.73 726.292 339.678 726.404 339.643C726.517 339.6 726.634 339.578 726.755 339.578C726.885 339.578 727.007 339.6 727.119 339.643C727.241 339.686 727.327 339.747 727.379 339.825C727.414 339.877 727.44 339.951 727.457 340.046C727.475 340.141 727.488 340.25 727.496 340.371C727.514 340.484 727.522 340.605 727.522 340.735C727.531 340.856 727.535 340.969 727.535 341.073ZM727.041 338.447C726.773 338.516 726.547 338.49 726.365 338.369C726.192 338.239 726.084 338.048 726.04 337.797C726.006 337.615 726.019 337.455 726.079 337.316C726.14 337.177 726.231 337.073 726.352 337.004C726.474 336.926 726.612 336.891 726.768 336.9C726.924 336.909 727.08 336.969 727.236 337.082C727.384 337.186 727.488 337.307 727.548 337.446C727.618 337.585 727.639 337.719 727.613 337.849C727.596 337.979 727.54 338.1 727.444 338.213C727.349 338.317 727.215 338.395 727.041 338.447ZM735.724 342.971C735.741 343.248 735.75 343.513 735.75 343.764C735.75 344.007 735.741 344.267 735.724 344.544C735.724 344.648 735.724 344.765 735.724 344.895C735.724 345.025 735.715 345.151 735.698 345.272C735.68 345.393 735.65 345.506 735.607 345.61C735.563 345.714 735.498 345.796 735.412 345.857C735.308 345.926 735.191 345.974 735.061 346C734.931 346.017 734.809 346.009 734.697 345.974C734.584 345.939 734.484 345.874 734.398 345.779C734.32 345.684 734.276 345.549 734.268 345.376C734.242 344.977 734.229 344.579 734.229 344.18C734.229 343.981 734.224 343.79 734.216 343.608C734.216 343.426 734.22 343.17 734.229 342.841C734.229 342.676 734.216 342.49 734.19 342.282C734.164 342.065 734.099 341.914 733.995 341.827C733.917 341.758 733.83 341.719 733.735 341.71C733.639 341.693 733.544 341.701 733.449 341.736C733.362 341.771 733.284 341.836 733.215 341.931C733.145 342.018 733.098 342.13 733.072 342.269C733.072 342.382 733.067 342.499 733.059 342.62C733.059 342.733 733.063 342.841 733.072 342.945C733.08 343.222 733.085 343.487 733.085 343.738C733.085 343.981 733.08 344.241 733.072 344.518C733.063 344.631 733.059 344.752 733.059 344.882C733.067 345.012 733.067 345.142 733.059 345.272C733.05 345.393 733.024 345.506 732.981 345.61C732.946 345.714 732.881 345.796 732.786 345.857C732.682 345.926 732.569 345.97 732.448 345.987C732.335 345.996 732.227 345.978 732.123 345.935C732.027 345.883 731.941 345.805 731.863 345.701C731.793 345.597 731.754 345.458 731.746 345.285C731.728 345.086 731.715 344.904 731.707 344.739C731.707 344.566 731.707 344.384 731.707 344.193C731.707 343.994 731.711 343.79 731.72 343.582C731.728 343.365 731.724 343.157 731.707 342.958C731.707 342.897 731.702 342.828 731.694 342.75C731.694 342.663 731.689 342.577 731.681 342.49C731.681 342.403 731.672 342.321 731.655 342.243C731.646 342.156 731.629 342.087 731.603 342.035C731.533 341.914 731.408 341.836 731.226 341.801C731.052 341.766 730.905 341.779 730.784 341.84C730.662 341.901 730.571 341.979 730.511 342.074C730.45 342.169 730.407 342.273 730.381 342.386C730.355 342.499 730.342 342.62 730.342 342.75C730.342 342.871 730.342 342.988 730.342 343.101C730.342 343.664 730.342 344.154 730.342 344.57C730.35 344.977 730.307 345.307 730.212 345.558C730.168 345.688 730.077 345.788 729.939 345.857C729.809 345.926 729.666 345.961 729.51 345.961C729.362 345.961 729.224 345.926 729.094 345.857C728.964 345.788 728.877 345.679 728.834 345.532C728.808 345.437 728.782 345.302 728.756 345.129C728.738 344.947 728.725 344.748 728.717 344.531C728.708 344.314 728.704 344.098 728.704 343.881C728.704 343.656 728.704 343.452 728.704 343.27V341.398C728.695 341.199 728.691 340.982 728.691 340.748C728.691 340.514 728.725 340.302 728.795 340.111C728.855 339.946 728.951 339.842 729.081 339.799C729.211 339.747 729.345 339.725 729.484 339.734C729.64 339.734 729.761 339.777 729.848 339.864C729.943 339.942 730.012 340.042 730.056 340.163C730.099 340.276 730.125 340.406 730.134 340.553C730.142 340.692 730.151 340.826 730.16 340.956C730.255 340.739 730.368 340.562 730.498 340.423C730.636 340.276 730.831 340.18 731.083 340.137C731.724 340.016 732.235 340.18 732.617 340.631C732.79 340.458 733.011 340.315 733.28 340.202C733.488 340.124 733.7 340.089 733.917 340.098C734.133 340.098 734.337 340.137 734.528 340.215C734.727 340.293 734.905 340.406 735.061 340.553C735.225 340.7 735.355 340.878 735.451 341.086C735.581 341.363 735.654 341.671 735.672 342.009C735.689 342.347 735.706 342.668 735.724 342.971ZM740.43 340.15C740.681 340.254 740.911 340.406 741.119 340.605C741.327 340.796 741.505 341.017 741.652 341.268C741.808 341.519 741.925 341.792 742.003 342.087C742.09 342.373 742.133 342.663 742.133 342.958C742.142 343.4 742.038 343.816 741.821 344.206C741.613 344.596 741.271 344.895 740.794 345.103C740.43 345.25 740.053 345.363 739.663 345.441C739.282 345.51 738.883 345.558 738.467 345.584V347.963C738.467 348.015 738.458 348.063 738.441 348.106C738.432 348.149 738.428 348.193 738.428 348.236C738.411 348.323 738.389 348.401 738.363 348.47C738.346 348.539 738.32 348.613 738.285 348.691C738.25 348.743 738.216 348.791 738.181 348.834C738.146 348.877 738.107 348.921 738.064 348.964C737.856 349.068 737.639 349.09 737.414 349.029C737.275 349.02 737.163 348.977 737.076 348.899C736.998 348.821 736.942 348.739 736.907 348.652C736.872 348.565 736.842 348.466 736.816 348.353C736.807 348.31 736.799 348.266 736.79 348.223C736.79 348.188 736.79 348.149 736.79 348.106V340.865C736.79 340.813 736.79 340.761 736.79 340.709C736.799 340.648 736.807 340.588 736.816 340.527C736.825 340.423 736.851 340.319 736.894 340.215C736.972 339.998 737.132 339.851 737.375 339.773C737.618 339.695 737.891 339.66 738.194 339.669C738.402 339.678 738.614 339.699 738.831 339.734C739.056 339.769 739.269 339.812 739.468 339.864C739.676 339.907 739.862 339.955 740.027 340.007C740.192 340.059 740.326 340.107 740.43 340.15ZM740.456 342.958C740.491 342.715 740.46 342.512 740.365 342.347C740.278 342.174 740.153 342.035 739.988 341.931C739.823 341.818 739.633 341.732 739.416 341.671C739.208 341.61 739 341.567 738.792 341.541C738.766 341.532 738.723 341.528 738.662 341.528C738.61 341.528 738.549 341.528 738.48 341.528C738.48 341.805 738.48 342.074 738.48 342.334C738.489 342.585 738.489 342.858 738.48 343.153V344.024C738.679 344.015 738.887 343.994 739.104 343.959C739.329 343.924 739.537 343.868 739.728 343.79C739.919 343.712 740.079 343.608 740.209 343.478C740.348 343.348 740.43 343.175 740.456 342.958ZM744.709 340.527C744.969 340.397 745.242 340.306 745.528 340.254C745.814 340.193 746.096 340.18 746.373 340.215C746.659 340.241 746.932 340.315 747.192 340.436C747.452 340.549 747.695 340.713 747.92 340.93C748.146 341.155 748.319 341.402 748.44 341.671C748.562 341.94 748.648 342.239 748.7 342.568C748.735 342.793 748.791 343.001 748.869 343.192C748.947 343.383 749.03 343.573 749.116 343.764C749.212 343.955 749.298 344.145 749.376 344.336C749.463 344.527 749.532 344.726 749.584 344.934C749.628 345.133 749.61 345.328 749.532 345.519C749.463 345.701 749.316 345.814 749.09 345.857C748.96 345.883 748.835 345.874 748.713 345.831C748.601 345.779 748.497 345.71 748.401 345.623C748.306 345.528 748.219 345.428 748.141 345.324C748.072 345.211 748.007 345.107 747.946 345.012C747.747 345.272 747.53 345.476 747.296 345.623C747.062 345.762 746.781 345.853 746.451 345.896C746.174 345.931 745.91 345.939 745.658 345.922C745.407 345.905 745.138 345.857 744.852 345.779C744.48 345.684 744.172 345.519 743.929 345.285C743.695 345.042 743.513 344.765 743.383 344.453C743.262 344.132 743.197 343.79 743.188 343.426C743.18 343.062 743.223 342.702 743.318 342.347C743.44 341.879 743.622 341.498 743.864 341.203C744.107 340.908 744.389 340.683 744.709 340.527ZM745.034 342.048C744.913 342.169 744.818 342.312 744.748 342.477C744.679 342.642 744.636 342.815 744.618 342.997C744.61 343.179 744.627 343.361 744.67 343.543C744.714 343.725 744.783 343.885 744.878 344.024C744.965 344.145 745.112 344.249 745.32 344.336C745.528 344.414 745.745 344.462 745.97 344.479C746.23 344.496 746.456 344.427 746.646 344.271C746.846 344.115 746.993 343.92 747.088 343.686C747.192 343.443 747.24 343.188 747.231 342.919C747.223 342.642 747.149 342.39 747.01 342.165C746.906 342 746.768 341.879 746.594 341.801C746.43 341.723 746.252 341.684 746.061 341.684C745.871 341.675 745.68 341.706 745.489 341.775C745.307 341.836 745.156 341.927 745.034 342.048ZM750.679 341.359C750.679 341.16 750.675 340.947 750.666 340.722C750.666 340.497 750.705 340.293 750.783 340.111C750.852 339.946 750.965 339.829 751.121 339.76C751.286 339.682 751.446 339.665 751.602 339.708C751.758 339.734 751.879 339.782 751.966 339.851C752.053 339.92 752.113 340.003 752.148 340.098C752.191 340.185 752.217 340.289 752.226 340.41C752.235 340.523 752.243 340.635 752.252 340.748C752.339 340.592 752.447 340.466 752.577 340.371C752.707 340.276 752.841 340.198 752.98 340.137C753.119 340.076 753.249 340.033 753.37 340.007C753.5 339.981 753.6 339.968 753.669 339.968C753.998 339.968 754.323 340.042 754.644 340.189C754.973 340.328 755.246 340.527 755.463 340.787C755.584 340.943 755.675 341.108 755.736 341.281C755.805 341.446 755.853 341.619 755.879 341.801C755.914 341.983 755.935 342.169 755.944 342.36C755.953 342.542 755.961 342.728 755.97 342.919C756.013 343.474 756.013 344.024 755.97 344.57C755.961 344.683 755.957 344.813 755.957 344.96C755.957 345.107 755.944 345.255 755.918 345.402C755.901 345.541 755.862 345.666 755.801 345.779C755.749 345.883 755.658 345.948 755.528 345.974C755.346 346.017 755.194 346.026 755.073 346C754.96 345.983 754.869 345.944 754.8 345.883C754.731 345.822 754.679 345.744 754.644 345.649C754.609 345.554 754.579 345.445 754.553 345.324C754.536 345.229 754.518 345.12 754.501 344.999C754.492 344.869 754.484 344.739 754.475 344.609C754.475 344.479 754.471 344.353 754.462 344.232C754.462 344.102 754.462 343.985 754.462 343.881C754.462 343.716 754.458 343.534 754.449 343.335C754.44 343.136 754.44 342.949 754.449 342.776C754.449 342.369 754.341 342.061 754.124 341.853C753.916 341.636 753.63 341.545 753.266 341.58C752.989 341.615 752.746 341.727 752.538 341.918C752.33 342.1 752.23 342.338 752.239 342.633C752.239 342.746 752.239 342.85 752.239 342.945C752.239 343.04 752.235 343.136 752.226 343.231C752.226 343.326 752.226 343.43 752.226 343.543C752.226 343.656 752.226 343.781 752.226 343.92C752.226 344.206 752.226 344.509 752.226 344.83C752.226 345.142 752.187 345.398 752.109 345.597C752.04 345.805 751.923 345.948 751.758 346.026C751.593 346.104 751.398 346.082 751.173 345.961C751.078 345.909 751 345.84 750.939 345.753C750.887 345.658 750.844 345.558 750.809 345.454C750.783 345.35 750.766 345.246 750.757 345.142C750.748 345.029 750.74 344.925 750.731 344.83C750.705 344.544 750.688 344.28 750.679 344.037C750.679 343.786 750.679 343.517 750.679 343.231V341.359Z" fill="white"/>
<path d="M633.527 58.121C633.614 58.2337 633.657 58.3463 633.657 58.459C633.666 58.511 633.666 58.576 633.657 58.654C633.657 58.732 633.653 58.7927 633.644 58.836C633.618 58.9227 633.557 59.0093 633.462 59.096C633.436 59.122 633.406 59.148 633.371 59.174C633.336 59.1913 633.293 59.2087 633.241 59.226C633.189 59.2433 633.137 59.2563 633.085 59.265C633.033 59.265 632.977 59.2693 632.916 59.278C632.855 59.2867 632.799 59.2953 632.747 59.304C632.695 59.304 632.639 59.304 632.578 59.304H631.837V59.525C631.828 60.305 631.841 61.085 631.876 61.865C631.919 62.645 631.915 63.425 631.863 64.205C631.837 64.465 631.798 64.7337 631.746 65.011C631.694 65.2797 631.607 65.5353 631.486 65.778C631.373 66.012 631.222 66.2287 631.031 66.428C630.84 66.6273 630.598 66.7833 630.303 66.896C630.026 67 629.722 67.0737 629.393 67.117C629.064 67.1603 628.73 67.1647 628.392 67.13C628.063 67.0953 627.746 67.0217 627.443 66.909C627.14 66.7963 626.884 66.6403 626.676 66.441C626.563 66.337 626.459 66.2113 626.364 66.064C626.269 65.908 626.204 65.7477 626.169 65.583C626.134 65.4097 626.143 65.245 626.195 65.089C626.247 64.9243 626.368 64.79 626.559 64.686C626.724 64.5907 626.871 64.569 627.001 64.621C627.14 64.673 627.27 64.7553 627.391 64.868C627.521 64.9807 627.651 65.0977 627.781 65.219C627.92 65.3403 628.071 65.4183 628.236 65.453C628.591 65.5397 628.882 65.544 629.107 65.466C629.332 65.3793 629.51 65.245 629.64 65.063C629.77 64.881 629.861 64.66 629.913 64.4C629.974 64.14 630.008 63.8757 630.017 63.607C630.034 63.3383 630.039 63.0783 630.03 62.827C630.021 62.5757 630.021 62.3633 630.03 62.19C630.039 61.7307 630.039 61.28 630.03 60.838C630.021 60.396 630.017 59.9453 630.017 59.486V59.434C630.026 59.4167 630.03 59.3907 630.03 59.356H629.991C629.939 59.3473 629.831 59.343 629.666 59.343C629.501 59.3343 629.324 59.33 629.133 59.33C628.942 59.33 628.76 59.33 628.587 59.33C628.422 59.3213 628.314 59.317 628.262 59.317H628.08V59.304C628.011 59.2953 627.941 59.2823 627.872 59.265C627.803 59.2477 627.733 59.2303 627.664 59.213C627.499 59.161 627.374 59.0787 627.287 58.966C627.244 58.9227 627.209 58.8533 627.183 58.758C627.166 58.6627 627.157 58.5803 627.157 58.511C627.157 58.4677 627.157 58.42 627.157 58.368C627.157 58.316 627.166 58.2683 627.183 58.225C627.2 58.1297 627.261 58.043 627.365 57.965C627.434 57.913 627.517 57.874 627.612 57.848C627.673 57.8307 627.733 57.8177 627.794 57.809C627.855 57.8003 627.92 57.7917 627.989 57.783C628.05 57.7743 628.11 57.77 628.171 57.77C628.232 57.77 628.297 57.77 628.366 57.77H629.614C629.666 57.77 629.727 57.77 629.796 57.77C629.865 57.77 629.943 57.7657 630.03 57.757C630.368 57.757 630.702 57.757 631.031 57.757C631.36 57.757 631.681 57.7613 631.993 57.77H632.071C632.166 57.77 632.257 57.7743 632.344 57.783C632.439 57.783 632.535 57.783 632.63 57.783C632.829 57.7917 633.016 57.8307 633.189 57.9C633.328 57.9347 633.44 58.0083 633.527 58.121ZM638.292 65.219C638.396 65.193 638.5 65.1757 638.604 65.167C638.717 65.1583 638.817 65.1713 638.903 65.206C638.999 65.2407 639.077 65.3013 639.137 65.388C639.198 65.466 639.228 65.5787 639.228 65.726C639.228 65.83 639.202 65.9297 639.15 66.025C639.098 66.1203 639.033 66.207 638.955 66.285C638.877 66.363 638.791 66.4323 638.695 66.493C638.6 66.545 638.509 66.5883 638.422 66.623C638.171 66.7357 637.881 66.8223 637.551 66.883C637.231 66.9437 636.897 66.9653 636.55 66.948C636.082 66.9307 635.632 66.8397 635.198 66.675C634.774 66.5017 634.44 66.22 634.197 65.83C633.972 65.4487 633.838 65.024 633.794 64.556C633.751 64.088 633.773 63.646 633.859 63.23C633.955 62.7273 634.115 62.32 634.34 62.008C634.574 61.6873 634.852 61.4317 635.172 61.241C635.562 61.0157 636 60.8987 636.485 60.89C636.971 60.8813 637.434 60.9767 637.876 61.176C638.171 61.306 638.435 61.4837 638.669 61.709C638.903 61.9257 639.081 62.19 639.202 62.502C639.237 62.58 639.263 62.6753 639.28 62.788C639.306 62.9007 639.324 63.022 639.332 63.152C639.341 63.2733 639.341 63.3947 639.332 63.516C639.324 63.6373 639.302 63.7457 639.267 63.841C639.215 63.997 639.15 64.1183 639.072 64.205C638.994 64.2917 638.895 64.3567 638.773 64.4C638.652 64.4433 638.505 64.4737 638.331 64.491C638.167 64.4997 637.967 64.5083 637.733 64.517C637.525 64.5257 637.33 64.53 637.148 64.53C636.966 64.53 636.78 64.53 636.589 64.53C636.399 64.5213 636.199 64.517 635.991 64.517C635.792 64.5083 635.567 64.4997 635.315 64.491C635.289 64.6643 635.311 64.816 635.38 64.946C635.458 65.0673 635.562 65.1713 635.692 65.258C635.822 65.336 635.97 65.3967 636.134 65.44C636.299 65.4833 636.459 65.5093 636.615 65.518C636.91 65.5353 637.192 65.5137 637.46 65.453C637.729 65.3837 638.006 65.3057 638.292 65.219ZM637.733 62.697C637.569 62.5063 637.395 62.3677 637.213 62.281C637.075 62.2203 636.927 62.1943 636.771 62.203C636.624 62.203 636.481 62.2247 636.342 62.268C636.091 62.3287 635.879 62.4587 635.705 62.658C635.688 62.6753 635.658 62.7187 635.614 62.788C635.571 62.8487 635.528 62.9137 635.484 62.983C635.45 63.0523 635.424 63.1173 635.406 63.178C635.389 63.2387 635.398 63.269 635.432 63.269H637.98C637.972 63.1477 637.95 63.048 637.915 62.97C637.881 62.8833 637.82 62.7923 637.733 62.697ZM640.396 62.359C640.396 62.1597 640.392 61.9473 640.383 61.722C640.383 61.4967 640.422 61.293 640.5 61.111C640.57 60.9463 640.682 60.8293 640.838 60.76C641.003 60.682 641.163 60.6647 641.319 60.708C641.475 60.734 641.597 60.7817 641.683 60.851C641.77 60.9203 641.831 61.0027 641.865 61.098C641.909 61.1847 641.935 61.2887 641.943 61.41C641.952 61.5227 641.961 61.6353 641.969 61.748C642.056 61.592 642.164 61.4663 642.294 61.371C642.424 61.2757 642.559 61.1977 642.697 61.137C642.836 61.0763 642.966 61.033 643.087 61.007C643.217 60.981 643.317 60.968 643.386 60.968C643.716 60.968 644.041 61.0417 644.361 61.189C644.691 61.3277 644.964 61.527 645.18 61.787C645.302 61.943 645.393 62.1077 645.453 62.281C645.523 62.4457 645.57 62.619 645.596 62.801C645.631 62.983 645.653 63.1693 645.661 63.36C645.67 63.542 645.679 63.7283 645.687 63.919C645.731 64.4737 645.731 65.024 645.687 65.57C645.679 65.6827 645.674 65.8127 645.674 65.96C645.674 66.1073 645.661 66.2547 645.635 66.402C645.618 66.5407 645.579 66.6663 645.518 66.779C645.466 66.883 645.375 66.948 645.245 66.974C645.063 67.0173 644.912 67.026 644.79 67C644.678 66.9827 644.587 66.9437 644.517 66.883C644.448 66.8223 644.396 66.7443 644.361 66.649C644.327 66.5537 644.296 66.4453 644.27 66.324C644.253 66.2287 644.236 66.1203 644.218 65.999C644.21 65.869 644.201 65.739 644.192 65.609C644.192 65.479 644.188 65.3533 644.179 65.232C644.179 65.102 644.179 64.985 644.179 64.881C644.179 64.7163 644.175 64.5343 644.166 64.335C644.158 64.1357 644.158 63.9493 644.166 63.776C644.166 63.3687 644.058 63.061 643.841 62.853C643.633 62.6363 643.347 62.5453 642.983 62.58C642.706 62.6147 642.463 62.7273 642.255 62.918C642.047 63.1 641.948 63.3383 641.956 63.633C641.956 63.7457 641.956 63.8497 641.956 63.945C641.956 64.0403 641.952 64.1357 641.943 64.231C641.943 64.3263 641.943 64.4303 641.943 64.543C641.943 64.6557 641.943 64.7813 641.943 64.92C641.943 65.206 641.943 65.5093 641.943 65.83C641.943 66.142 641.904 66.3977 641.826 66.597C641.757 66.805 641.64 66.948 641.475 67.026C641.311 67.104 641.116 67.0823 640.89 66.961C640.795 66.909 640.717 66.8397 640.656 66.753C640.604 66.6577 640.561 66.558 640.526 66.454C640.5 66.35 640.483 66.246 640.474 66.142C640.466 66.0293 640.457 65.9253 640.448 65.83C640.422 65.544 640.405 65.2797 640.396 65.037C640.396 64.7857 640.396 64.517 640.396 64.231V62.359ZM648.407 62.073C648.407 62.3157 648.407 62.5887 648.407 62.892C648.416 63.1953 648.42 63.5117 648.42 63.841C648.42 64.1617 648.42 64.4823 648.42 64.803C648.42 65.115 648.416 65.4053 648.407 65.674C648.398 65.804 648.385 65.947 648.368 66.103C648.351 66.2503 648.316 66.389 648.264 66.519C648.212 66.649 648.13 66.7573 648.017 66.844C647.913 66.922 647.77 66.9567 647.588 66.948C647.319 66.9307 647.124 66.8137 647.003 66.597C646.89 66.3803 646.825 66.077 646.808 65.687C646.808 65.4877 646.804 65.258 646.795 64.998C646.795 64.738 646.791 64.4737 646.782 64.205C646.782 63.9363 646.782 63.6763 646.782 63.425C646.782 63.165 646.782 62.931 646.782 62.723C646.782 62.6017 646.778 62.4543 646.769 62.281C646.769 62.1077 646.773 61.93 646.782 61.748C646.791 61.566 646.812 61.3927 646.847 61.228C646.882 61.0547 646.938 60.9117 647.016 60.799C647.077 60.7297 647.163 60.6777 647.276 60.643C647.389 60.5997 647.506 60.578 647.627 60.578C647.757 60.578 647.878 60.5997 647.991 60.643C648.112 60.6863 648.199 60.747 648.251 60.825C648.286 60.877 648.312 60.9507 648.329 61.046C648.346 61.1413 648.359 61.2497 648.368 61.371C648.385 61.4837 648.394 61.605 648.394 61.735C648.403 61.8563 648.407 61.969 648.407 62.073ZM647.913 59.447C647.644 59.5163 647.419 59.4903 647.237 59.369C647.064 59.239 646.955 59.0483 646.912 58.797C646.877 58.615 646.89 58.4547 646.951 58.316C647.012 58.1773 647.103 58.0733 647.224 58.004C647.345 57.926 647.484 57.8913 647.64 57.9C647.796 57.9087 647.952 57.9693 648.108 58.082C648.255 58.186 648.359 58.3073 648.42 58.446C648.489 58.5847 648.511 58.719 648.485 58.849C648.468 58.979 648.411 59.1003 648.316 59.213C648.221 59.317 648.086 59.395 647.913 59.447ZM652.656 64.712C652.492 64.608 652.305 64.5257 652.097 64.465C651.898 64.4043 651.69 64.348 651.473 64.296C651.265 64.244 651.062 64.1877 650.862 64.127C650.663 64.0577 650.481 63.9623 650.316 63.841C649.961 63.5723 649.753 63.243 649.692 62.853C649.64 62.4543 649.727 62.0557 649.952 61.657C650.074 61.449 650.234 61.28 650.433 61.15C650.633 61.0113 650.849 60.9073 651.083 60.838C651.326 60.76 651.573 60.7167 651.824 60.708C652.076 60.6993 652.314 60.7123 652.539 60.747C652.687 60.773 652.843 60.812 653.007 60.864C653.172 60.9073 653.324 60.968 653.462 61.046C653.61 61.124 653.74 61.2237 653.852 61.345C653.974 61.4577 654.06 61.6007 654.112 61.774C654.147 61.8867 654.151 61.995 654.125 62.099C654.108 62.203 654.065 62.2897 653.995 62.359C653.935 62.4283 653.852 62.4803 653.748 62.515C653.653 62.5497 653.549 62.5583 653.436 62.541C653.306 62.515 653.185 62.476 653.072 62.424C652.96 62.372 652.847 62.3157 652.734 62.255C652.622 62.1943 652.505 62.1423 652.383 62.099C652.271 62.0557 652.149 62.034 652.019 62.034C651.82 62.0253 651.655 62.06 651.525 62.138C651.395 62.216 651.304 62.3113 651.252 62.424C651.209 62.5367 651.213 62.658 651.265 62.788C651.326 62.918 651.447 63.0307 651.629 63.126C651.794 63.2127 651.976 63.282 652.175 63.334C652.375 63.386 652.57 63.438 652.76 63.49C652.96 63.542 653.15 63.6027 653.332 63.672C653.523 63.7413 653.692 63.8367 653.839 63.958C654.125 64.192 654.299 64.465 654.359 64.777C654.429 65.089 654.411 65.3967 654.307 65.7C654.203 66.0033 654.021 66.272 653.761 66.506C653.51 66.74 653.211 66.896 652.864 66.974C652.613 67.026 652.34 67.052 652.045 67.052C651.759 67.052 651.473 67.0217 651.187 66.961C650.91 66.9003 650.641 66.805 650.381 66.675C650.13 66.545 649.918 66.3803 649.744 66.181C649.623 66.0423 649.558 65.8863 649.549 65.713C649.549 65.531 649.584 65.375 649.653 65.245C649.731 65.1063 649.84 65.011 649.978 64.959C650.117 64.907 650.273 64.9373 650.446 65.05C650.585 65.1453 650.75 65.2407 650.94 65.336C651.131 65.4227 651.322 65.492 651.512 65.544C651.703 65.596 651.885 65.622 652.058 65.622C652.24 65.622 652.396 65.583 652.526 65.505C652.717 65.3837 652.817 65.245 652.825 65.089C652.834 64.9243 652.778 64.7987 652.656 64.712ZM660.988 62.073C660.988 62.3157 660.988 62.5887 660.988 62.892C660.997 63.1953 661.001 63.5117 661.001 63.841C661.001 64.1617 661.001 64.4823 661.001 64.803C661.001 65.115 660.997 65.4053 660.988 65.674C660.979 65.804 660.966 65.947 660.949 66.103C660.932 66.2503 660.897 66.389 660.845 66.519C660.793 66.649 660.711 66.7573 660.598 66.844C660.494 66.922 660.351 66.9567 660.169 66.948C659.9 66.9307 659.705 66.8137 659.584 66.597C659.471 66.3803 659.406 66.077 659.389 65.687C659.389 65.4877 659.385 65.258 659.376 64.998C659.376 64.738 659.372 64.4737 659.363 64.205C659.363 63.9363 659.363 63.6763 659.363 63.425C659.363 63.165 659.363 62.931 659.363 62.723C659.363 62.6017 659.359 62.4543 659.35 62.281C659.35 62.1077 659.354 61.93 659.363 61.748C659.372 61.566 659.393 61.3927 659.428 61.228C659.463 61.0547 659.519 60.9117 659.597 60.799C659.658 60.7297 659.744 60.6777 659.857 60.643C659.97 60.5997 660.087 60.578 660.208 60.578C660.338 60.578 660.459 60.5997 660.572 60.643C660.693 60.6863 660.78 60.747 660.832 60.825C660.867 60.877 660.893 60.9507 660.91 61.046C660.927 61.1413 660.94 61.2497 660.949 61.371C660.966 61.4837 660.975 61.605 660.975 61.735C660.984 61.8563 660.988 61.969 660.988 62.073ZM660.494 59.447C660.225 59.5163 660 59.4903 659.818 59.369C659.645 59.239 659.536 59.0483 659.493 58.797C659.458 58.615 659.471 58.4547 659.532 58.316C659.593 58.1773 659.684 58.0733 659.805 58.004C659.926 57.926 660.065 57.8913 660.221 57.9C660.377 57.9087 660.533 57.9693 660.689 58.082C660.836 58.186 660.94 58.3073 661.001 58.446C661.07 58.5847 661.092 58.719 661.066 58.849C661.049 58.979 660.992 59.1003 660.897 59.213C660.802 59.317 660.667 59.395 660.494 59.447ZM664.717 64.01C664.908 64.2093 665.047 64.3567 665.133 64.452C665.229 64.5387 665.294 64.6037 665.328 64.647C665.372 64.6903 665.402 64.7163 665.419 64.725C665.437 64.7337 665.467 64.7597 665.51 64.803C665.554 64.8463 665.623 64.9157 665.718 65.011C665.814 65.0977 665.957 65.2407 666.147 65.44C666.303 65.596 666.429 65.778 666.524 65.986C666.628 66.1853 666.62 66.402 666.498 66.636C666.429 66.7573 666.351 66.844 666.264 66.896C666.178 66.9393 666.082 66.9567 665.978 66.948C665.883 66.9393 665.779 66.909 665.666 66.857C665.562 66.805 665.458 66.74 665.354 66.662C665.155 66.5147 664.964 66.3457 664.782 66.155C664.6 65.9557 664.453 65.804 664.34 65.7C664.262 65.622 664.215 65.57 664.197 65.544C664.18 65.5267 664.163 65.5137 664.145 65.505C664.128 65.4877 664.111 65.4703 664.093 65.453C664.033 65.3923 663.968 65.3317 663.898 65.271C663.829 65.2103 663.76 65.1453 663.69 65.076V65.583C663.69 65.6783 663.695 65.7477 663.703 65.791C663.703 65.8777 663.699 65.9427 663.69 65.986C663.664 66.0813 663.651 66.1723 663.651 66.259C663.643 66.3023 663.634 66.3457 663.625 66.389C663.617 66.4237 663.604 66.4627 663.586 66.506C663.578 66.5233 663.569 66.5363 663.56 66.545C663.56 66.5537 663.56 66.5667 663.56 66.584C663.552 66.6013 663.543 66.6143 663.534 66.623C663.534 66.6317 663.53 66.6447 663.521 66.662C663.478 66.7487 663.409 66.831 663.313 66.909C663.149 67.0043 662.945 67.0303 662.702 66.987C662.572 66.961 662.473 66.9133 662.403 66.844C662.325 66.792 662.273 66.7183 662.247 66.623C662.23 66.5797 662.213 66.5363 662.195 66.493C662.187 66.441 662.174 66.3933 662.156 66.35C662.139 66.3067 662.13 66.2677 662.13 66.233C662.13 66.1897 662.13 66.155 662.13 66.129V58.732C662.13 58.68 662.13 58.628 662.13 58.576C662.13 58.524 662.135 58.472 662.143 58.42C662.152 58.368 662.161 58.3203 662.169 58.277C662.187 58.225 662.204 58.1773 662.221 58.134C662.256 58.0473 662.299 57.978 662.351 57.926C662.395 57.8827 662.438 57.8523 662.481 57.835C662.533 57.809 662.581 57.7873 662.624 57.77C662.668 57.7613 662.715 57.757 662.767 57.757C662.828 57.7483 662.884 57.744 662.936 57.744C663.058 57.744 663.179 57.7787 663.3 57.848C663.413 57.926 663.495 58.0257 663.547 58.147C663.617 58.3117 663.651 58.472 663.651 58.628C663.66 58.7147 663.669 58.849 663.677 59.031C663.686 59.2043 663.69 59.3343 663.69 59.421V59.473C663.699 59.759 663.703 60.032 663.703 60.292C663.703 60.552 663.703 60.8337 663.703 61.137C663.695 61.4403 663.69 61.7307 663.69 62.008C663.69 62.2767 663.69 62.5453 663.69 62.814V62.957C663.76 62.8877 663.829 62.8227 663.898 62.762C663.968 62.7013 664.033 62.6363 664.093 62.567C664.128 62.541 664.163 62.5107 664.197 62.476L664.34 62.333C664.453 62.2203 664.6 62.0687 664.782 61.878C664.964 61.6787 665.155 61.5053 665.354 61.358C665.571 61.202 665.779 61.1067 665.978 61.072C666.186 61.0373 666.36 61.1413 666.498 61.384C666.62 61.618 666.628 61.839 666.524 62.047C666.429 62.2463 666.303 62.4327 666.147 62.606C665.957 62.8053 665.814 62.9527 665.718 63.048C665.623 63.1347 665.554 63.1997 665.51 63.243C665.467 63.2777 665.437 63.2993 665.419 63.308C665.402 63.3167 665.372 63.3427 665.328 63.386C665.294 63.4207 665.229 63.4857 665.133 63.581C665.047 63.6677 664.908 63.8107 664.717 64.01ZM669.161 61.527C669.421 61.397 669.694 61.306 669.98 61.254C670.266 61.1933 670.548 61.1803 670.825 61.215C671.111 61.241 671.384 61.3147 671.644 61.436C671.904 61.5487 672.147 61.7133 672.372 61.93C672.597 62.1553 672.771 62.4023 672.892 62.671C673.013 62.9397 673.1 63.2387 673.152 63.568C673.187 63.7933 673.243 64.0013 673.321 64.192C673.399 64.3827 673.481 64.5733 673.568 64.764C673.663 64.9547 673.75 65.1453 673.828 65.336C673.915 65.5267 673.984 65.726 674.036 65.934C674.079 66.1333 674.062 66.3283 673.984 66.519C673.915 66.701 673.767 66.8137 673.542 66.857C673.412 66.883 673.286 66.8743 673.165 66.831C673.052 66.779 672.948 66.7097 672.853 66.623C672.758 66.5277 672.671 66.428 672.593 66.324C672.524 66.2113 672.459 66.1073 672.398 66.012C672.199 66.272 671.982 66.4757 671.748 66.623C671.514 66.7617 671.232 66.8527 670.903 66.896C670.626 66.9307 670.361 66.9393 670.11 66.922C669.859 66.9047 669.59 66.857 669.304 66.779C668.931 66.6837 668.624 66.519 668.381 66.285C668.147 66.0423 667.965 65.765 667.835 65.453C667.714 65.1323 667.649 64.79 667.64 64.426C667.631 64.062 667.675 63.7023 667.77 63.347C667.891 62.879 668.073 62.4977 668.316 62.203C668.559 61.9083 668.84 61.683 669.161 61.527ZM669.486 63.048C669.365 63.1693 669.269 63.3123 669.2 63.477C669.131 63.6417 669.087 63.815 669.07 63.997C669.061 64.179 669.079 64.361 669.122 64.543C669.165 64.725 669.235 64.8853 669.33 65.024C669.417 65.1453 669.564 65.2493 669.772 65.336C669.98 65.414 670.197 65.4617 670.422 65.479C670.682 65.4963 670.907 65.427 671.098 65.271C671.297 65.115 671.445 64.92 671.54 64.686C671.644 64.4433 671.692 64.1877 671.683 63.919C671.674 63.6417 671.601 63.3903 671.462 63.165C671.358 63.0003 671.219 62.879 671.046 62.801C670.881 62.723 670.704 62.684 670.513 62.684C670.322 62.6753 670.132 62.7057 669.941 62.775C669.759 62.8357 669.607 62.9267 669.486 63.048ZM675.131 62.359C675.131 62.1597 675.126 61.9473 675.118 61.722C675.118 61.4967 675.157 61.293 675.235 61.111C675.304 60.9463 675.417 60.8293 675.573 60.76C675.737 60.682 675.898 60.6647 676.054 60.708C676.21 60.734 676.331 60.7817 676.418 60.851C676.504 60.9203 676.565 61.0027 676.6 61.098C676.643 61.1847 676.669 61.2887 676.678 61.41C676.686 61.5227 676.695 61.6353 676.704 61.748C676.79 61.592 676.899 61.4663 677.029 61.371C677.159 61.2757 677.293 61.1977 677.432 61.137C677.57 61.0763 677.7 61.033 677.822 61.007C677.952 60.981 678.051 60.968 678.121 60.968C678.45 60.968 678.775 61.0417 679.096 61.189C679.425 61.3277 679.698 61.527 679.915 61.787C680.036 61.943 680.127 62.1077 680.188 62.281C680.257 62.4457 680.305 62.619 680.331 62.801C680.365 62.983 680.387 63.1693 680.396 63.36C680.404 63.542 680.413 63.7283 680.422 63.919C680.465 64.4737 680.465 65.024 680.422 65.57C680.413 65.6827 680.409 65.8127 680.409 65.96C680.409 66.1073 680.396 66.2547 680.37 66.402C680.352 66.5407 680.313 66.6663 680.253 66.779C680.201 66.883 680.11 66.948 679.98 66.974C679.798 67.0173 679.646 67.026 679.525 67C679.412 66.9827 679.321 66.9437 679.252 66.883C679.182 66.8223 679.13 66.7443 679.096 66.649C679.061 66.5537 679.031 66.4453 679.005 66.324C678.987 66.2287 678.97 66.1203 678.953 65.999C678.944 65.869 678.935 65.739 678.927 65.609C678.927 65.479 678.922 65.3533 678.914 65.232C678.914 65.102 678.914 64.985 678.914 64.881C678.914 64.7163 678.909 64.5343 678.901 64.335C678.892 64.1357 678.892 63.9493 678.901 63.776C678.901 63.3687 678.792 63.061 678.576 62.853C678.368 62.6363 678.082 62.5453 677.718 62.58C677.44 62.6147 677.198 62.7273 676.99 62.918C676.782 63.1 676.682 63.3383 676.691 63.633C676.691 63.7457 676.691 63.8497 676.691 63.945C676.691 64.0403 676.686 64.1357 676.678 64.231C676.678 64.3263 676.678 64.4303 676.678 64.543C676.678 64.6557 676.678 64.7813 676.678 64.92C676.678 65.206 676.678 65.5093 676.678 65.83C676.678 66.142 676.639 66.3977 676.561 66.597C676.491 66.805 676.374 66.948 676.21 67.026C676.045 67.104 675.85 67.0823 675.625 66.961C675.529 66.909 675.451 66.8397 675.391 66.753C675.339 66.6577 675.295 66.558 675.261 66.454C675.235 66.35 675.217 66.246 675.209 66.142C675.2 66.0293 675.191 65.9253 675.183 65.83C675.157 65.544 675.139 65.2797 675.131 65.037C675.131 64.7857 675.131 64.517 675.131 64.231V62.359Z" fill="black"/>
<path d="M633.527 125.121C633.614 125.234 633.657 125.346 633.657 125.459C633.666 125.511 633.666 125.576 633.657 125.654C633.657 125.732 633.653 125.793 633.644 125.836C633.618 125.923 633.557 126.009 633.462 126.096C633.436 126.122 633.406 126.148 633.371 126.174C633.336 126.191 633.293 126.209 633.241 126.226C633.189 126.243 633.137 126.256 633.085 126.265C633.033 126.265 632.977 126.269 632.916 126.278C632.855 126.287 632.799 126.295 632.747 126.304C632.695 126.304 632.639 126.304 632.578 126.304H631.837V126.525C631.828 127.305 631.841 128.085 631.876 128.865C631.919 129.645 631.915 130.425 631.863 131.205C631.837 131.465 631.798 131.734 631.746 132.011C631.694 132.28 631.607 132.535 631.486 132.778C631.373 133.012 631.222 133.229 631.031 133.428C630.84 133.627 630.598 133.783 630.303 133.896C630.026 134 629.722 134.074 629.393 134.117C629.064 134.16 628.73 134.165 628.392 134.13C628.063 134.095 627.746 134.022 627.443 133.909C627.14 133.796 626.884 133.64 626.676 133.441C626.563 133.337 626.459 133.211 626.364 133.064C626.269 132.908 626.204 132.748 626.169 132.583C626.134 132.41 626.143 132.245 626.195 132.089C626.247 131.924 626.368 131.79 626.559 131.686C626.724 131.591 626.871 131.569 627.001 131.621C627.14 131.673 627.27 131.755 627.391 131.868C627.521 131.981 627.651 132.098 627.781 132.219C627.92 132.34 628.071 132.418 628.236 132.453C628.591 132.54 628.882 132.544 629.107 132.466C629.332 132.379 629.51 132.245 629.64 132.063C629.77 131.881 629.861 131.66 629.913 131.4C629.974 131.14 630.008 130.876 630.017 130.607C630.034 130.338 630.039 130.078 630.03 129.827C630.021 129.576 630.021 129.363 630.03 129.19C630.039 128.731 630.039 128.28 630.03 127.838C630.021 127.396 630.017 126.945 630.017 126.486V126.434C630.026 126.417 630.03 126.391 630.03 126.356H629.991C629.939 126.347 629.831 126.343 629.666 126.343C629.501 126.334 629.324 126.33 629.133 126.33C628.942 126.33 628.76 126.33 628.587 126.33C628.422 126.321 628.314 126.317 628.262 126.317H628.08V126.304C628.011 126.295 627.941 126.282 627.872 126.265C627.803 126.248 627.733 126.23 627.664 126.213C627.499 126.161 627.374 126.079 627.287 125.966C627.244 125.923 627.209 125.853 627.183 125.758C627.166 125.663 627.157 125.58 627.157 125.511C627.157 125.468 627.157 125.42 627.157 125.368C627.157 125.316 627.166 125.268 627.183 125.225C627.2 125.13 627.261 125.043 627.365 124.965C627.434 124.913 627.517 124.874 627.612 124.848C627.673 124.831 627.733 124.818 627.794 124.809C627.855 124.8 627.92 124.792 627.989 124.783C628.05 124.774 628.11 124.77 628.171 124.77C628.232 124.77 628.297 124.77 628.366 124.77H629.614C629.666 124.77 629.727 124.77 629.796 124.77C629.865 124.77 629.943 124.766 630.03 124.757C630.368 124.757 630.702 124.757 631.031 124.757C631.36 124.757 631.681 124.761 631.993 124.77H632.071C632.166 124.77 632.257 124.774 632.344 124.783C632.439 124.783 632.535 124.783 632.63 124.783C632.829 124.792 633.016 124.831 633.189 124.9C633.328 124.935 633.44 125.008 633.527 125.121ZM639.137 130.906C639.12 131.192 639.103 131.482 639.085 131.777C639.068 132.063 639.02 132.34 638.942 132.609C638.873 132.878 638.76 133.12 638.604 133.337C638.457 133.554 638.245 133.727 637.967 133.857C637.725 133.978 637.465 134.061 637.187 134.104C636.91 134.156 636.633 134.178 636.355 134.169C636.078 134.16 635.809 134.117 635.549 134.039C635.289 133.97 635.055 133.87 634.847 133.74C634.639 133.61 634.47 133.441 634.34 133.233C634.21 133.025 634.106 132.8 634.028 132.557C633.959 132.314 633.911 132.063 633.885 131.803C633.859 131.543 633.842 131.3 633.833 131.075C633.799 130.477 633.799 129.888 633.833 129.307C633.833 129.194 633.833 129.069 633.833 128.93C633.833 128.783 633.842 128.64 633.859 128.501C633.885 128.362 633.924 128.237 633.976 128.124C634.028 128.003 634.115 127.912 634.236 127.851C634.496 127.712 634.735 127.704 634.951 127.825C635.177 127.946 635.311 128.198 635.354 128.579C635.38 128.778 635.389 128.999 635.38 129.242C635.38 129.485 635.389 129.706 635.406 129.905C635.415 130.2 635.424 130.52 635.432 130.867C635.441 131.205 635.489 131.508 635.575 131.777C635.671 132.046 635.822 132.249 636.03 132.388C636.247 132.518 636.568 132.522 636.992 132.401C637.192 132.34 637.322 132.189 637.382 131.946C637.452 131.703 637.486 131.344 637.486 130.867C637.486 130.659 637.482 130.429 637.473 130.178C637.465 129.927 637.46 129.68 637.46 129.437C637.46 129.186 637.465 128.956 637.473 128.748C637.491 128.531 637.517 128.367 637.551 128.254C637.595 128.098 637.686 127.981 637.824 127.903C637.963 127.825 638.11 127.786 638.266 127.786C638.422 127.777 638.57 127.808 638.708 127.877C638.847 127.946 638.942 128.059 638.994 128.215C639.046 128.354 639.081 128.531 639.098 128.748C639.124 128.956 639.142 129.186 639.15 129.437C639.159 129.68 639.159 129.931 639.15 130.191C639.15 130.442 639.146 130.681 639.137 130.906ZM647.531 130.971C647.548 131.248 647.557 131.513 647.557 131.764C647.557 132.007 647.548 132.267 647.531 132.544C647.531 132.648 647.531 132.765 647.531 132.895C647.531 133.025 647.522 133.151 647.505 133.272C647.488 133.393 647.457 133.506 647.414 133.61C647.371 133.714 647.306 133.796 647.219 133.857C647.115 133.926 646.998 133.974 646.868 134C646.738 134.017 646.617 134.009 646.504 133.974C646.391 133.939 646.292 133.874 646.205 133.779C646.127 133.684 646.084 133.549 646.075 133.376C646.049 132.977 646.036 132.579 646.036 132.18C646.036 131.981 646.032 131.79 646.023 131.608C646.023 131.426 646.027 131.17 646.036 130.841C646.036 130.676 646.023 130.49 645.997 130.282C645.971 130.065 645.906 129.914 645.802 129.827C645.724 129.758 645.637 129.719 645.542 129.71C645.447 129.693 645.351 129.701 645.256 129.736C645.169 129.771 645.091 129.836 645.022 129.931C644.953 130.018 644.905 130.13 644.879 130.269C644.879 130.382 644.875 130.499 644.866 130.62C644.866 130.733 644.87 130.841 644.879 130.945C644.888 131.222 644.892 131.487 644.892 131.738C644.892 131.981 644.888 132.241 644.879 132.518C644.87 132.631 644.866 132.752 644.866 132.882C644.875 133.012 644.875 133.142 644.866 133.272C644.857 133.393 644.831 133.506 644.788 133.61C644.753 133.714 644.688 133.796 644.593 133.857C644.489 133.926 644.376 133.97 644.255 133.987C644.142 133.996 644.034 133.978 643.93 133.935C643.835 133.883 643.748 133.805 643.67 133.701C643.601 133.597 643.562 133.458 643.553 133.285C643.536 133.086 643.523 132.904 643.514 132.739C643.514 132.566 643.514 132.384 643.514 132.193C643.514 131.994 643.518 131.79 643.527 131.582C643.536 131.365 643.531 131.157 643.514 130.958C643.514 130.897 643.51 130.828 643.501 130.75C643.501 130.663 643.497 130.577 643.488 130.49C643.488 130.403 643.479 130.321 643.462 130.243C643.453 130.156 643.436 130.087 643.41 130.035C643.341 129.914 643.215 129.836 643.033 129.801C642.86 129.766 642.712 129.779 642.591 129.84C642.47 129.901 642.379 129.979 642.318 130.074C642.257 130.169 642.214 130.273 642.188 130.386C642.162 130.499 642.149 130.62 642.149 130.75C642.149 130.871 642.149 130.988 642.149 131.101C642.149 131.664 642.149 132.154 642.149 132.57C642.158 132.977 642.114 133.307 642.019 133.558C641.976 133.688 641.885 133.788 641.746 133.857C641.616 133.926 641.473 133.961 641.317 133.961C641.17 133.961 641.031 133.926 640.901 133.857C640.771 133.788 640.684 133.679 640.641 133.532C640.615 133.437 640.589 133.302 640.563 133.129C640.546 132.947 640.533 132.748 640.524 132.531C640.515 132.314 640.511 132.098 640.511 131.881C640.511 131.656 640.511 131.452 640.511 131.27V129.398C640.502 129.199 640.498 128.982 640.498 128.748C640.498 128.514 640.533 128.302 640.602 128.111C640.663 127.946 640.758 127.842 640.888 127.799C641.018 127.747 641.152 127.725 641.291 127.734C641.447 127.734 641.568 127.777 641.655 127.864C641.75 127.942 641.82 128.042 641.863 128.163C641.906 128.276 641.932 128.406 641.941 128.553C641.95 128.692 641.958 128.826 641.967 128.956C642.062 128.739 642.175 128.562 642.305 128.423C642.444 128.276 642.639 128.18 642.89 128.137C643.531 128.016 644.043 128.18 644.424 128.631C644.597 128.458 644.818 128.315 645.087 128.202C645.295 128.124 645.507 128.089 645.724 128.098C645.941 128.098 646.144 128.137 646.335 128.215C646.534 128.293 646.712 128.406 646.868 128.553C647.033 128.7 647.163 128.878 647.258 129.086C647.388 129.363 647.462 129.671 647.479 130.009C647.496 130.347 647.514 130.668 647.531 130.971ZM650.326 132.96C650.317 133.003 650.309 133.047 650.3 133.09C650.3 133.125 650.3 133.164 650.3 133.207L650.222 133.48C650.205 133.515 650.192 133.536 650.183 133.545L650.144 133.623C650.101 133.718 650.023 133.796 649.91 133.857C649.702 133.961 649.481 133.987 649.247 133.935C649.1 133.918 648.983 133.874 648.896 133.805C648.809 133.744 648.749 133.671 648.714 133.584C648.679 133.497 648.653 133.411 648.636 133.324C648.61 133.237 648.597 133.159 648.597 133.09V125.81C648.597 125.749 648.597 125.697 648.597 125.654C648.606 125.602 648.614 125.554 648.623 125.511C648.632 125.45 648.64 125.398 648.649 125.355C648.666 125.312 648.684 125.264 648.701 125.212C648.727 125.125 648.775 125.056 648.844 125.004C648.948 124.926 649.048 124.883 649.143 124.874C649.204 124.857 649.26 124.848 649.312 124.848C649.364 124.839 649.425 124.835 649.494 124.835C649.615 124.835 649.754 124.87 649.91 124.939C650.031 125.008 650.118 125.104 650.17 125.225C650.257 125.398 650.3 125.559 650.3 125.706C650.309 125.793 650.313 125.923 650.313 126.096C650.322 126.269 650.326 126.399 650.326 126.486V126.538C650.343 126.815 650.352 127.084 650.352 127.344C650.352 127.595 650.348 127.873 650.339 128.176C650.339 128.471 650.335 128.757 650.326 129.034C650.326 129.303 650.326 129.571 650.326 129.84V132.57C650.326 132.605 650.326 132.639 650.326 132.674C650.335 132.7 650.339 132.73 650.339 132.765C650.339 132.852 650.335 132.917 650.326 132.96ZM652.911 128.527C653.171 128.397 653.444 128.306 653.73 128.254C654.016 128.193 654.298 128.18 654.575 128.215C654.861 128.241 655.134 128.315 655.394 128.436C655.654 128.549 655.897 128.713 656.122 128.93C656.347 129.155 656.521 129.402 656.642 129.671C656.763 129.94 656.85 130.239 656.902 130.568C656.937 130.793 656.993 131.001 657.071 131.192C657.149 131.383 657.231 131.573 657.318 131.764C657.413 131.955 657.5 132.145 657.578 132.336C657.665 132.527 657.734 132.726 657.786 132.934C657.829 133.133 657.812 133.328 657.734 133.519C657.665 133.701 657.517 133.814 657.292 133.857C657.162 133.883 657.036 133.874 656.915 133.831C656.802 133.779 656.698 133.71 656.603 133.623C656.508 133.528 656.421 133.428 656.343 133.324C656.274 133.211 656.209 133.107 656.148 133.012C655.949 133.272 655.732 133.476 655.498 133.623C655.264 133.762 654.982 133.853 654.653 133.896C654.376 133.931 654.111 133.939 653.86 133.922C653.609 133.905 653.34 133.857 653.054 133.779C652.681 133.684 652.374 133.519 652.131 133.285C651.897 133.042 651.715 132.765 651.585 132.453C651.464 132.132 651.399 131.79 651.39 131.426C651.381 131.062 651.425 130.702 651.52 130.347C651.641 129.879 651.823 129.498 652.066 129.203C652.309 128.908 652.59 128.683 652.911 128.527ZM653.236 130.048C653.115 130.169 653.019 130.312 652.95 130.477C652.881 130.642 652.837 130.815 652.82 130.997C652.811 131.179 652.829 131.361 652.872 131.543C652.915 131.725 652.985 131.885 653.08 132.024C653.167 132.145 653.314 132.249 653.522 132.336C653.73 132.414 653.947 132.462 654.172 132.479C654.432 132.496 654.657 132.427 654.848 132.271C655.047 132.115 655.195 131.92 655.29 131.686C655.394 131.443 655.442 131.188 655.433 130.919C655.424 130.642 655.351 130.39 655.212 130.165C655.108 130 654.969 129.879 654.796 129.801C654.631 129.723 654.454 129.684 654.263 129.684C654.072 129.675 653.882 129.706 653.691 129.775C653.509 129.836 653.357 129.927 653.236 130.048ZM663.938 131.439C663.946 131.612 663.951 131.794 663.951 131.985C663.951 132.167 663.946 132.336 663.938 132.492C663.929 132.726 663.916 132.943 663.899 133.142C663.881 133.333 663.847 133.497 663.795 133.636C663.743 133.766 663.66 133.866 663.548 133.935C663.444 133.996 663.296 134.013 663.106 133.987C662.906 133.961 662.763 133.866 662.677 133.701C662.59 133.536 662.529 133.35 662.495 133.142C662.469 132.925 662.46 132.709 662.469 132.492C662.477 132.275 662.477 132.106 662.469 131.985C662.46 131.794 662.451 131.578 662.443 131.335C662.443 131.084 662.417 130.85 662.365 130.633C662.321 130.408 662.243 130.217 662.131 130.061C662.018 129.905 661.849 129.823 661.624 129.814C661.338 129.797 661.117 129.818 660.961 129.879C660.813 129.94 660.705 130.031 660.636 130.152C660.566 130.265 660.523 130.403 660.506 130.568C660.497 130.733 660.48 130.91 660.454 131.101L660.441 131.608V132.557C660.441 132.713 660.436 132.878 660.428 133.051C660.428 133.216 660.402 133.367 660.35 133.506C660.298 133.645 660.215 133.762 660.103 133.857C659.999 133.952 659.843 134 659.635 134C659.375 134 659.18 133.918 659.05 133.753C658.928 133.58 658.868 133.367 658.868 133.116V125.641C658.868 125.589 658.868 125.541 658.868 125.498C658.876 125.446 658.885 125.394 658.894 125.342C658.911 125.29 658.924 125.242 658.933 125.199C658.941 125.147 658.954 125.099 658.972 125.056C658.998 124.969 659.041 124.904 659.102 124.861C659.145 124.818 659.188 124.783 659.232 124.757C659.275 124.731 659.323 124.714 659.375 124.705C659.418 124.696 659.466 124.692 659.518 124.692C659.57 124.683 659.622 124.679 659.674 124.679C659.804 124.679 659.929 124.718 660.051 124.796C660.103 124.831 660.15 124.87 660.194 124.913C660.237 124.948 660.272 125 660.298 125.069C660.367 125.234 660.402 125.39 660.402 125.537C660.41 125.58 660.415 125.645 660.415 125.732C660.423 125.81 660.428 125.892 660.428 125.979C660.428 126.066 660.428 126.152 660.428 126.239C660.436 126.317 660.441 126.378 660.441 126.421V126.486C660.449 126.763 660.454 127.045 660.454 127.331C660.454 127.617 660.454 127.907 660.454 128.202V128.423C660.818 128.302 661.199 128.245 661.598 128.254C661.996 128.254 662.352 128.332 662.664 128.488C662.984 128.653 663.227 128.839 663.392 129.047C663.565 129.255 663.691 129.485 663.769 129.736C663.847 129.987 663.89 130.256 663.899 130.542C663.916 130.828 663.929 131.127 663.938 131.439ZM670.522 129.073C670.522 129.316 670.522 129.589 670.522 129.892C670.531 130.195 670.535 130.512 670.535 130.841C670.535 131.162 670.535 131.482 670.535 131.803C670.535 132.115 670.531 132.405 670.522 132.674C670.514 132.804 670.501 132.947 670.483 133.103C670.466 133.25 670.431 133.389 670.379 133.519C670.327 133.649 670.245 133.757 670.132 133.844C670.028 133.922 669.885 133.957 669.703 133.948C669.435 133.931 669.24 133.814 669.118 133.597C669.006 133.38 668.941 133.077 668.923 132.687C668.923 132.488 668.919 132.258 668.91 131.998C668.91 131.738 668.906 131.474 668.897 131.205C668.897 130.936 668.897 130.676 668.897 130.425C668.897 130.165 668.897 129.931 668.897 129.723C668.897 129.602 668.893 129.454 668.884 129.281C668.884 129.108 668.889 128.93 668.897 128.748C668.906 128.566 668.928 128.393 668.962 128.228C668.997 128.055 669.053 127.912 669.131 127.799C669.192 127.73 669.279 127.678 669.391 127.643C669.504 127.6 669.621 127.578 669.742 127.578C669.872 127.578 669.994 127.6 670.106 127.643C670.228 127.686 670.314 127.747 670.366 127.825C670.401 127.877 670.427 127.951 670.444 128.046C670.462 128.141 670.475 128.25 670.483 128.371C670.501 128.484 670.509 128.605 670.509 128.735C670.518 128.856 670.522 128.969 670.522 129.073ZM670.028 126.447C669.76 126.516 669.534 126.49 669.352 126.369C669.179 126.239 669.071 126.048 669.027 125.797C668.993 125.615 669.006 125.455 669.066 125.316C669.127 125.177 669.218 125.073 669.339 125.004C669.461 124.926 669.599 124.891 669.755 124.9C669.911 124.909 670.067 124.969 670.223 125.082C670.371 125.186 670.475 125.307 670.535 125.446C670.605 125.585 670.626 125.719 670.6 125.849C670.583 125.979 670.527 126.1 670.431 126.213C670.336 126.317 670.202 126.395 670.028 126.447ZM674.252 131.01C674.442 131.209 674.581 131.357 674.668 131.452C674.763 131.539 674.828 131.604 674.863 131.647C674.906 131.69 674.936 131.716 674.954 131.725C674.971 131.734 675.001 131.76 675.045 131.803C675.088 131.846 675.157 131.916 675.253 132.011C675.348 132.098 675.491 132.241 675.682 132.44C675.838 132.596 675.963 132.778 676.059 132.986C676.163 133.185 676.154 133.402 676.033 133.636C675.963 133.757 675.885 133.844 675.799 133.896C675.712 133.939 675.617 133.957 675.513 133.948C675.417 133.939 675.313 133.909 675.201 133.857C675.097 133.805 674.993 133.74 674.889 133.662C674.689 133.515 674.499 133.346 674.317 133.155C674.135 132.956 673.987 132.804 673.875 132.7C673.797 132.622 673.749 132.57 673.732 132.544C673.714 132.527 673.697 132.514 673.68 132.505C673.662 132.488 673.645 132.47 673.628 132.453C673.567 132.392 673.502 132.332 673.433 132.271C673.363 132.21 673.294 132.145 673.225 132.076V132.583C673.225 132.678 673.229 132.748 673.238 132.791C673.238 132.878 673.233 132.943 673.225 132.986C673.199 133.081 673.186 133.172 673.186 133.259C673.177 133.302 673.168 133.346 673.16 133.389C673.151 133.424 673.138 133.463 673.121 133.506C673.112 133.523 673.103 133.536 673.095 133.545C673.095 133.554 673.095 133.567 673.095 133.584C673.086 133.601 673.077 133.614 673.069 133.623C673.069 133.632 673.064 133.645 673.056 133.662C673.012 133.749 672.943 133.831 672.848 133.909C672.683 134.004 672.479 134.03 672.237 133.987C672.107 133.961 672.007 133.913 671.938 133.844C671.86 133.792 671.808 133.718 671.782 133.623C671.764 133.58 671.747 133.536 671.73 133.493C671.721 133.441 671.708 133.393 671.691 133.35C671.673 133.307 671.665 133.268 671.665 133.233C671.665 133.19 671.665 133.155 671.665 133.129V125.732C671.665 125.68 671.665 125.628 671.665 125.576C671.665 125.524 671.669 125.472 671.678 125.42C671.686 125.368 671.695 125.32 671.704 125.277C671.721 125.225 671.738 125.177 671.756 125.134C671.79 125.047 671.834 124.978 671.886 124.926C671.929 124.883 671.972 124.852 672.016 124.835C672.068 124.809 672.115 124.787 672.159 124.77C672.202 124.761 672.25 124.757 672.302 124.757C672.362 124.748 672.419 124.744 672.471 124.744C672.592 124.744 672.713 124.779 672.835 124.848C672.947 124.926 673.03 125.026 673.082 125.147C673.151 125.312 673.186 125.472 673.186 125.628C673.194 125.715 673.203 125.849 673.212 126.031C673.22 126.204 673.225 126.334 673.225 126.421V126.473C673.233 126.759 673.238 127.032 673.238 127.292C673.238 127.552 673.238 127.834 673.238 128.137C673.229 128.44 673.225 128.731 673.225 129.008C673.225 129.277 673.225 129.545 673.225 129.814V129.957C673.294 129.888 673.363 129.823 673.433 129.762C673.502 129.701 673.567 129.636 673.628 129.567C673.662 129.541 673.697 129.511 673.732 129.476L673.875 129.333C673.987 129.22 674.135 129.069 674.317 128.878C674.499 128.679 674.689 128.505 674.889 128.358C675.105 128.202 675.313 128.107 675.513 128.072C675.721 128.037 675.894 128.141 676.033 128.384C676.154 128.618 676.163 128.839 676.059 129.047C675.963 129.246 675.838 129.433 675.682 129.606C675.491 129.805 675.348 129.953 675.253 130.048C675.157 130.135 675.088 130.2 675.045 130.243C675.001 130.278 674.971 130.299 674.954 130.308C674.936 130.317 674.906 130.343 674.863 130.386C674.828 130.421 674.763 130.486 674.668 130.581C674.581 130.668 674.442 130.811 674.252 131.01ZM678.695 128.527C678.955 128.397 679.228 128.306 679.514 128.254C679.8 128.193 680.082 128.18 680.359 128.215C680.645 128.241 680.918 128.315 681.178 128.436C681.438 128.549 681.681 128.713 681.906 128.93C682.132 129.155 682.305 129.402 682.426 129.671C682.548 129.94 682.634 130.239 682.686 130.568C682.721 130.793 682.777 131.001 682.855 131.192C682.933 131.383 683.016 131.573 683.102 131.764C683.198 131.955 683.284 132.145 683.362 132.336C683.449 132.527 683.518 132.726 683.57 132.934C683.614 133.133 683.596 133.328 683.518 133.519C683.449 133.701 683.302 133.814 683.076 133.857C682.946 133.883 682.821 133.874 682.699 133.831C682.587 133.779 682.483 133.71 682.387 133.623C682.292 133.528 682.205 133.428 682.127 133.324C682.058 133.211 681.993 133.107 681.932 133.012C681.733 133.272 681.516 133.476 681.282 133.623C681.048 133.762 680.767 133.853 680.437 133.896C680.16 133.931 679.896 133.939 679.644 133.922C679.393 133.905 679.124 133.857 678.838 133.779C678.466 133.684 678.158 133.519 677.915 133.285C677.681 133.042 677.499 132.765 677.369 132.453C677.248 132.132 677.183 131.79 677.174 131.426C677.166 131.062 677.209 130.702 677.304 130.347C677.426 129.879 677.608 129.498 677.85 129.203C678.093 128.908 678.375 128.683 678.695 128.527ZM679.02 130.048C678.899 130.169 678.804 130.312 678.734 130.477C678.665 130.642 678.622 130.815 678.604 130.997C678.596 131.179 678.613 131.361 678.656 131.543C678.7 131.725 678.769 131.885 678.864 132.024C678.951 132.145 679.098 132.249 679.306 132.336C679.514 132.414 679.731 132.462 679.956 132.479C680.216 132.496 680.442 132.427 680.632 132.271C680.832 132.115 680.979 131.92 681.074 131.686C681.178 131.443 681.226 131.188 681.217 130.919C681.209 130.642 681.135 130.39 680.996 130.165C680.892 130 680.754 129.879 680.58 129.801C680.416 129.723 680.238 129.684 680.047 129.684C679.857 129.675 679.666 129.706 679.475 129.775C679.293 129.836 679.142 129.927 679.02 130.048ZM684.665 129.359C684.665 129.16 684.661 128.947 684.652 128.722C684.652 128.497 684.691 128.293 684.769 128.111C684.838 127.946 684.951 127.829 685.107 127.76C685.272 127.682 685.432 127.665 685.588 127.708C685.744 127.734 685.865 127.782 685.952 127.851C686.039 127.92 686.099 128.003 686.134 128.098C686.177 128.185 686.203 128.289 686.212 128.41C686.221 128.523 686.229 128.635 686.238 128.748C686.325 128.592 686.433 128.466 686.563 128.371C686.693 128.276 686.827 128.198 686.966 128.137C687.105 128.076 687.235 128.033 687.356 128.007C687.486 127.981 687.586 127.968 687.655 127.968C687.984 127.968 688.309 128.042 688.63 128.189C688.959 128.328 689.232 128.527 689.449 128.787C689.57 128.943 689.661 129.108 689.722 129.281C689.791 129.446 689.839 129.619 689.865 129.801C689.9 129.983 689.921 130.169 689.93 130.36C689.939 130.542 689.947 130.728 689.956 130.919C689.999 131.474 689.999 132.024 689.956 132.57C689.947 132.683 689.943 132.813 689.943 132.96C689.943 133.107 689.93 133.255 689.904 133.402C689.887 133.541 689.848 133.666 689.787 133.779C689.735 133.883 689.644 133.948 689.514 133.974C689.332 134.017 689.18 134.026 689.059 134C688.946 133.983 688.855 133.944 688.786 133.883C688.717 133.822 688.665 133.744 688.63 133.649C688.595 133.554 688.565 133.445 688.539 133.324C688.522 133.229 688.504 133.12 688.487 132.999C688.478 132.869 688.47 132.739 688.461 132.609C688.461 132.479 688.457 132.353 688.448 132.232C688.448 132.102 688.448 131.985 688.448 131.881C688.448 131.716 688.444 131.534 688.435 131.335C688.426 131.136 688.426 130.949 688.435 130.776C688.435 130.369 688.327 130.061 688.11 129.853C687.902 129.636 687.616 129.545 687.252 129.58C686.975 129.615 686.732 129.727 686.524 129.918C686.316 130.1 686.216 130.338 686.225 130.633C686.225 130.746 686.225 130.85 686.225 130.945C686.225 131.04 686.221 131.136 686.212 131.231C686.212 131.326 686.212 131.43 686.212 131.543C686.212 131.656 686.212 131.781 686.212 131.92C686.212 132.206 686.212 132.509 686.212 132.83C686.212 133.142 686.173 133.398 686.095 133.597C686.026 133.805 685.909 133.948 685.744 134.026C685.579 134.104 685.384 134.082 685.159 133.961C685.064 133.909 684.986 133.84 684.925 133.753C684.873 133.658 684.83 133.558 684.795 133.454C684.769 133.35 684.752 133.246 684.743 133.142C684.734 133.029 684.726 132.925 684.717 132.83C684.691 132.544 684.674 132.28 684.665 132.037C684.665 131.786 684.665 131.517 684.665 131.231V129.359Z" fill="black"/>
<path d="M632.812 201.064C632.881 201.194 632.886 201.324 632.825 201.454C632.782 201.593 632.708 201.697 632.604 201.766C632.552 201.809 632.504 201.848 632.461 201.883C632.418 201.909 632.37 201.931 632.318 201.948C632.223 202 632.11 202.017 631.98 202C631.928 202 631.88 201.991 631.837 201.974C631.794 201.957 631.75 201.935 631.707 201.909C631.664 201.883 631.616 201.857 631.564 201.831C631.521 201.796 631.477 201.762 631.434 201.727C631.382 201.684 631.334 201.645 631.291 201.61C631.248 201.575 631.209 201.536 631.174 201.493C631.131 201.45 631.092 201.406 631.057 201.363C631.022 201.32 630.988 201.281 630.953 201.246L630.797 201.077L628.301 198.464L628.34 201.077V201.194C628.34 201.229 628.336 201.268 628.327 201.311C628.318 201.346 628.31 201.385 628.301 201.428C628.275 201.541 628.245 201.64 628.21 201.727C628.193 201.779 628.167 201.822 628.132 201.857C628.106 201.892 628.076 201.926 628.041 201.961C627.946 202.048 627.833 202.095 627.703 202.104C627.573 202.147 627.452 202.16 627.339 202.143C627.235 202.134 627.127 202.104 627.014 202.052C626.927 202 626.849 201.913 626.78 201.792C626.763 201.757 626.75 201.736 626.741 201.727C626.741 201.718 626.732 201.688 626.715 201.636C626.663 201.549 626.637 201.463 626.637 201.376C626.628 201.324 626.62 201.276 626.611 201.233C626.611 201.19 626.607 201.142 626.598 201.09C626.589 201.055 626.585 201.021 626.585 200.986C626.585 200.951 626.585 200.917 626.585 200.882C626.594 200.839 626.598 200.804 626.598 200.778C626.598 200.743 626.598 200.704 626.598 200.661L626.585 199.634L626.572 197.723C626.572 197.168 626.559 196.57 626.533 195.929C626.524 195.617 626.52 195.34 626.52 195.097C626.52 194.854 626.524 194.581 626.533 194.278V194.226C626.55 194.131 626.559 194.04 626.559 193.953C626.559 193.858 626.563 193.767 626.572 193.68C626.572 193.507 626.611 193.333 626.689 193.16C626.741 193.03 626.832 192.926 626.962 192.848C627.031 192.805 627.096 192.779 627.157 192.77C627.226 192.753 627.3 192.735 627.378 192.718C627.439 192.718 627.495 192.722 627.547 192.731C627.608 192.74 627.664 192.748 627.716 192.757C627.829 192.774 627.933 192.822 628.028 192.9C628.054 192.926 628.076 192.956 628.093 192.991C628.119 193.026 628.141 193.069 628.158 193.121C628.201 193.19 628.232 193.29 628.249 193.42C628.258 193.472 628.262 193.524 628.262 193.576C628.271 193.628 628.275 193.684 628.275 193.745V194.278L628.288 195.864C628.427 195.743 628.561 195.617 628.691 195.487C628.83 195.357 628.964 195.218 629.094 195.071C629.328 194.828 629.558 194.594 629.783 194.369C630.017 194.135 630.251 193.905 630.485 193.68L630.524 193.641C630.593 193.572 630.663 193.507 630.732 193.446C630.81 193.377 630.884 193.312 630.953 193.251C631.083 193.104 631.243 193 631.434 192.939C631.555 192.861 631.698 192.831 631.863 192.848C631.941 192.857 632.01 192.874 632.071 192.9C632.14 192.926 632.205 192.961 632.266 193.004C632.309 193.047 632.353 193.086 632.396 193.121C632.439 193.147 632.474 193.182 632.5 193.225C632.569 193.286 632.613 193.377 632.63 193.498C632.63 193.593 632.613 193.68 632.578 193.758C632.552 193.801 632.526 193.845 632.5 193.888C632.474 193.931 632.444 193.975 632.409 194.018C632.366 194.07 632.327 194.118 632.292 194.161C632.257 194.204 632.218 194.248 632.175 194.291C632.14 194.334 632.101 194.373 632.058 194.408C632.023 194.443 631.989 194.482 631.954 194.525L631.785 194.694L629.354 197.177C629.484 197.307 629.618 197.446 629.757 197.593C629.904 197.732 630.043 197.87 630.173 198.009C630.303 198.139 630.424 198.265 630.537 198.386C630.65 198.499 630.745 198.594 630.823 198.672C631.057 198.915 631.282 199.157 631.499 199.4C631.716 199.634 631.928 199.872 632.136 200.115L632.175 200.154C632.244 200.223 632.309 200.297 632.37 200.375C632.431 200.444 632.487 200.514 632.539 200.583C632.669 200.73 632.76 200.891 632.812 201.064ZM637.988 200.219C638.092 200.193 638.196 200.176 638.3 200.167C638.412 200.158 638.512 200.171 638.599 200.206C638.694 200.241 638.772 200.301 638.833 200.388C638.893 200.466 638.924 200.579 638.924 200.726C638.924 200.83 638.898 200.93 638.846 201.025C638.794 201.12 638.729 201.207 638.651 201.285C638.573 201.363 638.486 201.432 638.391 201.493C638.295 201.545 638.204 201.588 638.118 201.623C637.866 201.736 637.576 201.822 637.247 201.883C636.926 201.944 636.592 201.965 636.246 201.948C635.778 201.931 635.327 201.84 634.894 201.675C634.469 201.502 634.135 201.22 633.893 200.83C633.667 200.449 633.533 200.024 633.49 199.556C633.446 199.088 633.468 198.646 633.555 198.23C633.65 197.727 633.81 197.32 634.036 197.008C634.27 196.687 634.547 196.432 634.868 196.241C635.258 196.016 635.695 195.899 636.181 195.89C636.666 195.881 637.13 195.977 637.572 196.176C637.866 196.306 638.131 196.484 638.365 196.709C638.599 196.926 638.776 197.19 638.898 197.502C638.932 197.58 638.958 197.675 638.976 197.788C639.002 197.901 639.019 198.022 639.028 198.152C639.036 198.273 639.036 198.395 639.028 198.516C639.019 198.637 638.997 198.746 638.963 198.841C638.911 198.997 638.846 199.118 638.768 199.205C638.69 199.292 638.59 199.357 638.469 199.4C638.347 199.443 638.2 199.474 638.027 199.491C637.862 199.5 637.663 199.508 637.429 199.517C637.221 199.526 637.026 199.53 636.844 199.53C636.662 199.53 636.475 199.53 636.285 199.53C636.094 199.521 635.895 199.517 635.687 199.517C635.487 199.508 635.262 199.5 635.011 199.491C634.985 199.664 635.006 199.816 635.076 199.946C635.154 200.067 635.258 200.171 635.388 200.258C635.518 200.336 635.665 200.397 635.83 200.44C635.994 200.483 636.155 200.509 636.311 200.518C636.605 200.535 636.887 200.514 637.156 200.453C637.424 200.384 637.702 200.306 637.988 200.219ZM637.429 197.697C637.264 197.506 637.091 197.368 636.909 197.281C636.77 197.22 636.623 197.194 636.467 197.203C636.319 197.203 636.176 197.225 636.038 197.268C635.786 197.329 635.574 197.459 635.401 197.658C635.383 197.675 635.353 197.719 635.31 197.788C635.266 197.849 635.223 197.914 635.18 197.983C635.145 198.052 635.119 198.117 635.102 198.178C635.084 198.239 635.093 198.269 635.128 198.269H637.676C637.667 198.148 637.645 198.048 637.611 197.97C637.576 197.883 637.515 197.792 637.429 197.697ZM645.109 196.267C645.178 196.432 645.183 196.614 645.122 196.813C645.07 197.012 644.97 197.142 644.823 197.203C644.745 197.238 644.641 197.268 644.511 197.294C644.381 197.311 644.238 197.329 644.082 197.346C643.935 197.363 643.787 197.376 643.64 197.385C643.493 197.394 643.367 197.398 643.263 197.398C643.272 197.658 643.28 197.927 643.289 198.204C643.298 198.473 643.306 198.737 643.315 198.997C643.324 199.257 643.328 199.508 643.328 199.751C643.328 199.985 643.324 200.197 643.315 200.388C643.315 200.518 643.315 200.67 643.315 200.843C643.315 201.008 643.302 201.168 643.276 201.324C643.259 201.48 643.228 201.619 643.185 201.74C643.142 201.853 643.077 201.926 642.99 201.961C642.721 202.074 642.474 202.104 642.249 202.052C642.032 202.009 641.876 201.918 641.781 201.779C641.712 201.666 641.66 201.536 641.625 201.389C641.59 201.233 641.564 201.077 641.547 200.921C641.538 200.756 641.534 200.6 641.534 200.453C641.543 200.297 641.547 200.163 641.547 200.05C641.556 199.686 641.56 199.274 641.56 198.815C641.569 198.347 641.573 197.879 641.573 197.411H641.378C641.274 197.411 641.14 197.411 640.975 197.411C640.819 197.402 640.659 197.389 640.494 197.372C640.338 197.346 640.191 197.316 640.052 197.281C639.913 197.238 639.814 197.177 639.753 197.099C639.658 196.986 639.597 196.865 639.571 196.735C639.554 196.605 639.562 196.484 639.597 196.371C639.64 196.25 639.705 196.146 639.792 196.059C639.879 195.964 639.978 195.903 640.091 195.877C640.247 195.834 640.468 195.812 640.754 195.812C641.04 195.803 641.309 195.803 641.56 195.812C641.551 195.725 641.547 195.643 641.547 195.565C641.547 195.478 641.543 195.396 641.534 195.318C641.525 195.214 641.521 195.084 641.521 194.928C641.521 194.763 641.53 194.603 641.547 194.447C641.573 194.282 641.612 194.131 641.664 193.992C641.716 193.845 641.79 193.732 641.885 193.654C642.015 193.55 642.145 193.494 642.275 193.485C642.414 193.468 642.539 193.485 642.652 193.537C642.773 193.589 642.873 193.667 642.951 193.771C643.038 193.866 643.098 193.975 643.133 194.096C643.159 194.2 643.181 194.326 643.198 194.473C643.215 194.612 643.224 194.759 643.224 194.915C643.233 195.071 643.237 195.227 643.237 195.383C643.237 195.539 643.237 195.682 643.237 195.812H643.367C643.497 195.812 643.649 195.808 643.822 195.799C643.995 195.79 644.164 195.795 644.329 195.812C644.502 195.829 644.658 195.873 644.797 195.942C644.936 196.003 645.04 196.111 645.109 196.267ZM650.188 200.219C650.292 200.193 650.396 200.176 650.5 200.167C650.613 200.158 650.712 200.171 650.799 200.206C650.894 200.241 650.972 200.301 651.033 200.388C651.094 200.466 651.124 200.579 651.124 200.726C651.124 200.83 651.098 200.93 651.046 201.025C650.994 201.12 650.929 201.207 650.851 201.285C650.773 201.363 650.686 201.432 650.591 201.493C650.496 201.545 650.405 201.588 650.318 201.623C650.067 201.736 649.776 201.822 649.447 201.883C649.126 201.944 648.793 201.965 648.446 201.948C647.978 201.931 647.527 201.84 647.094 201.675C646.669 201.502 646.336 201.22 646.093 200.83C645.868 200.449 645.733 200.024 645.69 199.556C645.647 199.088 645.668 198.646 645.755 198.23C645.85 197.727 646.011 197.32 646.236 197.008C646.47 196.687 646.747 196.432 647.068 196.241C647.458 196.016 647.896 195.899 648.381 195.89C648.866 195.881 649.33 195.977 649.772 196.176C650.067 196.306 650.331 196.484 650.565 196.709C650.799 196.926 650.977 197.19 651.098 197.502C651.133 197.58 651.159 197.675 651.176 197.788C651.202 197.901 651.219 198.022 651.228 198.152C651.237 198.273 651.237 198.395 651.228 198.516C651.219 198.637 651.198 198.746 651.163 198.841C651.111 198.997 651.046 199.118 650.968 199.205C650.89 199.292 650.79 199.357 650.669 199.4C650.548 199.443 650.4 199.474 650.227 199.491C650.062 199.5 649.863 199.508 649.629 199.517C649.421 199.526 649.226 199.53 649.044 199.53C648.862 199.53 648.676 199.53 648.485 199.53C648.294 199.521 648.095 199.517 647.887 199.517C647.688 199.508 647.462 199.5 647.211 199.491C647.185 199.664 647.207 199.816 647.276 199.946C647.354 200.067 647.458 200.171 647.588 200.258C647.718 200.336 647.865 200.397 648.03 200.44C648.195 200.483 648.355 200.509 648.511 200.518C648.806 200.535 649.087 200.514 649.356 200.453C649.625 200.384 649.902 200.306 650.188 200.219ZM649.629 197.697C649.464 197.506 649.291 197.368 649.109 197.281C648.97 197.22 648.823 197.194 648.667 197.203C648.52 197.203 648.377 197.225 648.238 197.268C647.987 197.329 647.774 197.459 647.601 197.658C647.584 197.675 647.553 197.719 647.51 197.788C647.467 197.849 647.423 197.914 647.38 197.983C647.345 198.052 647.319 198.117 647.302 198.178C647.285 198.239 647.293 198.269 647.328 198.269H649.876C649.867 198.148 649.846 198.048 649.811 197.97C649.776 197.883 649.716 197.792 649.629 197.697ZM652.292 197.398C652.292 197.294 652.292 197.177 652.292 197.047C652.292 196.908 652.296 196.77 652.305 196.631C652.313 196.484 652.326 196.345 652.344 196.215C652.37 196.076 652.404 195.955 652.448 195.851C652.517 195.695 652.625 195.591 652.773 195.539C652.92 195.478 653.08 195.452 653.254 195.461C653.436 195.461 653.579 195.491 653.683 195.552C653.787 195.613 653.865 195.695 653.917 195.799C653.969 195.894 653.999 196.007 654.008 196.137C654.025 196.258 654.034 196.388 654.034 196.527C654.112 196.388 654.216 196.276 654.346 196.189C654.484 196.102 654.623 196.033 654.762 195.981C654.9 195.929 655.026 195.894 655.139 195.877C655.251 195.851 655.316 195.838 655.334 195.838C655.55 195.821 655.745 195.816 655.919 195.825C656.101 195.834 656.3 195.873 656.517 195.942C656.655 195.994 656.798 196.068 656.946 196.163C657.093 196.25 657.223 196.354 657.336 196.475C657.448 196.596 657.522 196.731 657.557 196.878C657.6 197.017 657.583 197.164 657.505 197.32C657.383 197.537 657.249 197.645 657.102 197.645C656.954 197.636 656.794 197.61 656.621 197.567C656.525 197.55 656.413 197.511 656.283 197.45C656.153 197.389 656.04 197.35 655.945 197.333C655.65 197.29 655.39 197.311 655.165 197.398C654.939 197.485 654.744 197.589 654.58 197.71C654.389 197.857 654.224 198.026 654.086 198.217V200.089C654.086 200.323 654.081 200.566 654.073 200.817C654.073 201.068 654.038 201.298 653.969 201.506C653.908 201.705 653.8 201.87 653.644 202C653.496 202.121 653.28 202.173 652.994 202.156C652.838 202.147 652.699 202.074 652.578 201.935C652.456 201.788 652.383 201.645 652.357 201.506C652.339 201.376 652.326 201.22 652.318 201.038C652.309 200.856 652.3 200.665 652.292 200.466C652.292 200.267 652.292 200.067 652.292 199.868C652.292 199.66 652.292 199.469 652.292 199.296V197.398ZM659.373 196.527C659.633 196.397 659.906 196.306 660.192 196.254C660.478 196.193 660.76 196.18 661.037 196.215C661.323 196.241 661.596 196.315 661.856 196.436C662.116 196.549 662.359 196.713 662.584 196.93C662.809 197.155 662.983 197.402 663.104 197.671C663.225 197.94 663.312 198.239 663.364 198.568C663.399 198.793 663.455 199.001 663.533 199.192C663.611 199.383 663.693 199.573 663.78 199.764C663.875 199.955 663.962 200.145 664.04 200.336C664.127 200.527 664.196 200.726 664.248 200.934C664.291 201.133 664.274 201.328 664.196 201.519C664.127 201.701 663.979 201.814 663.754 201.857C663.624 201.883 663.498 201.874 663.377 201.831C663.264 201.779 663.16 201.71 663.065 201.623C662.97 201.528 662.883 201.428 662.805 201.324C662.736 201.211 662.671 201.107 662.61 201.012C662.411 201.272 662.194 201.476 661.96 201.623C661.726 201.762 661.444 201.853 661.115 201.896C660.838 201.931 660.573 201.939 660.322 201.922C660.071 201.905 659.802 201.857 659.516 201.779C659.143 201.684 658.836 201.519 658.593 201.285C658.359 201.042 658.177 200.765 658.047 200.453C657.926 200.132 657.861 199.79 657.852 199.426C657.843 199.062 657.887 198.702 657.982 198.347C658.103 197.879 658.285 197.498 658.528 197.203C658.771 196.908 659.052 196.683 659.373 196.527ZM659.698 198.048C659.577 198.169 659.481 198.312 659.412 198.477C659.343 198.642 659.299 198.815 659.282 198.997C659.273 199.179 659.291 199.361 659.334 199.543C659.377 199.725 659.447 199.885 659.542 200.024C659.629 200.145 659.776 200.249 659.984 200.336C660.192 200.414 660.409 200.462 660.634 200.479C660.894 200.496 661.119 200.427 661.31 200.271C661.509 200.115 661.657 199.92 661.752 199.686C661.856 199.443 661.904 199.188 661.895 198.919C661.886 198.642 661.813 198.39 661.674 198.165C661.57 198 661.431 197.879 661.258 197.801C661.093 197.723 660.916 197.684 660.725 197.684C660.534 197.675 660.344 197.706 660.153 197.775C659.971 197.836 659.819 197.927 659.698 198.048ZM665.343 197.359C665.343 197.16 665.338 196.947 665.33 196.722C665.33 196.497 665.369 196.293 665.447 196.111C665.516 195.946 665.629 195.829 665.785 195.76C665.949 195.682 666.11 195.665 666.266 195.708C666.422 195.734 666.543 195.782 666.63 195.851C666.716 195.92 666.777 196.003 666.812 196.098C666.855 196.185 666.881 196.289 666.89 196.41C666.898 196.523 666.907 196.635 666.916 196.748C667.002 196.592 667.111 196.466 667.241 196.371C667.371 196.276 667.505 196.198 667.644 196.137C667.782 196.076 667.912 196.033 668.034 196.007C668.164 195.981 668.263 195.968 668.333 195.968C668.662 195.968 668.987 196.042 669.308 196.189C669.637 196.328 669.91 196.527 670.127 196.787C670.248 196.943 670.339 197.108 670.4 197.281C670.469 197.446 670.517 197.619 670.543 197.801C670.577 197.983 670.599 198.169 670.608 198.36C670.616 198.542 670.625 198.728 670.634 198.919C670.677 199.474 670.677 200.024 670.634 200.57C670.625 200.683 670.621 200.813 670.621 200.96C670.621 201.107 670.608 201.255 670.582 201.402C670.564 201.541 670.525 201.666 670.465 201.779C670.413 201.883 670.322 201.948 670.192 201.974C670.01 202.017 669.858 202.026 669.737 202C669.624 201.983 669.533 201.944 669.464 201.883C669.394 201.822 669.342 201.744 669.308 201.649C669.273 201.554 669.243 201.445 669.217 201.324C669.199 201.229 669.182 201.12 669.165 200.999C669.156 200.869 669.147 200.739 669.139 200.609C669.139 200.479 669.134 200.353 669.126 200.232C669.126 200.102 669.126 199.985 669.126 199.881C669.126 199.716 669.121 199.534 669.113 199.335C669.104 199.136 669.104 198.949 669.113 198.776C669.113 198.369 669.004 198.061 668.788 197.853C668.58 197.636 668.294 197.545 667.93 197.58C667.652 197.615 667.41 197.727 667.202 197.918C666.994 198.1 666.894 198.338 666.903 198.633C666.903 198.746 666.903 198.85 666.903 198.945C666.903 199.04 666.898 199.136 666.89 199.231C666.89 199.326 666.89 199.43 666.89 199.543C666.89 199.656 666.89 199.781 666.89 199.92C666.89 200.206 666.89 200.509 666.89 200.83C666.89 201.142 666.851 201.398 666.773 201.597C666.703 201.805 666.586 201.948 666.422 202.026C666.257 202.104 666.062 202.082 665.837 201.961C665.741 201.909 665.663 201.84 665.603 201.753C665.551 201.658 665.507 201.558 665.473 201.454C665.447 201.35 665.429 201.246 665.421 201.142C665.412 201.029 665.403 200.925 665.395 200.83C665.369 200.544 665.351 200.28 665.343 200.037C665.343 199.786 665.343 199.517 665.343 199.231V197.359ZM677.11 199.543C677.11 199.82 677.102 200.119 677.084 200.44C677.076 200.761 677.063 201.06 677.045 201.337C677.045 201.597 677.032 201.857 677.006 202.117C676.989 202.342 676.954 202.585 676.902 202.845C676.85 203.114 676.777 203.361 676.681 203.586C676.56 203.881 676.395 204.132 676.187 204.34C675.979 204.557 675.711 204.713 675.381 204.808C675.104 204.877 674.844 204.921 674.601 204.938C674.359 204.964 674.099 204.96 673.821 204.925C673.639 204.899 673.444 204.847 673.236 204.769C673.028 204.7 672.833 204.609 672.651 204.496C672.469 204.383 672.309 204.249 672.17 204.093C672.032 203.946 671.936 203.777 671.884 203.586C671.824 203.352 671.819 203.148 671.871 202.975C671.932 202.802 672.023 202.676 672.144 202.598C672.266 202.52 672.409 202.507 672.573 202.559C672.738 202.611 672.894 202.745 673.041 202.962C673.145 203.118 673.297 203.244 673.496 203.339C673.696 203.434 673.908 203.491 674.133 203.508C674.359 203.525 674.575 203.495 674.783 203.417C675 203.348 675.169 203.222 675.29 203.04C675.377 202.91 675.438 202.724 675.472 202.481C675.516 202.238 675.542 202 675.55 201.766C675.108 201.948 674.653 202.017 674.185 201.974C673.726 201.922 673.306 201.779 672.924 201.545C672.552 201.302 672.248 200.982 672.014 200.583C671.789 200.176 671.694 199.716 671.728 199.205C671.754 198.763 671.845 198.347 672.001 197.957C672.166 197.567 672.435 197.242 672.807 196.982C673.111 196.774 673.453 196.64 673.834 196.579C674.216 196.51 674.584 196.475 674.939 196.475C675.147 196.475 675.351 196.475 675.55 196.475C675.758 196.475 675.949 196.501 676.122 196.553C676.296 196.605 676.452 196.692 676.59 196.813C676.729 196.934 676.833 197.112 676.902 197.346C677.015 197.71 677.076 198.07 677.084 198.425C677.102 198.78 677.11 199.153 677.11 199.543ZM674.601 200.622C674.688 200.622 674.77 200.613 674.848 200.596C674.935 200.579 675.017 200.557 675.095 200.531C675.243 200.479 675.351 200.41 675.42 200.323C675.498 200.236 675.55 200.141 675.576 200.037C675.602 199.924 675.611 199.803 675.602 199.673C675.602 199.543 675.602 199.409 675.602 199.27C675.602 199.157 675.598 199.032 675.589 198.893C675.589 198.754 675.581 198.624 675.563 198.503C675.546 198.373 675.52 198.26 675.485 198.165C675.451 198.07 675.399 198.009 675.329 197.983C675.208 197.948 675.069 197.927 674.913 197.918C674.757 197.901 674.601 197.901 674.445 197.918C674.289 197.927 674.138 197.957 673.99 198.009C673.852 198.052 673.735 198.113 673.639 198.191C673.509 198.304 673.41 198.442 673.34 198.607C673.271 198.772 673.228 198.945 673.21 199.127C673.202 199.309 673.215 199.487 673.249 199.66C673.293 199.833 673.366 199.989 673.47 200.128C673.592 200.301 673.756 200.427 673.964 200.505C674.172 200.583 674.385 200.622 674.601 200.622ZM679.686 196.527C679.946 196.397 680.219 196.306 680.505 196.254C680.791 196.193 681.072 196.18 681.35 196.215C681.636 196.241 681.909 196.315 682.169 196.436C682.429 196.549 682.671 196.713 682.897 196.93C683.122 197.155 683.295 197.402 683.417 197.671C683.538 197.94 683.625 198.239 683.677 198.568C683.711 198.793 683.768 199.001 683.846 199.192C683.924 199.383 684.006 199.573 684.093 199.764C684.188 199.955 684.275 200.145 684.353 200.336C684.439 200.527 684.509 200.726 684.561 200.934C684.604 201.133 684.587 201.328 684.509 201.519C684.439 201.701 684.292 201.814 684.067 201.857C683.937 201.883 683.811 201.874 683.69 201.831C683.577 201.779 683.473 201.71 683.378 201.623C683.282 201.528 683.196 201.428 683.118 201.324C683.048 201.211 682.983 201.107 682.923 201.012C682.723 201.272 682.507 201.476 682.273 201.623C682.039 201.762 681.757 201.853 681.428 201.896C681.15 201.931 680.886 201.939 680.635 201.922C680.383 201.905 680.115 201.857 679.829 201.779C679.456 201.684 679.148 201.519 678.906 201.285C678.672 201.042 678.49 200.765 678.36 200.453C678.238 200.132 678.173 199.79 678.165 199.426C678.156 199.062 678.199 198.702 678.295 198.347C678.416 197.879 678.598 197.498 678.841 197.203C679.083 196.908 679.365 196.683 679.686 196.527ZM680.011 198.048C679.889 198.169 679.794 198.312 679.725 198.477C679.655 198.642 679.612 198.815 679.595 198.997C679.586 199.179 679.603 199.361 679.647 199.543C679.69 199.725 679.759 199.885 679.855 200.024C679.941 200.145 680.089 200.249 680.297 200.336C680.505 200.414 680.721 200.462 680.947 200.479C681.207 200.496 681.432 200.427 681.623 200.271C681.822 200.115 681.969 199.92 682.065 199.686C682.169 199.443 682.216 199.188 682.208 198.919C682.199 198.642 682.125 198.39 681.987 198.165C681.883 198 681.744 197.879 681.571 197.801C681.406 197.723 681.228 197.684 681.038 197.684C680.847 197.675 680.656 197.706 680.466 197.775C680.284 197.836 680.132 197.927 680.011 198.048ZM685.655 197.359C685.655 197.16 685.651 196.947 685.642 196.722C685.642 196.497 685.681 196.293 685.759 196.111C685.828 195.946 685.941 195.829 686.097 195.76C686.262 195.682 686.422 195.665 686.578 195.708C686.734 195.734 686.855 195.782 686.942 195.851C687.029 195.92 687.089 196.003 687.124 196.098C687.167 196.185 687.193 196.289 687.202 196.41C687.211 196.523 687.219 196.635 687.228 196.748C687.315 196.592 687.423 196.466 687.553 196.371C687.683 196.276 687.817 196.198 687.956 196.137C688.095 196.076 688.225 196.033 688.346 196.007C688.476 195.981 688.576 195.968 688.645 195.968C688.974 195.968 689.299 196.042 689.62 196.189C689.949 196.328 690.222 196.527 690.439 196.787C690.56 196.943 690.651 197.108 690.712 197.281C690.781 197.446 690.829 197.619 690.855 197.801C690.89 197.983 690.911 198.169 690.92 198.36C690.929 198.542 690.937 198.728 690.946 198.919C690.989 199.474 690.989 200.024 690.946 200.57C690.937 200.683 690.933 200.813 690.933 200.96C690.933 201.107 690.92 201.255 690.894 201.402C690.877 201.541 690.838 201.666 690.777 201.779C690.725 201.883 690.634 201.948 690.504 201.974C690.322 202.017 690.17 202.026 690.049 202C689.936 201.983 689.845 201.944 689.776 201.883C689.707 201.822 689.655 201.744 689.62 201.649C689.585 201.554 689.555 201.445 689.529 201.324C689.512 201.229 689.494 201.12 689.477 200.999C689.468 200.869 689.46 200.739 689.451 200.609C689.451 200.479 689.447 200.353 689.438 200.232C689.438 200.102 689.438 199.985 689.438 199.881C689.438 199.716 689.434 199.534 689.425 199.335C689.416 199.136 689.416 198.949 689.425 198.776C689.425 198.369 689.317 198.061 689.1 197.853C688.892 197.636 688.606 197.545 688.242 197.58C687.965 197.615 687.722 197.727 687.514 197.918C687.306 198.1 687.206 198.338 687.215 198.633C687.215 198.746 687.215 198.85 687.215 198.945C687.215 199.04 687.211 199.136 687.202 199.231C687.202 199.326 687.202 199.43 687.202 199.543C687.202 199.656 687.202 199.781 687.202 199.92C687.202 200.206 687.202 200.509 687.202 200.83C687.202 201.142 687.163 201.398 687.085 201.597C687.016 201.805 686.899 201.948 686.734 202.026C686.569 202.104 686.374 202.082 686.149 201.961C686.054 201.909 685.976 201.84 685.915 201.753C685.863 201.658 685.82 201.558 685.785 201.454C685.759 201.35 685.742 201.246 685.733 201.142C685.724 201.029 685.716 200.925 685.707 200.83C685.681 200.544 685.664 200.28 685.655 200.037C685.655 199.786 685.655 199.517 685.655 199.231V197.359Z" fill="black"/>
<rect x="626" y="70" width="221" height="29" fill="white"/>
<rect x="626" y="138" width="221" height="29" fill="white"/>
<rect x="626" y="206" width="221" height="73" fill="white"/>
<defs>
<linearGradient id="paint0_linear_119_103" x1="653" y1="341.897" x2="821" y2="341.532" gradientUnits="userSpaceOnUse">
<stop stop-color="#35AEFF"/>
</linearGradient>
</defs>
</svg>
