<svg width="800" height="420" viewBox="0 0 800 420" fill="none" xmlns="http://www.w3.org/2000/svg">
<rect width="800" height="413" rx="10" fill="#FCFCFC" fill-opacity="0.7"/>
<rect x="428" y="367" width="168" height="23" rx="11.5" fill="url(#paint0_linear_190_59)" fill-opacity="0.98"/>
<path d="M502.733 377.774C502.751 378.06 502.746 378.355 502.72 378.658C502.703 378.961 502.673 379.256 502.629 379.542C502.543 380.036 502.382 380.517 502.148 380.985C501.914 381.453 501.572 381.852 501.121 382.181C500.653 382.528 500.12 382.766 499.522 382.896C498.924 383.017 498.331 383.091 497.741 383.117C497.542 383.134 497.338 383.139 497.13 383.13C496.931 383.13 496.736 383.108 496.545 383.065C496.389 383.039 496.272 382.991 496.194 382.922C496.151 382.896 496.116 382.861 496.09 382.818C496.064 382.775 496.043 382.731 496.025 382.688C495.999 382.645 495.978 382.601 495.96 382.558C495.952 382.506 495.939 382.454 495.921 382.402C495.913 382.359 495.904 382.32 495.895 382.285C495.895 382.242 495.895 382.203 495.895 382.168V374.745C495.895 374.684 495.895 374.628 495.895 374.576C495.895 374.524 495.904 374.472 495.921 374.42C495.939 374.299 495.965 374.199 495.999 374.121C496.034 374.017 496.082 373.943 496.142 373.9C496.194 373.857 496.246 373.826 496.298 373.809C496.35 373.783 496.398 373.761 496.441 373.744C496.493 373.727 496.545 373.727 496.597 373.744C496.658 373.753 496.723 373.74 496.792 373.705L498.963 373.757C499.535 373.774 500.047 373.909 500.497 374.16C500.948 374.403 501.334 374.715 501.654 375.096C501.975 375.477 502.226 375.906 502.408 376.383C502.59 376.851 502.699 377.315 502.733 377.774ZM500.315 380.244C500.48 379.984 500.601 379.685 500.679 379.347C500.757 379.009 500.792 378.667 500.783 378.32C500.775 377.965 500.727 377.622 500.64 377.293C500.554 376.955 500.432 376.656 500.276 376.396C500.155 376.205 499.999 376.049 499.808 375.928C499.618 375.807 499.405 375.716 499.171 375.655C498.937 375.586 498.686 375.538 498.417 375.512C498.157 375.486 497.902 375.473 497.65 375.473C497.659 375.724 497.663 375.967 497.663 376.201C497.663 376.435 497.663 376.682 497.663 376.942C497.655 377.254 497.65 377.557 497.65 377.852C497.65 378.147 497.65 378.433 497.65 378.71V381.362C497.919 381.353 498.175 381.34 498.417 381.323C498.669 381.297 498.907 381.245 499.132 381.167C499.366 381.089 499.579 380.981 499.769 380.842C499.969 380.695 500.151 380.495 500.315 380.244ZM508.303 381.219C508.407 381.193 508.511 381.176 508.615 381.167C508.727 381.158 508.827 381.171 508.914 381.206C509.009 381.241 509.087 381.301 509.148 381.388C509.208 381.466 509.239 381.579 509.239 381.726C509.239 381.83 509.213 381.93 509.161 382.025C509.109 382.12 509.044 382.207 508.966 382.285C508.888 382.363 508.801 382.432 508.706 382.493C508.61 382.545 508.519 382.588 508.433 382.623C508.181 382.736 507.891 382.822 507.562 382.883C507.241 382.944 506.907 382.965 506.561 382.948C506.093 382.931 505.642 382.84 505.209 382.675C504.784 382.502 504.45 382.22 504.208 381.83C503.982 381.449 503.848 381.024 503.805 380.556C503.761 380.088 503.783 379.646 503.87 379.23C503.965 378.727 504.125 378.32 504.351 378.008C504.585 377.687 504.862 377.432 505.183 377.241C505.573 377.016 506.01 376.899 506.496 376.89C506.981 376.881 507.445 376.977 507.887 377.176C508.181 377.306 508.446 377.484 508.68 377.709C508.914 377.926 509.091 378.19 509.213 378.502C509.247 378.58 509.273 378.675 509.291 378.788C509.317 378.901 509.334 379.022 509.343 379.152C509.351 379.273 509.351 379.395 509.343 379.516C509.334 379.637 509.312 379.746 509.278 379.841C509.226 379.997 509.161 380.118 509.083 380.205C509.005 380.292 508.905 380.357 508.784 380.4C508.662 380.443 508.515 380.474 508.342 380.491C508.177 380.5 507.978 380.508 507.744 380.517C507.536 380.526 507.341 380.53 507.159 380.53C506.977 380.53 506.79 380.53 506.6 380.53C506.409 380.521 506.21 380.517 506.002 380.517C505.802 380.508 505.577 380.5 505.326 380.491C505.3 380.664 505.321 380.816 505.391 380.946C505.469 381.067 505.573 381.171 505.703 381.258C505.833 381.336 505.98 381.397 506.145 381.44C506.309 381.483 506.47 381.509 506.626 381.518C506.92 381.535 507.202 381.514 507.471 381.453C507.739 381.384 508.017 381.306 508.303 381.219ZM507.744 378.697C507.579 378.506 507.406 378.368 507.224 378.281C507.085 378.22 506.938 378.194 506.782 378.203C506.634 378.203 506.491 378.225 506.353 378.268C506.101 378.329 505.889 378.459 505.716 378.658C505.698 378.675 505.668 378.719 505.625 378.788C505.581 378.849 505.538 378.914 505.495 378.983C505.46 379.052 505.434 379.117 505.417 379.178C505.399 379.239 505.408 379.269 505.443 379.269H507.991C507.982 379.148 507.96 379.048 507.926 378.97C507.891 378.883 507.83 378.792 507.744 378.697ZM515.424 377.267C515.493 377.432 515.498 377.614 515.437 377.813C515.385 378.012 515.285 378.142 515.138 378.203C515.06 378.238 514.956 378.268 514.826 378.294C514.696 378.311 514.553 378.329 514.397 378.346C514.25 378.363 514.102 378.376 513.955 378.385C513.808 378.394 513.682 378.398 513.578 378.398C513.587 378.658 513.595 378.927 513.604 379.204C513.613 379.473 513.621 379.737 513.63 379.997C513.639 380.257 513.643 380.508 513.643 380.751C513.643 380.985 513.639 381.197 513.63 381.388C513.63 381.518 513.63 381.67 513.63 381.843C513.63 382.008 513.617 382.168 513.591 382.324C513.574 382.48 513.543 382.619 513.5 382.74C513.457 382.853 513.392 382.926 513.305 382.961C513.036 383.074 512.789 383.104 512.564 383.052C512.347 383.009 512.191 382.918 512.096 382.779C512.027 382.666 511.975 382.536 511.94 382.389C511.905 382.233 511.879 382.077 511.862 381.921C511.853 381.756 511.849 381.6 511.849 381.453C511.858 381.297 511.862 381.163 511.862 381.05C511.871 380.686 511.875 380.274 511.875 379.815C511.884 379.347 511.888 378.879 511.888 378.411H511.693C511.589 378.411 511.455 378.411 511.29 378.411C511.134 378.402 510.974 378.389 510.809 378.372C510.653 378.346 510.506 378.316 510.367 378.281C510.228 378.238 510.129 378.177 510.068 378.099C509.973 377.986 509.912 377.865 509.886 377.735C509.869 377.605 509.877 377.484 509.912 377.371C509.955 377.25 510.02 377.146 510.107 377.059C510.194 376.964 510.293 376.903 510.406 376.877C510.562 376.834 510.783 376.812 511.069 376.812C511.355 376.803 511.624 376.803 511.875 376.812C511.866 376.725 511.862 376.643 511.862 376.565C511.862 376.478 511.858 376.396 511.849 376.318C511.84 376.214 511.836 376.084 511.836 375.928C511.836 375.763 511.845 375.603 511.862 375.447C511.888 375.282 511.927 375.131 511.979 374.992C512.031 374.845 512.105 374.732 512.2 374.654C512.33 374.55 512.46 374.494 512.59 374.485C512.729 374.468 512.854 374.485 512.967 374.537C513.088 374.589 513.188 374.667 513.266 374.771C513.353 374.866 513.413 374.975 513.448 375.096C513.474 375.2 513.496 375.326 513.513 375.473C513.53 375.612 513.539 375.759 513.539 375.915C513.548 376.071 513.552 376.227 513.552 376.383C513.552 376.539 513.552 376.682 513.552 376.812H513.682C513.812 376.812 513.964 376.808 514.137 376.799C514.31 376.79 514.479 376.795 514.644 376.812C514.817 376.829 514.973 376.873 515.112 376.942C515.251 377.003 515.355 377.111 515.424 377.267ZM517.488 377.527C517.748 377.397 518.021 377.306 518.307 377.254C518.593 377.193 518.874 377.18 519.152 377.215C519.438 377.241 519.711 377.315 519.971 377.436C520.231 377.549 520.473 377.713 520.699 377.93C520.924 378.155 521.097 378.402 521.219 378.671C521.34 378.94 521.427 379.239 521.479 379.568C521.513 379.793 521.57 380.001 521.648 380.192C521.726 380.383 521.808 380.573 521.895 380.764C521.99 380.955 522.077 381.145 522.155 381.336C522.241 381.527 522.311 381.726 522.363 381.934C522.406 382.133 522.389 382.328 522.311 382.519C522.241 382.701 522.094 382.814 521.869 382.857C521.739 382.883 521.613 382.874 521.492 382.831C521.379 382.779 521.275 382.71 521.18 382.623C521.084 382.528 520.998 382.428 520.92 382.324C520.85 382.211 520.785 382.107 520.725 382.012C520.525 382.272 520.309 382.476 520.075 382.623C519.841 382.762 519.559 382.853 519.23 382.896C518.952 382.931 518.688 382.939 518.437 382.922C518.185 382.905 517.917 382.857 517.631 382.779C517.258 382.684 516.95 382.519 516.708 382.285C516.474 382.042 516.292 381.765 516.162 381.453C516.04 381.132 515.975 380.79 515.967 380.426C515.958 380.062 516.001 379.702 516.097 379.347C516.218 378.879 516.4 378.498 516.643 378.203C516.885 377.908 517.167 377.683 517.488 377.527ZM517.813 379.048C517.691 379.169 517.596 379.312 517.527 379.477C517.457 379.642 517.414 379.815 517.397 379.997C517.388 380.179 517.405 380.361 517.449 380.543C517.492 380.725 517.561 380.885 517.657 381.024C517.743 381.145 517.891 381.249 518.099 381.336C518.307 381.414 518.523 381.462 518.749 381.479C519.009 381.496 519.234 381.427 519.425 381.271C519.624 381.115 519.771 380.92 519.867 380.686C519.971 380.443 520.018 380.188 520.01 379.919C520.001 379.642 519.927 379.39 519.789 379.165C519.685 379 519.546 378.879 519.373 378.801C519.208 378.723 519.03 378.684 518.84 378.684C518.649 378.675 518.458 378.706 518.268 378.775C518.086 378.836 517.934 378.927 517.813 379.048ZM525.082 378.073C525.082 378.316 525.082 378.589 525.082 378.892C525.091 379.195 525.095 379.512 525.095 379.841C525.095 380.162 525.095 380.482 525.095 380.803C525.095 381.115 525.091 381.405 525.082 381.674C525.074 381.804 525.061 381.947 525.043 382.103C525.026 382.25 524.991 382.389 524.939 382.519C524.887 382.649 524.805 382.757 524.692 382.844C524.588 382.922 524.445 382.957 524.263 382.948C523.995 382.931 523.8 382.814 523.678 382.597C523.566 382.38 523.501 382.077 523.483 381.687C523.483 381.488 523.479 381.258 523.47 380.998C523.47 380.738 523.466 380.474 523.457 380.205C523.457 379.936 523.457 379.676 523.457 379.425C523.457 379.165 523.457 378.931 523.457 378.723C523.457 378.602 523.453 378.454 523.444 378.281C523.444 378.108 523.449 377.93 523.457 377.748C523.466 377.566 523.488 377.393 523.522 377.228C523.557 377.055 523.613 376.912 523.691 376.799C523.752 376.73 523.839 376.678 523.951 376.643C524.064 376.6 524.181 376.578 524.302 376.578C524.432 376.578 524.554 376.6 524.666 376.643C524.788 376.686 524.874 376.747 524.926 376.825C524.961 376.877 524.987 376.951 525.004 377.046C525.022 377.141 525.035 377.25 525.043 377.371C525.061 377.484 525.069 377.605 525.069 377.735C525.078 377.856 525.082 377.969 525.082 378.073ZM524.588 375.447C524.32 375.516 524.094 375.49 523.912 375.369C523.739 375.239 523.631 375.048 523.587 374.797C523.553 374.615 523.566 374.455 523.626 374.316C523.687 374.177 523.778 374.073 523.899 374.004C524.021 373.926 524.159 373.891 524.315 373.9C524.471 373.909 524.627 373.969 524.783 374.082C524.931 374.186 525.035 374.307 525.095 374.446C525.165 374.585 525.186 374.719 525.16 374.849C525.143 374.979 525.087 375.1 524.991 375.213C524.896 375.317 524.762 375.395 524.588 375.447ZM528.081 381.96C528.072 382.003 528.063 382.047 528.055 382.09C528.055 382.125 528.055 382.164 528.055 382.207L527.977 382.48C527.959 382.515 527.946 382.536 527.938 382.545L527.899 382.623C527.855 382.718 527.777 382.796 527.665 382.857C527.457 382.961 527.236 382.987 527.002 382.935C526.854 382.918 526.737 382.874 526.651 382.805C526.564 382.744 526.503 382.671 526.469 382.584C526.434 382.497 526.408 382.411 526.391 382.324C526.365 382.237 526.352 382.159 526.352 382.09V374.81C526.352 374.749 526.352 374.697 526.352 374.654C526.36 374.602 526.369 374.554 526.378 374.511C526.386 374.45 526.395 374.398 526.404 374.355C526.421 374.312 526.438 374.264 526.456 374.212C526.482 374.125 526.529 374.056 526.599 374.004C526.703 373.926 526.802 373.883 526.898 373.874C526.958 373.857 527.015 373.848 527.067 373.848C527.119 373.839 527.179 373.835 527.249 373.835C527.37 373.835 527.509 373.87 527.665 373.939C527.786 374.008 527.873 374.104 527.925 374.225C528.011 374.398 528.055 374.559 528.055 374.706C528.063 374.793 528.068 374.923 528.068 375.096C528.076 375.269 528.081 375.399 528.081 375.486V375.538C528.098 375.815 528.107 376.084 528.107 376.344C528.107 376.595 528.102 376.873 528.094 377.176C528.094 377.471 528.089 377.757 528.081 378.034C528.081 378.303 528.081 378.571 528.081 378.84V381.57C528.081 381.605 528.081 381.639 528.081 381.674C528.089 381.7 528.094 381.73 528.094 381.765C528.094 381.852 528.089 381.917 528.081 381.96Z" fill="white"/>
<path d="M344.544 33.296C344.555 33.4027 344.544 33.504 344.512 33.6C344.491 33.664 344.459 33.7173 344.416 33.76C344.384 33.8027 344.342 33.8453 344.288 33.888C344.192 33.952 344.075 34.0107 343.936 34.064C343.851 34.0853 343.766 34.1013 343.68 34.112C343.606 34.1333 343.526 34.1333 343.44 34.112C343.27 34.1013 343.12 34.0373 342.992 33.92C342.811 33.7707 342.662 33.6053 342.544 33.424C342.491 33.3387 342.432 33.2427 342.368 33.136C342.304 33.0293 342.246 32.9173 342.192 32.8L340.416 29.424C340.331 29.424 340.246 29.4293 340.16 29.44C340.075 29.44 339.99 29.4453 339.904 29.456C339.68 29.4773 339.467 29.4827 339.264 29.472C339.072 29.4613 338.87 29.4613 338.656 29.472H338.352V32.368C338.352 32.4533 338.347 32.5333 338.336 32.608C338.336 32.6827 338.336 32.7627 338.336 32.848C338.336 32.9013 338.331 32.9707 338.32 33.056C338.32 33.1413 338.315 33.2213 338.304 33.296C338.283 33.4133 338.235 33.536 338.16 33.664C338.086 33.7813 337.984 33.8827 337.856 33.968C337.632 34.1067 337.36 34.144 337.04 34.08C336.902 34.048 336.768 33.9947 336.64 33.92C336.598 33.888 336.56 33.8507 336.528 33.808C336.496 33.7547 336.47 33.7013 336.448 33.648C336.427 33.5947 336.406 33.5413 336.384 33.488C336.374 33.424 336.358 33.3653 336.336 33.312C336.304 33.2053 336.288 33.104 336.288 33.008V23.92C336.288 23.856 336.288 23.792 336.288 23.728C336.299 23.6533 336.31 23.5893 336.32 23.536C336.331 23.4187 336.368 23.3013 336.432 23.184C336.464 23.056 336.518 22.9653 336.592 22.912C336.656 22.848 336.752 22.7947 336.88 22.752C337.019 22.6987 337.216 22.6773 337.472 22.688C337.952 22.6987 338.427 22.704 338.896 22.704C339.366 22.704 339.835 22.7147 340.304 22.736C340.614 22.7573 340.939 22.7947 341.28 22.848C341.632 22.8907 341.958 22.9707 342.256 23.088C342.448 23.1627 342.624 23.2373 342.784 23.312C342.987 23.4293 343.147 23.5413 343.264 23.648C343.638 23.9893 343.92 24.4 344.112 24.88C344.304 25.36 344.4 25.8453 344.4 26.336C344.4 26.912 344.262 27.44 343.984 27.92C343.718 28.4 343.286 28.7573 342.688 28.992C342.667 29.0133 342.635 29.0293 342.592 29.04C342.56 29.04 342.534 29.0453 342.512 29.056L343.984 32.016L344.128 32.272C344.15 32.3147 344.176 32.3627 344.208 32.416C344.24 32.4693 344.267 32.5227 344.288 32.576C344.32 32.6293 344.347 32.688 344.368 32.752C344.4 32.816 344.432 32.8747 344.464 32.928C344.496 33.0773 344.523 33.2 344.544 33.296ZM340.544 27.6C340.736 27.6 340.918 27.568 341.088 27.504C341.27 27.4293 341.43 27.3333 341.568 27.216C341.718 27.0987 341.84 26.9653 341.936 26.816C342.032 26.656 342.086 26.4853 342.096 26.304C342.139 25.7707 342 25.376 341.68 25.12C341.36 24.8533 340.939 24.7093 340.416 24.688C340.107 24.6667 339.766 24.656 339.392 24.656C339.03 24.656 338.683 24.656 338.352 24.656C338.363 25.0933 338.363 25.5413 338.352 26C338.352 26.448 338.352 26.9813 338.352 27.6H340.544ZM347.851 27.936C347.851 28.2347 347.851 28.5707 347.851 28.944C347.862 29.3173 347.867 29.7067 347.867 30.112C347.867 30.5067 347.867 30.9013 347.867 31.296C347.867 31.68 347.862 32.0373 347.851 32.368C347.841 32.528 347.825 32.704 347.803 32.896C347.782 33.0773 347.739 33.248 347.675 33.408C347.611 33.568 347.51 33.7013 347.371 33.808C347.243 33.904 347.067 33.9467 346.843 33.936C346.513 33.9147 346.273 33.7707 346.123 33.504C345.985 33.2373 345.905 32.864 345.883 32.384C345.883 32.1387 345.878 31.856 345.867 31.536C345.867 31.216 345.862 30.8907 345.851 30.56C345.851 30.2293 345.851 29.9093 345.851 29.6C345.851 29.28 345.851 28.992 345.851 28.736C345.851 28.5867 345.846 28.4053 345.835 28.192C345.835 27.9787 345.841 27.76 345.851 27.536C345.862 27.312 345.889 27.0987 345.931 26.896C345.974 26.6827 346.043 26.5067 346.139 26.368C346.214 26.2827 346.321 26.2187 346.459 26.176C346.598 26.1227 346.742 26.096 346.891 26.096C347.051 26.096 347.201 26.1227 347.339 26.176C347.489 26.2293 347.595 26.304 347.659 26.4C347.702 26.464 347.734 26.5547 347.755 26.672C347.777 26.7893 347.793 26.9227 347.803 27.072C347.825 27.2107 347.835 27.36 347.835 27.52C347.846 27.6693 347.851 27.808 347.851 27.936ZM347.243 24.704C346.913 24.7893 346.635 24.7573 346.411 24.608C346.198 24.448 346.065 24.2133 346.011 23.904C345.969 23.68 345.985 23.4827 346.059 23.312C346.134 23.1413 346.246 23.0133 346.395 22.928C346.545 22.832 346.715 22.7893 346.907 22.8C347.099 22.8107 347.291 22.8853 347.483 23.024C347.665 23.152 347.793 23.3013 347.867 23.472C347.953 23.6427 347.979 23.808 347.947 23.968C347.926 24.128 347.857 24.2773 347.739 24.416C347.622 24.544 347.457 24.64 347.243 24.704ZM358.585 26.8C358.681 26.9387 358.713 27.1573 358.681 27.456C358.66 27.744 358.607 28.0587 358.521 28.4C358.436 28.7307 358.335 29.0613 358.217 29.392C358.1 29.712 358.004 29.9787 357.929 30.192C357.748 30.6827 357.588 31.1413 357.449 31.568C357.311 31.9947 357.145 32.464 356.953 32.976C356.889 33.1253 356.825 33.2747 356.761 33.424C356.708 33.5733 356.639 33.7067 356.553 33.824C356.479 33.9413 356.383 34.0373 356.265 34.112C356.159 34.1867 356.025 34.224 355.865 34.224C355.684 34.224 355.524 34.16 355.385 34.032C355.257 33.904 355.145 33.744 355.049 33.552C354.964 33.36 354.889 33.1573 354.825 32.944C354.761 32.7307 354.708 32.544 354.665 32.384C354.527 31.9147 354.404 31.488 354.297 31.104C354.191 30.7093 354.095 30.3573 354.009 30.048C353.913 30.3573 353.817 30.6933 353.721 31.056C353.625 31.4187 353.503 31.8293 353.353 32.288C353.311 32.448 353.257 32.6453 353.193 32.88C353.129 33.104 353.049 33.3173 352.953 33.52C352.868 33.7227 352.756 33.8933 352.617 34.032C352.489 34.1813 352.335 34.2453 352.153 34.224C351.897 34.2133 351.673 34.112 351.481 33.92C351.3 33.7173 351.14 33.4773 351.001 33.2C350.873 32.9227 350.761 32.6347 350.665 32.336C350.569 32.0373 350.489 31.776 350.425 31.552C350.34 31.264 350.239 30.944 350.121 30.592C350.004 30.24 349.887 29.8827 349.769 29.52C349.663 29.1467 349.561 28.7787 349.465 28.416C349.369 28.0427 349.305 27.7013 349.273 27.392C349.252 27.1893 349.289 27.0027 349.385 26.832C349.492 26.6613 349.625 26.544 349.785 26.48C349.956 26.4053 350.137 26.3893 350.329 26.432C350.532 26.4747 350.713 26.6027 350.873 26.816C350.959 26.9227 351.033 27.056 351.097 27.216C351.172 27.376 351.236 27.552 351.289 27.744C351.343 27.9253 351.396 28.112 351.449 28.304C351.503 28.496 351.556 28.6827 351.609 28.864C351.727 29.2693 351.823 29.5893 351.897 29.824C351.983 30.048 352.068 30.2827 352.153 30.528C352.228 30.2827 352.303 30.048 352.377 29.824C352.463 29.5893 352.564 29.2693 352.681 28.864C352.724 28.736 352.772 28.592 352.825 28.432C352.889 28.2613 352.953 28.1013 353.017 27.952C353.092 27.8027 353.172 27.664 353.257 27.536C353.353 27.3973 353.455 27.296 353.561 27.232C353.796 27.072 354.009 27.0347 354.201 27.12C354.393 27.1947 354.559 27.328 354.697 27.52C354.836 27.712 354.953 27.936 355.049 28.192C355.156 28.4373 355.241 28.6613 355.305 28.864C355.369 29.0773 355.428 29.264 355.481 29.424C355.535 29.5733 355.583 29.712 355.625 29.84C355.668 29.968 355.705 30.0907 355.737 30.208C355.78 30.3253 355.823 30.448 355.865 30.576C355.908 30.448 355.945 30.3253 355.977 30.208C356.02 30.0907 356.063 29.968 356.105 29.84C356.148 29.712 356.196 29.5733 356.249 29.424C356.303 29.264 356.361 29.0773 356.425 28.864C356.468 28.7253 356.511 28.5653 356.553 28.384C356.607 28.2027 356.66 28.0213 356.713 27.84C356.767 27.648 356.82 27.4667 356.873 27.296C356.937 27.1253 357.007 26.9813 357.081 26.864C357.156 26.7467 357.257 26.6507 357.385 26.576C357.513 26.4907 357.647 26.4427 357.785 26.432C357.924 26.4107 358.063 26.4267 358.201 26.48C358.351 26.5333 358.479 26.64 358.585 26.8ZM361.551 27.264C361.871 27.104 362.207 26.992 362.559 26.928C362.911 26.8533 363.258 26.8373 363.599 26.88C363.951 26.912 364.287 27.0027 364.607 27.152C364.927 27.2907 365.226 27.4933 365.503 27.76C365.78 28.0373 365.994 28.3413 366.143 28.672C366.292 29.0027 366.399 29.3707 366.463 29.776C366.506 30.0533 366.575 30.3093 366.671 30.544C366.767 30.7787 366.868 31.0133 366.975 31.248C367.092 31.4827 367.199 31.7173 367.295 31.952C367.402 32.1867 367.487 32.432 367.551 32.688C367.604 32.9333 367.583 33.1733 367.487 33.408C367.402 33.632 367.22 33.7707 366.943 33.824C366.783 33.856 366.628 33.8453 366.479 33.792C366.34 33.728 366.212 33.6427 366.095 33.536C365.978 33.4187 365.871 33.296 365.775 33.168C365.69 33.0293 365.61 32.9013 365.535 32.784C365.29 33.104 365.023 33.3547 364.735 33.536C364.447 33.7067 364.1 33.8187 363.695 33.872C363.354 33.9147 363.028 33.9253 362.719 33.904C362.41 33.8827 362.079 33.824 361.727 33.728C361.268 33.6107 360.89 33.408 360.591 33.12C360.303 32.8213 360.079 32.48 359.919 32.096C359.77 31.7013 359.69 31.28 359.679 30.832C359.668 30.384 359.722 29.9413 359.839 29.504C359.988 28.928 360.212 28.4587 360.511 28.096C360.81 27.7333 361.156 27.456 361.551 27.264ZM361.951 29.136C361.802 29.2853 361.684 29.4613 361.599 29.664C361.514 29.8667 361.46 30.08 361.439 30.304C361.428 30.528 361.45 30.752 361.503 30.976C361.556 31.2 361.642 31.3973 361.759 31.568C361.866 31.7173 362.047 31.8453 362.303 31.952C362.559 32.048 362.826 32.1067 363.103 32.128C363.423 32.1493 363.7 32.064 363.935 31.872C364.18 31.68 364.362 31.44 364.479 31.152C364.607 30.8533 364.666 30.5387 364.655 30.208C364.644 29.8667 364.554 29.5573 364.383 29.28C364.255 29.0773 364.084 28.928 363.871 28.832C363.668 28.736 363.45 28.688 363.215 28.688C362.98 28.6773 362.746 28.7147 362.511 28.8C362.287 28.8747 362.1 28.9867 361.951 29.136ZM375.586 26.864C375.682 27.0133 375.724 27.1733 375.714 27.344C375.714 27.5893 375.671 27.8027 375.586 27.984C375.564 28.0373 375.532 28.1067 375.49 28.192C375.458 28.2773 375.42 28.368 375.378 28.464C375.346 28.56 375.308 28.6507 375.266 28.736C375.223 28.8213 375.191 28.8853 375.17 28.928L375.138 29.008C374.988 29.3387 374.844 29.6587 374.706 29.968C374.567 30.2773 374.412 30.608 374.242 30.96C374.071 31.3013 373.906 31.6373 373.746 31.968C373.596 32.288 373.447 32.6027 373.298 32.912C373.255 32.9973 373.218 33.0827 373.186 33.168C373.154 33.2427 373.111 33.3227 373.058 33.408L372.29 35.056C372.151 35.3333 372.018 35.6053 371.89 35.872C371.772 36.1387 371.639 36.4053 371.49 36.672C371.458 36.7253 371.426 36.7733 371.394 36.816C371.372 36.8693 371.351 36.9227 371.33 36.976C371.255 37.104 371.143 37.2267 370.994 37.344C370.855 37.472 370.706 37.5413 370.546 37.552C370.258 37.5733 370.007 37.488 369.794 37.296C369.666 37.2213 369.564 37.1147 369.49 36.976C369.447 36.88 369.426 36.7573 369.426 36.608C369.436 36.544 369.442 36.48 369.442 36.416C369.452 36.3627 369.463 36.3093 369.474 36.256C369.495 36.2027 369.511 36.1493 369.522 36.096C369.532 36.0427 369.548 36 369.57 35.968C369.602 35.8827 369.628 35.84 369.65 35.84L370.818 33.312C370.764 33.1947 370.711 33.0773 370.658 32.96C370.604 32.832 370.556 32.72 370.514 32.624C370.375 32.2933 370.226 31.9467 370.066 31.584C369.916 31.2107 369.762 30.8427 369.602 30.48C369.442 30.1067 369.276 29.744 369.106 29.392C368.935 29.04 368.764 28.704 368.594 28.384C368.53 28.2773 368.471 28.1653 368.418 28.048C368.364 27.92 368.322 27.7973 368.29 27.68C368.258 27.552 368.247 27.424 368.258 27.296C368.268 27.168 368.316 27.04 368.402 26.912C368.487 26.752 368.599 26.64 368.738 26.576C368.876 26.5013 369.02 26.4693 369.17 26.48C369.33 26.48 369.479 26.512 369.618 26.576C369.756 26.64 369.868 26.7253 369.954 26.832C370.135 27.024 370.279 27.2373 370.386 27.472C370.492 27.7067 370.594 27.9467 370.69 28.192C370.892 28.6187 371.1 29.0667 371.314 29.536C371.527 30.0053 371.74 30.464 371.954 30.912L372.786 29.152C372.871 28.9813 372.946 28.816 373.01 28.656C373.084 28.496 373.159 28.3413 373.234 28.192C373.319 28.0107 373.399 27.824 373.474 27.632C373.559 27.44 373.655 27.264 373.762 27.104C373.783 27.0613 373.804 27.024 373.826 26.992C373.847 26.96 373.868 26.9227 373.89 26.88C373.986 26.752 374.071 26.6507 374.146 26.576C374.199 26.5333 374.242 26.5013 374.274 26.48C374.316 26.448 374.364 26.4267 374.418 26.416C374.492 26.3947 374.562 26.384 374.626 26.384C374.7 26.3733 374.77 26.3733 374.834 26.384C374.94 26.416 375.068 26.464 375.218 26.528C375.378 26.592 375.5 26.704 375.586 26.864ZM378.192 27.264C378.512 27.104 378.848 26.992 379.2 26.928C379.552 26.8533 379.898 26.8373 380.24 26.88C380.592 26.912 380.928 27.0027 381.248 27.152C381.568 27.2907 381.866 27.4933 382.144 27.76C382.421 28.0373 382.634 28.3413 382.784 28.672C382.933 29.0027 383.04 29.3707 383.104 29.776C383.146 30.0533 383.216 30.3093 383.312 30.544C383.408 30.7787 383.509 31.0133 383.616 31.248C383.733 31.4827 383.84 31.7173 383.936 31.952C384.042 32.1867 384.128 32.432 384.192 32.688C384.245 32.9333 384.224 33.1733 384.128 33.408C384.042 33.632 383.861 33.7707 383.584 33.824C383.424 33.856 383.269 33.8453 383.12 33.792C382.981 33.728 382.853 33.6427 382.736 33.536C382.618 33.4187 382.512 33.296 382.416 33.168C382.33 33.0293 382.25 32.9013 382.176 32.784C381.93 33.104 381.664 33.3547 381.376 33.536C381.088 33.7067 380.741 33.8187 380.336 33.872C379.994 33.9147 379.669 33.9253 379.36 33.904C379.05 33.8827 378.72 33.824 378.368 33.728C377.909 33.6107 377.53 33.408 377.232 33.12C376.944 32.8213 376.72 32.48 376.56 32.096C376.41 31.7013 376.33 31.28 376.32 30.832C376.309 30.384 376.362 29.9413 376.48 29.504C376.629 28.928 376.853 28.4587 377.152 28.096C377.45 27.7333 377.797 27.456 378.192 27.264ZM378.592 29.136C378.442 29.2853 378.325 29.4613 378.24 29.664C378.154 29.8667 378.101 30.08 378.08 30.304C378.069 30.528 378.09 30.752 378.144 30.976C378.197 31.2 378.282 31.3973 378.4 31.568C378.506 31.7173 378.688 31.8453 378.944 31.952C379.2 32.048 379.466 32.1067 379.744 32.128C380.064 32.1493 380.341 32.064 380.576 31.872C380.821 31.68 381.002 31.44 381.12 31.152C381.248 30.8533 381.306 30.5387 381.296 30.208C381.285 29.8667 381.194 29.5573 381.024 29.28C380.896 29.0773 380.725 28.928 380.512 28.832C380.309 28.736 380.09 28.688 379.856 28.688C379.621 28.6773 379.386 28.7147 379.152 28.8C378.928 28.8747 378.741 28.9867 378.592 29.136ZM390.464 26.944C390.55 27.1467 390.555 27.3707 390.48 27.616C390.416 27.8613 390.294 28.0213 390.112 28.096C390.016 28.1387 389.888 28.176 389.728 28.208C389.568 28.2293 389.392 28.2507 389.2 28.272C389.019 28.2933 388.838 28.3093 388.656 28.32C388.475 28.3307 388.32 28.336 388.192 28.336C388.203 28.656 388.214 28.9867 388.224 29.328C388.235 29.6587 388.246 29.984 388.256 30.304C388.267 30.624 388.272 30.9333 388.272 31.232C388.272 31.52 388.267 31.7813 388.256 32.016C388.256 32.176 388.256 32.3627 388.256 32.576C388.256 32.7787 388.24 32.976 388.208 33.168C388.187 33.36 388.15 33.5307 388.096 33.68C388.043 33.8187 387.963 33.9093 387.856 33.952C387.526 34.0907 387.222 34.128 386.944 34.064C386.678 34.0107 386.486 33.8987 386.368 33.728C386.283 33.5893 386.219 33.4293 386.176 33.248C386.134 33.056 386.102 32.864 386.08 32.672C386.07 32.4693 386.064 32.2773 386.064 32.096C386.075 31.904 386.08 31.7387 386.08 31.6C386.091 31.152 386.096 30.6453 386.096 30.08C386.107 29.504 386.112 28.928 386.112 28.352H385.872C385.744 28.352 385.579 28.352 385.376 28.352C385.184 28.3413 384.987 28.3253 384.784 28.304C384.592 28.272 384.411 28.2347 384.24 28.192C384.07 28.1387 383.947 28.064 383.872 27.968C383.755 27.8293 383.68 27.68 383.648 27.52C383.627 27.36 383.638 27.2107 383.68 27.072C383.734 26.9227 383.814 26.7947 383.92 26.688C384.027 26.5707 384.15 26.496 384.288 26.464C384.48 26.4107 384.752 26.384 385.104 26.384C385.456 26.3733 385.787 26.3733 386.096 26.384C386.086 26.2773 386.08 26.176 386.08 26.08C386.08 25.9733 386.075 25.872 386.064 25.776C386.054 25.648 386.048 25.488 386.048 25.296C386.048 25.0933 386.059 24.896 386.08 24.704C386.112 24.5013 386.16 24.3147 386.224 24.144C386.288 23.9627 386.379 23.824 386.496 23.728C386.656 23.6 386.816 23.5307 386.976 23.52C387.147 23.4987 387.302 23.52 387.44 23.584C387.59 23.648 387.712 23.744 387.808 23.872C387.915 23.9893 387.99 24.1227 388.032 24.272C388.064 24.4 388.091 24.5547 388.112 24.736C388.134 24.9067 388.144 25.088 388.144 25.28C388.155 25.472 388.16 25.664 388.16 25.856C388.16 26.048 388.16 26.224 388.16 26.384H388.32C388.48 26.384 388.667 26.3787 388.88 26.368C389.094 26.3573 389.302 26.3627 389.504 26.384C389.718 26.4053 389.91 26.4587 390.08 26.544C390.251 26.6187 390.379 26.752 390.464 26.944ZM403.545 23.68C403.95 24.0533 404.249 24.5013 404.441 25.024C404.633 25.536 404.707 26.048 404.665 26.56C404.622 27.0507 404.467 27.504 404.201 27.92C403.934 28.3253 403.529 28.6347 402.985 28.848C402.558 29.0293 402.137 29.1573 401.721 29.232C401.305 29.3067 400.846 29.3653 400.345 29.408C400.121 29.4293 399.929 29.4453 399.769 29.456C399.619 29.456 399.443 29.4613 399.241 29.472C399.198 29.472 399.123 29.472 399.017 29.472C398.921 29.472 398.851 29.4773 398.809 29.488V32.8C398.777 33.0027 398.734 33.2107 398.681 33.424C398.638 33.6373 398.515 33.8027 398.313 33.92C398.195 33.984 398.051 34.0213 397.881 34.032C397.71 34.0427 397.555 34.0373 397.417 34.016C397.267 33.9947 397.139 33.9573 397.033 33.904C396.937 33.84 396.857 33.7333 396.793 33.584C396.75 33.488 396.707 33.3813 396.665 33.264C396.633 33.136 396.617 32.9813 396.617 32.8V23.952C396.617 23.8773 396.622 23.808 396.633 23.744C396.643 23.68 396.654 23.616 396.665 23.552C396.686 23.4987 396.702 23.44 396.713 23.376C396.723 23.312 396.739 23.2533 396.761 23.2C396.782 23.1467 396.803 23.0987 396.825 23.056C396.857 23.0133 396.894 22.976 396.937 22.944C396.99 22.8907 397.07 22.8427 397.177 22.8C397.294 22.7573 397.465 22.736 397.689 22.736H397.721C398.051 22.7147 398.419 22.6987 398.825 22.688C399.23 22.6667 399.566 22.672 399.833 22.704C399.982 22.7253 400.121 22.7413 400.249 22.752C400.377 22.752 400.499 22.7573 400.617 22.768C400.745 22.7787 400.873 22.7893 401.001 22.8C401.129 22.8107 401.257 22.8267 401.385 22.848C401.491 22.8693 401.587 22.8853 401.673 22.896C401.769 22.9067 401.865 22.9227 401.961 22.944C402.046 22.9653 402.137 22.9867 402.233 23.008C402.339 23.0293 402.435 23.0667 402.521 23.12C402.745 23.184 402.931 23.264 403.081 23.36C403.23 23.456 403.385 23.5627 403.545 23.68ZM402.585 26.32C402.595 26.064 402.542 25.84 402.425 25.648C402.318 25.456 402.163 25.296 401.961 25.168C401.758 25.04 401.529 24.9387 401.273 24.864C401.017 24.7893 400.761 24.736 400.505 24.704C400.441 24.704 400.35 24.704 400.233 24.704C400.126 24.6933 400.009 24.688 399.881 24.688C399.753 24.6773 399.63 24.672 399.513 24.672C399.406 24.6613 399.321 24.656 399.257 24.656C399.203 24.6453 399.139 24.64 399.065 24.64C398.99 24.64 398.905 24.64 398.809 24.64C398.819 24.9707 398.825 25.2907 398.825 25.6C398.825 25.8987 398.825 26.224 398.825 26.576C398.814 26.768 398.809 26.96 398.809 27.152C398.809 27.344 398.809 27.5307 398.809 27.712L399.801 27.696C400.057 27.696 400.339 27.68 400.649 27.648C400.958 27.616 401.251 27.552 401.529 27.456C401.806 27.36 402.041 27.2213 402.233 27.04C402.435 26.8587 402.553 26.6187 402.585 26.32ZM410.309 31.808C410.437 31.776 410.565 31.7547 410.693 31.744C410.831 31.7333 410.954 31.7493 411.061 31.792C411.178 31.8347 411.274 31.9093 411.349 32.016C411.423 32.112 411.461 32.2507 411.461 32.432C411.461 32.56 411.429 32.6827 411.365 32.8C411.301 32.9173 411.221 33.024 411.125 33.12C411.029 33.216 410.922 33.3013 410.805 33.376C410.687 33.44 410.575 33.4933 410.469 33.536C410.159 33.6747 409.802 33.7813 409.397 33.856C409.002 33.9307 408.591 33.9573 408.165 33.936C407.589 33.9147 407.034 33.8027 406.501 33.6C405.978 33.3867 405.567 33.04 405.269 32.56C404.991 32.0907 404.826 31.568 404.773 30.992C404.719 30.416 404.746 29.872 404.853 29.36C404.97 28.7413 405.167 28.24 405.445 27.856C405.733 27.4613 406.074 27.1467 406.469 26.912C406.949 26.6347 407.487 26.4907 408.085 26.48C408.682 26.4693 409.253 26.5867 409.797 26.832C410.159 26.992 410.485 27.2107 410.773 27.488C411.061 27.7547 411.279 28.08 411.429 28.464C411.471 28.56 411.503 28.6773 411.525 28.816C411.557 28.9547 411.578 29.104 411.589 29.264C411.599 29.4133 411.599 29.5627 411.589 29.712C411.578 29.8613 411.551 29.9947 411.509 30.112C411.445 30.304 411.365 30.4533 411.269 30.56C411.173 30.6667 411.05 30.7467 410.901 30.8C410.751 30.8533 410.57 30.8907 410.357 30.912C410.154 30.9227 409.909 30.9333 409.621 30.944C409.365 30.9547 409.125 30.96 408.901 30.96C408.677 30.96 408.447 30.96 408.213 30.96C407.978 30.9493 407.733 30.944 407.477 30.944C407.231 30.9333 406.954 30.9227 406.645 30.912C406.613 31.1253 406.639 31.312 406.725 31.472C406.821 31.6213 406.949 31.7493 407.109 31.856C407.269 31.952 407.45 32.0267 407.653 32.08C407.855 32.1333 408.053 32.1653 408.245 32.176C408.607 32.1973 408.954 32.1707 409.285 32.096C409.615 32.0107 409.957 31.9147 410.309 31.808ZM409.621 28.704C409.418 28.4693 409.205 28.2987 408.981 28.192C408.81 28.1173 408.629 28.0853 408.437 28.096C408.255 28.096 408.079 28.1227 407.909 28.176C407.599 28.2507 407.338 28.4107 407.125 28.656C407.103 28.6773 407.066 28.7307 407.013 28.816C406.959 28.8907 406.906 28.9707 406.853 29.056C406.81 29.1413 406.778 29.2213 406.757 29.296C406.735 29.3707 406.746 29.408 406.789 29.408H409.925C409.914 29.2587 409.887 29.136 409.845 29.04C409.802 28.9333 409.727 28.8213 409.621 28.704ZM412.898 28.288C412.898 28.0427 412.893 27.7813 412.882 27.504C412.882 27.2267 412.93 26.976 413.026 26.752C413.112 26.5493 413.25 26.4053 413.442 26.32C413.645 26.224 413.842 26.2027 414.034 26.256C414.226 26.288 414.376 26.3467 414.482 26.432C414.589 26.5173 414.664 26.6187 414.706 26.736C414.76 26.8427 414.792 26.9707 414.802 27.12C414.813 27.2587 414.824 27.3973 414.834 27.536C414.941 27.344 415.074 27.1893 415.234 27.072C415.394 26.9547 415.56 26.8587 415.73 26.784C415.901 26.7093 416.061 26.656 416.21 26.624C416.37 26.592 416.493 26.576 416.578 26.576C416.984 26.576 417.384 26.6667 417.778 26.848C418.184 27.0187 418.52 27.264 418.786 27.584C418.936 27.776 419.048 27.9787 419.122 28.192C419.208 28.3947 419.266 28.608 419.298 28.832C419.341 29.056 419.368 29.2853 419.378 29.52C419.389 29.744 419.4 29.9733 419.41 30.208C419.464 30.8907 419.464 31.568 419.41 32.24C419.4 32.3787 419.394 32.5387 419.394 32.72C419.394 32.9013 419.378 33.0827 419.346 33.264C419.325 33.4347 419.277 33.5893 419.202 33.728C419.138 33.856 419.026 33.936 418.866 33.968C418.642 34.0213 418.456 34.032 418.306 34C418.168 33.9787 418.056 33.9307 417.97 33.856C417.885 33.7813 417.821 33.6853 417.778 33.568C417.736 33.4507 417.698 33.3173 417.666 33.168C417.645 33.0507 417.624 32.9173 417.602 32.768C417.592 32.608 417.581 32.448 417.57 32.288C417.57 32.128 417.565 31.9733 417.554 31.824C417.554 31.664 417.554 31.52 417.554 31.392C417.554 31.1893 417.549 30.9653 417.538 30.72C417.528 30.4747 417.528 30.2453 417.538 30.032C417.538 29.5307 417.405 29.152 417.138 28.896C416.882 28.6293 416.53 28.5173 416.082 28.56C415.741 28.6027 415.442 28.7413 415.186 28.976C414.93 29.2 414.808 29.4933 414.818 29.856C414.818 29.9947 414.818 30.1227 414.818 30.24C414.818 30.3573 414.813 30.4747 414.802 30.592C414.802 30.7093 414.802 30.8373 414.802 30.976C414.802 31.1147 414.802 31.2693 414.802 31.44C414.802 31.792 414.802 32.1653 414.802 32.56C414.802 32.944 414.754 33.2587 414.658 33.504C414.573 33.76 414.429 33.936 414.226 34.032C414.024 34.128 413.784 34.1013 413.506 33.952C413.389 33.888 413.293 33.8027 413.218 33.696C413.154 33.5787 413.101 33.456 413.058 33.328C413.026 33.2 413.005 33.072 412.994 32.944C412.984 32.8053 412.973 32.6773 412.962 32.56C412.93 32.208 412.909 31.8827 412.898 31.584C412.898 31.2747 412.898 30.944 412.898 30.592V28.288ZM425.382 24.736C425.062 24.832 424.79 24.8 424.566 24.64C424.342 24.4693 424.203 24.2293 424.15 23.92C424.118 23.696 424.139 23.4987 424.214 23.328C424.299 23.1573 424.411 23.0293 424.55 22.944C424.699 22.8587 424.87 22.8213 425.062 22.832C425.254 22.8427 425.446 22.9173 425.638 23.056C425.819 23.184 425.947 23.3333 426.022 23.504C426.107 23.664 426.134 23.824 426.102 23.984C426.08 24.144 426.011 24.2933 425.894 24.432C425.776 24.5707 425.606 24.672 425.382 24.736ZM426.022 27.68C426.022 27.808 426.022 28.048 426.022 28.4C426.022 28.752 426.022 29.136 426.022 29.552C426.022 29.9573 426.022 30.352 426.022 30.736C426.022 31.12 426.022 31.4133 426.022 31.616C426.011 31.936 425.99 32.2773 425.958 32.64C425.936 33.0027 425.883 33.36 425.798 33.712C425.723 34.064 425.6 34.3893 425.43 34.688C425.259 34.9973 425.024 35.2533 424.726 35.456C424.384 35.68 424.011 35.824 423.606 35.888C423.2 35.9627 422.806 35.9413 422.422 35.824C422.187 35.7707 421.958 35.6907 421.734 35.584C421.52 35.4773 421.339 35.3387 421.19 35.168C420.998 34.9653 420.859 34.72 420.774 34.432C420.688 34.1547 420.742 33.8933 420.934 33.648C421.062 33.488 421.216 33.3867 421.398 33.344C421.59 33.2907 421.776 33.312 421.958 33.408C422.128 33.4933 422.294 33.5787 422.454 33.664C422.614 33.7493 422.774 33.808 422.934 33.84C423.094 33.8613 423.254 33.8453 423.414 33.792C423.574 33.728 423.734 33.6 423.894 33.408C423.968 33.312 424.022 33.1733 424.054 32.992C424.096 32.8107 424.123 32.6133 424.134 32.4C424.155 32.176 424.166 31.9573 424.166 31.744C424.166 31.52 424.166 31.3227 424.166 31.152C424.166 30.9173 424.166 30.72 424.166 30.56C424.166 30.3893 424.166 30.2347 424.166 30.096C424.166 29.9467 424.166 29.7973 424.166 29.648C424.166 29.488 424.166 29.296 424.166 29.072C424.166 28.944 424.16 28.752 424.15 28.496C424.139 28.24 424.134 27.9733 424.134 27.696C424.144 27.408 424.166 27.1413 424.198 26.896C424.24 26.6507 424.304 26.4747 424.39 26.368C424.528 26.1867 424.704 26.096 424.918 26.096C425.142 26.0853 425.344 26.1387 425.526 26.256C425.643 26.3307 425.734 26.4267 425.798 26.544C425.862 26.6507 425.91 26.768 425.942 26.896C425.974 27.024 425.995 27.1573 426.006 27.296C426.016 27.424 426.022 27.552 426.022 27.68ZM433.974 30.192C433.952 30.544 433.931 30.9013 433.91 31.264C433.888 31.616 433.83 31.9573 433.734 32.288C433.648 32.6187 433.51 32.9173 433.318 33.184C433.136 33.4507 432.875 33.664 432.534 33.824C432.235 33.9733 431.915 34.0747 431.574 34.128C431.232 34.192 430.891 34.2187 430.55 34.208C430.208 34.1973 429.878 34.144 429.558 34.048C429.238 33.9627 428.95 33.84 428.694 33.68C428.438 33.52 428.23 33.312 428.07 33.056C427.91 32.8 427.782 32.5227 427.686 32.224C427.6 31.9253 427.542 31.616 427.51 31.296C427.478 30.976 427.456 30.6773 427.446 30.4C427.403 29.664 427.403 28.9387 427.446 28.224C427.446 28.0853 427.446 27.9307 427.446 27.76C427.446 27.5787 427.456 27.4027 427.478 27.232C427.51 27.0613 427.558 26.9067 427.622 26.768C427.686 26.6187 427.792 26.5067 427.942 26.432C428.262 26.2613 428.555 26.2507 428.822 26.4C429.099 26.5493 429.264 26.8587 429.318 27.328C429.35 27.5733 429.36 27.8453 429.35 28.144C429.35 28.4427 429.36 28.7147 429.382 28.96C429.392 29.3227 429.403 29.7173 429.414 30.144C429.424 30.56 429.483 30.9333 429.59 31.264C429.707 31.5947 429.894 31.8453 430.15 32.016C430.416 32.176 430.811 32.1813 431.334 32.032C431.579 31.9573 431.739 31.7707 431.814 31.472C431.899 31.1733 431.942 30.7307 431.942 30.144C431.942 29.888 431.936 29.6053 431.926 29.296C431.915 28.9867 431.91 28.6827 431.91 28.384C431.91 28.0747 431.915 27.792 431.926 27.536C431.947 27.2693 431.979 27.0667 432.022 26.928C432.075 26.736 432.187 26.592 432.358 26.496C432.528 26.4 432.71 26.352 432.902 26.352C433.094 26.3413 433.275 26.3787 433.446 26.464C433.616 26.5493 433.734 26.688 433.798 26.88C433.862 27.0507 433.904 27.2693 433.926 27.536C433.958 27.792 433.979 28.0747 433.99 28.384C434 28.6827 434 28.992 433.99 29.312C433.99 29.6213 433.984 29.9147 433.974 30.192ZM437.16 27.264C437.48 27.104 437.816 26.992 438.168 26.928C438.52 26.8533 438.867 26.8373 439.208 26.88C439.56 26.912 439.896 27.0027 440.216 27.152C440.536 27.2907 440.835 27.4933 441.112 27.76C441.39 28.0373 441.603 28.3413 441.752 28.672C441.902 29.0027 442.008 29.3707 442.072 29.776C442.115 30.0533 442.184 30.3093 442.28 30.544C442.376 30.7787 442.478 31.0133 442.584 31.248C442.702 31.4827 442.808 31.7173 442.904 31.952C443.011 32.1867 443.096 32.432 443.16 32.688C443.214 32.9333 443.192 33.1733 443.096 33.408C443.011 33.632 442.83 33.7707 442.552 33.824C442.392 33.856 442.238 33.8453 442.088 33.792C441.95 33.728 441.822 33.6427 441.704 33.536C441.587 33.4187 441.48 33.296 441.384 33.168C441.299 33.0293 441.219 32.9013 441.144 32.784C440.899 33.104 440.632 33.3547 440.344 33.536C440.056 33.7067 439.71 33.8187 439.304 33.872C438.963 33.9147 438.638 33.9253 438.328 33.904C438.019 33.8827 437.688 33.824 437.336 33.728C436.878 33.6107 436.499 33.408 436.2 33.12C435.912 32.8213 435.688 32.48 435.528 32.096C435.379 31.7013 435.299 31.28 435.288 30.832C435.278 30.384 435.331 29.9413 435.448 29.504C435.598 28.928 435.822 28.4587 436.12 28.096C436.419 27.7333 436.766 27.456 437.16 27.264ZM437.56 29.136C437.411 29.2853 437.294 29.4613 437.208 29.664C437.123 29.8667 437.07 30.08 437.048 30.304C437.038 30.528 437.059 30.752 437.112 30.976C437.166 31.2 437.251 31.3973 437.368 31.568C437.475 31.7173 437.656 31.8453 437.912 31.952C438.168 32.048 438.435 32.1067 438.712 32.128C439.032 32.1493 439.31 32.064 439.544 31.872C439.79 31.68 439.971 31.44 440.088 31.152C440.216 30.8533 440.275 30.5387 440.264 30.208C440.254 29.8667 440.163 29.5573 439.992 29.28C439.864 29.0773 439.694 28.928 439.48 28.832C439.278 28.736 439.059 28.688 438.824 28.688C438.59 28.6773 438.355 28.7147 438.12 28.8C437.896 28.8747 437.71 28.9867 437.56 29.136ZM446.62 32.72C446.609 32.7733 446.598 32.8267 446.588 32.88C446.588 32.9227 446.588 32.9707 446.588 33.024L446.492 33.36C446.47 33.4027 446.454 33.4293 446.444 33.44L446.396 33.536C446.342 33.6533 446.246 33.7493 446.108 33.824C445.852 33.952 445.58 33.984 445.292 33.92C445.11 33.8987 444.966 33.8453 444.86 33.76C444.753 33.6853 444.678 33.5947 444.636 33.488C444.593 33.3813 444.561 33.2747 444.54 33.168C444.508 33.0613 444.492 32.9653 444.492 32.88V23.92C444.492 23.8453 444.492 23.7813 444.492 23.728C444.502 23.664 444.513 23.6053 444.524 23.552C444.534 23.4773 444.545 23.4133 444.556 23.36C444.577 23.3067 444.598 23.248 444.62 23.184C444.652 23.0773 444.71 22.992 444.796 22.928C444.924 22.832 445.046 22.7787 445.164 22.768C445.238 22.7467 445.308 22.736 445.372 22.736C445.436 22.7253 445.51 22.72 445.596 22.72C445.745 22.72 445.916 22.7627 446.108 22.848C446.257 22.9333 446.364 23.0507 446.428 23.2C446.534 23.4133 446.588 23.6107 446.588 23.792C446.598 23.8987 446.604 24.0587 446.604 24.272C446.614 24.4853 446.62 24.6453 446.62 24.752V24.816C446.641 25.1573 446.652 25.488 446.652 25.808C446.652 26.1173 446.646 26.4587 446.636 26.832C446.636 27.1947 446.63 27.5467 446.62 27.888C446.62 28.2187 446.62 28.5493 446.62 28.88V32.24C446.62 32.2827 446.62 32.3253 446.62 32.368C446.63 32.4 446.636 32.4373 446.636 32.48C446.636 32.5867 446.63 32.6667 446.62 32.72ZM449.801 27.264C450.121 27.104 450.457 26.992 450.809 26.928C451.161 26.8533 451.508 26.8373 451.849 26.88C452.201 26.912 452.537 27.0027 452.857 27.152C453.177 27.2907 453.476 27.4933 453.753 27.76C454.03 28.0373 454.244 28.3413 454.393 28.672C454.542 29.0027 454.649 29.3707 454.713 29.776C454.756 30.0533 454.825 30.3093 454.921 30.544C455.017 30.7787 455.118 31.0133 455.225 31.248C455.342 31.4827 455.449 31.7173 455.545 31.952C455.652 32.1867 455.737 32.432 455.801 32.688C455.854 32.9333 455.833 33.1733 455.737 33.408C455.652 33.632 455.47 33.7707 455.193 33.824C455.033 33.856 454.878 33.8453 454.729 33.792C454.59 33.728 454.462 33.6427 454.345 33.536C454.228 33.4187 454.121 33.296 454.025 33.168C453.94 33.0293 453.86 32.9013 453.785 32.784C453.54 33.104 453.273 33.3547 452.985 33.536C452.697 33.7067 452.35 33.8187 451.945 33.872C451.604 33.9147 451.278 33.9253 450.969 33.904C450.66 33.8827 450.329 33.824 449.977 33.728C449.518 33.6107 449.14 33.408 448.841 33.12C448.553 32.8213 448.329 32.48 448.169 32.096C448.02 31.7013 447.94 31.28 447.929 30.832C447.918 30.384 447.972 29.9413 448.089 29.504C448.238 28.928 448.462 28.4587 448.761 28.096C449.06 27.7333 449.406 27.456 449.801 27.264ZM450.201 29.136C450.052 29.2853 449.934 29.4613 449.849 29.664C449.764 29.8667 449.71 30.08 449.689 30.304C449.678 30.528 449.7 30.752 449.753 30.976C449.806 31.2 449.892 31.3973 450.009 31.568C450.116 31.7173 450.297 31.8453 450.553 31.952C450.809 32.048 451.076 32.1067 451.353 32.128C451.673 32.1493 451.95 32.064 452.185 31.872C452.43 31.68 452.612 31.44 452.729 31.152C452.857 30.8533 452.916 30.5387 452.905 30.208C452.894 29.8667 452.804 29.5573 452.633 29.28C452.505 29.0773 452.334 28.928 452.121 28.832C451.918 28.736 451.7 28.688 451.465 28.688C451.23 28.6773 450.996 28.7147 450.761 28.8C450.537 28.8747 450.35 28.9867 450.201 29.136ZM457.148 28.288C457.148 28.0427 457.143 27.7813 457.132 27.504C457.132 27.2267 457.18 26.976 457.276 26.752C457.362 26.5493 457.5 26.4053 457.692 26.32C457.895 26.224 458.092 26.2027 458.284 26.256C458.476 26.288 458.626 26.3467 458.732 26.432C458.839 26.5173 458.914 26.6187 458.956 26.736C459.01 26.8427 459.042 26.9707 459.052 27.12C459.063 27.2587 459.074 27.3973 459.084 27.536C459.191 27.344 459.324 27.1893 459.484 27.072C459.644 26.9547 459.81 26.8587 459.98 26.784C460.151 26.7093 460.311 26.656 460.46 26.624C460.62 26.592 460.743 26.576 460.828 26.576C461.234 26.576 461.634 26.6667 462.028 26.848C462.434 27.0187 462.77 27.264 463.036 27.584C463.186 27.776 463.298 27.9787 463.372 28.192C463.458 28.3947 463.516 28.608 463.548 28.832C463.591 29.056 463.618 29.2853 463.628 29.52C463.639 29.744 463.65 29.9733 463.66 30.208C463.714 30.8907 463.714 31.568 463.66 32.24C463.65 32.3787 463.644 32.5387 463.644 32.72C463.644 32.9013 463.628 33.0827 463.596 33.264C463.575 33.4347 463.527 33.5893 463.452 33.728C463.388 33.856 463.276 33.936 463.116 33.968C462.892 34.0213 462.706 34.032 462.556 34C462.418 33.9787 462.306 33.9307 462.22 33.856C462.135 33.7813 462.071 33.6853 462.028 33.568C461.986 33.4507 461.948 33.3173 461.916 33.168C461.895 33.0507 461.874 32.9173 461.852 32.768C461.842 32.608 461.831 32.448 461.82 32.288C461.82 32.128 461.815 31.9733 461.804 31.824C461.804 31.664 461.804 31.52 461.804 31.392C461.804 31.1893 461.799 30.9653 461.788 30.72C461.778 30.4747 461.778 30.2453 461.788 30.032C461.788 29.5307 461.655 29.152 461.388 28.896C461.132 28.6293 460.78 28.5173 460.332 28.56C459.991 28.6027 459.692 28.7413 459.436 28.976C459.18 29.2 459.058 29.4933 459.068 29.856C459.068 29.9947 459.068 30.1227 459.068 30.24C459.068 30.3573 459.063 30.4747 459.052 30.592C459.052 30.7093 459.052 30.8373 459.052 30.976C459.052 31.1147 459.052 31.2693 459.052 31.44C459.052 31.792 459.052 32.1653 459.052 32.56C459.052 32.944 459.004 33.2587 458.908 33.504C458.823 33.76 458.679 33.936 458.476 34.032C458.274 34.128 458.034 34.1013 457.756 33.952C457.639 33.888 457.543 33.8027 457.468 33.696C457.404 33.5787 457.351 33.456 457.308 33.328C457.276 33.2 457.255 33.072 457.244 32.944C457.234 32.8053 457.223 32.6773 457.212 32.56C457.18 32.208 457.159 31.8827 457.148 31.584C457.148 31.2747 457.148 30.944 457.148 30.592V28.288Z" fill="black"/>
<rect x="198" y="367" width="168" height="23" rx="11.5" fill="url(#paint1_linear_190_59)" fill-opacity="0.98"/>
<path d="M268.36 382.064C268.429 382.194 268.434 382.324 268.373 382.454C268.33 382.593 268.256 382.697 268.152 382.766C268.1 382.809 268.052 382.848 268.009 382.883C267.966 382.909 267.918 382.931 267.866 382.948C267.771 383 267.658 383.017 267.528 383C267.476 383 267.428 382.991 267.385 382.974C267.342 382.957 267.298 382.935 267.255 382.909C267.212 382.883 267.164 382.857 267.112 382.831C267.069 382.796 267.025 382.762 266.982 382.727C266.93 382.684 266.882 382.645 266.839 382.61C266.796 382.575 266.757 382.536 266.722 382.493C266.679 382.45 266.64 382.406 266.605 382.363C266.57 382.32 266.536 382.281 266.501 382.246L266.345 382.077L263.849 379.464L263.888 382.077V382.194C263.888 382.229 263.884 382.268 263.875 382.311C263.866 382.346 263.858 382.385 263.849 382.428C263.823 382.541 263.793 382.64 263.758 382.727C263.741 382.779 263.715 382.822 263.68 382.857C263.654 382.892 263.624 382.926 263.589 382.961C263.494 383.048 263.381 383.095 263.251 383.104C263.121 383.147 263 383.16 262.887 383.143C262.783 383.134 262.675 383.104 262.562 383.052C262.475 383 262.397 382.913 262.328 382.792C262.311 382.757 262.298 382.736 262.289 382.727C262.289 382.718 262.28 382.688 262.263 382.636C262.211 382.549 262.185 382.463 262.185 382.376C262.176 382.324 262.168 382.276 262.159 382.233C262.159 382.19 262.155 382.142 262.146 382.09C262.137 382.055 262.133 382.021 262.133 381.986C262.133 381.951 262.133 381.917 262.133 381.882C262.142 381.839 262.146 381.804 262.146 381.778C262.146 381.743 262.146 381.704 262.146 381.661L262.133 380.634L262.12 378.723C262.12 378.168 262.107 377.57 262.081 376.929C262.072 376.617 262.068 376.34 262.068 376.097C262.068 375.854 262.072 375.581 262.081 375.278V375.226C262.098 375.131 262.107 375.04 262.107 374.953C262.107 374.858 262.111 374.767 262.12 374.68C262.12 374.507 262.159 374.333 262.237 374.16C262.289 374.03 262.38 373.926 262.51 373.848C262.579 373.805 262.644 373.779 262.705 373.77C262.774 373.753 262.848 373.735 262.926 373.718C262.987 373.718 263.043 373.722 263.095 373.731C263.156 373.74 263.212 373.748 263.264 373.757C263.377 373.774 263.481 373.822 263.576 373.9C263.602 373.926 263.624 373.956 263.641 373.991C263.667 374.026 263.689 374.069 263.706 374.121C263.749 374.19 263.78 374.29 263.797 374.42C263.806 374.472 263.81 374.524 263.81 374.576C263.819 374.628 263.823 374.684 263.823 374.745V375.278L263.836 376.864C263.975 376.743 264.109 376.617 264.239 376.487C264.378 376.357 264.512 376.218 264.642 376.071C264.876 375.828 265.106 375.594 265.331 375.369C265.565 375.135 265.799 374.905 266.033 374.68L266.072 374.641C266.141 374.572 266.211 374.507 266.28 374.446C266.358 374.377 266.432 374.312 266.501 374.251C266.631 374.104 266.791 374 266.982 373.939C267.103 373.861 267.246 373.831 267.411 373.848C267.489 373.857 267.558 373.874 267.619 373.9C267.688 373.926 267.753 373.961 267.814 374.004C267.857 374.047 267.901 374.086 267.944 374.121C267.987 374.147 268.022 374.182 268.048 374.225C268.117 374.286 268.161 374.377 268.178 374.498C268.178 374.593 268.161 374.68 268.126 374.758C268.1 374.801 268.074 374.845 268.048 374.888C268.022 374.931 267.992 374.975 267.957 375.018C267.914 375.07 267.875 375.118 267.84 375.161C267.805 375.204 267.766 375.248 267.723 375.291C267.688 375.334 267.649 375.373 267.606 375.408C267.571 375.443 267.537 375.482 267.502 375.525L267.333 375.694L264.902 378.177C265.032 378.307 265.166 378.446 265.305 378.593C265.452 378.732 265.591 378.87 265.721 379.009C265.851 379.139 265.972 379.265 266.085 379.386C266.198 379.499 266.293 379.594 266.371 379.672C266.605 379.915 266.83 380.157 267.047 380.4C267.264 380.634 267.476 380.872 267.684 381.115L267.723 381.154C267.792 381.223 267.857 381.297 267.918 381.375C267.979 381.444 268.035 381.514 268.087 381.583C268.217 381.73 268.308 381.891 268.36 382.064ZM273.536 381.219C273.64 381.193 273.744 381.176 273.848 381.167C273.96 381.158 274.06 381.171 274.147 381.206C274.242 381.241 274.32 381.301 274.381 381.388C274.441 381.466 274.472 381.579 274.472 381.726C274.472 381.83 274.446 381.93 274.394 382.025C274.342 382.12 274.277 382.207 274.199 382.285C274.121 382.363 274.034 382.432 273.939 382.493C273.843 382.545 273.752 382.588 273.666 382.623C273.414 382.736 273.124 382.822 272.795 382.883C272.474 382.944 272.14 382.965 271.794 382.948C271.326 382.931 270.875 382.84 270.442 382.675C270.017 382.502 269.683 382.22 269.441 381.83C269.215 381.449 269.081 381.024 269.038 380.556C268.994 380.088 269.016 379.646 269.103 379.23C269.198 378.727 269.358 378.32 269.584 378.008C269.818 377.687 270.095 377.432 270.416 377.241C270.806 377.016 271.243 376.899 271.729 376.89C272.214 376.881 272.678 376.977 273.12 377.176C273.414 377.306 273.679 377.484 273.913 377.709C274.147 377.926 274.324 378.19 274.446 378.502C274.48 378.58 274.506 378.675 274.524 378.788C274.55 378.901 274.567 379.022 274.576 379.152C274.584 379.273 274.584 379.395 274.576 379.516C274.567 379.637 274.545 379.746 274.511 379.841C274.459 379.997 274.394 380.118 274.316 380.205C274.238 380.292 274.138 380.357 274.017 380.4C273.895 380.443 273.748 380.474 273.575 380.491C273.41 380.5 273.211 380.508 272.977 380.517C272.769 380.526 272.574 380.53 272.392 380.53C272.21 380.53 272.023 380.53 271.833 380.53C271.642 380.521 271.443 380.517 271.235 380.517C271.035 380.508 270.81 380.5 270.559 380.491C270.533 380.664 270.554 380.816 270.624 380.946C270.702 381.067 270.806 381.171 270.936 381.258C271.066 381.336 271.213 381.397 271.378 381.44C271.542 381.483 271.703 381.509 271.859 381.518C272.153 381.535 272.435 381.514 272.704 381.453C272.972 381.384 273.25 381.306 273.536 381.219ZM272.977 378.697C272.812 378.506 272.639 378.368 272.457 378.281C272.318 378.22 272.171 378.194 272.015 378.203C271.867 378.203 271.724 378.225 271.586 378.268C271.334 378.329 271.122 378.459 270.949 378.658C270.931 378.675 270.901 378.719 270.858 378.788C270.814 378.849 270.771 378.914 270.728 378.983C270.693 379.052 270.667 379.117 270.65 379.178C270.632 379.239 270.641 379.269 270.676 379.269H273.224C273.215 379.148 273.193 379.048 273.159 378.97C273.124 378.883 273.063 378.792 272.977 378.697ZM282.672 379.971C282.69 380.248 282.698 380.513 282.698 380.764C282.698 381.007 282.69 381.267 282.672 381.544C282.672 381.648 282.672 381.765 282.672 381.895C282.672 382.025 282.664 382.151 282.646 382.272C282.629 382.393 282.599 382.506 282.555 382.61C282.512 382.714 282.447 382.796 282.36 382.857C282.256 382.926 282.139 382.974 282.009 383C281.879 383.017 281.758 383.009 281.645 382.974C281.533 382.939 281.433 382.874 281.346 382.779C281.268 382.684 281.225 382.549 281.216 382.376C281.19 381.977 281.177 381.579 281.177 381.18C281.177 380.981 281.173 380.79 281.164 380.608C281.164 380.426 281.169 380.17 281.177 379.841C281.177 379.676 281.164 379.49 281.138 379.282C281.112 379.065 281.047 378.914 280.943 378.827C280.865 378.758 280.779 378.719 280.683 378.71C280.588 378.693 280.493 378.701 280.397 378.736C280.311 378.771 280.233 378.836 280.163 378.931C280.094 379.018 280.046 379.13 280.02 379.269C280.02 379.382 280.016 379.499 280.007 379.62C280.007 379.733 280.012 379.841 280.02 379.945C280.029 380.222 280.033 380.487 280.033 380.738C280.033 380.981 280.029 381.241 280.02 381.518C280.012 381.631 280.007 381.752 280.007 381.882C280.016 382.012 280.016 382.142 280.007 382.272C279.999 382.393 279.973 382.506 279.929 382.61C279.895 382.714 279.83 382.796 279.734 382.857C279.63 382.926 279.518 382.97 279.396 382.987C279.284 382.996 279.175 382.978 279.071 382.935C278.976 382.883 278.889 382.805 278.811 382.701C278.742 382.597 278.703 382.458 278.694 382.285C278.677 382.086 278.664 381.904 278.655 381.739C278.655 381.566 278.655 381.384 278.655 381.193C278.655 380.994 278.66 380.79 278.668 380.582C278.677 380.365 278.673 380.157 278.655 379.958C278.655 379.897 278.651 379.828 278.642 379.75C278.642 379.663 278.638 379.577 278.629 379.49C278.629 379.403 278.621 379.321 278.603 379.243C278.595 379.156 278.577 379.087 278.551 379.035C278.482 378.914 278.356 378.836 278.174 378.801C278.001 378.766 277.854 378.779 277.732 378.84C277.611 378.901 277.52 378.979 277.459 379.074C277.399 379.169 277.355 379.273 277.329 379.386C277.303 379.499 277.29 379.62 277.29 379.75C277.29 379.871 277.29 379.988 277.29 380.101C277.29 380.664 277.29 381.154 277.29 381.57C277.299 381.977 277.256 382.307 277.16 382.558C277.117 382.688 277.026 382.788 276.887 382.857C276.757 382.926 276.614 382.961 276.458 382.961C276.311 382.961 276.172 382.926 276.042 382.857C275.912 382.788 275.826 382.679 275.782 382.532C275.756 382.437 275.73 382.302 275.704 382.129C275.687 381.947 275.674 381.748 275.665 381.531C275.657 381.314 275.652 381.098 275.652 380.881C275.652 380.656 275.652 380.452 275.652 380.27V378.398C275.644 378.199 275.639 377.982 275.639 377.748C275.639 377.514 275.674 377.302 275.743 377.111C275.804 376.946 275.899 376.842 276.029 376.799C276.159 376.747 276.294 376.725 276.432 376.734C276.588 376.734 276.71 376.777 276.796 376.864C276.892 376.942 276.961 377.042 277.004 377.163C277.048 377.276 277.074 377.406 277.082 377.553C277.091 377.692 277.1 377.826 277.108 377.956C277.204 377.739 277.316 377.562 277.446 377.423C277.585 377.276 277.78 377.18 278.031 377.137C278.673 377.016 279.184 377.18 279.565 377.631C279.739 377.458 279.96 377.315 280.228 377.202C280.436 377.124 280.649 377.089 280.865 377.098C281.082 377.098 281.286 377.137 281.476 377.215C281.676 377.293 281.853 377.406 282.009 377.553C282.174 377.7 282.304 377.878 282.399 378.086C282.529 378.363 282.603 378.671 282.62 379.009C282.638 379.347 282.655 379.668 282.672 379.971ZM283.765 374.784C283.782 374.472 283.877 374.221 284.051 374.03C284.233 373.839 284.488 373.787 284.818 373.874C284.974 373.917 285.086 373.982 285.156 374.069C285.234 374.156 285.286 374.26 285.312 374.381C285.346 374.494 285.364 374.619 285.364 374.758C285.364 374.888 285.364 375.018 285.364 375.148V376.942C285.355 377.011 285.351 377.081 285.351 377.15C285.359 377.211 285.364 377.267 285.364 377.319V377.488H285.689C285.784 377.488 285.875 377.488 285.962 377.488C286.057 377.488 286.139 377.484 286.209 377.475C286.685 377.475 287.093 377.544 287.431 377.683C287.777 377.822 288.055 378.017 288.263 378.268C288.479 378.511 288.635 378.805 288.731 379.152C288.835 379.49 288.882 379.863 288.874 380.27C288.865 380.755 288.787 381.171 288.64 381.518C288.492 381.865 288.284 382.151 288.016 382.376C287.747 382.601 287.422 382.77 287.041 382.883C286.668 382.987 286.248 383.039 285.78 383.039C285.242 383.039 284.835 383.035 284.558 383.026C284.28 383.017 284.081 382.939 283.96 382.792C283.847 382.645 283.786 382.389 283.778 382.025C283.769 381.661 283.765 381.128 283.765 380.426C283.765 379.75 283.765 379.083 283.765 378.424C283.773 377.765 283.773 377.102 283.765 376.435C283.765 376.348 283.76 376.257 283.752 376.162C283.752 376.067 283.752 375.958 283.752 375.837C283.752 375.716 283.752 375.573 283.752 375.408C283.752 375.235 283.756 375.027 283.765 374.784ZM286.196 381.583C286.672 381.557 287.002 381.427 287.184 381.193C287.279 381.063 287.353 380.907 287.405 380.725C287.457 380.543 287.478 380.361 287.47 380.179C287.461 379.997 287.422 379.824 287.353 379.659C287.292 379.486 287.192 379.343 287.054 379.23C286.932 379.126 286.811 379.052 286.69 379.009C286.568 378.957 286.443 378.927 286.313 378.918C286.183 378.901 286.044 378.896 285.897 378.905C285.749 378.905 285.58 378.909 285.39 378.918V380.478L285.364 381.557C285.45 381.566 285.541 381.574 285.637 381.583C285.801 381.6 285.988 381.6 286.196 381.583ZM291.442 377.527C291.702 377.397 291.975 377.306 292.261 377.254C292.547 377.193 292.829 377.18 293.106 377.215C293.392 377.241 293.665 377.315 293.925 377.436C294.185 377.549 294.428 377.713 294.653 377.93C294.879 378.155 295.052 378.402 295.173 378.671C295.295 378.94 295.381 379.239 295.433 379.568C295.468 379.793 295.524 380.001 295.602 380.192C295.68 380.383 295.763 380.573 295.849 380.764C295.945 380.955 296.031 381.145 296.109 381.336C296.196 381.527 296.265 381.726 296.317 381.934C296.361 382.133 296.343 382.328 296.265 382.519C296.196 382.701 296.049 382.814 295.823 382.857C295.693 382.883 295.568 382.874 295.446 382.831C295.334 382.779 295.23 382.71 295.134 382.623C295.039 382.528 294.952 382.428 294.874 382.324C294.805 382.211 294.74 382.107 294.679 382.012C294.48 382.272 294.263 382.476 294.029 382.623C293.795 382.762 293.514 382.853 293.184 382.896C292.907 382.931 292.643 382.939 292.391 382.922C292.14 382.905 291.871 382.857 291.585 382.779C291.213 382.684 290.905 382.519 290.662 382.285C290.428 382.042 290.246 381.765 290.116 381.453C289.995 381.132 289.93 380.79 289.921 380.426C289.913 380.062 289.956 379.702 290.051 379.347C290.173 378.879 290.355 378.498 290.597 378.203C290.84 377.908 291.122 377.683 291.442 377.527ZM291.767 379.048C291.646 379.169 291.551 379.312 291.481 379.477C291.412 379.642 291.369 379.815 291.351 379.997C291.343 380.179 291.36 380.361 291.403 380.543C291.447 380.725 291.516 380.885 291.611 381.024C291.698 381.145 291.845 381.249 292.053 381.336C292.261 381.414 292.478 381.462 292.703 381.479C292.963 381.496 293.189 381.427 293.379 381.271C293.579 381.115 293.726 380.92 293.821 380.686C293.925 380.443 293.973 380.188 293.964 379.919C293.956 379.642 293.882 379.39 293.743 379.165C293.639 379 293.501 378.879 293.327 378.801C293.163 378.723 292.985 378.684 292.794 378.684C292.604 378.675 292.413 378.706 292.222 378.775C292.04 378.836 291.889 378.927 291.767 379.048ZM299.128 381.96C299.119 382.003 299.111 382.047 299.102 382.09C299.102 382.125 299.102 382.164 299.102 382.207L299.024 382.48C299.007 382.515 298.994 382.536 298.985 382.545L298.946 382.623C298.903 382.718 298.825 382.796 298.712 382.857C298.504 382.961 298.283 382.987 298.049 382.935C297.902 382.918 297.785 382.874 297.698 382.805C297.611 382.744 297.551 382.671 297.516 382.584C297.481 382.497 297.455 382.411 297.438 382.324C297.412 382.237 297.399 382.159 297.399 382.09V374.81C297.399 374.749 297.399 374.697 297.399 374.654C297.408 374.602 297.416 374.554 297.425 374.511C297.434 374.45 297.442 374.398 297.451 374.355C297.468 374.312 297.486 374.264 297.503 374.212C297.529 374.125 297.577 374.056 297.646 374.004C297.75 373.926 297.85 373.883 297.945 373.874C298.006 373.857 298.062 373.848 298.114 373.848C298.166 373.839 298.227 373.835 298.296 373.835C298.417 373.835 298.556 373.87 298.712 373.939C298.833 374.008 298.92 374.104 298.972 374.225C299.059 374.398 299.102 374.559 299.102 374.706C299.111 374.793 299.115 374.923 299.115 375.096C299.124 375.269 299.128 375.399 299.128 375.486V375.538C299.145 375.815 299.154 376.084 299.154 376.344C299.154 376.595 299.15 376.873 299.141 377.176C299.141 377.471 299.137 377.757 299.128 378.034C299.128 378.303 299.128 378.571 299.128 378.84V381.57C299.128 381.605 299.128 381.639 299.128 381.674C299.137 381.7 299.141 381.73 299.141 381.765C299.141 381.852 299.137 381.917 299.128 381.96ZM301.83 378.073C301.83 378.316 301.83 378.589 301.83 378.892C301.839 379.195 301.843 379.512 301.843 379.841C301.843 380.162 301.843 380.482 301.843 380.803C301.843 381.115 301.839 381.405 301.83 381.674C301.821 381.804 301.808 381.947 301.791 382.103C301.774 382.25 301.739 382.389 301.687 382.519C301.635 382.649 301.553 382.757 301.44 382.844C301.336 382.922 301.193 382.957 301.011 382.948C300.742 382.931 300.547 382.814 300.426 382.597C300.313 382.38 300.248 382.077 300.231 381.687C300.231 381.488 300.227 381.258 300.218 380.998C300.218 380.738 300.214 380.474 300.205 380.205C300.205 379.936 300.205 379.676 300.205 379.425C300.205 379.165 300.205 378.931 300.205 378.723C300.205 378.602 300.201 378.454 300.192 378.281C300.192 378.108 300.196 377.93 300.205 377.748C300.214 377.566 300.235 377.393 300.27 377.228C300.305 377.055 300.361 376.912 300.439 376.799C300.5 376.73 300.586 376.678 300.699 376.643C300.812 376.6 300.929 376.578 301.05 376.578C301.18 376.578 301.301 376.6 301.414 376.643C301.535 376.686 301.622 376.747 301.674 376.825C301.709 376.877 301.735 376.951 301.752 377.046C301.769 377.141 301.782 377.25 301.791 377.371C301.808 377.484 301.817 377.605 301.817 377.735C301.826 377.856 301.83 377.969 301.83 378.073ZM301.336 375.447C301.067 375.516 300.842 375.49 300.66 375.369C300.487 375.239 300.378 375.048 300.335 374.797C300.3 374.615 300.313 374.455 300.374 374.316C300.435 374.177 300.526 374.073 300.647 374.004C300.768 373.926 300.907 373.891 301.063 373.9C301.219 373.909 301.375 373.969 301.531 374.082C301.678 374.186 301.782 374.307 301.843 374.446C301.912 374.585 301.934 374.719 301.908 374.849C301.891 374.979 301.834 375.1 301.739 375.213C301.644 375.317 301.509 375.395 301.336 375.447Z" fill="white"/>
<defs>
<linearGradient id="paint0_linear_190_59" x1="428" y1="378.897" x2="596" y2="378.532" gradientUnits="userSpaceOnUse">
<stop stop-color="#35AEFF"/>
</linearGradient>
<linearGradient id="paint1_linear_190_59" x1="198" y1="378.897" x2="366" y2="378.532" gradientUnits="userSpaceOnUse">
<stop stop-color="#35AEFF"/>
</linearGradient>
</defs>
</svg>
