<svg width="800" height="420" viewBox="0 0 800 420" fill="none" xmlns="http://www.w3.org/2000/svg">
<rect width="800" height="413" rx="10" fill="#FCFCFC" fill-opacity="0.7"/>
<rect x="428" y="367" width="168" height="23" rx="11.5" fill="url(#paint0_linear_190_27)" fill-opacity="0.98"/>
<path d="M502.733 377.774C502.751 378.06 502.746 378.355 502.72 378.658C502.703 378.961 502.673 379.256 502.629 379.542C502.543 380.036 502.382 380.517 502.148 380.985C501.914 381.453 501.572 381.852 501.121 382.181C500.653 382.528 500.12 382.766 499.522 382.896C498.924 383.017 498.331 383.091 497.741 383.117C497.542 383.134 497.338 383.139 497.13 383.13C496.931 383.13 496.736 383.108 496.545 383.065C496.389 383.039 496.272 382.991 496.194 382.922C496.151 382.896 496.116 382.861 496.09 382.818C496.064 382.775 496.043 382.731 496.025 382.688C495.999 382.645 495.978 382.601 495.96 382.558C495.952 382.506 495.939 382.454 495.921 382.402C495.913 382.359 495.904 382.32 495.895 382.285C495.895 382.242 495.895 382.203 495.895 382.168V374.745C495.895 374.684 495.895 374.628 495.895 374.576C495.895 374.524 495.904 374.472 495.921 374.42C495.939 374.299 495.965 374.199 495.999 374.121C496.034 374.017 496.082 373.943 496.142 373.9C496.194 373.857 496.246 373.826 496.298 373.809C496.35 373.783 496.398 373.761 496.441 373.744C496.493 373.727 496.545 373.727 496.597 373.744C496.658 373.753 496.723 373.74 496.792 373.705L498.963 373.757C499.535 373.774 500.047 373.909 500.497 374.16C500.948 374.403 501.334 374.715 501.654 375.096C501.975 375.477 502.226 375.906 502.408 376.383C502.59 376.851 502.699 377.315 502.733 377.774ZM500.315 380.244C500.48 379.984 500.601 379.685 500.679 379.347C500.757 379.009 500.792 378.667 500.783 378.32C500.775 377.965 500.727 377.622 500.64 377.293C500.554 376.955 500.432 376.656 500.276 376.396C500.155 376.205 499.999 376.049 499.808 375.928C499.618 375.807 499.405 375.716 499.171 375.655C498.937 375.586 498.686 375.538 498.417 375.512C498.157 375.486 497.902 375.473 497.65 375.473C497.659 375.724 497.663 375.967 497.663 376.201C497.663 376.435 497.663 376.682 497.663 376.942C497.655 377.254 497.65 377.557 497.65 377.852C497.65 378.147 497.65 378.433 497.65 378.71V381.362C497.919 381.353 498.175 381.34 498.417 381.323C498.669 381.297 498.907 381.245 499.132 381.167C499.366 381.089 499.579 380.981 499.769 380.842C499.969 380.695 500.151 380.495 500.315 380.244ZM508.303 381.219C508.407 381.193 508.511 381.176 508.615 381.167C508.727 381.158 508.827 381.171 508.914 381.206C509.009 381.241 509.087 381.301 509.148 381.388C509.208 381.466 509.239 381.579 509.239 381.726C509.239 381.83 509.213 381.93 509.161 382.025C509.109 382.12 509.044 382.207 508.966 382.285C508.888 382.363 508.801 382.432 508.706 382.493C508.61 382.545 508.519 382.588 508.433 382.623C508.181 382.736 507.891 382.822 507.562 382.883C507.241 382.944 506.907 382.965 506.561 382.948C506.093 382.931 505.642 382.84 505.209 382.675C504.784 382.502 504.45 382.22 504.208 381.83C503.982 381.449 503.848 381.024 503.805 380.556C503.761 380.088 503.783 379.646 503.87 379.23C503.965 378.727 504.125 378.32 504.351 378.008C504.585 377.687 504.862 377.432 505.183 377.241C505.573 377.016 506.01 376.899 506.496 376.89C506.981 376.881 507.445 376.977 507.887 377.176C508.181 377.306 508.446 377.484 508.68 377.709C508.914 377.926 509.091 378.19 509.213 378.502C509.247 378.58 509.273 378.675 509.291 378.788C509.317 378.901 509.334 379.022 509.343 379.152C509.351 379.273 509.351 379.395 509.343 379.516C509.334 379.637 509.312 379.746 509.278 379.841C509.226 379.997 509.161 380.118 509.083 380.205C509.005 380.292 508.905 380.357 508.784 380.4C508.662 380.443 508.515 380.474 508.342 380.491C508.177 380.5 507.978 380.508 507.744 380.517C507.536 380.526 507.341 380.53 507.159 380.53C506.977 380.53 506.79 380.53 506.6 380.53C506.409 380.521 506.21 380.517 506.002 380.517C505.802 380.508 505.577 380.5 505.326 380.491C505.3 380.664 505.321 380.816 505.391 380.946C505.469 381.067 505.573 381.171 505.703 381.258C505.833 381.336 505.98 381.397 506.145 381.44C506.309 381.483 506.47 381.509 506.626 381.518C506.92 381.535 507.202 381.514 507.471 381.453C507.739 381.384 508.017 381.306 508.303 381.219ZM507.744 378.697C507.579 378.506 507.406 378.368 507.224 378.281C507.085 378.22 506.938 378.194 506.782 378.203C506.634 378.203 506.491 378.225 506.353 378.268C506.101 378.329 505.889 378.459 505.716 378.658C505.698 378.675 505.668 378.719 505.625 378.788C505.581 378.849 505.538 378.914 505.495 378.983C505.46 379.052 505.434 379.117 505.417 379.178C505.399 379.239 505.408 379.269 505.443 379.269H507.991C507.982 379.148 507.96 379.048 507.926 378.97C507.891 378.883 507.83 378.792 507.744 378.697ZM515.424 377.267C515.493 377.432 515.498 377.614 515.437 377.813C515.385 378.012 515.285 378.142 515.138 378.203C515.06 378.238 514.956 378.268 514.826 378.294C514.696 378.311 514.553 378.329 514.397 378.346C514.25 378.363 514.102 378.376 513.955 378.385C513.808 378.394 513.682 378.398 513.578 378.398C513.587 378.658 513.595 378.927 513.604 379.204C513.613 379.473 513.621 379.737 513.63 379.997C513.639 380.257 513.643 380.508 513.643 380.751C513.643 380.985 513.639 381.197 513.63 381.388C513.63 381.518 513.63 381.67 513.63 381.843C513.63 382.008 513.617 382.168 513.591 382.324C513.574 382.48 513.543 382.619 513.5 382.74C513.457 382.853 513.392 382.926 513.305 382.961C513.036 383.074 512.789 383.104 512.564 383.052C512.347 383.009 512.191 382.918 512.096 382.779C512.027 382.666 511.975 382.536 511.94 382.389C511.905 382.233 511.879 382.077 511.862 381.921C511.853 381.756 511.849 381.6 511.849 381.453C511.858 381.297 511.862 381.163 511.862 381.05C511.871 380.686 511.875 380.274 511.875 379.815C511.884 379.347 511.888 378.879 511.888 378.411H511.693C511.589 378.411 511.455 378.411 511.29 378.411C511.134 378.402 510.974 378.389 510.809 378.372C510.653 378.346 510.506 378.316 510.367 378.281C510.228 378.238 510.129 378.177 510.068 378.099C509.973 377.986 509.912 377.865 509.886 377.735C509.869 377.605 509.877 377.484 509.912 377.371C509.955 377.25 510.02 377.146 510.107 377.059C510.194 376.964 510.293 376.903 510.406 376.877C510.562 376.834 510.783 376.812 511.069 376.812C511.355 376.803 511.624 376.803 511.875 376.812C511.866 376.725 511.862 376.643 511.862 376.565C511.862 376.478 511.858 376.396 511.849 376.318C511.84 376.214 511.836 376.084 511.836 375.928C511.836 375.763 511.845 375.603 511.862 375.447C511.888 375.282 511.927 375.131 511.979 374.992C512.031 374.845 512.105 374.732 512.2 374.654C512.33 374.55 512.46 374.494 512.59 374.485C512.729 374.468 512.854 374.485 512.967 374.537C513.088 374.589 513.188 374.667 513.266 374.771C513.353 374.866 513.413 374.975 513.448 375.096C513.474 375.2 513.496 375.326 513.513 375.473C513.53 375.612 513.539 375.759 513.539 375.915C513.548 376.071 513.552 376.227 513.552 376.383C513.552 376.539 513.552 376.682 513.552 376.812H513.682C513.812 376.812 513.964 376.808 514.137 376.799C514.31 376.79 514.479 376.795 514.644 376.812C514.817 376.829 514.973 376.873 515.112 376.942C515.251 377.003 515.355 377.111 515.424 377.267ZM517.488 377.527C517.748 377.397 518.021 377.306 518.307 377.254C518.593 377.193 518.874 377.18 519.152 377.215C519.438 377.241 519.711 377.315 519.971 377.436C520.231 377.549 520.473 377.713 520.699 377.93C520.924 378.155 521.097 378.402 521.219 378.671C521.34 378.94 521.427 379.239 521.479 379.568C521.513 379.793 521.57 380.001 521.648 380.192C521.726 380.383 521.808 380.573 521.895 380.764C521.99 380.955 522.077 381.145 522.155 381.336C522.241 381.527 522.311 381.726 522.363 381.934C522.406 382.133 522.389 382.328 522.311 382.519C522.241 382.701 522.094 382.814 521.869 382.857C521.739 382.883 521.613 382.874 521.492 382.831C521.379 382.779 521.275 382.71 521.18 382.623C521.084 382.528 520.998 382.428 520.92 382.324C520.85 382.211 520.785 382.107 520.725 382.012C520.525 382.272 520.309 382.476 520.075 382.623C519.841 382.762 519.559 382.853 519.23 382.896C518.952 382.931 518.688 382.939 518.437 382.922C518.185 382.905 517.917 382.857 517.631 382.779C517.258 382.684 516.95 382.519 516.708 382.285C516.474 382.042 516.292 381.765 516.162 381.453C516.04 381.132 515.975 380.79 515.967 380.426C515.958 380.062 516.001 379.702 516.097 379.347C516.218 378.879 516.4 378.498 516.643 378.203C516.885 377.908 517.167 377.683 517.488 377.527ZM517.813 379.048C517.691 379.169 517.596 379.312 517.527 379.477C517.457 379.642 517.414 379.815 517.397 379.997C517.388 380.179 517.405 380.361 517.449 380.543C517.492 380.725 517.561 380.885 517.657 381.024C517.743 381.145 517.891 381.249 518.099 381.336C518.307 381.414 518.523 381.462 518.749 381.479C519.009 381.496 519.234 381.427 519.425 381.271C519.624 381.115 519.771 380.92 519.867 380.686C519.971 380.443 520.018 380.188 520.01 379.919C520.001 379.642 519.927 379.39 519.789 379.165C519.685 379 519.546 378.879 519.373 378.801C519.208 378.723 519.03 378.684 518.84 378.684C518.649 378.675 518.458 378.706 518.268 378.775C518.086 378.836 517.934 378.927 517.813 379.048ZM525.082 378.073C525.082 378.316 525.082 378.589 525.082 378.892C525.091 379.195 525.095 379.512 525.095 379.841C525.095 380.162 525.095 380.482 525.095 380.803C525.095 381.115 525.091 381.405 525.082 381.674C525.074 381.804 525.061 381.947 525.043 382.103C525.026 382.25 524.991 382.389 524.939 382.519C524.887 382.649 524.805 382.757 524.692 382.844C524.588 382.922 524.445 382.957 524.263 382.948C523.995 382.931 523.8 382.814 523.678 382.597C523.566 382.38 523.501 382.077 523.483 381.687C523.483 381.488 523.479 381.258 523.47 380.998C523.47 380.738 523.466 380.474 523.457 380.205C523.457 379.936 523.457 379.676 523.457 379.425C523.457 379.165 523.457 378.931 523.457 378.723C523.457 378.602 523.453 378.454 523.444 378.281C523.444 378.108 523.449 377.93 523.457 377.748C523.466 377.566 523.488 377.393 523.522 377.228C523.557 377.055 523.613 376.912 523.691 376.799C523.752 376.73 523.839 376.678 523.951 376.643C524.064 376.6 524.181 376.578 524.302 376.578C524.432 376.578 524.554 376.6 524.666 376.643C524.788 376.686 524.874 376.747 524.926 376.825C524.961 376.877 524.987 376.951 525.004 377.046C525.022 377.141 525.035 377.25 525.043 377.371C525.061 377.484 525.069 377.605 525.069 377.735C525.078 377.856 525.082 377.969 525.082 378.073ZM524.588 375.447C524.32 375.516 524.094 375.49 523.912 375.369C523.739 375.239 523.631 375.048 523.587 374.797C523.553 374.615 523.566 374.455 523.626 374.316C523.687 374.177 523.778 374.073 523.899 374.004C524.021 373.926 524.159 373.891 524.315 373.9C524.471 373.909 524.627 373.969 524.783 374.082C524.931 374.186 525.035 374.307 525.095 374.446C525.165 374.585 525.186 374.719 525.16 374.849C525.143 374.979 525.087 375.1 524.991 375.213C524.896 375.317 524.762 375.395 524.588 375.447ZM528.081 381.96C528.072 382.003 528.063 382.047 528.055 382.09C528.055 382.125 528.055 382.164 528.055 382.207L527.977 382.48C527.959 382.515 527.946 382.536 527.938 382.545L527.899 382.623C527.855 382.718 527.777 382.796 527.665 382.857C527.457 382.961 527.236 382.987 527.002 382.935C526.854 382.918 526.737 382.874 526.651 382.805C526.564 382.744 526.503 382.671 526.469 382.584C526.434 382.497 526.408 382.411 526.391 382.324C526.365 382.237 526.352 382.159 526.352 382.09V374.81C526.352 374.749 526.352 374.697 526.352 374.654C526.36 374.602 526.369 374.554 526.378 374.511C526.386 374.45 526.395 374.398 526.404 374.355C526.421 374.312 526.438 374.264 526.456 374.212C526.482 374.125 526.529 374.056 526.599 374.004C526.703 373.926 526.802 373.883 526.898 373.874C526.958 373.857 527.015 373.848 527.067 373.848C527.119 373.839 527.179 373.835 527.249 373.835C527.37 373.835 527.509 373.87 527.665 373.939C527.786 374.008 527.873 374.104 527.925 374.225C528.011 374.398 528.055 374.559 528.055 374.706C528.063 374.793 528.068 374.923 528.068 375.096C528.076 375.269 528.081 375.399 528.081 375.486V375.538C528.098 375.815 528.107 376.084 528.107 376.344C528.107 376.595 528.102 376.873 528.094 377.176C528.094 377.471 528.089 377.757 528.081 378.034C528.081 378.303 528.081 378.571 528.081 378.84V381.57C528.081 381.605 528.081 381.639 528.081 381.674C528.089 381.7 528.094 381.73 528.094 381.765C528.094 381.852 528.089 381.917 528.081 381.96Z" fill="white"/>
<path d="M345.615 33.296C345.625 33.4027 345.615 33.504 345.583 33.6C345.561 33.664 345.529 33.7173 345.487 33.76C345.455 33.8027 345.412 33.8453 345.359 33.888C345.263 33.952 345.145 34.0107 345.007 34.064C344.921 34.0853 344.836 34.1013 344.751 34.112C344.676 34.1333 344.596 34.1333 344.511 34.112C344.34 34.1013 344.191 34.0373 344.063 33.92C343.881 33.7707 343.732 33.6053 343.615 33.424C343.561 33.3387 343.503 33.2427 343.439 33.136C343.375 33.0293 343.316 32.9173 343.263 32.8L341.487 29.424C341.401 29.424 341.316 29.4293 341.231 29.44C341.145 29.44 341.06 29.4453 340.975 29.456C340.751 29.4773 340.537 29.4827 340.335 29.472C340.143 29.4613 339.94 29.4613 339.727 29.472H339.423V32.368C339.423 32.4533 339.417 32.5333 339.407 32.608C339.407 32.6827 339.407 32.7627 339.407 32.848C339.407 32.9013 339.401 32.9707 339.391 33.056C339.391 33.1413 339.385 33.2213 339.375 33.296C339.353 33.4133 339.305 33.536 339.231 33.664C339.156 33.7813 339.055 33.8827 338.927 33.968C338.703 34.1067 338.431 34.144 338.111 34.08C337.972 34.048 337.839 33.9947 337.711 33.92C337.668 33.888 337.631 33.8507 337.599 33.808C337.567 33.7547 337.54 33.7013 337.519 33.648C337.497 33.5947 337.476 33.5413 337.455 33.488C337.444 33.424 337.428 33.3653 337.407 33.312C337.375 33.2053 337.359 33.104 337.359 33.008V23.92C337.359 23.856 337.359 23.792 337.359 23.728C337.369 23.6533 337.38 23.5893 337.391 23.536C337.401 23.4187 337.439 23.3013 337.503 23.184C337.535 23.056 337.588 22.9653 337.663 22.912C337.727 22.848 337.823 22.7947 337.951 22.752C338.089 22.6987 338.287 22.6773 338.543 22.688C339.023 22.6987 339.497 22.704 339.967 22.704C340.436 22.704 340.905 22.7147 341.375 22.736C341.684 22.7573 342.009 22.7947 342.351 22.848C342.703 22.8907 343.028 22.9707 343.327 23.088C343.519 23.1627 343.695 23.2373 343.855 23.312C344.057 23.4293 344.217 23.5413 344.335 23.648C344.708 23.9893 344.991 24.4 345.183 24.88C345.375 25.36 345.471 25.8453 345.471 26.336C345.471 26.912 345.332 27.44 345.055 27.92C344.788 28.4 344.356 28.7573 343.759 28.992C343.737 29.0133 343.705 29.0293 343.663 29.04C343.631 29.04 343.604 29.0453 343.583 29.056L345.055 32.016L345.199 32.272C345.22 32.3147 345.247 32.3627 345.279 32.416C345.311 32.4693 345.337 32.5227 345.359 32.576C345.391 32.6293 345.417 32.688 345.439 32.752C345.471 32.816 345.503 32.8747 345.535 32.928C345.567 33.0773 345.593 33.2 345.615 33.296ZM341.615 27.6C341.807 27.6 341.988 27.568 342.159 27.504C342.34 27.4293 342.5 27.3333 342.639 27.216C342.788 27.0987 342.911 26.9653 343.007 26.816C343.103 26.656 343.156 26.4853 343.167 26.304C343.209 25.7707 343.071 25.376 342.751 25.12C342.431 24.8533 342.009 24.7093 341.487 24.688C341.177 24.6667 340.836 24.656 340.463 24.656C340.1 24.656 339.753 24.656 339.423 24.656C339.433 25.0933 339.433 25.5413 339.423 26C339.423 26.448 339.423 26.9813 339.423 27.6H341.615ZM348.922 27.936C348.922 28.2347 348.922 28.5707 348.922 28.944C348.932 29.3173 348.938 29.7067 348.938 30.112C348.938 30.5067 348.938 30.9013 348.938 31.296C348.938 31.68 348.932 32.0373 348.922 32.368C348.911 32.528 348.895 32.704 348.874 32.896C348.852 33.0773 348.81 33.248 348.746 33.408C348.682 33.568 348.58 33.7013 348.442 33.808C348.314 33.904 348.138 33.9467 347.914 33.936C347.583 33.9147 347.343 33.7707 347.194 33.504C347.055 33.2373 346.975 32.864 346.954 32.384C346.954 32.1387 346.948 31.856 346.938 31.536C346.938 31.216 346.932 30.8907 346.922 30.56C346.922 30.2293 346.922 29.9093 346.922 29.6C346.922 29.28 346.922 28.992 346.922 28.736C346.922 28.5867 346.916 28.4053 346.906 28.192C346.906 27.9787 346.911 27.76 346.922 27.536C346.932 27.312 346.959 27.0987 347.002 26.896C347.044 26.6827 347.114 26.5067 347.21 26.368C347.284 26.2827 347.391 26.2187 347.53 26.176C347.668 26.1227 347.812 26.096 347.962 26.096C348.122 26.096 348.271 26.1227 348.41 26.176C348.559 26.2293 348.666 26.304 348.73 26.4C348.772 26.464 348.804 26.5547 348.826 26.672C348.847 26.7893 348.863 26.9227 348.874 27.072C348.895 27.2107 348.906 27.36 348.906 27.52C348.916 27.6693 348.922 27.808 348.922 27.936ZM348.314 24.704C347.983 24.7893 347.706 24.7573 347.482 24.608C347.268 24.448 347.135 24.2133 347.082 23.904C347.039 23.68 347.055 23.4827 347.13 23.312C347.204 23.1413 347.316 23.0133 347.466 22.928C347.615 22.832 347.786 22.7893 347.978 22.8C348.17 22.8107 348.362 22.8853 348.554 23.024C348.735 23.152 348.863 23.3013 348.938 23.472C349.023 23.6427 349.05 23.808 349.018 23.968C348.996 24.128 348.927 24.2773 348.81 24.416C348.692 24.544 348.527 24.64 348.314 24.704ZM359.656 26.8C359.752 26.9387 359.784 27.1573 359.752 27.456C359.73 27.744 359.677 28.0587 359.592 28.4C359.506 28.7307 359.405 29.0613 359.288 29.392C359.17 29.712 359.074 29.9787 359 30.192C358.818 30.6827 358.658 31.1413 358.52 31.568C358.381 31.9947 358.216 32.464 358.024 32.976C357.96 33.1253 357.896 33.2747 357.832 33.424C357.778 33.5733 357.709 33.7067 357.624 33.824C357.549 33.9413 357.453 34.0373 357.336 34.112C357.229 34.1867 357.096 34.224 356.936 34.224C356.754 34.224 356.594 34.16 356.456 34.032C356.328 33.904 356.216 33.744 356.12 33.552C356.034 33.36 355.96 33.1573 355.896 32.944C355.832 32.7307 355.778 32.544 355.736 32.384C355.597 31.9147 355.474 31.488 355.368 31.104C355.261 30.7093 355.165 30.3573 355.08 30.048C354.984 30.3573 354.888 30.6933 354.792 31.056C354.696 31.4187 354.573 31.8293 354.424 32.288C354.381 32.448 354.328 32.6453 354.264 32.88C354.2 33.104 354.12 33.3173 354.024 33.52C353.938 33.7227 353.826 33.8933 353.688 34.032C353.56 34.1813 353.405 34.2453 353.224 34.224C352.968 34.2133 352.744 34.112 352.552 33.92C352.37 33.7173 352.21 33.4773 352.072 33.2C351.944 32.9227 351.832 32.6347 351.736 32.336C351.64 32.0373 351.56 31.776 351.496 31.552C351.41 31.264 351.309 30.944 351.192 30.592C351.074 30.24 350.957 29.8827 350.84 29.52C350.733 29.1467 350.632 28.7787 350.536 28.416C350.44 28.0427 350.376 27.7013 350.344 27.392C350.322 27.1893 350.36 27.0027 350.456 26.832C350.562 26.6613 350.696 26.544 350.856 26.48C351.026 26.4053 351.208 26.3893 351.4 26.432C351.602 26.4747 351.784 26.6027 351.944 26.816C352.029 26.9227 352.104 27.056 352.168 27.216C352.242 27.376 352.306 27.552 352.36 27.744C352.413 27.9253 352.466 28.112 352.52 28.304C352.573 28.496 352.626 28.6827 352.68 28.864C352.797 29.2693 352.893 29.5893 352.968 29.824C353.053 30.048 353.138 30.2827 353.224 30.528C353.298 30.2827 353.373 30.048 353.448 29.824C353.533 29.5893 353.634 29.2693 353.752 28.864C353.794 28.736 353.842 28.592 353.896 28.432C353.96 28.2613 354.024 28.1013 354.088 27.952C354.162 27.8027 354.242 27.664 354.328 27.536C354.424 27.3973 354.525 27.296 354.632 27.232C354.866 27.072 355.08 27.0347 355.272 27.12C355.464 27.1947 355.629 27.328 355.768 27.52C355.906 27.712 356.024 27.936 356.12 28.192C356.226 28.4373 356.312 28.6613 356.376 28.864C356.44 29.0773 356.498 29.264 356.552 29.424C356.605 29.5733 356.653 29.712 356.696 29.84C356.738 29.968 356.776 30.0907 356.808 30.208C356.85 30.3253 356.893 30.448 356.936 30.576C356.978 30.448 357.016 30.3253 357.048 30.208C357.09 30.0907 357.133 29.968 357.176 29.84C357.218 29.712 357.266 29.5733 357.32 29.424C357.373 29.264 357.432 29.0773 357.496 28.864C357.538 28.7253 357.581 28.5653 357.624 28.384C357.677 28.2027 357.73 28.0213 357.784 27.84C357.837 27.648 357.89 27.4667 357.944 27.296C358.008 27.1253 358.077 26.9813 358.152 26.864C358.226 26.7467 358.328 26.6507 358.456 26.576C358.584 26.4907 358.717 26.4427 358.856 26.432C358.994 26.4107 359.133 26.4267 359.272 26.48C359.421 26.5333 359.549 26.64 359.656 26.8ZM362.621 27.264C362.941 27.104 363.277 26.992 363.629 26.928C363.981 26.8533 364.328 26.8373 364.669 26.88C365.021 26.912 365.357 27.0027 365.677 27.152C365.997 27.2907 366.296 27.4933 366.573 27.76C366.851 28.0373 367.064 28.3413 367.213 28.672C367.363 29.0027 367.469 29.3707 367.533 29.776C367.576 30.0533 367.645 30.3093 367.741 30.544C367.837 30.7787 367.939 31.0133 368.045 31.248C368.163 31.4827 368.269 31.7173 368.365 31.952C368.472 32.1867 368.557 32.432 368.621 32.688C368.675 32.9333 368.653 33.1733 368.557 33.408C368.472 33.632 368.291 33.7707 368.013 33.824C367.853 33.856 367.699 33.8453 367.549 33.792C367.411 33.728 367.283 33.6427 367.165 33.536C367.048 33.4187 366.941 33.296 366.845 33.168C366.76 33.0293 366.68 32.9013 366.605 32.784C366.36 33.104 366.093 33.3547 365.805 33.536C365.517 33.7067 365.171 33.8187 364.765 33.872C364.424 33.9147 364.099 33.9253 363.789 33.904C363.48 33.8827 363.149 33.824 362.797 33.728C362.339 33.6107 361.96 33.408 361.661 33.12C361.373 32.8213 361.149 32.48 360.989 32.096C360.84 31.7013 360.76 31.28 360.749 30.832C360.739 30.384 360.792 29.9413 360.909 29.504C361.059 28.928 361.283 28.4587 361.581 28.096C361.88 27.7333 362.227 27.456 362.621 27.264ZM363.021 29.136C362.872 29.2853 362.755 29.4613 362.669 29.664C362.584 29.8667 362.531 30.08 362.509 30.304C362.499 30.528 362.52 30.752 362.573 30.976C362.627 31.2 362.712 31.3973 362.829 31.568C362.936 31.7173 363.117 31.8453 363.373 31.952C363.629 32.048 363.896 32.1067 364.173 32.128C364.493 32.1493 364.771 32.064 365.005 31.872C365.251 31.68 365.432 31.44 365.549 31.152C365.677 30.8533 365.736 30.5387 365.725 30.208C365.715 29.8667 365.624 29.5573 365.453 29.28C365.325 29.0773 365.155 28.928 364.941 28.832C364.739 28.736 364.52 28.688 364.285 28.688C364.051 28.6773 363.816 28.7147 363.581 28.8C363.357 28.8747 363.171 28.9867 363.021 29.136ZM376.656 26.864C376.752 27.0133 376.795 27.1733 376.784 27.344C376.784 27.5893 376.741 27.8027 376.656 27.984C376.635 28.0373 376.603 28.1067 376.56 28.192C376.528 28.2773 376.491 28.368 376.448 28.464C376.416 28.56 376.379 28.6507 376.336 28.736C376.293 28.8213 376.261 28.8853 376.24 28.928L376.208 29.008C376.059 29.3387 375.915 29.6587 375.776 29.968C375.637 30.2773 375.483 30.608 375.312 30.96C375.141 31.3013 374.976 31.6373 374.816 31.968C374.667 32.288 374.517 32.6027 374.368 32.912C374.325 32.9973 374.288 33.0827 374.256 33.168C374.224 33.2427 374.181 33.3227 374.128 33.408L373.36 35.056C373.221 35.3333 373.088 35.6053 372.96 35.872C372.843 36.1387 372.709 36.4053 372.56 36.672C372.528 36.7253 372.496 36.7733 372.464 36.816C372.443 36.8693 372.421 36.9227 372.4 36.976C372.325 37.104 372.213 37.2267 372.064 37.344C371.925 37.472 371.776 37.5413 371.616 37.552C371.328 37.5733 371.077 37.488 370.864 37.296C370.736 37.2213 370.635 37.1147 370.56 36.976C370.517 36.88 370.496 36.7573 370.496 36.608C370.507 36.544 370.512 36.48 370.512 36.416C370.523 36.3627 370.533 36.3093 370.544 36.256C370.565 36.2027 370.581 36.1493 370.592 36.096C370.603 36.0427 370.619 36 370.64 35.968C370.672 35.8827 370.699 35.84 370.72 35.84L371.888 33.312C371.835 33.1947 371.781 33.0773 371.728 32.96C371.675 32.832 371.627 32.72 371.584 32.624C371.445 32.2933 371.296 31.9467 371.136 31.584C370.987 31.2107 370.832 30.8427 370.672 30.48C370.512 30.1067 370.347 29.744 370.176 29.392C370.005 29.04 369.835 28.704 369.664 28.384C369.6 28.2773 369.541 28.1653 369.488 28.048C369.435 27.92 369.392 27.7973 369.36 27.68C369.328 27.552 369.317 27.424 369.328 27.296C369.339 27.168 369.387 27.04 369.472 26.912C369.557 26.752 369.669 26.64 369.808 26.576C369.947 26.5013 370.091 26.4693 370.24 26.48C370.4 26.48 370.549 26.512 370.688 26.576C370.827 26.64 370.939 26.7253 371.024 26.832C371.205 27.024 371.349 27.2373 371.456 27.472C371.563 27.7067 371.664 27.9467 371.76 28.192C371.963 28.6187 372.171 29.0667 372.384 29.536C372.597 30.0053 372.811 30.464 373.024 30.912L373.856 29.152C373.941 28.9813 374.016 28.816 374.08 28.656C374.155 28.496 374.229 28.3413 374.304 28.192C374.389 28.0107 374.469 27.824 374.544 27.632C374.629 27.44 374.725 27.264 374.832 27.104C374.853 27.0613 374.875 27.024 374.896 26.992C374.917 26.96 374.939 26.9227 374.96 26.88C375.056 26.752 375.141 26.6507 375.216 26.576C375.269 26.5333 375.312 26.5013 375.344 26.48C375.387 26.448 375.435 26.4267 375.488 26.416C375.563 26.3947 375.632 26.384 375.696 26.384C375.771 26.3733 375.84 26.3733 375.904 26.384C376.011 26.416 376.139 26.464 376.288 26.528C376.448 26.592 376.571 26.704 376.656 26.864ZM379.262 27.264C379.582 27.104 379.918 26.992 380.27 26.928C380.622 26.8533 380.969 26.8373 381.31 26.88C381.662 26.912 381.998 27.0027 382.318 27.152C382.638 27.2907 382.937 27.4933 383.214 27.76C383.491 28.0373 383.705 28.3413 383.854 28.672C384.003 29.0027 384.11 29.3707 384.174 29.776C384.217 30.0533 384.286 30.3093 384.382 30.544C384.478 30.7787 384.579 31.0133 384.686 31.248C384.803 31.4827 384.91 31.7173 385.006 31.952C385.113 32.1867 385.198 32.432 385.262 32.688C385.315 32.9333 385.294 33.1733 385.198 33.408C385.113 33.632 384.931 33.7707 384.654 33.824C384.494 33.856 384.339 33.8453 384.19 33.792C384.051 33.728 383.923 33.6427 383.806 33.536C383.689 33.4187 383.582 33.296 383.486 33.168C383.401 33.0293 383.321 32.9013 383.246 32.784C383.001 33.104 382.734 33.3547 382.446 33.536C382.158 33.7067 381.811 33.8187 381.406 33.872C381.065 33.9147 380.739 33.9253 380.43 33.904C380.121 33.8827 379.79 33.824 379.438 33.728C378.979 33.6107 378.601 33.408 378.302 33.12C378.014 32.8213 377.79 32.48 377.63 32.096C377.481 31.7013 377.401 31.28 377.39 30.832C377.379 30.384 377.433 29.9413 377.55 29.504C377.699 28.928 377.923 28.4587 378.222 28.096C378.521 27.7333 378.867 27.456 379.262 27.264ZM379.662 29.136C379.513 29.2853 379.395 29.4613 379.31 29.664C379.225 29.8667 379.171 30.08 379.15 30.304C379.139 30.528 379.161 30.752 379.214 30.976C379.267 31.2 379.353 31.3973 379.47 31.568C379.577 31.7173 379.758 31.8453 380.014 31.952C380.27 32.048 380.537 32.1067 380.814 32.128C381.134 32.1493 381.411 32.064 381.646 31.872C381.891 31.68 382.073 31.44 382.19 31.152C382.318 30.8533 382.377 30.5387 382.366 30.208C382.355 29.8667 382.265 29.5573 382.094 29.28C381.966 29.0773 381.795 28.928 381.582 28.832C381.379 28.736 381.161 28.688 380.926 28.688C380.691 28.6773 380.457 28.7147 380.222 28.8C379.998 28.8747 379.811 28.9867 379.662 29.136ZM391.535 26.944C391.62 27.1467 391.625 27.3707 391.551 27.616C391.487 27.8613 391.364 28.0213 391.183 28.096C391.087 28.1387 390.959 28.176 390.799 28.208C390.639 28.2293 390.463 28.2507 390.271 28.272C390.089 28.2933 389.908 28.3093 389.727 28.32C389.545 28.3307 389.391 28.336 389.263 28.336C389.273 28.656 389.284 28.9867 389.295 29.328C389.305 29.6587 389.316 29.984 389.327 30.304C389.337 30.624 389.343 30.9333 389.343 31.232C389.343 31.52 389.337 31.7813 389.327 32.016C389.327 32.176 389.327 32.3627 389.327 32.576C389.327 32.7787 389.311 32.976 389.279 33.168C389.257 33.36 389.22 33.5307 389.167 33.68C389.113 33.8187 389.033 33.9093 388.927 33.952C388.596 34.0907 388.292 34.128 388.015 34.064C387.748 34.0107 387.556 33.8987 387.439 33.728C387.353 33.5893 387.289 33.4293 387.247 33.248C387.204 33.056 387.172 32.864 387.151 32.672C387.14 32.4693 387.135 32.2773 387.135 32.096C387.145 31.904 387.151 31.7387 387.151 31.6C387.161 31.152 387.167 30.6453 387.167 30.08C387.177 29.504 387.183 28.928 387.183 28.352H386.943C386.815 28.352 386.649 28.352 386.447 28.352C386.255 28.3413 386.057 28.3253 385.855 28.304C385.663 28.272 385.481 28.2347 385.311 28.192C385.14 28.1387 385.017 28.064 384.943 27.968C384.825 27.8293 384.751 27.68 384.719 27.52C384.697 27.36 384.708 27.2107 384.751 27.072C384.804 26.9227 384.884 26.7947 384.991 26.688C385.097 26.5707 385.22 26.496 385.359 26.464C385.551 26.4107 385.823 26.384 386.174 26.384C386.527 26.3733 386.857 26.3733 387.167 26.384C387.156 26.2773 387.151 26.176 387.151 26.08C387.151 25.9733 387.145 25.872 387.135 25.776C387.124 25.648 387.119 25.488 387.119 25.296C387.119 25.0933 387.129 24.896 387.151 24.704C387.183 24.5013 387.231 24.3147 387.295 24.144C387.359 23.9627 387.449 23.824 387.567 23.728C387.727 23.6 387.887 23.5307 388.047 23.52C388.217 23.4987 388.372 23.52 388.511 23.584C388.66 23.648 388.783 23.744 388.879 23.872C388.985 23.9893 389.06 24.1227 389.103 24.272C389.135 24.4 389.161 24.5547 389.183 24.736C389.204 24.9067 389.215 25.088 389.215 25.28C389.225 25.472 389.231 25.664 389.231 25.856C389.231 26.048 389.231 26.224 389.231 26.384H389.391C389.551 26.384 389.737 26.3787 389.951 26.368C390.164 26.3573 390.372 26.3627 390.575 26.384C390.788 26.4053 390.98 26.4587 391.151 26.544C391.321 26.6187 391.449 26.752 391.535 26.944ZM404.615 23.68C405.02 24.0533 405.319 24.5013 405.511 25.024C405.703 25.536 405.778 26.048 405.735 26.56C405.692 27.0507 405.538 27.504 405.271 27.92C405.004 28.3253 404.599 28.6347 404.055 28.848C403.628 29.0293 403.207 29.1573 402.791 29.232C402.375 29.3067 401.916 29.3653 401.415 29.408C401.191 29.4293 400.999 29.4453 400.839 29.456C400.69 29.456 400.514 29.4613 400.311 29.472C400.268 29.472 400.194 29.472 400.087 29.472C399.991 29.472 399.922 29.4773 399.879 29.488V32.8C399.847 33.0027 399.804 33.2107 399.751 33.424C399.708 33.6373 399.586 33.8027 399.383 33.92C399.266 33.984 399.122 34.0213 398.951 34.032C398.78 34.0427 398.626 34.0373 398.487 34.016C398.338 33.9947 398.21 33.9573 398.103 33.904C398.007 33.84 397.927 33.7333 397.863 33.584C397.82 33.488 397.778 33.3813 397.735 33.264C397.703 33.136 397.687 32.9813 397.687 32.8V23.952C397.687 23.8773 397.692 23.808 397.703 23.744C397.714 23.68 397.724 23.616 397.735 23.552C397.756 23.4987 397.772 23.44 397.783 23.376C397.794 23.312 397.81 23.2533 397.831 23.2C397.852 23.1467 397.874 23.0987 397.895 23.056C397.927 23.0133 397.964 22.976 398.007 22.944C398.06 22.8907 398.14 22.8427 398.247 22.8C398.364 22.7573 398.535 22.736 398.759 22.736H398.791C399.122 22.7147 399.49 22.6987 399.895 22.688C400.3 22.6667 400.636 22.672 400.903 22.704C401.052 22.7253 401.191 22.7413 401.319 22.752C401.447 22.752 401.57 22.7573 401.687 22.768C401.815 22.7787 401.943 22.7893 402.071 22.8C402.199 22.8107 402.327 22.8267 402.455 22.848C402.562 22.8693 402.658 22.8853 402.743 22.896C402.839 22.9067 402.935 22.9227 403.031 22.944C403.116 22.9653 403.207 22.9867 403.303 23.008C403.41 23.0293 403.506 23.0667 403.591 23.12C403.815 23.184 404.002 23.264 404.151 23.36C404.3 23.456 404.455 23.5627 404.615 23.68ZM403.655 26.32C403.666 26.064 403.612 25.84 403.495 25.648C403.388 25.456 403.234 25.296 403.031 25.168C402.828 25.04 402.599 24.9387 402.343 24.864C402.087 24.7893 401.831 24.736 401.575 24.704C401.511 24.704 401.42 24.704 401.303 24.704C401.196 24.6933 401.079 24.688 400.951 24.688C400.823 24.6773 400.7 24.672 400.583 24.672C400.476 24.6613 400.391 24.656 400.327 24.656C400.274 24.6453 400.21 24.64 400.135 24.64C400.06 24.64 399.975 24.64 399.879 24.64C399.89 24.9707 399.895 25.2907 399.895 25.6C399.895 25.8987 399.895 26.224 399.895 26.576C399.884 26.768 399.879 26.96 399.879 27.152C399.879 27.344 399.879 27.5307 399.879 27.712L400.871 27.696C401.127 27.696 401.41 27.68 401.719 27.648C402.028 27.616 402.322 27.552 402.599 27.456C402.876 27.36 403.111 27.2213 403.303 27.04C403.506 26.8587 403.623 26.6187 403.655 26.32ZM411.379 31.808C411.507 31.776 411.635 31.7547 411.763 31.744C411.902 31.7333 412.024 31.7493 412.131 31.792C412.248 31.8347 412.344 31.9093 412.419 32.016C412.494 32.112 412.531 32.2507 412.531 32.432C412.531 32.56 412.499 32.6827 412.435 32.8C412.371 32.9173 412.291 33.024 412.195 33.12C412.099 33.216 411.992 33.3013 411.875 33.376C411.758 33.44 411.646 33.4933 411.539 33.536C411.23 33.6747 410.872 33.7813 410.467 33.856C410.072 33.9307 409.662 33.9573 409.235 33.936C408.659 33.9147 408.104 33.8027 407.571 33.6C407.048 33.3867 406.638 33.04 406.339 32.56C406.062 32.0907 405.896 31.568 405.843 30.992C405.79 30.416 405.816 29.872 405.923 29.36C406.04 28.7413 406.238 28.24 406.515 27.856C406.803 27.4613 407.144 27.1467 407.539 26.912C408.019 26.6347 408.558 26.4907 409.155 26.48C409.752 26.4693 410.323 26.5867 410.867 26.832C411.23 26.992 411.555 27.2107 411.843 27.488C412.131 27.7547 412.35 28.08 412.499 28.464C412.542 28.56 412.574 28.6773 412.595 28.816C412.627 28.9547 412.648 29.104 412.659 29.264C412.67 29.4133 412.67 29.5627 412.659 29.712C412.648 29.8613 412.622 29.9947 412.579 30.112C412.515 30.304 412.435 30.4533 412.339 30.56C412.243 30.6667 412.12 30.7467 411.971 30.8C411.822 30.8533 411.64 30.8907 411.427 30.912C411.224 30.9227 410.979 30.9333 410.691 30.944C410.435 30.9547 410.195 30.96 409.971 30.96C409.747 30.96 409.518 30.96 409.283 30.96C409.048 30.9493 408.803 30.944 408.547 30.944C408.302 30.9333 408.024 30.9227 407.715 30.912C407.683 31.1253 407.71 31.312 407.795 31.472C407.891 31.6213 408.019 31.7493 408.179 31.856C408.339 31.952 408.52 32.0267 408.723 32.08C408.926 32.1333 409.123 32.1653 409.315 32.176C409.678 32.1973 410.024 32.1707 410.355 32.096C410.686 32.0107 411.027 31.9147 411.379 31.808ZM410.691 28.704C410.488 28.4693 410.275 28.2987 410.051 28.192C409.88 28.1173 409.699 28.0853 409.507 28.096C409.326 28.096 409.15 28.1227 408.979 28.176C408.67 28.2507 408.408 28.4107 408.195 28.656C408.174 28.6773 408.136 28.7307 408.083 28.816C408.03 28.8907 407.976 28.9707 407.923 29.056C407.88 29.1413 407.848 29.2213 407.827 29.296C407.806 29.3707 407.816 29.408 407.859 29.408H410.995C410.984 29.2587 410.958 29.136 410.915 29.04C410.872 28.9333 410.798 28.8213 410.691 28.704ZM422.625 30.272C422.646 30.6133 422.657 30.9387 422.657 31.248C422.657 31.5467 422.646 31.8667 422.625 32.208C422.625 32.336 422.625 32.48 422.625 32.64C422.625 32.8 422.614 32.9547 422.593 33.104C422.571 33.2533 422.534 33.392 422.481 33.52C422.427 33.648 422.347 33.7493 422.241 33.824C422.113 33.9093 421.969 33.968 421.809 34C421.649 34.0213 421.499 34.0107 421.361 33.968C421.222 33.9253 421.099 33.8453 420.993 33.728C420.897 33.6107 420.843 33.4453 420.833 33.232C420.801 32.7413 420.785 32.2507 420.785 31.76C420.785 31.5147 420.779 31.28 420.769 31.056C420.769 30.832 420.774 30.5173 420.785 30.112C420.785 29.9093 420.769 29.68 420.737 29.424C420.705 29.1573 420.625 28.9707 420.497 28.864C420.401 28.7787 420.294 28.7307 420.177 28.72C420.059 28.6987 419.942 28.7093 419.825 28.752C419.718 28.7947 419.622 28.8747 419.537 28.992C419.451 29.0987 419.393 29.2373 419.361 29.408C419.361 29.5467 419.355 29.6907 419.345 29.84C419.345 29.9787 419.35 30.112 419.361 30.24C419.371 30.5813 419.377 30.9067 419.377 31.216C419.377 31.5147 419.371 31.8347 419.361 32.176C419.35 32.3147 419.345 32.464 419.345 32.624C419.355 32.784 419.355 32.944 419.345 33.104C419.334 33.2533 419.302 33.392 419.249 33.52C419.206 33.648 419.126 33.7493 419.009 33.824C418.881 33.9093 418.742 33.9627 418.593 33.984C418.454 33.9947 418.321 33.9733 418.193 33.92C418.075 33.856 417.969 33.76 417.873 33.632C417.787 33.504 417.739 33.3333 417.729 33.12C417.707 32.8747 417.691 32.6507 417.681 32.448C417.681 32.2347 417.681 32.0107 417.681 31.776C417.681 31.5307 417.686 31.28 417.697 31.024C417.707 30.7573 417.702 30.5013 417.681 30.256C417.681 30.1813 417.675 30.096 417.665 30C417.665 29.8933 417.659 29.7867 417.649 29.68C417.649 29.5733 417.638 29.472 417.617 29.376C417.606 29.2693 417.585 29.184 417.553 29.12C417.467 28.9707 417.313 28.8747 417.089 28.832C416.875 28.7893 416.694 28.8053 416.545 28.88C416.395 28.9547 416.283 29.0507 416.209 29.168C416.134 29.2853 416.081 29.4133 416.049 29.552C416.017 29.6907 416.001 29.84 416.001 30C416.001 30.1493 416.001 30.2933 416.001 30.432C416.001 31.1253 416.001 31.728 416.001 32.24C416.011 32.7413 415.958 33.1467 415.841 33.456C415.787 33.616 415.675 33.7387 415.505 33.824C415.345 33.9093 415.169 33.952 414.977 33.952C414.795 33.952 414.625 33.9093 414.465 33.824C414.305 33.7387 414.198 33.6053 414.145 33.424C414.113 33.3067 414.081 33.1413 414.049 32.928C414.027 32.704 414.011 32.4587 414.001 32.192C413.99 31.9253 413.985 31.6587 413.985 31.392C413.985 31.1147 413.985 30.864 413.985 30.64V28.336C413.974 28.0907 413.969 27.824 413.969 27.536C413.969 27.248 414.011 26.9867 414.097 26.752C414.171 26.5493 414.289 26.4213 414.449 26.368C414.609 26.304 414.774 26.2773 414.945 26.288C415.137 26.288 415.286 26.3413 415.393 26.448C415.51 26.544 415.595 26.6667 415.649 26.816C415.702 26.9547 415.734 27.1147 415.745 27.296C415.755 27.4667 415.766 27.632 415.777 27.792C415.894 27.5253 416.033 27.3067 416.193 27.136C416.363 26.9547 416.603 26.8373 416.913 26.784C417.702 26.6347 418.331 26.8373 418.801 27.392C419.014 27.1787 419.286 27.0027 419.617 26.864C419.873 26.768 420.134 26.7253 420.401 26.736C420.667 26.736 420.918 26.784 421.153 26.88C421.398 26.976 421.617 27.1147 421.809 27.296C422.011 27.4773 422.171 27.696 422.289 27.952C422.449 28.2933 422.539 28.672 422.561 29.088C422.582 29.504 422.603 29.8987 422.625 30.272ZM423.969 23.888C423.99 23.504 424.108 23.1947 424.321 22.96C424.545 22.7253 424.86 22.6613 425.265 22.768C425.457 22.8213 425.596 22.9013 425.681 23.008C425.777 23.1147 425.841 23.2427 425.873 23.392C425.916 23.5307 425.937 23.6853 425.937 23.856C425.937 24.016 425.937 24.176 425.937 24.336V26.544C425.926 26.6293 425.921 26.7147 425.921 26.8C425.932 26.8747 425.937 26.944 425.937 27.008V27.216H426.337C426.454 27.216 426.566 27.216 426.673 27.216C426.79 27.216 426.892 27.2107 426.977 27.2C427.564 27.2 428.065 27.2853 428.481 27.456C428.908 27.6267 429.249 27.8667 429.505 28.176C429.772 28.4747 429.964 28.8373 430.081 29.264C430.209 29.68 430.268 30.1387 430.257 30.64C430.246 31.2373 430.15 31.7493 429.969 32.176C429.788 32.6027 429.532 32.9547 429.201 33.232C428.87 33.5093 428.47 33.7173 428.001 33.856C427.542 33.984 427.025 34.048 426.449 34.048C425.788 34.048 425.286 34.0427 424.945 34.032C424.604 34.0213 424.358 33.9253 424.209 33.744C424.07 33.5627 423.996 33.248 423.985 32.8C423.974 32.352 423.969 31.696 423.969 30.832C423.969 30 423.969 29.1787 423.969 28.368C423.98 27.5573 423.98 26.7413 423.969 25.92C423.969 25.8133 423.964 25.7013 423.953 25.584C423.953 25.4667 423.953 25.3333 423.953 25.184C423.953 25.0347 423.953 24.8587 423.953 24.656C423.953 24.4427 423.958 24.1867 423.969 23.888ZM426.961 32.256C427.548 32.224 427.953 32.064 428.177 31.776C428.294 31.616 428.385 31.424 428.449 31.2C428.513 30.976 428.54 30.752 428.529 30.528C428.518 30.304 428.47 30.0907 428.385 29.888C428.31 29.6747 428.188 29.4987 428.017 29.36C427.868 29.232 427.718 29.1413 427.569 29.088C427.42 29.024 427.265 28.9867 427.105 28.976C426.945 28.9547 426.774 28.9493 426.593 28.96C426.412 28.96 426.204 28.9653 425.969 28.976V30.896L425.937 32.224C426.044 32.2347 426.156 32.2453 426.273 32.256C426.476 32.2773 426.705 32.2773 426.961 32.256ZM437.082 31.808C437.21 31.776 437.338 31.7547 437.466 31.744C437.605 31.7333 437.728 31.7493 437.834 31.792C437.952 31.8347 438.048 31.9093 438.122 32.016C438.197 32.112 438.234 32.2507 438.234 32.432C438.234 32.56 438.202 32.6827 438.138 32.8C438.074 32.9173 437.994 33.024 437.898 33.12C437.802 33.216 437.696 33.3013 437.578 33.376C437.461 33.44 437.349 33.4933 437.242 33.536C436.933 33.6747 436.576 33.7813 436.17 33.856C435.776 33.9307 435.365 33.9573 434.938 33.936C434.362 33.9147 433.808 33.8027 433.274 33.6C432.752 33.3867 432.341 33.04 432.042 32.56C431.765 32.0907 431.6 31.568 431.546 30.992C431.493 30.416 431.52 29.872 431.626 29.36C431.744 28.7413 431.941 28.24 432.218 27.856C432.506 27.4613 432.848 27.1467 433.242 26.912C433.722 26.6347 434.261 26.4907 434.858 26.48C435.456 26.4693 436.026 26.5867 436.57 26.832C436.933 26.992 437.258 27.2107 437.546 27.488C437.834 27.7547 438.053 28.08 438.202 28.464C438.245 28.56 438.277 28.6773 438.298 28.816C438.33 28.9547 438.352 29.104 438.362 29.264C438.373 29.4133 438.373 29.5627 438.362 29.712C438.352 29.8613 438.325 29.9947 438.282 30.112C438.218 30.304 438.138 30.4533 438.042 30.56C437.946 30.6667 437.824 30.7467 437.674 30.8C437.525 30.8533 437.344 30.8907 437.13 30.912C436.928 30.9227 436.682 30.9333 436.394 30.944C436.138 30.9547 435.898 30.96 435.674 30.96C435.45 30.96 435.221 30.96 434.986 30.96C434.752 30.9493 434.506 30.944 434.25 30.944C434.005 30.9333 433.728 30.9227 433.418 30.912C433.386 31.1253 433.413 31.312 433.498 31.472C433.594 31.6213 433.722 31.7493 433.882 31.856C434.042 31.952 434.224 32.0267 434.426 32.08C434.629 32.1333 434.826 32.1653 435.018 32.176C435.381 32.1973 435.728 32.1707 436.058 32.096C436.389 32.0107 436.73 31.9147 437.082 31.808ZM436.394 28.704C436.192 28.4693 435.978 28.2987 435.754 28.192C435.584 28.1173 435.402 28.0853 435.21 28.096C435.029 28.096 434.853 28.1227 434.682 28.176C434.373 28.2507 434.112 28.4107 433.898 28.656C433.877 28.6773 433.84 28.7307 433.786 28.816C433.733 28.8907 433.68 28.9707 433.626 29.056C433.584 29.1413 433.552 29.2213 433.53 29.296C433.509 29.3707 433.52 29.408 433.562 29.408H436.698C436.688 29.2587 436.661 29.136 436.618 29.04C436.576 28.9333 436.501 28.8213 436.394 28.704ZM442.127 32.72C442.117 32.7733 442.106 32.8267 442.095 32.88C442.095 32.9227 442.095 32.9707 442.095 33.024L441.999 33.36C441.978 33.4027 441.962 33.4293 441.951 33.44L441.903 33.536C441.85 33.6533 441.754 33.7493 441.615 33.824C441.359 33.952 441.087 33.984 440.799 33.92C440.618 33.8987 440.474 33.8453 440.367 33.76C440.261 33.6853 440.186 33.5947 440.143 33.488C440.101 33.3813 440.069 33.2747 440.047 33.168C440.015 33.0613 439.999 32.9653 439.999 32.88V23.92C439.999 23.8453 439.999 23.7813 439.999 23.728C440.01 23.664 440.021 23.6053 440.031 23.552C440.042 23.4773 440.053 23.4133 440.063 23.36C440.085 23.3067 440.106 23.248 440.127 23.184C440.159 23.0773 440.218 22.992 440.303 22.928C440.431 22.832 440.554 22.7787 440.671 22.768C440.746 22.7467 440.815 22.736 440.879 22.736C440.943 22.7253 441.018 22.72 441.103 22.72C441.253 22.72 441.423 22.7627 441.615 22.848C441.765 22.9333 441.871 23.0507 441.935 23.2C442.042 23.4133 442.095 23.6107 442.095 23.792C442.106 23.8987 442.111 24.0587 442.111 24.272C442.122 24.4853 442.127 24.6453 442.127 24.752V24.816C442.149 25.1573 442.159 25.488 442.159 25.808C442.159 26.1173 442.154 26.4587 442.143 26.832C442.143 27.1947 442.138 27.5467 442.127 27.888C442.127 28.2187 442.127 28.5493 442.127 28.88V32.24C442.127 32.2827 442.127 32.3253 442.127 32.368C442.138 32.4 442.143 32.4373 442.143 32.48C442.143 32.5867 442.138 32.6667 442.127 32.72ZM445.453 27.936C445.453 28.2347 445.453 28.5707 445.453 28.944C445.464 29.3173 445.469 29.7067 445.469 30.112C445.469 30.5067 445.469 30.9013 445.469 31.296C445.469 31.68 445.464 32.0373 445.453 32.368C445.442 32.528 445.426 32.704 445.405 32.896C445.384 33.0773 445.341 33.248 445.277 33.408C445.213 33.568 445.112 33.7013 444.973 33.808C444.845 33.904 444.669 33.9467 444.445 33.936C444.114 33.9147 443.874 33.7707 443.725 33.504C443.586 33.2373 443.506 32.864 443.485 32.384C443.485 32.1387 443.48 31.856 443.469 31.536C443.469 31.216 443.464 30.8907 443.453 30.56C443.453 30.2293 443.453 29.9093 443.453 29.6C443.453 29.28 443.453 28.992 443.453 28.736C443.453 28.5867 443.448 28.4053 443.437 28.192C443.437 27.9787 443.442 27.76 443.453 27.536C443.464 27.312 443.49 27.0987 443.533 26.896C443.576 26.6827 443.645 26.5067 443.741 26.368C443.816 26.2827 443.922 26.2187 444.061 26.176C444.2 26.1227 444.344 26.096 444.493 26.096C444.653 26.096 444.802 26.1227 444.941 26.176C445.09 26.2293 445.197 26.304 445.261 26.4C445.304 26.464 445.336 26.5547 445.357 26.672C445.378 26.7893 445.394 26.9227 445.405 27.072C445.426 27.2107 445.437 27.36 445.437 27.52C445.448 27.6693 445.453 27.808 445.453 27.936ZM444.845 24.704C444.514 24.7893 444.237 24.7573 444.013 24.608C443.8 24.448 443.666 24.2133 443.613 23.904C443.57 23.68 443.586 23.4827 443.661 23.312C443.736 23.1413 443.848 23.0133 443.997 22.928C444.146 22.832 444.317 22.7893 444.509 22.8C444.701 22.8107 444.893 22.8853 445.085 23.024C445.266 23.152 445.394 23.3013 445.469 23.472C445.554 23.6427 445.581 23.808 445.549 23.968C445.528 24.128 445.458 24.2773 445.341 24.416C445.224 24.544 445.058 24.64 444.845 24.704ZM448.731 27.264C449.051 27.104 449.387 26.992 449.739 26.928C450.091 26.8533 450.437 26.8373 450.779 26.88C451.131 26.912 451.467 27.0027 451.787 27.152C452.107 27.2907 452.405 27.4933 452.683 27.76C452.96 28.0373 453.173 28.3413 453.323 28.672C453.472 29.0027 453.579 29.3707 453.643 29.776C453.685 30.0533 453.755 30.3093 453.851 30.544C453.947 30.7787 454.048 31.0133 454.155 31.248C454.272 31.4827 454.379 31.7173 454.475 31.952C454.581 32.1867 454.667 32.432 454.731 32.688C454.784 32.9333 454.763 33.1733 454.667 33.408C454.581 33.632 454.4 33.7707 454.123 33.824C453.963 33.856 453.808 33.8453 453.659 33.792C453.52 33.728 453.392 33.6427 453.275 33.536C453.157 33.4187 453.051 33.296 452.955 33.168C452.869 33.0293 452.789 32.9013 452.715 32.784C452.469 33.104 452.203 33.3547 451.915 33.536C451.627 33.7067 451.28 33.8187 450.875 33.872C450.533 33.9147 450.208 33.9253 449.899 33.904C449.589 33.8827 449.259 33.824 448.907 33.728C448.448 33.6107 448.069 33.408 447.771 33.12C447.483 32.8213 447.259 32.48 447.099 32.096C446.949 31.7013 446.869 31.28 446.859 30.832C446.848 30.384 446.901 29.9413 447.019 29.504C447.168 28.928 447.392 28.4587 447.691 28.096C447.989 27.7333 448.336 27.456 448.731 27.264ZM449.131 29.136C448.981 29.2853 448.864 29.4613 448.779 29.664C448.693 29.8667 448.64 30.08 448.619 30.304C448.608 30.528 448.629 30.752 448.683 30.976C448.736 31.2 448.821 31.3973 448.939 31.568C449.045 31.7173 449.227 31.8453 449.483 31.952C449.739 32.048 450.005 32.1067 450.283 32.128C450.603 32.1493 450.88 32.064 451.115 31.872C451.36 31.68 451.541 31.44 451.659 31.152C451.787 30.8533 451.845 30.5387 451.835 30.208C451.824 29.8667 451.733 29.5573 451.563 29.28C451.435 29.0773 451.264 28.928 451.051 28.832C450.848 28.736 450.629 28.688 450.395 28.688C450.16 28.6773 449.925 28.7147 449.691 28.8C449.467 28.8747 449.28 28.9867 449.131 29.136ZM456.078 28.288C456.078 28.0427 456.073 27.7813 456.062 27.504C456.062 27.2267 456.11 26.976 456.206 26.752C456.291 26.5493 456.43 26.4053 456.622 26.32C456.825 26.224 457.022 26.2027 457.214 26.256C457.406 26.288 457.555 26.3467 457.662 26.432C457.769 26.5173 457.843 26.6187 457.886 26.736C457.939 26.8427 457.971 26.9707 457.982 27.12C457.993 27.2587 458.003 27.3973 458.014 27.536C458.121 27.344 458.254 27.1893 458.414 27.072C458.574 26.9547 458.739 26.8587 458.91 26.784C459.081 26.7093 459.241 26.656 459.39 26.624C459.55 26.592 459.673 26.576 459.758 26.576C460.163 26.576 460.563 26.6667 460.958 26.848C461.363 27.0187 461.699 27.264 461.966 27.584C462.115 27.776 462.227 27.9787 462.302 28.192C462.387 28.3947 462.446 28.608 462.478 28.832C462.521 29.056 462.547 29.2853 462.558 29.52C462.569 29.744 462.579 29.9733 462.59 30.208C462.643 30.8907 462.643 31.568 462.59 32.24C462.579 32.3787 462.574 32.5387 462.574 32.72C462.574 32.9013 462.558 33.0827 462.526 33.264C462.505 33.4347 462.457 33.5893 462.382 33.728C462.318 33.856 462.206 33.936 462.046 33.968C461.822 34.0213 461.635 34.032 461.486 34C461.347 33.9787 461.235 33.9307 461.15 33.856C461.065 33.7813 461.001 33.6853 460.958 33.568C460.915 33.4507 460.878 33.3173 460.846 33.168C460.825 33.0507 460.803 32.9173 460.782 32.768C460.771 32.608 460.761 32.448 460.75 32.288C460.75 32.128 460.745 31.9733 460.734 31.824C460.734 31.664 460.734 31.52 460.734 31.392C460.734 31.1893 460.729 30.9653 460.718 30.72C460.707 30.4747 460.707 30.2453 460.718 30.032C460.718 29.5307 460.585 29.152 460.318 28.896C460.062 28.6293 459.71 28.5173 459.262 28.56C458.921 28.6027 458.622 28.7413 458.366 28.976C458.11 29.2 457.987 29.4933 457.998 29.856C457.998 29.9947 457.998 30.1227 457.998 30.24C457.998 30.3573 457.993 30.4747 457.982 30.592C457.982 30.7093 457.982 30.8373 457.982 30.976C457.982 31.1147 457.982 31.2693 457.982 31.44C457.982 31.792 457.982 32.1653 457.982 32.56C457.982 32.944 457.934 33.2587 457.838 33.504C457.753 33.76 457.609 33.936 457.406 34.032C457.203 34.128 456.963 34.1013 456.686 33.952C456.569 33.888 456.473 33.8027 456.398 33.696C456.334 33.5787 456.281 33.456 456.238 33.328C456.206 33.2 456.185 33.072 456.174 32.944C456.163 32.8053 456.153 32.6773 456.142 32.56C456.11 32.208 456.089 31.8827 456.078 31.584C456.078 31.2747 456.078 30.944 456.078 30.592V28.288Z" fill="black"/>
<rect x="198" y="367" width="168" height="23" rx="11.5" fill="url(#paint1_linear_190_27)" fill-opacity="0.98"/>
<path d="M268.36 382.064C268.429 382.194 268.434 382.324 268.373 382.454C268.33 382.593 268.256 382.697 268.152 382.766C268.1 382.809 268.052 382.848 268.009 382.883C267.966 382.909 267.918 382.931 267.866 382.948C267.771 383 267.658 383.017 267.528 383C267.476 383 267.428 382.991 267.385 382.974C267.342 382.957 267.298 382.935 267.255 382.909C267.212 382.883 267.164 382.857 267.112 382.831C267.069 382.796 267.025 382.762 266.982 382.727C266.93 382.684 266.882 382.645 266.839 382.61C266.796 382.575 266.757 382.536 266.722 382.493C266.679 382.45 266.64 382.406 266.605 382.363C266.57 382.32 266.536 382.281 266.501 382.246L266.345 382.077L263.849 379.464L263.888 382.077V382.194C263.888 382.229 263.884 382.268 263.875 382.311C263.866 382.346 263.858 382.385 263.849 382.428C263.823 382.541 263.793 382.64 263.758 382.727C263.741 382.779 263.715 382.822 263.68 382.857C263.654 382.892 263.624 382.926 263.589 382.961C263.494 383.048 263.381 383.095 263.251 383.104C263.121 383.147 263 383.16 262.887 383.143C262.783 383.134 262.675 383.104 262.562 383.052C262.475 383 262.397 382.913 262.328 382.792C262.311 382.757 262.298 382.736 262.289 382.727C262.289 382.718 262.28 382.688 262.263 382.636C262.211 382.549 262.185 382.463 262.185 382.376C262.176 382.324 262.168 382.276 262.159 382.233C262.159 382.19 262.155 382.142 262.146 382.09C262.137 382.055 262.133 382.021 262.133 381.986C262.133 381.951 262.133 381.917 262.133 381.882C262.142 381.839 262.146 381.804 262.146 381.778C262.146 381.743 262.146 381.704 262.146 381.661L262.133 380.634L262.12 378.723C262.12 378.168 262.107 377.57 262.081 376.929C262.072 376.617 262.068 376.34 262.068 376.097C262.068 375.854 262.072 375.581 262.081 375.278V375.226C262.098 375.131 262.107 375.04 262.107 374.953C262.107 374.858 262.111 374.767 262.12 374.68C262.12 374.507 262.159 374.333 262.237 374.16C262.289 374.03 262.38 373.926 262.51 373.848C262.579 373.805 262.644 373.779 262.705 373.77C262.774 373.753 262.848 373.735 262.926 373.718C262.987 373.718 263.043 373.722 263.095 373.731C263.156 373.74 263.212 373.748 263.264 373.757C263.377 373.774 263.481 373.822 263.576 373.9C263.602 373.926 263.624 373.956 263.641 373.991C263.667 374.026 263.689 374.069 263.706 374.121C263.749 374.19 263.78 374.29 263.797 374.42C263.806 374.472 263.81 374.524 263.81 374.576C263.819 374.628 263.823 374.684 263.823 374.745V375.278L263.836 376.864C263.975 376.743 264.109 376.617 264.239 376.487C264.378 376.357 264.512 376.218 264.642 376.071C264.876 375.828 265.106 375.594 265.331 375.369C265.565 375.135 265.799 374.905 266.033 374.68L266.072 374.641C266.141 374.572 266.211 374.507 266.28 374.446C266.358 374.377 266.432 374.312 266.501 374.251C266.631 374.104 266.791 374 266.982 373.939C267.103 373.861 267.246 373.831 267.411 373.848C267.489 373.857 267.558 373.874 267.619 373.9C267.688 373.926 267.753 373.961 267.814 374.004C267.857 374.047 267.901 374.086 267.944 374.121C267.987 374.147 268.022 374.182 268.048 374.225C268.117 374.286 268.161 374.377 268.178 374.498C268.178 374.593 268.161 374.68 268.126 374.758C268.1 374.801 268.074 374.845 268.048 374.888C268.022 374.931 267.992 374.975 267.957 375.018C267.914 375.07 267.875 375.118 267.84 375.161C267.805 375.204 267.766 375.248 267.723 375.291C267.688 375.334 267.649 375.373 267.606 375.408C267.571 375.443 267.537 375.482 267.502 375.525L267.333 375.694L264.902 378.177C265.032 378.307 265.166 378.446 265.305 378.593C265.452 378.732 265.591 378.87 265.721 379.009C265.851 379.139 265.972 379.265 266.085 379.386C266.198 379.499 266.293 379.594 266.371 379.672C266.605 379.915 266.83 380.157 267.047 380.4C267.264 380.634 267.476 380.872 267.684 381.115L267.723 381.154C267.792 381.223 267.857 381.297 267.918 381.375C267.979 381.444 268.035 381.514 268.087 381.583C268.217 381.73 268.308 381.891 268.36 382.064ZM273.536 381.219C273.64 381.193 273.744 381.176 273.848 381.167C273.96 381.158 274.06 381.171 274.147 381.206C274.242 381.241 274.32 381.301 274.381 381.388C274.441 381.466 274.472 381.579 274.472 381.726C274.472 381.83 274.446 381.93 274.394 382.025C274.342 382.12 274.277 382.207 274.199 382.285C274.121 382.363 274.034 382.432 273.939 382.493C273.843 382.545 273.752 382.588 273.666 382.623C273.414 382.736 273.124 382.822 272.795 382.883C272.474 382.944 272.14 382.965 271.794 382.948C271.326 382.931 270.875 382.84 270.442 382.675C270.017 382.502 269.683 382.22 269.441 381.83C269.215 381.449 269.081 381.024 269.038 380.556C268.994 380.088 269.016 379.646 269.103 379.23C269.198 378.727 269.358 378.32 269.584 378.008C269.818 377.687 270.095 377.432 270.416 377.241C270.806 377.016 271.243 376.899 271.729 376.89C272.214 376.881 272.678 376.977 273.12 377.176C273.414 377.306 273.679 377.484 273.913 377.709C274.147 377.926 274.324 378.19 274.446 378.502C274.48 378.58 274.506 378.675 274.524 378.788C274.55 378.901 274.567 379.022 274.576 379.152C274.584 379.273 274.584 379.395 274.576 379.516C274.567 379.637 274.545 379.746 274.511 379.841C274.459 379.997 274.394 380.118 274.316 380.205C274.238 380.292 274.138 380.357 274.017 380.4C273.895 380.443 273.748 380.474 273.575 380.491C273.41 380.5 273.211 380.508 272.977 380.517C272.769 380.526 272.574 380.53 272.392 380.53C272.21 380.53 272.023 380.53 271.833 380.53C271.642 380.521 271.443 380.517 271.235 380.517C271.035 380.508 270.81 380.5 270.559 380.491C270.533 380.664 270.554 380.816 270.624 380.946C270.702 381.067 270.806 381.171 270.936 381.258C271.066 381.336 271.213 381.397 271.378 381.44C271.542 381.483 271.703 381.509 271.859 381.518C272.153 381.535 272.435 381.514 272.704 381.453C272.972 381.384 273.25 381.306 273.536 381.219ZM272.977 378.697C272.812 378.506 272.639 378.368 272.457 378.281C272.318 378.22 272.171 378.194 272.015 378.203C271.867 378.203 271.724 378.225 271.586 378.268C271.334 378.329 271.122 378.459 270.949 378.658C270.931 378.675 270.901 378.719 270.858 378.788C270.814 378.849 270.771 378.914 270.728 378.983C270.693 379.052 270.667 379.117 270.65 379.178C270.632 379.239 270.641 379.269 270.676 379.269H273.224C273.215 379.148 273.193 379.048 273.159 378.97C273.124 378.883 273.063 378.792 272.977 378.697ZM282.672 379.971C282.69 380.248 282.698 380.513 282.698 380.764C282.698 381.007 282.69 381.267 282.672 381.544C282.672 381.648 282.672 381.765 282.672 381.895C282.672 382.025 282.664 382.151 282.646 382.272C282.629 382.393 282.599 382.506 282.555 382.61C282.512 382.714 282.447 382.796 282.36 382.857C282.256 382.926 282.139 382.974 282.009 383C281.879 383.017 281.758 383.009 281.645 382.974C281.533 382.939 281.433 382.874 281.346 382.779C281.268 382.684 281.225 382.549 281.216 382.376C281.19 381.977 281.177 381.579 281.177 381.18C281.177 380.981 281.173 380.79 281.164 380.608C281.164 380.426 281.169 380.17 281.177 379.841C281.177 379.676 281.164 379.49 281.138 379.282C281.112 379.065 281.047 378.914 280.943 378.827C280.865 378.758 280.779 378.719 280.683 378.71C280.588 378.693 280.493 378.701 280.397 378.736C280.311 378.771 280.233 378.836 280.163 378.931C280.094 379.018 280.046 379.13 280.02 379.269C280.02 379.382 280.016 379.499 280.007 379.62C280.007 379.733 280.012 379.841 280.02 379.945C280.029 380.222 280.033 380.487 280.033 380.738C280.033 380.981 280.029 381.241 280.02 381.518C280.012 381.631 280.007 381.752 280.007 381.882C280.016 382.012 280.016 382.142 280.007 382.272C279.999 382.393 279.973 382.506 279.929 382.61C279.895 382.714 279.83 382.796 279.734 382.857C279.63 382.926 279.518 382.97 279.396 382.987C279.284 382.996 279.175 382.978 279.071 382.935C278.976 382.883 278.889 382.805 278.811 382.701C278.742 382.597 278.703 382.458 278.694 382.285C278.677 382.086 278.664 381.904 278.655 381.739C278.655 381.566 278.655 381.384 278.655 381.193C278.655 380.994 278.66 380.79 278.668 380.582C278.677 380.365 278.673 380.157 278.655 379.958C278.655 379.897 278.651 379.828 278.642 379.75C278.642 379.663 278.638 379.577 278.629 379.49C278.629 379.403 278.621 379.321 278.603 379.243C278.595 379.156 278.577 379.087 278.551 379.035C278.482 378.914 278.356 378.836 278.174 378.801C278.001 378.766 277.854 378.779 277.732 378.84C277.611 378.901 277.52 378.979 277.459 379.074C277.399 379.169 277.355 379.273 277.329 379.386C277.303 379.499 277.29 379.62 277.29 379.75C277.29 379.871 277.29 379.988 277.29 380.101C277.29 380.664 277.29 381.154 277.29 381.57C277.299 381.977 277.256 382.307 277.16 382.558C277.117 382.688 277.026 382.788 276.887 382.857C276.757 382.926 276.614 382.961 276.458 382.961C276.311 382.961 276.172 382.926 276.042 382.857C275.912 382.788 275.826 382.679 275.782 382.532C275.756 382.437 275.73 382.302 275.704 382.129C275.687 381.947 275.674 381.748 275.665 381.531C275.657 381.314 275.652 381.098 275.652 380.881C275.652 380.656 275.652 380.452 275.652 380.27V378.398C275.644 378.199 275.639 377.982 275.639 377.748C275.639 377.514 275.674 377.302 275.743 377.111C275.804 376.946 275.899 376.842 276.029 376.799C276.159 376.747 276.294 376.725 276.432 376.734C276.588 376.734 276.71 376.777 276.796 376.864C276.892 376.942 276.961 377.042 277.004 377.163C277.048 377.276 277.074 377.406 277.082 377.553C277.091 377.692 277.1 377.826 277.108 377.956C277.204 377.739 277.316 377.562 277.446 377.423C277.585 377.276 277.78 377.18 278.031 377.137C278.673 377.016 279.184 377.18 279.565 377.631C279.739 377.458 279.96 377.315 280.228 377.202C280.436 377.124 280.649 377.089 280.865 377.098C281.082 377.098 281.286 377.137 281.476 377.215C281.676 377.293 281.853 377.406 282.009 377.553C282.174 377.7 282.304 377.878 282.399 378.086C282.529 378.363 282.603 378.671 282.62 379.009C282.638 379.347 282.655 379.668 282.672 379.971ZM283.765 374.784C283.782 374.472 283.877 374.221 284.051 374.03C284.233 373.839 284.488 373.787 284.818 373.874C284.974 373.917 285.086 373.982 285.156 374.069C285.234 374.156 285.286 374.26 285.312 374.381C285.346 374.494 285.364 374.619 285.364 374.758C285.364 374.888 285.364 375.018 285.364 375.148V376.942C285.355 377.011 285.351 377.081 285.351 377.15C285.359 377.211 285.364 377.267 285.364 377.319V377.488H285.689C285.784 377.488 285.875 377.488 285.962 377.488C286.057 377.488 286.139 377.484 286.209 377.475C286.685 377.475 287.093 377.544 287.431 377.683C287.777 377.822 288.055 378.017 288.263 378.268C288.479 378.511 288.635 378.805 288.731 379.152C288.835 379.49 288.882 379.863 288.874 380.27C288.865 380.755 288.787 381.171 288.64 381.518C288.492 381.865 288.284 382.151 288.016 382.376C287.747 382.601 287.422 382.77 287.041 382.883C286.668 382.987 286.248 383.039 285.78 383.039C285.242 383.039 284.835 383.035 284.558 383.026C284.28 383.017 284.081 382.939 283.96 382.792C283.847 382.645 283.786 382.389 283.778 382.025C283.769 381.661 283.765 381.128 283.765 380.426C283.765 379.75 283.765 379.083 283.765 378.424C283.773 377.765 283.773 377.102 283.765 376.435C283.765 376.348 283.76 376.257 283.752 376.162C283.752 376.067 283.752 375.958 283.752 375.837C283.752 375.716 283.752 375.573 283.752 375.408C283.752 375.235 283.756 375.027 283.765 374.784ZM286.196 381.583C286.672 381.557 287.002 381.427 287.184 381.193C287.279 381.063 287.353 380.907 287.405 380.725C287.457 380.543 287.478 380.361 287.47 380.179C287.461 379.997 287.422 379.824 287.353 379.659C287.292 379.486 287.192 379.343 287.054 379.23C286.932 379.126 286.811 379.052 286.69 379.009C286.568 378.957 286.443 378.927 286.313 378.918C286.183 378.901 286.044 378.896 285.897 378.905C285.749 378.905 285.58 378.909 285.39 378.918V380.478L285.364 381.557C285.45 381.566 285.541 381.574 285.637 381.583C285.801 381.6 285.988 381.6 286.196 381.583ZM291.442 377.527C291.702 377.397 291.975 377.306 292.261 377.254C292.547 377.193 292.829 377.18 293.106 377.215C293.392 377.241 293.665 377.315 293.925 377.436C294.185 377.549 294.428 377.713 294.653 377.93C294.879 378.155 295.052 378.402 295.173 378.671C295.295 378.94 295.381 379.239 295.433 379.568C295.468 379.793 295.524 380.001 295.602 380.192C295.68 380.383 295.763 380.573 295.849 380.764C295.945 380.955 296.031 381.145 296.109 381.336C296.196 381.527 296.265 381.726 296.317 381.934C296.361 382.133 296.343 382.328 296.265 382.519C296.196 382.701 296.049 382.814 295.823 382.857C295.693 382.883 295.568 382.874 295.446 382.831C295.334 382.779 295.23 382.71 295.134 382.623C295.039 382.528 294.952 382.428 294.874 382.324C294.805 382.211 294.74 382.107 294.679 382.012C294.48 382.272 294.263 382.476 294.029 382.623C293.795 382.762 293.514 382.853 293.184 382.896C292.907 382.931 292.643 382.939 292.391 382.922C292.14 382.905 291.871 382.857 291.585 382.779C291.213 382.684 290.905 382.519 290.662 382.285C290.428 382.042 290.246 381.765 290.116 381.453C289.995 381.132 289.93 380.79 289.921 380.426C289.913 380.062 289.956 379.702 290.051 379.347C290.173 378.879 290.355 378.498 290.597 378.203C290.84 377.908 291.122 377.683 291.442 377.527ZM291.767 379.048C291.646 379.169 291.551 379.312 291.481 379.477C291.412 379.642 291.369 379.815 291.351 379.997C291.343 380.179 291.36 380.361 291.403 380.543C291.447 380.725 291.516 380.885 291.611 381.024C291.698 381.145 291.845 381.249 292.053 381.336C292.261 381.414 292.478 381.462 292.703 381.479C292.963 381.496 293.189 381.427 293.379 381.271C293.579 381.115 293.726 380.92 293.821 380.686C293.925 380.443 293.973 380.188 293.964 379.919C293.956 379.642 293.882 379.39 293.743 379.165C293.639 379 293.501 378.879 293.327 378.801C293.163 378.723 292.985 378.684 292.794 378.684C292.604 378.675 292.413 378.706 292.222 378.775C292.04 378.836 291.889 378.927 291.767 379.048ZM299.128 381.96C299.119 382.003 299.111 382.047 299.102 382.09C299.102 382.125 299.102 382.164 299.102 382.207L299.024 382.48C299.007 382.515 298.994 382.536 298.985 382.545L298.946 382.623C298.903 382.718 298.825 382.796 298.712 382.857C298.504 382.961 298.283 382.987 298.049 382.935C297.902 382.918 297.785 382.874 297.698 382.805C297.611 382.744 297.551 382.671 297.516 382.584C297.481 382.497 297.455 382.411 297.438 382.324C297.412 382.237 297.399 382.159 297.399 382.09V374.81C297.399 374.749 297.399 374.697 297.399 374.654C297.408 374.602 297.416 374.554 297.425 374.511C297.434 374.45 297.442 374.398 297.451 374.355C297.468 374.312 297.486 374.264 297.503 374.212C297.529 374.125 297.577 374.056 297.646 374.004C297.75 373.926 297.85 373.883 297.945 373.874C298.006 373.857 298.062 373.848 298.114 373.848C298.166 373.839 298.227 373.835 298.296 373.835C298.417 373.835 298.556 373.87 298.712 373.939C298.833 374.008 298.92 374.104 298.972 374.225C299.059 374.398 299.102 374.559 299.102 374.706C299.111 374.793 299.115 374.923 299.115 375.096C299.124 375.269 299.128 375.399 299.128 375.486V375.538C299.145 375.815 299.154 376.084 299.154 376.344C299.154 376.595 299.15 376.873 299.141 377.176C299.141 377.471 299.137 377.757 299.128 378.034C299.128 378.303 299.128 378.571 299.128 378.84V381.57C299.128 381.605 299.128 381.639 299.128 381.674C299.137 381.7 299.141 381.73 299.141 381.765C299.141 381.852 299.137 381.917 299.128 381.96ZM301.83 378.073C301.83 378.316 301.83 378.589 301.83 378.892C301.839 379.195 301.843 379.512 301.843 379.841C301.843 380.162 301.843 380.482 301.843 380.803C301.843 381.115 301.839 381.405 301.83 381.674C301.821 381.804 301.808 381.947 301.791 382.103C301.774 382.25 301.739 382.389 301.687 382.519C301.635 382.649 301.553 382.757 301.44 382.844C301.336 382.922 301.193 382.957 301.011 382.948C300.742 382.931 300.547 382.814 300.426 382.597C300.313 382.38 300.248 382.077 300.231 381.687C300.231 381.488 300.227 381.258 300.218 380.998C300.218 380.738 300.214 380.474 300.205 380.205C300.205 379.936 300.205 379.676 300.205 379.425C300.205 379.165 300.205 378.931 300.205 378.723C300.205 378.602 300.201 378.454 300.192 378.281C300.192 378.108 300.196 377.93 300.205 377.748C300.214 377.566 300.235 377.393 300.27 377.228C300.305 377.055 300.361 376.912 300.439 376.799C300.5 376.73 300.586 376.678 300.699 376.643C300.812 376.6 300.929 376.578 301.05 376.578C301.18 376.578 301.301 376.6 301.414 376.643C301.535 376.686 301.622 376.747 301.674 376.825C301.709 376.877 301.735 376.951 301.752 377.046C301.769 377.141 301.782 377.25 301.791 377.371C301.808 377.484 301.817 377.605 301.817 377.735C301.826 377.856 301.83 377.969 301.83 378.073ZM301.336 375.447C301.067 375.516 300.842 375.49 300.66 375.369C300.487 375.239 300.378 375.048 300.335 374.797C300.3 374.615 300.313 374.455 300.374 374.316C300.435 374.177 300.526 374.073 300.647 374.004C300.768 373.926 300.907 373.891 301.063 373.9C301.219 373.909 301.375 373.969 301.531 374.082C301.678 374.186 301.782 374.307 301.843 374.446C301.912 374.585 301.934 374.719 301.908 374.849C301.891 374.979 301.834 375.1 301.739 375.213C301.644 375.317 301.509 375.395 301.336 375.447Z" fill="white"/>
<defs>
<linearGradient id="paint0_linear_190_27" x1="428" y1="378.897" x2="596" y2="378.532" gradientUnits="userSpaceOnUse">
<stop stop-color="#35AEFF"/>
</linearGradient>
<linearGradient id="paint1_linear_190_27" x1="198" y1="378.897" x2="366" y2="378.532" gradientUnits="userSpaceOnUse">
<stop stop-color="#35AEFF"/>
</linearGradient>
</defs>
</svg>
