<svg width="1000" height="555" viewBox="0 0 1000 555" fill="none" xmlns="http://www.w3.org/2000/svg">
<g clip-path="url(#clip0_39_102)">
<rect width="1000" height="555" rx="20" fill="#E5E7EF"/>
<rect width="1000" height="555" rx="20" fill="url(#paint0_linear_39_102)" style="mix-blend-mode:overlay"/>
<rect x="20" y="24" width="949" height="510.721" rx="20" fill="url(#paint1_linear_39_102)" style="mix-blend-mode:overlay"/>
<rect x="594.614" y="362.353" width="268.014" height="36.4801" rx="9" fill="url(#paint2_linear_39_102)"/>
<path d="M704.88 388.265V375.174H708.044V385.695H713.49V388.265H704.88ZM719.711 388.45C718.68 388.45 717.793 388.239 717.052 387.818C716.315 387.391 715.746 386.799 715.345 386.041C714.949 385.278 714.751 384.394 714.751 383.388C714.751 382.378 714.949 381.494 715.345 380.735C715.746 379.972 716.315 379.38 717.052 378.958C717.793 378.532 718.68 378.319 719.711 378.319C720.742 378.319 721.626 378.532 722.364 378.958C723.105 379.38 723.674 379.972 724.07 380.735C724.471 381.494 724.671 382.378 724.671 383.388C724.671 384.394 724.471 385.278 724.07 386.041C723.674 386.799 723.105 387.391 722.364 387.818C721.626 388.239 720.742 388.45 719.711 388.45ZM719.73 386.092C720.105 386.092 720.423 385.977 720.682 385.746C720.942 385.516 721.141 385.197 721.277 384.788C721.418 384.379 721.488 383.906 721.488 383.369C721.488 382.823 721.418 382.346 721.277 381.937C721.141 381.528 720.942 381.208 720.682 380.978C720.423 380.748 720.105 380.633 719.73 380.633C719.342 380.633 719.014 380.748 718.746 380.978C718.481 381.208 718.279 381.528 718.138 381.937C718.002 382.346 717.934 382.823 717.934 383.369C717.934 383.906 718.002 384.379 718.138 384.788C718.279 385.197 718.481 385.516 718.746 385.746C719.014 385.977 719.342 386.092 719.73 386.092ZM730.849 392.151C729.916 392.151 729.117 392.021 728.452 391.761C727.787 391.501 727.265 391.146 726.886 390.694C726.507 390.242 726.279 389.731 726.202 389.16L729.162 388.994C729.217 389.194 729.319 389.369 729.468 389.518C729.622 389.667 729.82 389.782 730.063 389.863C730.31 389.944 730.6 389.984 730.932 389.984C731.456 389.984 731.889 389.857 732.23 389.601C732.575 389.349 732.747 388.908 732.747 388.278V386.552H732.639C732.515 386.854 732.328 387.125 732.076 387.364C731.825 387.602 731.512 387.79 731.137 387.926C730.766 388.063 730.34 388.131 729.858 388.131C729.142 388.131 728.486 387.965 727.89 387.632C727.297 387.295 726.822 386.776 726.464 386.072C726.11 385.365 725.934 384.455 725.934 383.343C725.934 382.197 726.117 381.253 726.483 380.511C726.85 379.766 727.329 379.214 727.921 378.856C728.518 378.498 729.159 378.319 729.845 378.319C730.361 378.319 730.802 378.408 731.169 378.587C731.539 378.762 731.844 378.988 732.083 379.265C732.321 379.542 732.502 379.83 732.626 380.128H732.716V378.447H735.828V388.303C735.828 389.134 735.62 389.835 735.202 390.406C734.784 390.977 734.201 391.41 733.451 391.704C732.701 392.002 731.833 392.151 730.849 392.151ZM730.945 385.855C731.324 385.855 731.648 385.755 731.916 385.555C732.185 385.354 732.392 385.067 732.537 384.692C732.681 384.317 732.754 383.867 732.754 383.343C732.754 382.81 732.681 382.352 732.537 381.969C732.396 381.581 732.189 381.283 731.916 381.074C731.648 380.865 731.324 380.761 730.945 380.761C730.557 380.761 730.229 380.867 729.961 381.08C729.692 381.293 729.488 381.594 729.347 381.982C729.211 382.365 729.142 382.819 729.142 383.343C729.142 383.867 729.213 384.317 729.353 384.692C729.494 385.067 729.696 385.354 729.961 385.555C730.229 385.755 730.557 385.855 730.945 385.855ZM737.821 388.265V378.447H740.947V388.265H737.821ZM739.387 377.303C738.948 377.303 738.571 377.158 738.256 376.868C737.94 376.574 737.783 376.22 737.783 375.807C737.783 375.398 737.94 375.048 738.256 374.759C738.571 374.465 738.948 374.318 739.387 374.318C739.83 374.318 740.208 374.465 740.519 374.759C740.834 375.048 740.992 375.398 740.992 375.807C740.992 376.22 740.834 376.574 740.519 376.868C740.208 377.158 739.83 377.303 739.387 377.303ZM746.062 382.666V388.265H742.936V378.447H745.909V380.249H746.017C746.235 379.648 746.605 379.178 747.13 378.837C747.654 378.492 748.278 378.319 749.002 378.319C749.693 378.319 750.291 378.474 750.799 378.786C751.31 379.092 751.706 379.523 751.988 380.077C752.273 380.626 752.414 381.27 752.409 382.007V388.265H749.284V382.621C749.288 382.075 749.149 381.649 748.868 381.342C748.591 381.036 748.206 380.882 747.711 380.882C747.383 380.882 747.093 380.955 746.842 381.099C746.595 381.24 746.403 381.443 746.267 381.707C746.135 381.971 746.066 382.291 746.062 382.666Z" fill="white"/>
<path d="M598.835 180.554H599.98V186.814C599.98 187.46 599.828 188.037 599.523 188.545C599.221 189.05 598.795 189.448 598.244 189.741C597.693 190.03 597.047 190.175 596.305 190.175C595.564 190.175 594.917 190.03 594.366 189.741C593.816 189.448 593.388 189.05 593.083 188.545C592.781 188.037 592.631 187.46 592.631 186.814V180.554H593.775V186.721C593.775 187.183 593.877 187.594 594.08 187.954C594.283 188.311 594.573 188.593 594.948 188.799C595.327 189.002 595.779 189.104 596.305 189.104C596.832 189.104 597.284 189.002 597.663 188.799C598.041 188.593 598.33 188.311 598.53 187.954C598.734 187.594 598.835 187.183 598.835 186.721V180.554ZM607.141 184.506L606.163 184.783C606.101 184.619 606.01 184.461 605.89 184.307C605.773 184.15 605.613 184.021 605.41 183.919C605.207 183.818 604.947 183.767 604.63 183.767C604.196 183.767 603.834 183.867 603.545 184.067C603.259 184.264 603.116 184.515 603.116 184.819C603.116 185.09 603.214 185.304 603.411 185.461C603.608 185.618 603.916 185.749 604.335 185.854L605.387 186.112C606.021 186.266 606.494 186.501 606.804 186.818C607.115 187.132 607.271 187.537 607.271 188.033C607.271 188.439 607.154 188.802 606.92 189.122C606.689 189.442 606.366 189.694 605.95 189.879C605.535 190.064 605.052 190.156 604.501 190.156C603.777 190.156 603.179 189.999 602.705 189.685C602.231 189.371 601.931 188.913 601.805 188.31L602.839 188.051C602.937 188.433 603.123 188.719 603.397 188.91C603.674 189.101 604.036 189.196 604.482 189.196C604.99 189.196 605.393 189.088 605.692 188.873C605.993 188.654 606.144 188.393 606.144 188.088C606.144 187.842 606.058 187.636 605.886 187.469C605.713 187.3 605.449 187.174 605.092 187.091L603.91 186.814C603.26 186.66 602.783 186.421 602.479 186.098C602.177 185.772 602.026 185.364 602.026 184.875C602.026 184.475 602.139 184.121 602.363 183.813C602.591 183.505 602.9 183.264 603.291 183.088C603.685 182.913 604.131 182.825 604.63 182.825C605.332 182.825 605.883 182.979 606.283 183.287C606.686 183.595 606.972 184.001 607.141 184.506ZM611.884 190.156C611.2 190.156 610.611 190.005 610.116 189.704C609.623 189.399 609.243 188.974 608.975 188.43C608.711 187.882 608.578 187.245 608.578 186.518C608.578 185.792 608.711 185.152 608.975 184.598C609.243 184.041 609.615 183.607 610.092 183.296C610.573 182.982 611.133 182.825 611.773 182.825C612.142 182.825 612.507 182.887 612.867 183.01C613.227 183.133 613.555 183.333 613.85 183.61C614.146 183.884 614.381 184.247 614.557 184.699C614.732 185.152 614.82 185.709 614.82 186.371V186.832H609.354V185.891H613.712C613.712 185.49 613.632 185.133 613.472 184.819C613.315 184.506 613.09 184.258 612.798 184.076C612.508 183.895 612.167 183.804 611.773 183.804C611.339 183.804 610.963 183.912 610.646 184.127C610.332 184.339 610.091 184.616 609.922 184.958C609.752 185.3 609.668 185.666 609.668 186.057V186.685C609.668 187.22 609.76 187.674 609.945 188.046C610.132 188.416 610.393 188.697 610.725 188.891C611.057 189.082 611.444 189.177 611.884 189.177C612.17 189.177 612.428 189.137 612.659 189.057C612.893 188.974 613.095 188.851 613.264 188.688C613.433 188.522 613.564 188.316 613.656 188.069L614.709 188.365C614.598 188.722 614.412 189.036 614.15 189.307C613.889 189.574 613.566 189.784 613.181 189.935C612.796 190.082 612.364 190.156 611.884 190.156ZM616.477 190.008V182.917H617.53V183.989H617.603C617.733 183.638 617.967 183.353 618.305 183.134C618.644 182.916 619.025 182.807 619.45 182.807C619.53 182.807 619.63 182.808 619.75 182.811C619.87 182.814 619.961 182.819 620.022 182.825V183.933C619.986 183.924 619.901 183.91 619.769 183.892C619.639 183.87 619.502 183.859 619.358 183.859C619.013 183.859 618.705 183.932 618.434 184.076C618.167 184.218 617.954 184.415 617.797 184.667C617.643 184.916 617.567 185.201 617.567 185.521V190.008H616.477ZM622.403 185.743V190.008H621.314V182.917H622.366V184.025H622.459C622.625 183.665 622.877 183.376 623.216 183.158C623.554 182.936 623.991 182.825 624.527 182.825C625.007 182.825 625.427 182.924 625.787 183.121C626.147 183.315 626.427 183.61 626.627 184.007C626.828 184.401 626.928 184.9 626.928 185.503V190.008H625.838V185.577C625.838 185.02 625.693 184.586 625.404 184.275C625.115 183.961 624.718 183.804 624.213 183.804C623.865 183.804 623.554 183.879 623.281 184.03C623.01 184.181 622.796 184.401 622.639 184.69C622.482 184.98 622.403 185.33 622.403 185.743ZM631.005 190.175C630.556 190.175 630.148 190.09 629.782 189.921C629.415 189.748 629.125 189.501 628.909 189.177C628.694 188.851 628.586 188.457 628.586 187.996C628.586 187.589 628.666 187.26 628.826 187.008C628.986 186.752 629.2 186.552 629.468 186.408C629.736 186.263 630.031 186.155 630.354 186.084C630.68 186.011 631.008 185.952 631.337 185.909C631.768 185.854 632.118 185.812 632.385 185.784C632.656 185.754 632.853 185.703 632.976 185.632C633.102 185.561 633.166 185.438 633.166 185.263V185.226C633.166 184.77 633.041 184.416 632.792 184.164C632.545 183.912 632.172 183.785 631.67 183.785C631.15 183.785 630.742 183.899 630.446 184.127C630.151 184.355 629.943 184.598 629.823 184.856L628.789 184.487C628.974 184.056 629.22 183.721 629.528 183.481C629.839 183.238 630.177 183.068 630.543 182.973C630.913 182.874 631.276 182.825 631.633 182.825C631.861 182.825 632.122 182.853 632.418 182.908C632.716 182.961 633.004 183.07 633.281 183.236C633.561 183.402 633.793 183.653 633.978 183.989C634.163 184.324 634.255 184.773 634.255 185.337V190.008H633.166V189.048H633.11C633.036 189.202 632.913 189.367 632.741 189.542C632.569 189.718 632.339 189.867 632.053 189.99C631.767 190.113 631.417 190.175 631.005 190.175ZM631.171 189.196C631.602 189.196 631.965 189.111 632.261 188.942C632.559 188.773 632.784 188.554 632.935 188.286C633.089 188.019 633.166 187.737 633.166 187.442V186.444C633.119 186.5 633.018 186.551 632.861 186.597C632.707 186.64 632.529 186.678 632.325 186.712C632.125 186.743 631.93 186.771 631.739 186.795C631.551 186.817 631.399 186.835 631.282 186.851C630.999 186.888 630.734 186.948 630.488 187.031C630.245 187.111 630.048 187.232 629.897 187.395C629.749 187.556 629.676 187.774 629.676 188.051C629.676 188.43 629.816 188.716 630.096 188.91C630.379 189.101 630.737 189.196 631.171 189.196ZM636.244 190.008V182.917H637.296V184.025H637.389C637.536 183.647 637.775 183.353 638.104 183.144C638.433 182.931 638.829 182.825 639.29 182.825C639.758 182.825 640.148 182.931 640.458 183.144C640.772 183.353 641.017 183.647 641.192 184.025H641.266C641.448 183.659 641.72 183.368 642.083 183.153C642.447 182.934 642.882 182.825 643.39 182.825C644.024 182.825 644.543 183.024 644.946 183.421C645.349 183.815 645.55 184.429 645.55 185.263V190.008H644.461V185.263C644.461 184.739 644.318 184.366 644.032 184.141C643.745 183.916 643.408 183.804 643.021 183.804C642.522 183.804 642.136 183.955 641.862 184.256C641.588 184.555 641.451 184.933 641.451 185.392V190.008H640.343V185.152C640.343 184.749 640.212 184.424 639.951 184.178C639.689 183.929 639.352 183.804 638.94 183.804C638.656 183.804 638.392 183.879 638.146 184.03C637.902 184.181 637.706 184.39 637.555 184.658C637.407 184.923 637.333 185.229 637.333 185.577V190.008H636.244ZM650.515 190.156C649.832 190.156 649.243 190.005 648.747 189.704C648.255 189.399 647.875 188.974 647.607 188.43C647.342 187.882 647.21 187.245 647.21 186.518C647.21 185.792 647.342 185.152 647.607 184.598C647.875 184.041 648.247 183.607 648.724 183.296C649.204 182.982 649.765 182.825 650.405 182.825C650.774 182.825 651.139 182.887 651.499 183.01C651.859 183.133 652.187 183.333 652.482 183.61C652.778 183.884 653.013 184.247 653.188 184.699C653.364 185.152 653.452 185.709 653.452 186.371V186.832H647.986V185.891H652.344C652.344 185.49 652.264 185.133 652.104 184.819C651.947 184.506 651.722 184.258 651.43 184.076C651.14 183.895 650.799 183.804 650.405 183.804C649.971 183.804 649.595 183.912 649.278 184.127C648.964 184.339 648.723 184.616 648.553 184.958C648.384 185.3 648.3 185.666 648.3 186.057V186.685C648.3 187.22 648.392 187.674 648.577 188.046C648.764 188.416 649.024 188.697 649.357 188.891C649.689 189.082 650.075 189.177 650.515 189.177C650.802 189.177 651.06 189.137 651.291 189.057C651.525 188.974 651.727 188.851 651.896 188.688C652.065 188.522 652.196 188.316 652.288 188.069L653.341 188.365C653.23 188.722 653.044 189.036 652.782 189.307C652.521 189.574 652.197 189.784 651.813 189.935C651.428 190.082 650.996 190.156 650.515 190.156Z" fill="black"/>
<path d="M592.631 270.265V260.81H595.825C596.567 260.81 597.173 260.944 597.644 261.212C598.118 261.476 598.469 261.835 598.697 262.287C598.924 262.74 599.038 263.245 599.038 263.802C599.038 264.359 598.924 264.865 598.697 265.32C598.472 265.776 598.124 266.139 597.653 266.41C597.182 266.678 596.579 266.812 595.844 266.812H593.554V265.796H595.807C596.315 265.796 596.722 265.708 597.03 265.533C597.338 265.357 597.561 265.12 597.699 264.822C597.841 264.52 597.912 264.18 597.912 263.802C597.912 263.423 597.841 263.084 597.699 262.786C597.561 262.487 597.336 262.254 597.025 262.084C596.715 261.912 596.302 261.826 595.788 261.826H593.775V270.265H592.631ZM602.821 270.431C602.372 270.431 601.964 270.346 601.598 270.177C601.232 270.005 600.941 269.757 600.726 269.434C600.51 269.107 600.402 268.713 600.402 268.252C600.402 267.846 600.482 267.516 600.643 267.264C600.803 267.008 601.016 266.808 601.284 266.664C601.552 266.519 601.847 266.411 602.171 266.341C602.497 266.267 602.825 266.208 603.154 266.165C603.585 266.11 603.934 266.068 604.202 266.041C604.473 266.01 604.67 265.959 604.793 265.888C604.919 265.817 604.982 265.694 604.982 265.519V265.482C604.982 265.026 604.857 264.673 604.608 264.42C604.362 264.168 603.988 264.042 603.486 264.042C602.966 264.042 602.558 264.155 602.263 264.383C601.967 264.611 601.76 264.854 601.64 265.113L600.606 264.743C600.79 264.312 601.036 263.977 601.344 263.737C601.655 263.494 601.994 263.325 602.36 263.229C602.729 263.131 603.092 263.081 603.449 263.081C603.677 263.081 603.939 263.109 604.234 263.164C604.533 263.217 604.82 263.326 605.097 263.492C605.377 263.658 605.61 263.909 605.794 264.245C605.979 264.58 606.071 265.03 606.071 265.593V270.265H604.982V269.304H604.927C604.853 269.458 604.73 269.623 604.557 269.798C604.385 269.974 604.156 270.123 603.869 270.246C603.583 270.369 603.234 270.431 602.821 270.431ZM602.988 269.452C603.419 269.452 603.782 269.367 604.077 269.198C604.376 269.029 604.6 268.81 604.751 268.543C604.905 268.275 604.982 267.993 604.982 267.698V266.701C604.936 266.756 604.834 266.807 604.677 266.853C604.523 266.896 604.345 266.935 604.142 266.968C603.942 266.999 603.746 267.027 603.555 267.052C603.368 267.073 603.215 267.092 603.098 267.107C602.815 267.144 602.551 267.204 602.304 267.287C602.061 267.367 601.864 267.489 601.714 267.652C601.566 267.812 601.492 268.03 601.492 268.307C601.492 268.686 601.632 268.972 601.912 269.166C602.195 269.357 602.554 269.452 602.988 269.452ZM613.083 264.762L612.104 265.039C612.043 264.876 611.952 264.717 611.832 264.563C611.715 264.406 611.555 264.277 611.352 264.175C611.148 264.074 610.888 264.023 610.571 264.023C610.137 264.023 609.776 264.123 609.487 264.323C609.2 264.52 609.057 264.771 609.057 265.076C609.057 265.347 609.156 265.56 609.353 265.717C609.55 265.874 609.857 266.005 610.276 266.11L611.328 266.368C611.962 266.522 612.435 266.758 612.746 267.075C613.057 267.389 613.212 267.793 613.212 268.289C613.212 268.695 613.095 269.058 612.861 269.378C612.63 269.698 612.307 269.951 611.892 270.135C611.476 270.32 610.993 270.412 610.442 270.412C609.719 270.412 609.12 270.255 608.646 269.941C608.172 269.628 607.872 269.169 607.746 268.566L608.78 268.307C608.879 268.689 609.065 268.975 609.339 269.166C609.616 269.357 609.977 269.452 610.424 269.452C610.931 269.452 611.335 269.344 611.633 269.129C611.935 268.91 612.086 268.649 612.086 268.344C612.086 268.098 611.999 267.892 611.827 267.726C611.655 267.556 611.39 267.43 611.033 267.347L609.851 267.07C609.202 266.916 608.725 266.678 608.42 266.354C608.119 266.028 607.968 265.62 607.968 265.131C607.968 264.731 608.08 264.377 608.305 264.069C608.532 263.762 608.842 263.52 609.233 263.345C609.627 263.169 610.073 263.081 610.571 263.081C611.273 263.081 611.824 263.235 612.224 263.543C612.627 263.851 612.913 264.257 613.083 264.762ZM619.875 264.762L618.896 265.039C618.834 264.876 618.744 264.717 618.624 264.563C618.507 264.406 618.347 264.277 618.144 264.175C617.94 264.074 617.68 264.023 617.363 264.023C616.929 264.023 616.568 264.123 616.279 264.323C615.992 264.52 615.849 264.771 615.849 265.076C615.849 265.347 615.948 265.56 616.145 265.717C616.342 265.874 616.649 266.005 617.068 266.11L618.12 266.368C618.754 266.522 619.227 266.758 619.538 267.075C619.849 267.389 620.004 267.793 620.004 268.289C620.004 268.695 619.887 269.058 619.653 269.378C619.422 269.698 619.099 269.951 618.684 270.135C618.268 270.32 617.785 270.412 617.234 270.412C616.511 270.412 615.912 270.255 615.438 269.941C614.964 269.628 614.664 269.169 614.538 268.566L615.572 268.307C615.671 268.689 615.857 268.975 616.131 269.166C616.408 269.357 616.769 269.452 617.216 269.452C617.723 269.452 618.127 269.344 618.425 269.129C618.727 268.91 618.878 268.649 618.878 268.344C618.878 268.098 618.791 267.892 618.619 267.726C618.447 267.556 618.182 267.43 617.825 267.347L616.643 267.07C615.994 266.916 615.517 266.678 615.212 266.354C614.91 266.028 614.76 265.62 614.76 265.131C614.76 264.731 614.872 264.377 615.097 264.069C615.324 263.762 615.634 263.52 616.025 263.345C616.419 263.169 616.865 263.081 617.363 263.081C618.065 263.081 618.616 263.235 619.016 263.543C619.419 263.851 619.705 264.257 619.875 264.762ZM623.251 270.265L621.09 263.174H622.235L623.768 268.603H623.841L625.356 263.174H626.519L628.015 268.584H628.089L629.621 263.174H630.766L628.606 270.265H627.535L625.983 264.817H625.873L624.322 270.265H623.251ZM634.846 270.412C634.206 270.412 633.644 270.26 633.161 269.955C632.681 269.651 632.305 269.224 632.035 268.677C631.767 268.129 631.633 267.489 631.633 266.756C631.633 266.017 631.767 265.373 632.035 264.822C632.305 264.271 632.681 263.843 633.161 263.538C633.644 263.234 634.206 263.081 634.846 263.081C635.486 263.081 636.046 263.234 636.526 263.538C637.01 263.843 637.385 264.271 637.653 264.822C637.924 265.373 638.059 266.017 638.059 266.756C638.059 267.489 637.924 268.129 637.653 268.677C637.385 269.224 637.01 269.651 636.526 269.955C636.046 270.26 635.486 270.412 634.846 270.412ZM634.846 269.434C635.332 269.434 635.732 269.309 636.046 269.06C636.36 268.81 636.593 268.483 636.743 268.076C636.894 267.67 636.97 267.23 636.97 266.756C636.97 266.282 636.894 265.841 636.743 265.431C636.593 265.022 636.36 264.691 636.046 264.439C635.732 264.186 635.332 264.06 634.846 264.06C634.36 264.06 633.96 264.186 633.646 264.439C633.332 264.691 633.099 265.022 632.949 265.431C632.798 265.841 632.722 266.282 632.722 266.756C632.722 267.23 632.798 267.67 632.949 268.076C633.099 268.483 633.332 268.81 633.646 269.06C633.96 269.309 634.36 269.434 634.846 269.434ZM639.722 270.265V263.174H640.775V264.245H640.849C640.978 263.894 641.212 263.609 641.55 263.391C641.889 263.172 642.27 263.063 642.695 263.063C642.775 263.063 642.875 263.064 642.995 263.068C643.115 263.071 643.206 263.075 643.268 263.081V264.189C643.231 264.18 643.146 264.166 643.014 264.148C642.884 264.126 642.747 264.115 642.603 264.115C642.258 264.115 641.95 264.188 641.68 264.332C641.412 264.474 641.199 264.671 641.042 264.923C640.889 265.173 640.812 265.457 640.812 265.777V270.265H639.722ZM647.021 270.412C646.43 270.412 645.908 270.263 645.456 269.965C645.003 269.663 644.649 269.238 644.394 268.69C644.139 268.14 644.011 267.489 644.011 266.738C644.011 265.993 644.139 265.347 644.394 264.799C644.649 264.251 645.005 263.828 645.46 263.529C645.916 263.231 646.442 263.081 647.039 263.081C647.501 263.081 647.866 263.158 648.133 263.312C648.404 263.463 648.61 263.635 648.752 263.829C648.897 264.02 649.009 264.177 649.089 264.3H649.181V260.81H650.271V270.265H649.218V269.175H649.089C649.009 269.304 648.895 269.468 648.747 269.664C648.6 269.858 648.389 270.032 648.115 270.186C647.841 270.337 647.476 270.412 647.021 270.412ZM647.169 269.434C647.606 269.434 647.975 269.32 648.276 269.092C648.578 268.861 648.807 268.543 648.964 268.136C649.121 267.727 649.2 267.255 649.2 266.719C649.2 266.19 649.123 265.727 648.969 265.33C648.815 264.93 648.587 264.619 648.286 264.397C647.984 264.172 647.612 264.06 647.169 264.06C646.707 264.06 646.322 264.179 646.014 264.416C645.71 264.649 645.48 264.968 645.327 265.371C645.176 265.771 645.1 266.221 645.1 266.719C645.1 267.224 645.177 267.682 645.331 268.095C645.488 268.504 645.719 268.83 646.024 269.074C646.331 269.314 646.713 269.434 647.169 269.434Z" fill="black"/>
<path d="M562.39 459.961V451.234H565.339C566.023 451.234 566.583 451.357 567.018 451.605C567.455 451.849 567.779 452.18 567.989 452.598C568.2 453.015 568.305 453.481 568.305 453.995C568.305 454.509 568.2 454.977 567.989 455.397C567.782 455.818 567.461 456.153 567.026 456.403C566.592 456.65 566.035 456.774 565.356 456.774H563.242V455.836H565.322C565.79 455.836 566.167 455.755 566.451 455.593C566.735 455.431 566.941 455.213 567.069 454.937C567.2 454.659 567.265 454.345 567.265 453.995C567.265 453.646 567.2 453.333 567.069 453.058C566.941 452.782 566.734 452.566 566.447 452.41C566.16 452.251 565.779 452.171 565.305 452.171H563.447V459.961H562.39ZM569.474 459.961H568.366L571.571 451.234H572.662L575.866 459.961H574.758L572.151 452.615H572.082L569.474 459.961ZM569.883 456.552H574.349V457.49H569.883V456.552ZM581.999 453.416C581.947 452.984 581.74 452.649 581.376 452.41C581.013 452.171 580.567 452.052 580.038 452.052C579.652 452.052 579.314 452.115 579.024 452.24C578.737 452.365 578.513 452.536 578.351 452.755C578.192 452.974 578.112 453.223 578.112 453.501C578.112 453.734 578.168 453.934 578.278 454.102C578.392 454.267 578.537 454.404 578.713 454.515C578.889 454.623 579.074 454.713 579.267 454.784C579.46 454.852 579.638 454.907 579.8 454.95L580.686 455.188C580.913 455.248 581.166 455.33 581.445 455.436C581.726 455.541 581.994 455.684 582.25 455.866C582.508 456.045 582.722 456.275 582.889 456.556C583.057 456.838 583.141 457.183 583.141 457.592C583.141 458.063 583.017 458.49 582.77 458.87C582.526 459.251 582.168 459.554 581.696 459.778C581.227 460.002 580.658 460.115 579.987 460.115C579.362 460.115 578.821 460.014 578.364 459.812C577.909 459.61 577.551 459.329 577.29 458.968C577.031 458.607 576.885 458.188 576.851 457.711H577.942C577.97 458.041 578.081 458.313 578.274 458.529C578.47 458.742 578.717 458.902 579.016 459.007C579.317 459.109 579.641 459.16 579.987 459.16C580.391 459.16 580.753 459.095 581.074 458.964C581.395 458.83 581.649 458.646 581.837 458.41C582.024 458.171 582.118 457.893 582.118 457.575C582.118 457.285 582.037 457.049 581.875 456.867C581.713 456.686 581.5 456.538 581.236 456.424C580.972 456.311 580.686 456.211 580.379 456.126L579.305 455.819C578.624 455.623 578.084 455.343 577.686 454.98C577.288 454.616 577.089 454.14 577.089 453.552C577.089 453.063 577.222 452.637 577.486 452.274C577.753 451.907 578.111 451.623 578.56 451.421C579.011 451.217 579.516 451.115 580.072 451.115C580.635 451.115 581.135 451.215 581.572 451.417C582.01 451.616 582.356 451.889 582.612 452.235C582.871 452.582 583.007 452.975 583.021 453.416H581.999ZM589.651 453.416C589.6 452.984 589.392 452.649 589.029 452.41C588.665 452.171 588.219 452.052 587.691 452.052C587.304 452.052 586.966 452.115 586.676 452.24C586.39 452.365 586.165 452.536 586.003 452.755C585.844 452.974 585.765 453.223 585.765 453.501C585.765 453.734 585.82 453.934 585.931 454.102C586.044 454.267 586.189 454.404 586.365 454.515C586.541 454.623 586.726 454.713 586.919 454.784C587.113 454.852 587.29 454.907 587.452 454.95L588.338 455.188C588.566 455.248 588.818 455.33 589.097 455.436C589.378 455.541 589.647 455.684 589.902 455.866C590.161 456.045 590.374 456.275 590.541 456.556C590.709 456.838 590.793 457.183 590.793 457.592C590.793 458.063 590.669 458.49 590.422 458.87C590.178 459.251 589.82 459.554 589.348 459.778C588.88 460.002 588.31 460.115 587.64 460.115C587.015 460.115 586.473 460.014 586.016 459.812C585.561 459.61 585.203 459.329 584.942 458.968C584.684 458.607 584.537 458.188 584.503 457.711H585.594C585.622 458.041 585.733 458.313 585.926 458.529C586.122 458.742 586.37 458.902 586.668 459.007C586.969 459.109 587.293 459.16 587.64 459.16C588.043 459.16 588.405 459.095 588.726 458.964C589.047 458.83 589.301 458.646 589.489 458.41C589.676 458.171 589.77 457.893 589.77 457.575C589.77 457.285 589.689 457.049 589.527 456.867C589.365 456.686 589.152 456.538 588.888 456.424C588.624 456.311 588.338 456.211 588.032 456.126L586.958 455.819C586.276 455.623 585.736 455.343 585.338 454.98C584.941 454.616 584.742 454.14 584.742 453.552C584.742 453.063 584.874 452.637 585.138 452.274C585.405 451.907 585.763 451.623 586.212 451.421C586.664 451.217 587.168 451.115 587.725 451.115C588.287 451.115 588.787 451.215 589.225 451.417C589.662 451.616 590.009 451.889 590.265 452.235C590.523 452.582 590.659 452.975 590.674 453.416H589.651ZM594.116 459.961L591.729 451.234H592.803L594.627 458.342H594.712L596.57 451.234H597.763L599.621 458.342H599.707L601.53 451.234H602.604L600.218 459.961H599.127L597.201 453.007H597.133L595.207 459.961H594.116ZM610.875 455.598C610.875 456.518 610.708 457.313 610.376 457.984C610.044 458.654 609.588 459.171 609.008 459.535C608.429 459.899 607.767 460.08 607.022 460.08C606.278 460.08 605.616 459.899 605.037 459.535C604.457 459.171 604.001 458.654 603.669 457.984C603.336 457.313 603.17 456.518 603.17 455.598C603.17 454.677 603.336 453.882 603.669 453.211C604.001 452.541 604.457 452.024 605.037 451.66C605.616 451.296 606.278 451.115 607.022 451.115C607.767 451.115 608.429 451.296 609.008 451.66C609.588 452.024 610.044 452.541 610.376 453.211C610.708 453.882 610.875 454.677 610.875 455.598ZM609.852 455.598C609.852 454.842 609.725 454.204 609.473 453.684C609.223 453.164 608.883 452.771 608.454 452.504C608.028 452.237 607.551 452.103 607.022 452.103C606.494 452.103 606.015 452.237 605.586 452.504C605.16 452.771 604.821 453.164 604.568 453.684C604.318 454.204 604.193 454.842 604.193 455.598C604.193 456.353 604.318 456.991 604.568 457.511C604.821 458.031 605.16 458.424 605.586 458.691C606.015 458.958 606.494 459.092 607.022 459.092C607.551 459.092 608.028 458.958 608.454 458.691C608.883 458.424 609.223 458.031 609.473 457.511C609.725 456.991 609.852 456.353 609.852 455.598ZM612.652 459.961V451.234H615.6C616.282 451.234 616.842 451.35 617.279 451.583C617.717 451.813 618.041 452.13 618.251 452.534C618.461 452.937 618.566 453.396 618.566 453.91C618.566 454.424 618.461 454.88 618.251 455.278C618.041 455.676 617.718 455.988 617.284 456.215C616.849 456.44 616.294 456.552 615.617 456.552H613.231V455.598H615.583C616.049 455.598 616.424 455.529 616.708 455.393C616.995 455.257 617.203 455.063 617.331 454.813C617.461 454.561 617.527 454.259 617.527 453.91C617.527 453.561 617.461 453.255 617.331 452.994C617.2 452.732 616.991 452.531 616.704 452.389C616.417 452.244 616.038 452.171 615.566 452.171H613.708V459.961H612.652ZM616.76 456.041L618.907 459.961H617.68L615.566 456.041H616.76ZM623.021 459.961H620.327V451.234H623.14C623.986 451.234 624.711 451.409 625.313 451.758C625.915 452.105 626.377 452.603 626.698 453.254C627.019 453.902 627.18 454.677 627.18 455.58C627.18 456.49 627.018 457.272 626.694 457.929C626.37 458.582 625.898 459.085 625.279 459.437C624.66 459.786 623.907 459.961 623.021 459.961ZM621.384 459.024H622.952C623.674 459.024 624.272 458.884 624.746 458.606C625.221 458.328 625.575 457.931 625.807 457.417C626.04 456.903 626.157 456.291 626.157 455.58C626.157 454.876 626.042 454.269 625.812 453.761C625.582 453.25 625.238 452.857 624.78 452.585C624.323 452.309 623.754 452.171 623.072 452.171H621.384V459.024Z" fill="#16268B"/>
<path d="M893.935 481.001C894.488 481.001 894.935 480.554 894.935 480.001C894.935 479.449 894.488 479.001 893.935 479.001V481.001ZM790.671 479.001H789.671V481.001H790.671V479.001ZM893.935 480.001V479.001H790.671V480.001V481.001H893.935V480.001Z" fill="white" fill-opacity="0.81"/>
<path d="M642.607 481.001H643.607V479.001H642.607V481.001ZM539.343 479.001C538.791 479.001 538.343 479.449 538.343 480.001C538.343 480.554 538.791 481.001 539.343 481.001V479.001ZM642.607 480.001V479.001H539.343V480.001V481.001H642.607V480.001Z" fill="white" fill-opacity="0.81"/>
<path d="M813.602 459.961H812.494L815.699 451.234H816.79L819.994 459.961H818.886L816.278 452.615H816.21L813.602 459.961ZM814.011 456.552H818.477V457.49H814.011V456.552ZM819.857 452.171V451.234H826.402V452.171H823.658V459.961H822.601V452.171H819.857ZM833.76 451.234H834.817V457.012C834.817 457.609 834.677 458.142 834.395 458.61C834.117 459.076 833.724 459.444 833.215 459.714C832.707 459.981 832.11 460.115 831.425 460.115C830.741 460.115 830.144 459.981 829.635 459.714C829.127 459.444 828.732 459.076 828.451 458.61C828.172 458.142 828.033 457.609 828.033 457.012V451.234H829.09V456.927C829.09 457.353 829.184 457.732 829.371 458.065C829.559 458.394 829.826 458.654 830.172 458.845C830.522 459.032 830.939 459.126 831.425 459.126C831.911 459.126 832.329 459.032 832.678 458.845C833.028 458.654 833.295 458.394 833.479 458.065C833.667 457.732 833.76 457.353 833.76 456.927V451.234ZM836.928 459.961V451.234H839.877C840.558 451.234 841.118 451.35 841.556 451.583C841.993 451.813 842.317 452.13 842.527 452.534C842.737 452.937 842.843 453.396 842.843 453.91C842.843 454.424 842.737 454.88 842.527 455.278C842.317 455.676 841.994 455.988 841.56 456.215C841.125 456.44 840.57 456.552 839.894 456.552H837.507V455.598H839.86C840.325 455.598 840.7 455.529 840.985 455.393C841.271 455.257 841.479 455.063 841.607 454.813C841.737 454.561 841.803 454.259 841.803 453.91C841.803 453.561 841.737 453.255 841.607 452.994C841.476 452.732 841.267 452.531 840.98 452.389C840.693 452.244 840.314 452.171 839.843 452.171H837.985V459.961H836.928ZM841.036 456.041L843.183 459.961H841.956L839.843 456.041H841.036ZM847.979 459.961V451.234H850.927C851.609 451.234 852.169 451.35 852.606 451.583C853.044 451.813 853.368 452.13 853.578 452.534C853.788 452.937 853.893 453.396 853.893 453.91C853.893 454.424 853.788 454.88 853.578 455.278C853.368 455.676 853.045 455.988 852.611 456.215C852.176 456.44 851.621 456.552 850.944 456.552H848.558V455.598H850.91C851.376 455.598 851.751 455.529 852.035 455.393C852.322 455.257 852.53 455.063 852.657 454.813C852.788 454.561 852.854 454.259 852.854 453.91C852.854 453.561 852.788 453.255 852.657 452.994C852.527 452.732 852.318 452.531 852.031 452.389C851.744 452.244 851.365 452.171 850.893 452.171H849.035V459.961H847.979ZM852.086 456.041L854.234 459.961H853.007L850.893 456.041H852.086ZM855.654 459.961V451.234H860.887V452.171H856.711V455.12H860.495V456.058H856.711V459.961H855.654ZM863.754 451.234V459.961H862.697V451.234H863.754ZM868.566 459.961H865.873V451.234H868.686C869.532 451.234 870.257 451.409 870.859 451.758C871.461 452.105 871.923 452.603 872.244 453.254C872.565 453.902 872.725 454.677 872.725 455.58C872.725 456.49 872.563 457.272 872.24 457.929C871.916 458.582 871.444 459.085 870.825 459.437C870.205 459.786 869.453 459.961 868.566 459.961ZM866.93 459.024H868.498C869.22 459.024 869.818 458.884 870.292 458.606C870.767 458.328 871.12 457.931 871.353 457.417C871.586 456.903 871.703 456.291 871.703 455.58C871.703 454.876 871.588 454.269 871.357 453.761C871.127 453.25 870.784 452.857 870.326 452.585C869.869 452.309 869.299 452.171 868.617 452.171H866.93V459.024Z" fill="#16268B"/>
<path d="M591.486 296.273C591.486 287.436 598.649 280.273 607.486 280.273H846.629C855.465 280.273 862.629 287.436 862.629 296.273V300.753C862.629 309.589 855.465 316.753 846.629 316.753H607.486C598.649 316.753 591.486 309.589 591.486 300.753V296.273Z" fill="white"/>
<rect x="594.614" y="202.753" width="271.143" height="36.4801" rx="16" fill="white"/>
<path d="M640.054 134.282C639.99 133.743 639.731 133.324 639.276 133.025C638.822 132.727 638.264 132.578 637.604 132.578C637.121 132.578 636.698 132.656 636.336 132.812C635.977 132.969 635.697 133.183 635.494 133.457C635.295 133.73 635.196 134.041 635.196 134.389C635.196 134.68 635.265 134.931 635.404 135.14C635.546 135.346 635.727 135.518 635.947 135.657C636.167 135.792 636.398 135.904 636.639 135.992C636.881 136.078 637.103 136.147 637.305 136.2L638.413 136.498C638.697 136.573 639.013 136.676 639.361 136.807C639.713 136.939 640.048 137.118 640.368 137.345C640.691 137.569 640.958 137.857 641.167 138.208C641.377 138.56 641.481 138.991 641.481 139.503C641.481 140.092 641.327 140.625 641.018 141.101C640.713 141.576 640.265 141.955 639.676 142.235C639.09 142.516 638.378 142.656 637.54 142.656C636.758 142.656 636.082 142.53 635.51 142.278C634.942 142.026 634.495 141.674 634.168 141.223C633.845 140.772 633.662 140.248 633.619 139.652H634.983C635.018 140.064 635.157 140.405 635.398 140.674C635.643 140.941 635.952 141.14 636.325 141.271C636.702 141.399 637.106 141.463 637.54 141.463C638.044 141.463 638.497 141.381 638.898 141.218C639.299 141.051 639.617 140.82 639.851 140.525C640.086 140.227 640.203 139.879 640.203 139.481C640.203 139.119 640.102 138.824 639.899 138.597C639.697 138.37 639.431 138.185 639.1 138.043C638.77 137.901 638.413 137.777 638.03 137.67L636.687 137.287C635.835 137.042 635.16 136.692 634.663 136.237C634.166 135.783 633.917 135.188 633.917 134.453C633.917 133.842 634.083 133.309 634.413 132.855C634.747 132.397 635.194 132.042 635.755 131.79C636.32 131.534 636.95 131.406 637.646 131.406C638.349 131.406 638.974 131.532 639.521 131.784C640.068 132.033 640.501 132.374 640.821 132.807C641.144 133.24 641.314 133.732 641.332 134.282H640.054ZM643.483 142.464V134.282H644.74V142.464H643.483ZM644.122 132.919C643.877 132.919 643.666 132.835 643.488 132.668C643.314 132.502 643.227 132.301 643.227 132.067C643.227 131.832 643.314 131.632 643.488 131.465C643.666 131.298 643.877 131.214 644.122 131.214C644.367 131.214 644.577 131.298 644.751 131.465C644.928 131.632 645.017 131.832 645.017 132.067C645.017 132.301 644.928 132.502 644.751 132.668C644.577 132.835 644.367 132.919 644.122 132.919ZM648.3 131.555V142.464H647.042V131.555H648.3ZM653.01 142.656C652.491 142.656 652.021 142.558 651.598 142.363C651.176 142.164 650.84 141.878 650.591 141.505C650.343 141.129 650.218 140.674 650.218 140.142C650.218 139.673 650.311 139.293 650.495 139.002C650.68 138.707 650.927 138.476 651.236 138.309C651.545 138.143 651.886 138.018 652.259 137.937C652.635 137.851 653.013 137.784 653.393 137.734C653.89 137.67 654.293 137.622 654.602 137.59C654.915 137.555 655.142 137.496 655.284 137.415C655.43 137.333 655.503 137.191 655.503 136.988V136.946C655.503 136.42 655.359 136.012 655.071 135.721C654.787 135.429 654.356 135.284 653.777 135.284C653.177 135.284 652.706 135.415 652.365 135.678C652.024 135.941 651.785 136.221 651.646 136.52L650.453 136.094C650.666 135.596 650.95 135.209 651.305 134.932C651.664 134.652 652.054 134.456 652.477 134.346C652.903 134.233 653.322 134.176 653.734 134.176C653.997 134.176 654.299 134.208 654.64 134.272C654.984 134.332 655.316 134.458 655.636 134.65C655.959 134.842 656.227 135.131 656.44 135.518C656.653 135.905 656.76 136.424 656.76 137.074V142.464H655.503V141.356H655.439C655.353 141.534 655.211 141.724 655.013 141.926C654.814 142.129 654.549 142.301 654.219 142.443C653.889 142.585 653.486 142.656 653.01 142.656ZM653.201 141.527C653.699 141.527 654.118 141.429 654.459 141.234C654.803 141.038 655.062 140.786 655.236 140.477C655.414 140.168 655.503 139.844 655.503 139.503V138.352C655.449 138.416 655.332 138.475 655.151 138.528C654.973 138.578 654.767 138.622 654.533 138.661C654.302 138.696 654.077 138.728 653.857 138.757C653.64 138.782 653.464 138.803 653.329 138.821C653.003 138.863 652.697 138.933 652.413 139.029C652.133 139.121 651.905 139.261 651.731 139.449C651.561 139.634 651.476 139.886 651.476 140.206C651.476 140.643 651.637 140.973 651.96 141.196C652.287 141.417 652.701 141.527 653.201 141.527ZM660.311 137.542V142.464H659.054V131.555H660.311V135.561H660.418C660.61 135.138 660.897 134.803 661.281 134.554C661.668 134.302 662.183 134.176 662.825 134.176C663.383 134.176 663.871 134.288 664.29 134.511C664.709 134.732 665.034 135.071 665.265 135.529C665.499 135.983 665.617 136.562 665.617 137.265V142.464H664.36V137.351C664.36 136.701 664.191 136.198 663.854 135.843C663.52 135.484 663.056 135.305 662.463 135.305C662.051 135.305 661.682 135.392 661.355 135.566C661.032 135.74 660.776 135.994 660.588 136.328C660.404 136.662 660.311 137.067 660.311 137.542ZM669.088 139.481L669.067 137.926H669.323L672.902 134.282H674.458L670.644 138.139H670.537L669.088 139.481ZM667.916 142.464V131.555H669.174V142.464H667.916ZM673.115 142.464L669.919 138.416L670.814 137.542L674.713 142.464H673.115ZM678.483 142.656C677.965 142.656 677.494 142.558 677.072 142.363C676.649 142.164 676.314 141.878 676.065 141.505C675.816 141.129 675.692 140.674 675.692 140.142C675.692 139.673 675.784 139.293 675.969 139.002C676.154 138.707 676.401 138.476 676.71 138.309C677.018 138.143 677.359 138.018 677.732 137.937C678.109 137.851 678.487 137.784 678.867 137.734C679.364 137.67 679.767 137.622 680.076 137.59C680.389 137.555 680.616 137.496 680.758 137.415C680.903 137.333 680.976 137.191 680.976 136.988V136.946C680.976 136.42 680.832 136.012 680.545 135.721C680.261 135.429 679.829 135.284 679.25 135.284C678.65 135.284 678.18 135.415 677.839 135.678C677.498 135.941 677.258 136.221 677.12 136.52L675.926 136.094C676.14 135.596 676.424 135.209 676.779 134.932C677.137 134.652 677.528 134.456 677.951 134.346C678.377 134.233 678.796 134.176 679.208 134.176C679.471 134.176 679.772 134.208 680.113 134.272C680.458 134.332 680.79 134.458 681.109 134.65C681.433 134.842 681.701 135.131 681.914 135.518C682.127 135.905 682.233 136.424 682.233 137.074V142.464H680.976V141.356H680.912C680.827 141.534 680.685 141.724 680.486 141.926C680.287 142.129 680.023 142.301 679.692 142.443C679.362 142.585 678.959 142.656 678.483 142.656ZM678.675 141.527C679.172 141.527 679.591 141.429 679.932 141.234C680.277 141.038 680.536 140.786 680.71 140.477C680.887 140.168 680.976 139.844 680.976 139.503V138.352C680.923 138.416 680.806 138.475 680.625 138.528C680.447 138.578 680.241 138.622 680.007 138.661C679.776 138.696 679.55 138.728 679.33 138.757C679.114 138.782 678.938 138.803 678.803 138.821C678.476 138.863 678.171 138.933 677.887 139.029C677.606 139.121 677.379 139.261 677.205 139.449C677.034 139.634 676.949 139.886 676.949 140.206C676.949 140.643 677.111 140.973 677.434 141.196C677.761 141.417 678.174 141.527 678.675 141.527ZM685.785 137.542V142.464H684.528V134.282H685.742V135.561H685.849C686.041 135.145 686.332 134.812 686.722 134.559C687.113 134.304 687.617 134.176 688.235 134.176C688.789 134.176 689.274 134.29 689.689 134.517C690.105 134.741 690.428 135.081 690.659 135.54C690.89 135.994 691.005 136.569 691.005 137.265V142.464H689.748V137.351C689.748 136.708 689.581 136.207 689.247 135.848C688.913 135.486 688.455 135.305 687.873 135.305C687.472 135.305 687.113 135.392 686.797 135.566C686.484 135.74 686.238 135.994 686.057 136.328C685.875 136.662 685.785 137.067 685.785 137.542ZM698.778 131.555V142.464H697.521V131.555H698.778ZM704.404 142.635C703.666 142.635 703.018 142.459 702.46 142.107C701.906 141.756 701.473 141.264 701.16 140.632C700.851 140 700.697 139.261 700.697 138.416C700.697 137.564 700.851 136.82 701.16 136.184C701.473 135.548 701.906 135.055 702.46 134.703C703.018 134.352 703.666 134.176 704.404 134.176C705.143 134.176 705.789 134.352 706.343 134.703C706.901 135.055 707.334 135.548 707.643 136.184C707.956 136.82 708.112 137.564 708.112 138.416C708.112 139.261 707.956 140 707.643 140.632C707.334 141.264 706.901 141.756 706.343 142.107C705.789 142.459 705.143 142.635 704.404 142.635ZM704.404 141.505C704.965 141.505 705.427 141.362 705.789 141.074C706.152 140.786 706.42 140.408 706.594 139.939C706.768 139.471 706.855 138.963 706.855 138.416C706.855 137.869 706.768 137.359 706.594 136.887C706.42 136.415 706.152 136.033 705.789 135.742C705.427 135.451 704.965 135.305 704.404 135.305C703.843 135.305 703.382 135.451 703.019 135.742C702.657 136.033 702.389 136.415 702.215 136.887C702.041 137.359 701.954 137.869 701.954 138.416C701.954 138.963 702.041 139.471 702.215 139.939C702.389 140.408 702.657 140.786 703.019 141.074C703.382 141.362 703.843 141.505 704.404 141.505ZM713.333 145.703C712.726 145.703 712.204 145.625 711.767 145.469C711.33 145.316 710.966 145.113 710.675 144.861C710.388 144.613 710.159 144.346 709.988 144.062L710.99 143.359C711.103 143.508 711.247 143.679 711.421 143.87C711.595 144.066 711.833 144.234 712.135 144.377C712.44 144.522 712.84 144.595 713.333 144.595C713.994 144.595 714.539 144.435 714.969 144.116C715.398 143.796 715.613 143.295 715.613 142.613V140.951H715.507C715.414 141.101 715.283 141.285 715.112 141.505C714.945 141.722 714.704 141.916 714.388 142.086C714.075 142.253 713.653 142.336 713.12 142.336C712.46 142.336 711.867 142.18 711.341 141.868C710.819 141.555 710.405 141.101 710.1 140.504C709.798 139.907 709.647 139.183 709.647 138.331C709.647 137.493 709.795 136.763 710.089 136.141C710.384 135.516 710.794 135.033 711.32 134.693C711.845 134.348 712.453 134.176 713.142 134.176C713.674 134.176 714.097 134.265 714.409 134.442C714.725 134.616 714.967 134.815 715.134 135.039C715.304 135.259 715.436 135.44 715.528 135.582H715.656V134.282H716.87V142.699C716.87 143.402 716.71 143.973 716.391 144.414C716.075 144.858 715.649 145.183 715.112 145.389C714.58 145.598 713.987 145.703 713.333 145.703ZM713.291 141.207C713.795 141.207 714.221 141.092 714.569 140.861C714.917 140.63 715.182 140.298 715.363 139.865C715.544 139.432 715.634 138.913 715.634 138.309C715.634 137.72 715.546 137.2 715.368 136.749C715.191 136.298 714.928 135.944 714.58 135.689C714.232 135.433 713.802 135.305 713.291 135.305C712.758 135.305 712.314 135.44 711.959 135.71C711.607 135.98 711.343 136.342 711.165 136.797C710.991 137.251 710.904 137.755 710.904 138.309C710.904 138.878 710.993 139.38 711.171 139.817C711.352 140.25 711.618 140.591 711.97 140.84C712.325 141.085 712.765 141.207 713.291 141.207ZM719.171 142.464V134.282H720.428V142.464H719.171ZM719.811 132.919C719.566 132.919 719.354 132.835 719.177 132.668C719.003 132.502 718.916 132.301 718.916 132.067C718.916 131.832 719.003 131.632 719.177 131.465C719.354 131.298 719.566 131.214 719.811 131.214C720.056 131.214 720.265 131.298 720.439 131.465C720.617 131.632 720.705 131.832 720.705 132.067C720.705 132.301 720.617 132.502 720.439 132.668C720.265 132.835 720.056 132.919 719.811 132.919ZM723.988 137.542V142.464H722.731V134.282H723.945V135.561H724.052C724.244 135.145 724.535 134.812 724.926 134.559C725.316 134.304 725.82 134.176 726.438 134.176C726.992 134.176 727.477 134.29 727.892 134.517C728.308 134.741 728.631 135.081 728.862 135.54C729.093 135.994 729.208 136.569 729.208 137.265V142.464H727.951V137.351C727.951 136.708 727.784 136.207 727.45 135.848C727.117 135.486 726.658 135.305 726.076 135.305C725.675 135.305 725.316 135.392 725 135.566C724.688 135.74 724.441 135.994 724.26 136.328C724.079 136.662 723.988 137.067 723.988 137.542ZM739.282 134.282V135.348H735.042V134.282H739.282ZM736.278 132.322H737.535V140.12C737.535 140.476 737.587 140.742 737.69 140.92C737.796 141.094 737.931 141.211 738.094 141.271C738.261 141.328 738.437 141.356 738.622 141.356C738.76 141.356 738.874 141.349 738.963 141.335C739.052 141.317 739.123 141.303 739.176 141.292L739.431 142.422C739.346 142.454 739.227 142.486 739.075 142.518C738.922 142.553 738.728 142.571 738.494 142.571C738.139 142.571 737.791 142.494 737.45 142.342C737.113 142.189 736.832 141.956 736.608 141.644C736.388 141.331 736.278 140.937 736.278 140.461V132.322ZM744.516 142.635C743.727 142.635 743.047 142.461 742.476 142.113C741.908 141.761 741.469 141.271 741.16 140.643C740.855 140.01 740.702 139.275 740.702 138.437C740.702 137.599 740.855 136.861 741.16 136.221C741.469 135.579 741.899 135.078 742.449 134.719C743.003 134.357 743.649 134.176 744.388 134.176C744.814 134.176 745.235 134.247 745.65 134.389C746.066 134.531 746.444 134.762 746.785 135.081C747.126 135.397 747.398 135.817 747.6 136.339C747.802 136.861 747.904 137.503 747.904 138.267V138.799H741.597V137.713H746.625C746.625 137.251 746.533 136.839 746.348 136.477C746.167 136.115 745.908 135.829 745.57 135.619C745.237 135.41 744.843 135.305 744.388 135.305C743.887 135.305 743.454 135.429 743.088 135.678C742.726 135.923 742.447 136.243 742.252 136.637C742.057 137.031 741.959 137.454 741.959 137.905V138.629C741.959 139.247 742.066 139.771 742.279 140.2C742.495 140.627 742.795 140.951 743.179 141.175C743.562 141.395 744.008 141.505 744.516 141.505C744.846 141.505 745.144 141.459 745.411 141.367C745.681 141.271 745.913 141.129 746.108 140.941C746.304 140.749 746.455 140.511 746.561 140.227L747.776 140.568C747.648 140.98 747.433 141.342 747.131 141.655C746.829 141.964 746.457 142.205 746.013 142.379C745.569 142.549 745.07 142.635 744.516 142.635ZM749.816 142.464V134.282H751.03V135.518H751.116C751.265 135.113 751.535 134.785 751.925 134.533C752.316 134.281 752.756 134.155 753.246 134.155C753.339 134.155 753.454 134.156 753.593 134.16C753.731 134.163 753.836 134.169 753.907 134.176V135.454C753.864 135.444 753.767 135.428 753.614 135.406C753.465 135.382 753.307 135.369 753.14 135.369C752.742 135.369 752.387 135.453 752.074 135.619C751.765 135.783 751.52 136.01 751.339 136.301C751.162 136.589 751.073 136.917 751.073 137.287V142.464H749.816ZM756.654 131.555V142.464H755.397V131.555H756.654ZM762.387 142.635C761.599 142.635 760.919 142.461 760.347 142.113C759.779 141.761 759.34 141.271 759.031 140.643C758.726 140.01 758.573 139.275 758.573 138.437C758.573 137.599 758.726 136.861 759.031 136.221C759.34 135.579 759.77 135.078 760.32 134.719C760.874 134.357 761.52 134.176 762.259 134.176C762.685 134.176 763.106 134.247 763.521 134.389C763.937 134.531 764.315 134.762 764.656 135.081C764.997 135.397 765.269 135.817 765.471 136.339C765.673 136.861 765.775 137.503 765.775 138.267V138.799H759.468V137.713H764.496C764.496 137.251 764.404 136.839 764.219 136.477C764.038 136.115 763.779 135.829 763.442 135.619C763.108 135.41 762.714 135.305 762.259 135.305C761.758 135.305 761.325 135.429 760.959 135.678C760.597 135.923 760.318 136.243 760.123 136.637C759.928 137.031 759.83 137.454 759.83 137.905V138.629C759.83 139.247 759.937 139.771 760.15 140.2C760.366 140.627 760.666 140.951 761.05 141.175C761.433 141.395 761.879 141.505 762.387 141.505C762.717 141.505 763.015 141.459 763.282 141.367C763.552 141.271 763.784 141.129 763.98 140.941C764.175 140.749 764.326 140.511 764.432 140.227L765.647 140.568C765.519 140.98 765.304 141.342 765.002 141.655C764.7 141.964 764.328 142.205 763.884 142.379C763.44 142.549 762.941 142.635 762.387 142.635ZM767.857 142.464V131.555H769.115V135.582H769.221C769.313 135.44 769.441 135.259 769.605 135.039C769.771 134.815 770.009 134.616 770.318 134.442C770.631 134.265 771.053 134.176 771.586 134.176C772.275 134.176 772.882 134.348 773.408 134.693C773.933 135.037 774.344 135.525 774.638 136.157C774.933 136.79 775.08 137.535 775.08 138.395C775.08 139.261 774.933 140.012 774.638 140.648C774.344 141.28 773.935 141.77 773.413 142.118C772.891 142.462 772.289 142.635 771.607 142.635C771.082 142.635 770.661 142.548 770.345 142.374C770.029 142.196 769.786 141.995 769.615 141.772C769.445 141.545 769.313 141.356 769.221 141.207H769.072V142.464H767.857ZM769.093 138.373C769.093 138.991 769.184 139.536 769.365 140.009C769.546 140.477 769.811 140.845 770.159 141.111C770.507 141.374 770.933 141.505 771.437 141.505C771.963 141.505 772.401 141.367 772.753 141.09C773.108 140.809 773.374 140.433 773.552 139.961C773.733 139.485 773.823 138.956 773.823 138.373C773.823 137.798 773.735 137.28 773.557 136.818C773.383 136.353 773.118 135.985 772.763 135.715C772.412 135.442 771.97 135.305 771.437 135.305C770.926 135.305 770.496 135.435 770.148 135.694C769.8 135.95 769.537 136.308 769.36 136.77C769.182 137.228 769.093 137.763 769.093 138.373ZM777.003 142.464V134.282H778.26V142.464H777.003ZM777.643 132.919C777.398 132.919 777.186 132.835 777.009 132.668C776.835 132.502 776.748 132.301 776.748 132.067C776.748 131.832 776.835 131.632 777.009 131.465C777.186 131.298 777.398 131.214 777.643 131.214C777.888 131.214 778.097 131.298 778.271 131.465C778.449 131.632 778.537 131.832 778.537 132.067C778.537 132.301 778.449 132.502 778.271 132.668C778.097 132.835 777.888 132.919 777.643 132.919ZM781.82 137.542V142.464H780.563V131.555H781.82V135.561H781.927C782.118 135.138 782.406 134.803 782.79 134.554C783.177 134.302 783.692 134.176 784.334 134.176C784.892 134.176 785.38 134.288 785.799 134.511C786.218 134.732 786.543 135.071 786.774 135.529C787.008 135.983 787.125 136.562 787.125 137.265V142.464H785.868V137.351C785.868 136.701 785.7 136.198 785.362 135.843C785.029 135.484 784.565 135.305 783.972 135.305C783.56 135.305 783.191 135.392 782.864 135.566C782.541 135.74 782.285 135.994 782.097 136.328C781.912 136.662 781.82 137.067 781.82 137.542ZM796.733 142.635C796.052 142.635 795.45 142.462 794.928 142.118C794.406 141.77 793.997 141.28 793.703 140.648C793.408 140.012 793.26 139.261 793.26 138.395C793.26 137.535 793.408 136.79 793.703 136.157C793.997 135.525 794.408 135.037 794.933 134.693C795.459 134.348 796.066 134.176 796.755 134.176C797.287 134.176 797.708 134.265 798.017 134.442C798.33 134.616 798.568 134.815 798.731 135.039C798.898 135.259 799.028 135.44 799.12 135.582H799.226V131.555H800.483V142.464H799.269V141.207H799.12C799.028 141.356 798.896 141.545 798.726 141.772C798.555 141.995 798.312 142.196 797.996 142.374C797.68 142.548 797.259 142.635 796.733 142.635ZM796.904 141.505C797.408 141.505 797.834 141.374 798.182 141.111C798.53 140.845 798.795 140.477 798.976 140.009C799.157 139.536 799.248 138.991 799.248 138.373C799.248 137.763 799.159 137.228 798.981 136.77C798.804 136.308 798.541 135.95 798.193 135.694C797.845 135.435 797.415 135.305 796.904 135.305C796.371 135.305 795.927 135.442 795.572 135.715C795.221 135.985 794.956 136.353 794.779 136.818C794.605 137.28 794.518 137.798 794.518 138.373C794.518 138.956 794.606 139.485 794.784 139.961C794.965 140.433 795.231 140.809 795.583 141.09C795.938 141.367 796.378 141.505 796.904 141.505ZM805.368 142.656C804.85 142.656 804.379 142.558 803.957 142.363C803.534 142.164 803.198 141.878 802.95 141.505C802.701 141.129 802.577 140.674 802.577 140.142C802.577 139.673 802.669 139.293 802.854 139.002C803.039 138.707 803.285 138.476 803.594 138.309C803.903 138.143 804.244 138.018 804.617 137.937C804.993 137.851 805.372 137.784 805.752 137.734C806.249 137.67 806.652 137.622 806.961 137.59C807.273 137.555 807.501 137.496 807.643 137.415C807.788 137.333 807.861 137.191 807.861 136.988V136.946C807.861 136.42 807.717 136.012 807.43 135.721C807.145 135.429 806.714 135.284 806.135 135.284C805.535 135.284 805.064 135.415 804.724 135.678C804.383 135.941 804.143 136.221 804.004 136.52L802.811 136.094C803.024 135.596 803.308 135.209 803.664 134.932C804.022 134.652 804.413 134.456 804.835 134.346C805.262 134.233 805.681 134.176 806.093 134.176C806.355 134.176 806.657 134.208 806.998 134.272C807.343 134.332 807.675 134.458 807.994 134.65C808.317 134.842 808.585 135.131 808.798 135.518C809.012 135.905 809.118 136.424 809.118 137.074V142.464H807.861V141.356H807.797C807.712 141.534 807.57 141.724 807.371 141.926C807.172 142.129 806.908 142.301 806.577 142.443C806.247 142.585 805.844 142.656 805.368 142.656ZM805.56 141.527C806.057 141.527 806.476 141.429 806.817 141.234C807.161 141.038 807.421 140.786 807.595 140.477C807.772 140.168 807.861 139.844 807.861 139.503V138.352C807.808 138.416 807.691 138.475 807.509 138.528C807.332 138.578 807.126 138.622 806.892 138.661C806.661 138.696 806.435 138.728 806.215 138.757C805.998 138.782 805.823 138.803 805.688 138.821C805.361 138.863 805.056 138.933 804.771 139.029C804.491 139.121 804.264 139.261 804.09 139.449C803.919 139.634 803.834 139.886 803.834 140.206C803.834 140.643 803.996 140.973 804.319 141.196C804.645 141.417 805.059 141.527 805.56 141.527ZM812.67 137.542V142.464H811.413V131.555H812.67V135.561H812.776C812.968 135.138 813.256 134.803 813.639 134.554C814.026 134.302 814.541 134.176 815.184 134.176C815.741 134.176 816.23 134.288 816.649 134.511C817.068 134.732 817.393 135.071 817.623 135.529C817.858 135.983 817.975 136.562 817.975 137.265V142.464H816.718V137.351C816.718 136.701 816.549 136.198 816.212 135.843C815.878 135.484 815.415 135.305 814.822 135.305C814.41 135.305 814.04 135.392 813.714 135.566C813.391 135.74 813.135 135.994 812.947 136.328C812.762 136.662 812.67 137.067 812.67 137.542ZM825.431 139.119V134.282H826.688V142.464H825.431V141.079H825.346C825.154 141.495 824.856 141.848 824.451 142.139C824.046 142.427 823.535 142.571 822.917 142.571C822.406 142.571 821.951 142.459 821.553 142.235C821.156 142.008 820.843 141.667 820.616 141.212C820.389 140.754 820.275 140.177 820.275 139.481V134.282H821.532V139.396C821.532 139.993 821.699 140.469 822.033 140.824C822.37 141.179 822.8 141.356 823.322 141.356C823.634 141.356 823.952 141.276 824.275 141.117C824.602 140.957 824.875 140.712 825.096 140.382C825.319 140.051 825.431 139.63 825.431 139.119ZM830.248 131.555V142.464H828.991V131.555H830.248ZM837.707 139.119V134.282H838.964V142.464H837.707V141.079H837.621C837.43 141.495 837.131 141.848 836.726 142.139C836.322 142.427 835.81 142.571 835.192 142.571C834.681 142.571 834.226 142.459 833.829 142.235C833.431 142.008 833.118 141.667 832.891 141.212C832.664 140.754 832.55 140.177 832.55 139.481V134.282H833.807V139.396C833.807 139.993 833.974 140.469 834.308 140.824C834.645 141.179 835.075 141.356 835.597 141.356C835.91 141.356 836.227 141.276 836.551 141.117C836.877 140.957 837.151 140.712 837.371 140.382C837.595 140.051 837.707 139.63 837.707 139.119ZM842.928 131.555L842.821 139.396H841.586L841.479 131.555H842.928ZM842.204 142.549C841.941 142.549 841.715 142.455 841.527 142.267C841.339 142.079 841.245 141.853 841.245 141.591C841.245 141.328 841.339 141.102 841.527 140.914C841.715 140.726 841.941 140.632 842.204 140.632C842.466 140.632 842.692 140.726 842.88 140.914C843.068 141.102 843.162 141.328 843.162 141.591C843.162 141.765 843.118 141.924 843.029 142.07C842.944 142.216 842.829 142.333 842.683 142.422C842.541 142.507 842.381 142.549 842.204 142.549Z" fill="black"/>
<path d="M669.15 107.094C669.093 106.521 668.85 106.076 668.419 105.759C667.988 105.441 667.403 105.283 666.664 105.283C666.163 105.283 665.739 105.354 665.393 105.496C665.048 105.633 664.782 105.825 664.598 106.071C664.418 106.317 664.328 106.597 664.328 106.909C664.318 107.17 664.373 107.397 664.491 107.591C664.614 107.785 664.782 107.953 664.995 108.095C665.209 108.233 665.455 108.353 665.734 108.458C666.013 108.557 666.312 108.642 666.629 108.713L667.936 109.026C668.57 109.168 669.153 109.357 669.683 109.594C670.213 109.831 670.673 110.122 671.061 110.468C671.449 110.813 671.75 111.22 671.963 111.689C672.181 112.158 672.292 112.695 672.297 113.301C672.292 114.191 672.065 114.963 671.615 115.617C671.17 116.265 670.526 116.77 669.683 117.129C668.845 117.485 667.834 117.662 666.65 117.662C665.476 117.662 664.453 117.482 663.582 117.122C662.716 116.763 662.039 116.23 661.551 115.524C661.068 114.814 660.815 113.936 660.791 112.889H663.767C663.8 113.377 663.94 113.784 664.186 114.111C664.437 114.433 664.771 114.677 665.187 114.843C665.609 115.004 666.084 115.084 666.615 115.084C667.136 115.084 667.588 115.008 667.971 114.857C668.36 114.705 668.66 114.495 668.873 114.225C669.086 113.955 669.193 113.645 669.193 113.294C669.193 112.968 669.096 112.693 668.902 112.47C668.712 112.248 668.433 112.058 668.064 111.902C667.699 111.746 667.252 111.604 666.721 111.476L665.137 111.078C663.911 110.78 662.943 110.314 662.233 109.679C661.522 109.045 661.17 108.19 661.174 107.115C661.17 106.235 661.404 105.465 661.878 104.807C662.356 104.149 663.012 103.635 663.845 103.266C664.678 102.897 665.625 102.712 666.686 102.712C667.765 102.712 668.708 102.897 669.512 103.266C670.322 103.635 670.952 104.149 671.402 104.807C671.852 105.465 672.084 106.227 672.098 107.094H669.15ZM679.28 117.669C678.158 117.669 677.192 117.442 676.382 116.987C675.577 116.528 674.957 115.879 674.521 115.041C674.086 114.199 673.868 113.202 673.868 112.051C673.868 110.929 674.086 109.944 674.521 109.097C674.957 108.249 675.57 107.589 676.361 107.115C677.156 106.642 678.089 106.405 679.159 106.405C679.879 106.405 680.549 106.521 681.169 106.753C681.794 106.98 682.339 107.324 682.803 107.783C683.271 108.242 683.636 108.82 683.896 109.516C684.157 110.207 684.287 111.017 684.287 111.945V112.776H675.075V110.901H681.439C681.439 110.465 681.344 110.079 681.155 109.743C680.966 109.407 680.703 109.144 680.367 108.955C680.035 108.761 679.649 108.664 679.209 108.664C678.75 108.664 678.342 108.77 677.987 108.983C677.637 109.191 677.362 109.473 677.163 109.828C676.965 110.179 676.863 110.569 676.858 111V112.783C676.858 113.323 676.957 113.789 677.156 114.182C677.36 114.575 677.646 114.878 678.016 115.091C678.385 115.304 678.823 115.411 679.33 115.411C679.666 115.411 679.974 115.363 680.253 115.269C680.532 115.174 680.771 115.032 680.97 114.843C681.169 114.653 681.321 114.421 681.425 114.147L684.223 114.331C684.081 115.004 683.79 115.591 683.35 116.093C682.914 116.59 682.35 116.978 681.659 117.257C680.973 117.532 680.18 117.669 679.28 117.669ZM689.287 102.911V117.456H686.261V102.911H689.287ZM694.821 117.662C694.125 117.662 693.505 117.541 692.961 117.3C692.416 117.054 691.985 116.691 691.668 116.213C691.356 115.73 691.199 115.129 691.199 114.409C691.199 113.803 691.311 113.294 691.533 112.882C691.756 112.47 692.059 112.139 692.442 111.888C692.826 111.637 693.261 111.448 693.749 111.32C694.241 111.192 694.758 111.102 695.297 111.05C695.932 110.984 696.443 110.922 696.831 110.865C697.22 110.804 697.501 110.714 697.677 110.595C697.852 110.477 697.939 110.302 697.939 110.07V110.027C697.939 109.577 697.797 109.229 697.513 108.983C697.234 108.737 696.836 108.614 696.32 108.614C695.776 108.614 695.342 108.735 695.02 108.976C694.698 109.213 694.485 109.511 694.381 109.871L691.583 109.644C691.725 108.981 692.004 108.408 692.421 107.925C692.838 107.437 693.375 107.063 694.033 106.803C694.696 106.538 695.463 106.405 696.334 106.405C696.94 106.405 697.52 106.476 698.074 106.618C698.633 106.76 699.128 106.98 699.559 107.279C699.994 107.577 700.338 107.96 700.588 108.429C700.839 108.893 700.965 109.45 700.965 110.098V117.456H698.096V115.943H698.01C697.835 116.284 697.601 116.585 697.307 116.845C697.014 117.101 696.661 117.302 696.249 117.449C695.837 117.591 695.361 117.662 694.821 117.662ZM695.688 115.574C696.133 115.574 696.526 115.486 696.867 115.311C697.208 115.131 697.475 114.89 697.669 114.587C697.864 114.284 697.961 113.941 697.961 113.557V112.399C697.866 112.461 697.736 112.518 697.57 112.57C697.409 112.617 697.227 112.662 697.023 112.705C696.82 112.743 696.616 112.778 696.412 112.811C696.209 112.84 696.024 112.866 695.858 112.889C695.503 112.941 695.193 113.024 694.928 113.138C694.663 113.252 694.457 113.405 694.31 113.6C694.163 113.789 694.09 114.026 694.09 114.31C694.09 114.722 694.239 115.037 694.537 115.254C694.84 115.468 695.224 115.574 695.688 115.574ZM703.312 117.456V106.547H706.196V108.472H706.324C706.551 107.833 706.93 107.328 707.46 106.959C707.99 106.59 708.625 106.405 709.363 106.405C710.111 106.405 710.748 106.592 711.274 106.966C711.799 107.335 712.15 107.837 712.325 108.472H712.439C712.661 107.847 713.064 107.347 713.646 106.973C714.233 106.594 714.927 106.405 715.727 106.405C716.745 106.405 717.571 106.729 718.206 107.378C718.845 108.022 719.164 108.936 719.164 110.12V117.456H716.146V110.716C716.146 110.11 715.985 109.655 715.663 109.352C715.341 109.049 714.939 108.898 714.456 108.898C713.906 108.898 713.478 109.073 713.17 109.423C712.862 109.769 712.709 110.226 712.709 110.794V117.456H709.775V110.652C709.775 110.117 709.621 109.691 709.314 109.374C709.011 109.057 708.611 108.898 708.113 108.898C707.777 108.898 707.474 108.983 707.204 109.154C706.939 109.319 706.728 109.554 706.572 109.857C706.416 110.155 706.338 110.505 706.338 110.908V117.456H703.312ZM724.665 117.662C723.969 117.662 723.349 117.541 722.804 117.3C722.26 117.054 721.829 116.691 721.512 116.213C721.199 115.73 721.043 115.129 721.043 114.409C721.043 113.803 721.154 113.294 721.377 112.882C721.599 112.47 721.902 112.139 722.286 111.888C722.669 111.637 723.105 111.448 723.593 111.32C724.085 111.192 724.601 111.102 725.141 111.05C725.776 110.984 726.287 110.922 726.675 110.865C727.063 110.804 727.345 110.714 727.52 110.595C727.696 110.477 727.783 110.302 727.783 110.07V110.027C727.783 109.577 727.641 109.229 727.357 108.983C727.078 108.737 726.68 108.614 726.164 108.614C725.619 108.614 725.186 108.735 724.864 108.976C724.542 109.213 724.329 109.511 724.225 109.871L721.427 109.644C721.569 108.981 721.848 108.408 722.265 107.925C722.681 107.437 723.219 107.063 723.877 106.803C724.54 106.538 725.307 106.405 726.178 106.405C726.784 106.405 727.364 106.476 727.918 106.618C728.477 106.76 728.972 106.98 729.402 107.279C729.838 107.577 730.181 107.96 730.432 108.429C730.683 108.893 730.809 109.45 730.809 110.098V117.456H727.939V115.943H727.854C727.679 116.284 727.445 116.585 727.151 116.845C726.857 117.101 726.505 117.302 726.093 117.449C725.681 117.591 725.205 117.662 724.665 117.662ZM725.532 115.574C725.977 115.574 726.37 115.486 726.711 115.311C727.052 115.131 727.319 114.89 727.513 114.587C727.707 114.284 727.804 113.941 727.804 113.557V112.399C727.71 112.461 727.579 112.518 727.414 112.57C727.253 112.617 727.071 112.662 726.867 112.705C726.663 112.743 726.46 112.778 726.256 112.811C726.053 112.84 725.868 112.866 725.702 112.889C725.347 112.941 725.037 113.024 724.772 113.138C724.507 113.252 724.301 113.405 724.154 113.6C724.007 113.789 723.934 114.026 723.934 114.31C723.934 114.722 724.083 115.037 724.381 115.254C724.684 115.468 725.068 115.574 725.532 115.574ZM738.959 106.547V108.82H732.389V106.547H738.959ZM733.88 103.933H736.906V114.104C736.906 114.383 736.949 114.601 737.034 114.757C737.119 114.909 737.237 115.015 737.389 115.077C737.545 115.138 737.725 115.169 737.929 115.169C738.071 115.169 738.213 115.157 738.355 115.134C738.497 115.105 738.606 115.084 738.682 115.07L739.157 117.321C739.006 117.369 738.793 117.423 738.518 117.485C738.244 117.551 737.91 117.591 737.517 117.605C736.788 117.634 736.148 117.537 735.599 117.314C735.055 117.092 734.631 116.746 734.328 116.277C734.025 115.808 733.876 115.217 733.88 114.502V103.933ZM750.771 117.456H745.615V102.911H750.814C752.277 102.911 753.537 103.202 754.592 103.784C755.648 104.362 756.46 105.193 757.028 106.277C757.601 107.361 757.888 108.659 757.888 110.169C757.888 111.684 757.601 112.986 757.028 114.075C756.46 115.164 755.644 116 754.578 116.583C753.518 117.165 752.249 117.456 750.771 117.456ZM748.69 114.821H750.644C751.553 114.821 752.317 114.66 752.938 114.338C753.563 114.012 754.031 113.507 754.344 112.825C754.661 112.139 754.82 111.254 754.82 110.169C754.82 109.094 754.661 108.216 754.344 107.534C754.031 106.852 753.565 106.351 752.945 106.029C752.324 105.707 751.56 105.546 750.651 105.546H748.69V114.821ZM763.22 117.662C762.524 117.662 761.904 117.541 761.359 117.3C760.815 117.054 760.384 116.691 760.066 116.213C759.754 115.73 759.598 115.129 759.598 114.409C759.598 113.803 759.709 113.294 759.932 112.882C760.154 112.47 760.457 112.139 760.841 111.888C761.224 111.637 761.66 111.448 762.147 111.32C762.64 111.192 763.156 111.102 763.696 111.05C764.33 110.984 764.842 110.922 765.23 110.865C765.618 110.804 765.9 110.714 766.075 110.595C766.25 110.477 766.338 110.302 766.338 110.07V110.027C766.338 109.577 766.196 109.229 765.912 108.983C765.632 108.737 765.235 108.614 764.718 108.614C764.174 108.614 763.741 108.735 763.419 108.976C763.097 109.213 762.884 109.511 762.78 109.871L759.981 109.644C760.123 108.981 760.403 108.408 760.819 107.925C761.236 107.437 761.773 107.063 762.432 106.803C763.094 106.538 763.861 106.405 764.733 106.405C765.339 106.405 765.919 106.476 766.473 106.618C767.031 106.76 767.526 106.98 767.957 107.279C768.393 107.577 768.736 107.96 768.987 108.429C769.238 108.893 769.363 109.45 769.363 110.098V117.456H766.494V115.943H766.409C766.234 116.284 765.999 116.585 765.706 116.845C765.412 117.101 765.059 117.302 764.647 117.449C764.236 117.591 763.76 117.662 763.22 117.662ZM764.086 115.574C764.531 115.574 764.924 115.486 765.265 115.311C765.606 115.131 765.874 114.89 766.068 114.587C766.262 114.284 766.359 113.941 766.359 113.557V112.399C766.264 112.461 766.134 112.518 765.968 112.57C765.807 112.617 765.625 112.662 765.422 112.705C765.218 112.743 765.014 112.778 764.811 112.811C764.607 112.84 764.423 112.866 764.257 112.889C763.902 112.941 763.592 113.024 763.326 113.138C763.061 113.252 762.855 113.405 762.709 113.6C762.562 113.789 762.488 114.026 762.488 114.31C762.488 114.722 762.637 115.037 762.936 115.254C763.239 115.468 763.622 115.574 764.086 115.574ZM777.513 106.547V108.82H770.944V106.547H777.513ZM772.435 103.933H775.461V114.104C775.461 114.383 775.503 114.601 775.588 114.757C775.674 114.909 775.792 115.015 775.944 115.077C776.1 115.138 776.28 115.169 776.483 115.169C776.625 115.169 776.767 115.157 776.91 115.134C777.052 115.105 777.16 115.084 777.236 115.07L777.712 117.321C777.561 117.369 777.347 117.423 777.073 117.485C776.798 117.551 776.464 117.591 776.071 117.605C775.342 117.634 774.703 117.537 774.154 117.314C773.609 117.092 773.186 116.746 772.883 116.277C772.579 115.808 772.43 115.217 772.435 114.502V103.933ZM782.595 117.662C781.899 117.662 781.279 117.541 780.734 117.3C780.19 117.054 779.759 116.691 779.441 116.213C779.129 115.73 778.973 115.129 778.973 114.409C778.973 113.803 779.084 113.294 779.307 112.882C779.529 112.47 779.832 112.139 780.216 111.888C780.599 111.637 781.035 111.448 781.522 111.32C782.015 111.192 782.531 111.102 783.071 111.05C783.705 110.984 784.217 110.922 784.605 110.865C784.993 110.804 785.275 110.714 785.45 110.595C785.625 110.477 785.713 110.302 785.713 110.07V110.027C785.713 109.577 785.571 109.229 785.287 108.983C785.007 108.737 784.61 108.614 784.093 108.614C783.549 108.614 783.116 108.735 782.794 108.976C782.472 109.213 782.259 109.511 782.155 109.871L779.356 109.644C779.498 108.981 779.778 108.408 780.194 107.925C780.611 107.437 781.148 107.063 781.807 106.803C782.469 106.538 783.236 106.405 784.108 106.405C784.714 106.405 785.294 106.476 785.848 106.618C786.406 106.76 786.901 106.98 787.332 107.279C787.768 107.577 788.111 107.96 788.362 108.429C788.613 108.893 788.738 109.45 788.738 110.098V117.456H785.869V115.943H785.784C785.609 116.284 785.374 116.585 785.081 116.845C784.787 117.101 784.434 117.302 784.022 117.449C783.611 117.591 783.135 117.662 782.595 117.662ZM783.461 115.574C783.906 115.574 784.299 115.486 784.64 115.311C784.981 115.131 785.249 114.89 785.443 114.587C785.637 114.284 785.734 113.941 785.734 113.557V112.399C785.639 112.461 785.509 112.518 785.343 112.57C785.182 112.617 785 112.662 784.797 112.705C784.593 112.743 784.389 112.778 784.186 112.811C783.982 112.84 783.798 112.866 783.632 112.889C783.277 112.941 782.967 113.024 782.701 113.138C782.436 113.252 782.23 113.405 782.084 113.6C781.937 113.789 781.863 114.026 781.863 114.31C781.863 114.722 782.012 115.037 782.311 115.254C782.614 115.468 782.997 115.574 783.461 115.574ZM794.111 111.149V117.456H791.086V106.547H793.969V108.472H794.097C794.338 107.837 794.743 107.335 795.312 106.966C795.88 106.592 796.569 106.405 797.378 106.405C798.136 106.405 798.796 106.571 799.36 106.902C799.923 107.234 800.361 107.707 800.674 108.323C800.986 108.933 801.142 109.663 801.142 110.51V117.456H798.117V111.05C798.122 110.382 797.951 109.861 797.606 109.487C797.26 109.109 796.784 108.919 796.178 108.919C795.771 108.919 795.411 109.007 795.098 109.182C794.791 109.357 794.549 109.613 794.374 109.949C794.204 110.28 794.116 110.681 794.111 111.149ZM808.442 121.774C807.462 121.774 806.621 121.639 805.921 121.37C805.225 121.104 804.671 120.742 804.259 120.283C803.847 119.824 803.579 119.307 803.456 118.735L806.254 118.358C806.34 118.576 806.475 118.78 806.659 118.969C806.844 119.158 807.088 119.31 807.391 119.423C807.698 119.542 808.073 119.601 808.513 119.601C809.171 119.601 809.713 119.44 810.139 119.118C810.57 118.801 810.786 118.268 810.786 117.52V115.524H810.658C810.525 115.827 810.326 116.114 810.061 116.384C809.796 116.654 809.455 116.874 809.038 117.044C808.622 117.215 808.125 117.3 807.547 117.3C806.728 117.3 805.982 117.111 805.31 116.732C804.642 116.348 804.109 115.763 803.712 114.977C803.319 114.187 803.122 113.188 803.122 111.98C803.122 110.745 803.323 109.712 803.726 108.884C804.128 108.055 804.663 107.435 805.331 107.023C806.003 106.611 806.74 106.405 807.54 106.405C808.151 106.405 808.662 106.509 809.074 106.718C809.486 106.921 809.817 107.177 810.068 107.485C810.324 107.788 810.52 108.086 810.658 108.379H810.771V106.547H813.776V117.563C813.776 118.491 813.548 119.267 813.094 119.892C812.639 120.517 812.01 120.986 811.205 121.298C810.404 121.616 809.483 121.774 808.442 121.774ZM808.506 115.027C808.993 115.027 809.405 114.906 809.742 114.665C810.082 114.419 810.343 114.068 810.523 113.614C810.707 113.155 810.8 112.605 810.8 111.966C810.8 111.327 810.71 110.773 810.53 110.304C810.35 109.831 810.09 109.464 809.749 109.203C809.408 108.943 808.993 108.813 808.506 108.813C808.009 108.813 807.59 108.948 807.249 109.218C806.908 109.483 806.65 109.852 806.475 110.325C806.299 110.799 806.212 111.346 806.212 111.966C806.212 112.596 806.299 113.14 806.475 113.6C806.654 114.054 806.912 114.407 807.249 114.658C807.59 114.904 808.009 115.027 808.506 115.027Z" fill="black"/>
</g>
<defs>
<linearGradient id="paint0_linear_39_102" x1="1.49012e-05" y1="555" x2="828.567" y2="-190.528" gradientUnits="userSpaceOnUse">
<stop stop-color="white"/>
<stop offset="0.3125" stop-color="white" stop-opacity="0.76"/>
<stop offset="0.984375" stop-color="white" stop-opacity="0.19"/>
</linearGradient>
<linearGradient id="paint1_linear_39_102" x1="20" y1="534.721" x2="784.578" y2="-174.747" gradientUnits="userSpaceOnUse">
<stop stop-color="white"/>
<stop offset="0.3125" stop-color="white" stop-opacity="0.76"/>
<stop offset="0.984375" stop-color="white" stop-opacity="0.19"/>
</linearGradient>
<linearGradient id="paint2_linear_39_102" x1="594.614" y1="380.593" x2="862.629" y2="380.593" gradientUnits="userSpaceOnUse">
<stop stop-color="#00FFFF"/>
<stop offset="1" stop-color="#35AEFF"/>
</linearGradient>
<clipPath id="clip0_39_102">
<rect width="1000" height="555" rx="20" fill="white"/>
</clipPath>
</defs>
</svg>
