<svg width="880" height="413" viewBox="0 0 880 413" fill="none" xmlns="http://www.w3.org/2000/svg">
<rect width="880" height="413" rx="10" fill="#FCFCFC" fill-opacity="0.7"/>
<rect x="47" y="102" width="100" height="70" rx="20" fill="url(#paint0_linear_155_50)" fill-opacity="0.98"/>
<rect x="47" y="213" width="100" height="70" rx="20" fill="url(#paint1_linear_155_50)" fill-opacity="0.98"/>
<rect x="180" y="213" width="100" height="70" rx="20" fill="url(#paint2_linear_155_50)" fill-opacity="0.98"/>
<rect x="180" y="102" width="100" height="70" rx="20" fill="url(#paint3_linear_155_50)" fill-opacity="0.98"/>
<path d="M83.6027 161.199C83.6981 161.312 83.7457 161.429 83.7457 161.55C83.7457 161.602 83.7414 161.658 83.7327 161.719C83.7327 161.771 83.7284 161.819 83.7197 161.862C83.6937 161.957 83.6374 162.048 83.5507 162.135C83.4814 162.187 83.3861 162.226 83.2647 162.252C83.2041 162.269 83.1434 162.282 83.0827 162.291C83.0221 162.3 82.9571 162.313 82.8877 162.33C82.8271 162.339 82.7664 162.343 82.7057 162.343C82.6451 162.343 82.5801 162.343 82.5107 162.343H81.8477C81.6917 162.352 81.5357 162.356 81.3797 162.356C81.2324 162.356 81.0851 162.356 80.9377 162.356C80.9464 162.625 80.9507 162.915 80.9507 163.227C80.9507 163.53 80.9464 163.886 80.9377 164.293C80.9377 164.7 80.9334 165.173 80.9247 165.71C80.9247 166.247 80.9247 166.871 80.9247 167.582V168.57C80.9247 168.657 80.9291 168.722 80.9377 168.765C80.9377 168.8 80.9377 168.834 80.9377 168.869C80.9377 168.895 80.9334 168.93 80.9247 168.973C80.9074 169.051 80.8944 169.142 80.8857 169.246C80.8857 169.289 80.8814 169.333 80.8727 169.376C80.8641 169.411 80.8511 169.45 80.8337 169.493C80.7991 169.528 80.7817 169.554 80.7817 169.571L80.7427 169.649C80.6994 169.736 80.6171 169.818 80.4957 169.896C80.3051 169.991 80.0927 170.013 79.8587 169.961C79.7114 169.944 79.5987 169.905 79.5207 169.844C79.4427 169.766 79.3864 169.688 79.3517 169.61C79.2997 169.515 79.2694 169.424 79.2607 169.337C79.2347 169.259 79.2217 169.177 79.2217 169.09V162.408C79.1697 162.408 79.0614 162.408 78.8967 162.408C78.7321 162.408 78.5544 162.408 78.3637 162.408C78.1817 162.399 78.0084 162.391 77.8437 162.382C77.6791 162.373 77.5664 162.365 77.5057 162.356C77.4537 162.347 77.3714 162.334 77.2587 162.317C77.1547 162.3 77.0681 162.282 76.9987 162.265C76.8167 162.213 76.6737 162.131 76.5697 162.018C76.4744 161.905 76.4267 161.78 76.4267 161.641C76.4267 161.589 76.4267 161.537 76.4267 161.485C76.4267 161.433 76.4354 161.385 76.4527 161.342C76.4787 161.238 76.5481 161.151 76.6607 161.082C76.6954 161.056 76.7474 161.026 76.8167 160.991C76.8947 160.948 76.9684 160.917 77.0377 160.9C77.1417 160.865 77.2717 160.839 77.4277 160.822C77.4971 160.813 77.5664 160.809 77.6357 160.809C77.7051 160.809 77.7787 160.809 77.8567 160.809C78.1601 160.809 78.4461 160.809 78.7147 160.809C78.9921 160.809 79.2824 160.805 79.5857 160.796C80.0884 160.787 80.5867 160.787 81.0807 160.796C81.5834 160.796 82.0817 160.805 82.5757 160.822C82.6884 160.831 82.7967 160.844 82.9007 160.861C83.0047 160.878 83.1087 160.909 83.2127 160.952C83.2907 160.978 83.3644 161.013 83.4337 161.056C83.5031 161.091 83.5594 161.138 83.6027 161.199ZM84.7651 164.527C85.0251 164.397 85.2981 164.306 85.5841 164.254C85.8701 164.193 86.1518 164.18 86.4291 164.215C86.7151 164.241 86.9881 164.315 87.2481 164.436C87.5081 164.549 87.7508 164.713 87.9761 164.93C88.2015 165.155 88.3748 165.402 88.4961 165.671C88.6175 165.94 88.7041 166.239 88.7561 166.568C88.7908 166.793 88.8471 167.001 88.9251 167.192C89.0031 167.383 89.0855 167.573 89.1721 167.764C89.2675 167.955 89.3541 168.145 89.4321 168.336C89.5188 168.527 89.5881 168.726 89.6401 168.934C89.6835 169.133 89.6661 169.328 89.5881 169.519C89.5188 169.701 89.3715 169.814 89.1461 169.857C89.0161 169.883 88.8905 169.874 88.7691 169.831C88.6565 169.779 88.5525 169.71 88.4571 169.623C88.3618 169.528 88.2751 169.428 88.1971 169.324C88.1278 169.211 88.0628 169.107 88.0021 169.012C87.8028 169.272 87.5861 169.476 87.3521 169.623C87.1181 169.762 86.8365 169.853 86.5071 169.896C86.2298 169.931 85.9655 169.939 85.7141 169.922C85.4628 169.905 85.1941 169.857 84.9081 169.779C84.5355 169.684 84.2278 169.519 83.9851 169.285C83.7511 169.042 83.5691 168.765 83.4391 168.453C83.3178 168.132 83.2528 167.79 83.2441 167.426C83.2355 167.062 83.2788 166.702 83.3741 166.347C83.4955 165.879 83.6775 165.498 83.9201 165.203C84.1628 164.908 84.4445 164.683 84.7651 164.527ZM85.0901 166.048C84.9688 166.169 84.8735 166.312 84.8041 166.477C84.7348 166.642 84.6915 166.815 84.6741 166.997C84.6655 167.179 84.6828 167.361 84.7261 167.543C84.7695 167.725 84.8388 167.885 84.9341 168.024C85.0208 168.145 85.1681 168.249 85.3761 168.336C85.5841 168.414 85.8008 168.462 86.0261 168.479C86.2861 168.496 86.5115 168.427 86.7021 168.271C86.9015 168.115 87.0488 167.92 87.1441 167.686C87.2481 167.443 87.2958 167.188 87.2871 166.919C87.2785 166.642 87.2048 166.39 87.0661 166.165C86.9621 166 86.8235 165.879 86.6501 165.801C86.4855 165.723 86.3078 165.684 86.1171 165.684C85.9265 165.675 85.7358 165.706 85.5451 165.775C85.3631 165.836 85.2115 165.927 85.0901 166.048ZM97.7677 166.971C97.785 167.248 97.7937 167.513 97.7937 167.764C97.7937 168.007 97.785 168.267 97.7677 168.544C97.7677 168.648 97.7677 168.765 97.7677 168.895C97.7677 169.025 97.759 169.151 97.7417 169.272C97.7243 169.393 97.694 169.506 97.6507 169.61C97.6073 169.714 97.5423 169.796 97.4557 169.857C97.3517 169.926 97.2347 169.974 97.1047 170C96.9747 170.017 96.8533 170.009 96.7407 169.974C96.628 169.939 96.5283 169.874 96.4417 169.779C96.3637 169.684 96.3203 169.549 96.3117 169.376C96.2857 168.977 96.2727 168.579 96.2727 168.18C96.2727 167.981 96.2683 167.79 96.2597 167.608C96.2597 167.426 96.264 167.17 96.2727 166.841C96.2727 166.676 96.2597 166.49 96.2337 166.282C96.2077 166.065 96.1427 165.914 96.0387 165.827C95.9607 165.758 95.874 165.719 95.7787 165.71C95.6833 165.693 95.588 165.701 95.4927 165.736C95.406 165.771 95.328 165.836 95.2587 165.931C95.1893 166.018 95.1417 166.13 95.1157 166.269C95.1157 166.382 95.1113 166.499 95.1027 166.62C95.1027 166.733 95.107 166.841 95.1157 166.945C95.1243 167.222 95.1287 167.487 95.1287 167.738C95.1287 167.981 95.1243 168.241 95.1157 168.518C95.107 168.631 95.1027 168.752 95.1027 168.882C95.1113 169.012 95.1113 169.142 95.1027 169.272C95.094 169.393 95.068 169.506 95.0247 169.61C94.99 169.714 94.925 169.796 94.8297 169.857C94.7257 169.926 94.613 169.97 94.4917 169.987C94.379 169.996 94.2707 169.978 94.1667 169.935C94.0713 169.883 93.9847 169.805 93.9067 169.701C93.8373 169.597 93.7983 169.458 93.7897 169.285C93.7723 169.086 93.7593 168.904 93.7507 168.739C93.7507 168.566 93.7507 168.384 93.7507 168.193C93.7507 167.994 93.755 167.79 93.7637 167.582C93.7723 167.365 93.768 167.157 93.7507 166.958C93.7507 166.897 93.7463 166.828 93.7377 166.75C93.7377 166.663 93.7333 166.577 93.7247 166.49C93.7247 166.403 93.716 166.321 93.6987 166.243C93.69 166.156 93.6727 166.087 93.6467 166.035C93.5773 165.914 93.4517 165.836 93.2697 165.801C93.0963 165.766 92.949 165.779 92.8277 165.84C92.7063 165.901 92.6153 165.979 92.5547 166.074C92.494 166.169 92.4507 166.273 92.4247 166.386C92.3987 166.499 92.3857 166.62 92.3857 166.75C92.3857 166.871 92.3857 166.988 92.3857 167.101C92.3857 167.664 92.3857 168.154 92.3857 168.57C92.3943 168.977 92.351 169.307 92.2557 169.558C92.2123 169.688 92.1213 169.788 91.9827 169.857C91.8527 169.926 91.7097 169.961 91.5537 169.961C91.4063 169.961 91.2677 169.926 91.1377 169.857C91.0077 169.788 90.921 169.679 90.8777 169.532C90.8517 169.437 90.8257 169.302 90.7997 169.129C90.7823 168.947 90.7693 168.748 90.7607 168.531C90.752 168.314 90.7477 168.098 90.7477 167.881C90.7477 167.656 90.7477 167.452 90.7477 167.27V165.398C90.739 165.199 90.7347 164.982 90.7347 164.748C90.7347 164.514 90.7693 164.302 90.8387 164.111C90.8993 163.946 90.9947 163.842 91.1247 163.799C91.2547 163.747 91.389 163.725 91.5277 163.734C91.6837 163.734 91.805 163.777 91.8917 163.864C91.987 163.942 92.0563 164.042 92.0997 164.163C92.143 164.276 92.169 164.406 92.1777 164.553C92.1863 164.692 92.195 164.826 92.2037 164.956C92.299 164.739 92.4117 164.562 92.5417 164.423C92.6803 164.276 92.8753 164.18 93.1267 164.137C93.768 164.016 94.2793 164.18 94.6607 164.631C94.834 164.458 95.055 164.315 95.3237 164.202C95.5317 164.124 95.744 164.089 95.9607 164.098C96.1773 164.098 96.381 164.137 96.5717 164.215C96.771 164.293 96.9487 164.406 97.1047 164.553C97.2693 164.7 97.3993 164.878 97.4947 165.086C97.6247 165.363 97.6983 165.671 97.7157 166.009C97.733 166.347 97.7503 166.668 97.7677 166.971ZM98.86 161.784C98.8773 161.472 98.9726 161.221 99.146 161.03C99.328 160.839 99.5836 160.787 99.913 160.874C100.069 160.917 100.182 160.982 100.251 161.069C100.329 161.156 100.381 161.26 100.407 161.381C100.442 161.494 100.459 161.619 100.459 161.758C100.459 161.888 100.459 162.018 100.459 162.148V163.942C100.45 164.011 100.446 164.081 100.446 164.15C100.455 164.211 100.459 164.267 100.459 164.319V164.488H100.784C100.879 164.488 100.97 164.488 101.057 164.488C101.152 164.488 101.235 164.484 101.304 164.475C101.781 164.475 102.188 164.544 102.526 164.683C102.873 164.822 103.15 165.017 103.358 165.268C103.575 165.511 103.731 165.805 103.826 166.152C103.93 166.49 103.978 166.863 103.969 167.27C103.96 167.755 103.882 168.171 103.735 168.518C103.588 168.865 103.38 169.151 103.111 169.376C102.842 169.601 102.517 169.77 102.136 169.883C101.763 169.987 101.343 170.039 100.875 170.039C100.338 170.039 99.9303 170.035 99.653 170.026C99.3756 170.017 99.1763 169.939 99.055 169.792C98.9423 169.645 98.8816 169.389 98.873 169.025C98.8643 168.661 98.86 168.128 98.86 167.426C98.86 166.75 98.86 166.083 98.86 165.424C98.8686 164.765 98.8686 164.102 98.86 163.435C98.86 163.348 98.8556 163.257 98.847 163.162C98.847 163.067 98.847 162.958 98.847 162.837C98.847 162.716 98.847 162.573 98.847 162.408C98.847 162.235 98.8513 162.027 98.86 161.784ZM101.291 168.583C101.768 168.557 102.097 168.427 102.279 168.193C102.374 168.063 102.448 167.907 102.5 167.725C102.552 167.543 102.574 167.361 102.565 167.179C102.556 166.997 102.517 166.824 102.448 166.659C102.387 166.486 102.288 166.343 102.149 166.23C102.028 166.126 101.906 166.052 101.785 166.009C101.664 165.957 101.538 165.927 101.408 165.918C101.278 165.901 101.139 165.896 100.992 165.905C100.845 165.905 100.676 165.909 100.485 165.918V167.478L100.459 168.557C100.546 168.566 100.637 168.574 100.732 168.583C100.897 168.6 101.083 168.6 101.291 168.583ZM106.538 164.527C106.798 164.397 107.071 164.306 107.357 164.254C107.643 164.193 107.924 164.18 108.202 164.215C108.488 164.241 108.761 164.315 109.021 164.436C109.281 164.549 109.523 164.713 109.749 164.93C109.974 165.155 110.147 165.402 110.269 165.671C110.39 165.94 110.477 166.239 110.529 166.568C110.563 166.793 110.62 167.001 110.698 167.192C110.776 167.383 110.858 167.573 110.945 167.764C111.04 167.955 111.127 168.145 111.205 168.336C111.291 168.527 111.361 168.726 111.413 168.934C111.456 169.133 111.439 169.328 111.361 169.519C111.291 169.701 111.144 169.814 110.919 169.857C110.789 169.883 110.663 169.874 110.542 169.831C110.429 169.779 110.325 169.71 110.23 169.623C110.134 169.528 110.048 169.428 109.97 169.324C109.9 169.211 109.835 169.107 109.775 169.012C109.575 169.272 109.359 169.476 109.125 169.623C108.891 169.762 108.609 169.853 108.28 169.896C108.002 169.931 107.738 169.939 107.487 169.922C107.235 169.905 106.967 169.857 106.681 169.779C106.308 169.684 106 169.519 105.758 169.285C105.524 169.042 105.342 168.765 105.212 168.453C105.09 168.132 105.025 167.79 105.017 167.426C105.008 167.062 105.051 166.702 105.147 166.347C105.268 165.879 105.45 165.498 105.693 165.203C105.935 164.908 106.217 164.683 106.538 164.527ZM106.863 166.048C106.741 166.169 106.646 166.312 106.577 166.477C106.507 166.642 106.464 166.815 106.447 166.997C106.438 167.179 106.455 167.361 106.499 167.543C106.542 167.725 106.611 167.885 106.707 168.024C106.793 168.145 106.941 168.249 107.149 168.336C107.357 168.414 107.573 168.462 107.799 168.479C108.059 168.496 108.284 168.427 108.475 168.271C108.674 168.115 108.821 167.92 108.917 167.686C109.021 167.443 109.068 167.188 109.06 166.919C109.051 166.642 108.977 166.39 108.839 166.165C108.735 166 108.596 165.879 108.423 165.801C108.258 165.723 108.08 165.684 107.89 165.684C107.699 165.675 107.508 165.706 107.318 165.775C107.136 165.836 106.984 165.927 106.863 166.048ZM117.564 167.439C117.573 167.612 117.577 167.794 117.577 167.985C117.577 168.167 117.573 168.336 117.564 168.492C117.555 168.726 117.542 168.943 117.525 169.142C117.508 169.333 117.473 169.497 117.421 169.636C117.369 169.766 117.287 169.866 117.174 169.935C117.07 169.996 116.923 170.013 116.732 169.987C116.533 169.961 116.39 169.866 116.303 169.701C116.216 169.536 116.156 169.35 116.121 169.142C116.095 168.925 116.086 168.709 116.095 168.492C116.104 168.275 116.104 168.106 116.095 167.985C116.086 167.794 116.078 167.578 116.069 167.335C116.069 167.084 116.043 166.85 115.991 166.633C115.948 166.408 115.87 166.217 115.757 166.061C115.644 165.905 115.475 165.823 115.25 165.814C114.964 165.797 114.743 165.818 114.587 165.879C114.44 165.94 114.331 166.031 114.262 166.152C114.193 166.265 114.149 166.403 114.132 166.568C114.123 166.733 114.106 166.91 114.08 167.101L114.067 167.608V168.557C114.067 168.713 114.063 168.878 114.054 169.051C114.054 169.216 114.028 169.367 113.976 169.506C113.924 169.645 113.842 169.762 113.729 169.857C113.625 169.952 113.469 170 113.261 170C113.001 170 112.806 169.918 112.676 169.753C112.555 169.58 112.494 169.367 112.494 169.116V161.641C112.494 161.589 112.494 161.541 112.494 161.498C112.503 161.446 112.511 161.394 112.52 161.342C112.537 161.29 112.55 161.242 112.559 161.199C112.568 161.147 112.581 161.099 112.598 161.056C112.624 160.969 112.667 160.904 112.728 160.861C112.771 160.818 112.815 160.783 112.858 160.757C112.901 160.731 112.949 160.714 113.001 160.705C113.044 160.696 113.092 160.692 113.144 160.692C113.196 160.683 113.248 160.679 113.3 160.679C113.43 160.679 113.556 160.718 113.677 160.796C113.729 160.831 113.777 160.87 113.82 160.913C113.863 160.948 113.898 161 113.924 161.069C113.993 161.234 114.028 161.39 114.028 161.537C114.037 161.58 114.041 161.645 114.041 161.732C114.05 161.81 114.054 161.892 114.054 161.979C114.054 162.066 114.054 162.152 114.054 162.239C114.063 162.317 114.067 162.378 114.067 162.421V162.486C114.076 162.763 114.08 163.045 114.08 163.331C114.08 163.617 114.08 163.907 114.08 164.202V164.423C114.444 164.302 114.825 164.245 115.224 164.254C115.623 164.254 115.978 164.332 116.29 164.488C116.611 164.653 116.853 164.839 117.018 165.047C117.191 165.255 117.317 165.485 117.395 165.736C117.473 165.987 117.516 166.256 117.525 166.542C117.542 166.828 117.555 167.127 117.564 167.439Z" fill="white"/>
<path d="M87.3278 271.433C87.3365 271.494 87.3408 271.55 87.3408 271.602C87.3408 271.654 87.3408 271.706 87.3408 271.758V272.291L87.2628 279.038V279.168C87.2628 279.22 87.2498 279.298 87.2238 279.402C87.2152 279.445 87.2022 279.493 87.1848 279.545C87.1675 279.588 87.1502 279.636 87.1328 279.688C87.0895 279.792 87.0288 279.87 86.9508 279.922C86.8815 279.991 86.7688 280.039 86.6128 280.065C86.3702 280.117 86.1492 280.095 85.9498 280C85.8372 279.931 85.7592 279.844 85.7158 279.74C85.6985 279.723 85.6812 279.697 85.6638 279.662C85.6638 279.645 85.6552 279.619 85.6378 279.584C85.6205 279.541 85.6075 279.497 85.5988 279.454C85.5902 279.402 85.5815 279.35 85.5728 279.298C85.5728 279.255 85.5685 279.211 85.5598 279.168C85.5598 279.125 85.5555 279.081 85.5468 279.038C85.5295 278.995 85.5208 278.96 85.5208 278.934C85.5208 278.899 85.5208 278.86 85.5208 278.817C85.5382 278.782 85.5468 278.717 85.5468 278.622L85.5598 277.595L85.5728 275.957H84.8708L82.2318 275.97L82.2058 279.038V279.168C82.2058 279.22 82.1928 279.298 82.1668 279.402C82.1582 279.445 82.1452 279.493 82.1278 279.545C82.1105 279.588 82.0932 279.636 82.0758 279.688C82.0325 279.792 81.9718 279.87 81.8938 279.922C81.8245 279.991 81.7118 280.039 81.5558 280.065C81.3132 280.117 81.0922 280.095 80.8928 280C80.8062 279.948 80.7238 279.861 80.6458 279.74C80.6285 279.705 80.6198 279.679 80.6198 279.662L80.5808 279.584C80.5635 279.541 80.5505 279.497 80.5418 279.454C80.5332 279.402 80.5245 279.35 80.5158 279.298C80.5158 279.255 80.5115 279.211 80.5028 279.168C80.4942 279.125 80.4855 279.081 80.4768 279.038C80.4682 278.969 80.4682 278.895 80.4768 278.817V278.622L80.4898 277.595L80.5158 275.684C80.5245 275.407 80.5288 275.121 80.5288 274.826C80.5288 274.531 80.5288 274.228 80.5288 273.916C80.5202 273.604 80.5158 273.327 80.5158 273.084C80.5245 272.841 80.5375 272.568 80.5548 272.265V272.213C80.5635 272.126 80.5678 272.04 80.5678 271.953C80.5678 271.858 80.5722 271.762 80.5808 271.667C80.5895 271.58 80.6025 271.498 80.6198 271.42C80.6458 271.333 80.6805 271.247 80.7238 271.16C80.7498 271.091 80.7845 271.034 80.8278 270.991C80.8712 270.939 80.9232 270.891 80.9838 270.848C81.1225 270.779 81.2612 270.744 81.3998 270.744C81.4692 270.744 81.5298 270.748 81.5818 270.757C81.6338 270.757 81.6858 270.761 81.7378 270.77C81.8418 270.779 81.9415 270.831 82.0368 270.926C82.1062 270.987 82.1538 271.056 82.1798 271.134C82.2232 271.247 82.2492 271.346 82.2578 271.433C82.2665 271.494 82.2708 271.55 82.2708 271.602C82.2708 271.654 82.2708 271.706 82.2708 271.758V272.291L82.2448 274.436C82.3142 274.436 82.3922 274.436 82.4788 274.436C82.5742 274.436 82.6825 274.432 82.8038 274.423C83.2545 274.423 83.7008 274.427 84.1428 274.436C84.5935 274.445 85.0658 274.449 85.5598 274.449H85.5728C85.5728 274.059 85.5728 273.686 85.5728 273.331C85.5815 272.976 85.5945 272.603 85.6118 272.213C85.6118 272.126 85.6118 272.04 85.6118 271.953C85.6205 271.858 85.6292 271.762 85.6378 271.667C85.6465 271.58 85.6595 271.498 85.6768 271.42C85.7028 271.333 85.7375 271.247 85.7808 271.16C85.7982 271.091 85.8285 271.034 85.8718 270.991C85.9238 270.939 85.9845 270.891 86.0538 270.848C86.1752 270.779 86.3095 270.744 86.4568 270.744C86.5262 270.744 86.5868 270.748 86.6388 270.757C86.6995 270.757 86.7515 270.761 86.7948 270.77C86.9162 270.787 87.0158 270.839 87.0938 270.926C87.1632 270.969 87.2108 271.039 87.2368 271.134C87.2542 271.186 87.2672 271.238 87.2758 271.29C87.2932 271.333 87.3105 271.381 87.3278 271.433ZM89.9067 274.527C90.1667 274.397 90.4397 274.306 90.7257 274.254C91.0117 274.193 91.2934 274.18 91.5707 274.215C91.8567 274.241 92.1297 274.315 92.3897 274.436C92.6497 274.549 92.8924 274.713 93.1177 274.93C93.3431 275.155 93.5164 275.402 93.6377 275.671C93.7591 275.94 93.8457 276.239 93.8977 276.568C93.9324 276.793 93.9887 277.001 94.0667 277.192C94.1447 277.383 94.2271 277.573 94.3137 277.764C94.4091 277.955 94.4957 278.145 94.5737 278.336C94.6604 278.527 94.7297 278.726 94.7817 278.934C94.8251 279.133 94.8077 279.328 94.7297 279.519C94.6604 279.701 94.5131 279.814 94.2877 279.857C94.1577 279.883 94.0321 279.874 93.9107 279.831C93.7981 279.779 93.6941 279.71 93.5987 279.623C93.5034 279.528 93.4167 279.428 93.3387 279.324C93.2694 279.211 93.2044 279.107 93.1437 279.012C92.9444 279.272 92.7277 279.476 92.4937 279.623C92.2597 279.762 91.9781 279.853 91.6487 279.896C91.3714 279.931 91.1071 279.939 90.8557 279.922C90.6044 279.905 90.3357 279.857 90.0497 279.779C89.6771 279.684 89.3694 279.519 89.1267 279.285C88.8927 279.042 88.7107 278.765 88.5807 278.453C88.4594 278.132 88.3944 277.79 88.3857 277.426C88.3771 277.062 88.4204 276.702 88.5157 276.347C88.6371 275.879 88.8191 275.498 89.0617 275.203C89.3044 274.908 89.5861 274.683 89.9067 274.527ZM90.2317 276.048C90.1104 276.169 90.0151 276.312 89.9457 276.477C89.8764 276.642 89.8331 276.815 89.8157 276.997C89.8071 277.179 89.8244 277.361 89.8677 277.543C89.9111 277.725 89.9804 277.885 90.0757 278.024C90.1624 278.145 90.3097 278.249 90.5177 278.336C90.7257 278.414 90.9424 278.462 91.1677 278.479C91.4277 278.496 91.6531 278.427 91.8437 278.271C92.0431 278.115 92.1904 277.92 92.2857 277.686C92.3897 277.443 92.4374 277.188 92.4287 276.919C92.4201 276.642 92.3464 276.39 92.2077 276.165C92.1037 276 91.9651 275.879 91.7917 275.801C91.6271 275.723 91.4494 275.684 91.2587 275.684C91.0681 275.675 90.8774 275.706 90.6867 275.775C90.5047 275.836 90.3531 275.927 90.2317 276.048ZM99.5033 274.15C99.7546 274.254 99.9843 274.406 100.192 274.605C100.4 274.796 100.578 275.017 100.725 275.268C100.881 275.519 100.998 275.792 101.076 276.087C101.163 276.373 101.206 276.663 101.206 276.958C101.215 277.4 101.111 277.816 100.894 278.206C100.686 278.596 100.344 278.895 99.8673 279.103C99.5033 279.25 99.1263 279.363 98.7363 279.441C98.3549 279.51 97.9563 279.558 97.5403 279.584V281.963C97.5403 282.015 97.5316 282.063 97.5143 282.106C97.5056 282.149 97.5013 282.193 97.5013 282.236C97.4839 282.323 97.4623 282.401 97.4363 282.47C97.4189 282.539 97.3929 282.613 97.3583 282.691C97.3236 282.743 97.2889 282.791 97.2543 282.834C97.2196 282.877 97.1806 282.921 97.1373 282.964C96.9293 283.068 96.7126 283.09 96.4873 283.029C96.3486 283.02 96.2359 282.977 96.1493 282.899C96.0713 282.821 96.0149 282.739 95.9803 282.652C95.9456 282.565 95.9153 282.466 95.8893 282.353C95.8806 282.31 95.8719 282.266 95.8633 282.223C95.8633 282.188 95.8633 282.149 95.8633 282.106V274.865C95.8633 274.813 95.8633 274.761 95.8633 274.709C95.8719 274.648 95.8806 274.588 95.8893 274.527C95.8979 274.423 95.9239 274.319 95.9673 274.215C96.0453 273.998 96.2056 273.851 96.4483 273.773C96.6909 273.695 96.9639 273.66 97.2673 273.669C97.4753 273.678 97.6876 273.699 97.9043 273.734C98.1296 273.769 98.3419 273.812 98.5413 273.864C98.7493 273.907 98.9356 273.955 99.1003 274.007C99.2649 274.059 99.3993 274.107 99.5033 274.15ZM99.5293 276.958C99.5639 276.715 99.5336 276.512 99.4383 276.347C99.3516 276.174 99.2259 276.035 99.0613 275.931C98.8966 275.818 98.7059 275.732 98.4893 275.671C98.2813 275.61 98.0733 275.567 97.8653 275.541C97.8393 275.532 97.7959 275.528 97.7353 275.528C97.6833 275.528 97.6226 275.528 97.5533 275.528C97.5533 275.805 97.5533 276.074 97.5533 276.334C97.5619 276.585 97.5619 276.858 97.5533 277.153V278.024C97.7526 278.015 97.9606 277.994 98.1773 277.959C98.4026 277.924 98.6106 277.868 98.8013 277.79C98.9919 277.712 99.1523 277.608 99.2823 277.478C99.4209 277.348 99.5033 277.175 99.5293 276.958ZM107.605 276.906C107.587 277.192 107.57 277.482 107.553 277.777C107.535 278.063 107.488 278.34 107.41 278.609C107.34 278.878 107.228 279.12 107.072 279.337C106.924 279.554 106.712 279.727 106.435 279.857C106.192 279.978 105.932 280.061 105.655 280.104C105.377 280.156 105.1 280.178 104.823 280.169C104.545 280.16 104.277 280.117 104.017 280.039C103.757 279.97 103.523 279.87 103.315 279.74C103.107 279.61 102.938 279.441 102.808 279.233C102.678 279.025 102.574 278.8 102.496 278.557C102.426 278.314 102.379 278.063 102.353 277.803C102.327 277.543 102.309 277.3 102.301 277.075C102.266 276.477 102.266 275.888 102.301 275.307C102.301 275.194 102.301 275.069 102.301 274.93C102.301 274.783 102.309 274.64 102.327 274.501C102.353 274.362 102.392 274.237 102.444 274.124C102.496 274.003 102.582 273.912 102.704 273.851C102.964 273.712 103.202 273.704 103.419 273.825C103.644 273.946 103.778 274.198 103.822 274.579C103.848 274.778 103.856 274.999 103.848 275.242C103.848 275.485 103.856 275.706 103.874 275.905C103.882 276.2 103.891 276.52 103.9 276.867C103.908 277.205 103.956 277.508 104.043 277.777C104.138 278.046 104.29 278.249 104.498 278.388C104.714 278.518 105.035 278.522 105.46 278.401C105.659 278.34 105.789 278.189 105.85 277.946C105.919 277.703 105.954 277.344 105.954 276.867C105.954 276.659 105.949 276.429 105.941 276.178C105.932 275.927 105.928 275.68 105.928 275.437C105.928 275.186 105.932 274.956 105.941 274.748C105.958 274.531 105.984 274.367 106.019 274.254C106.062 274.098 106.153 273.981 106.292 273.903C106.43 273.825 106.578 273.786 106.734 273.786C106.89 273.777 107.037 273.808 107.176 273.877C107.314 273.946 107.41 274.059 107.462 274.215C107.514 274.354 107.548 274.531 107.566 274.748C107.592 274.956 107.609 275.186 107.618 275.437C107.626 275.68 107.626 275.931 107.618 276.191C107.618 276.442 107.613 276.681 107.605 276.906ZM111.78 277.712C111.615 277.608 111.429 277.526 111.221 277.465C111.021 277.404 110.813 277.348 110.597 277.296C110.389 277.244 110.185 277.188 109.986 277.127C109.786 277.058 109.604 276.962 109.44 276.841C109.084 276.572 108.876 276.243 108.816 275.853C108.764 275.454 108.85 275.056 109.076 274.657C109.197 274.449 109.357 274.28 109.557 274.15C109.756 274.011 109.973 273.907 110.207 273.838C110.449 273.76 110.696 273.717 110.948 273.708C111.199 273.699 111.437 273.712 111.663 273.747C111.81 273.773 111.966 273.812 112.131 273.864C112.295 273.907 112.447 273.968 112.586 274.046C112.733 274.124 112.863 274.224 112.976 274.345C113.097 274.458 113.184 274.601 113.236 274.774C113.27 274.887 113.275 274.995 113.249 275.099C113.231 275.203 113.188 275.29 113.119 275.359C113.058 275.428 112.976 275.48 112.872 275.515C112.776 275.55 112.672 275.558 112.56 275.541C112.43 275.515 112.308 275.476 112.196 275.424C112.083 275.372 111.97 275.316 111.858 275.255C111.745 275.194 111.628 275.142 111.507 275.099C111.394 275.056 111.273 275.034 111.143 275.034C110.943 275.025 110.779 275.06 110.649 275.138C110.519 275.216 110.428 275.311 110.376 275.424C110.332 275.537 110.337 275.658 110.389 275.788C110.449 275.918 110.571 276.031 110.753 276.126C110.917 276.213 111.099 276.282 111.299 276.334C111.498 276.386 111.693 276.438 111.884 276.49C112.083 276.542 112.274 276.603 112.456 276.672C112.646 276.741 112.815 276.837 112.963 276.958C113.249 277.192 113.422 277.465 113.483 277.777C113.552 278.089 113.535 278.397 113.431 278.7C113.327 279.003 113.145 279.272 112.885 279.506C112.633 279.74 112.334 279.896 111.988 279.974C111.736 280.026 111.463 280.052 111.169 280.052C110.883 280.052 110.597 280.022 110.311 279.961C110.033 279.9 109.765 279.805 109.505 279.675C109.253 279.545 109.041 279.38 108.868 279.181C108.746 279.042 108.681 278.886 108.673 278.713C108.673 278.531 108.707 278.375 108.777 278.245C108.855 278.106 108.963 278.011 109.102 277.959C109.24 277.907 109.396 277.937 109.57 278.05C109.708 278.145 109.873 278.241 110.064 278.336C110.254 278.423 110.445 278.492 110.636 278.544C110.826 278.596 111.008 278.622 111.182 278.622C111.364 278.622 111.52 278.583 111.65 278.505C111.84 278.384 111.94 278.245 111.949 278.089C111.957 277.924 111.901 277.799 111.78 277.712Z" fill="white"/>
<path d="M195.763 277.816C195.876 278.067 195.88 278.314 195.776 278.557C195.672 278.791 195.508 279.008 195.282 279.207C195.057 279.406 194.797 279.58 194.502 279.727C194.216 279.874 193.943 279.978 193.683 280.039C193.397 280.1 193.094 280.126 192.773 280.117C192.461 280.117 192.145 280.078 191.824 280C191.512 279.931 191.205 279.827 190.901 279.688C190.607 279.541 190.334 279.363 190.082 279.155C189.779 278.904 189.541 278.605 189.367 278.258C189.203 277.903 189.081 277.526 189.003 277.127C188.925 276.728 188.882 276.33 188.873 275.931C188.873 275.524 188.886 275.142 188.912 274.787C188.938 274.466 189.003 274.133 189.107 273.786C189.211 273.439 189.354 273.101 189.536 272.772C189.727 272.434 189.952 272.122 190.212 271.836C190.481 271.55 190.793 271.307 191.148 271.108C191.417 270.952 191.716 270.848 192.045 270.796C192.383 270.735 192.721 270.722 193.059 270.757C193.406 270.783 193.731 270.857 194.034 270.978C194.346 271.091 194.611 271.247 194.827 271.446C194.966 271.567 195.109 271.736 195.256 271.953C195.412 272.17 195.525 272.391 195.594 272.616C195.664 272.841 195.664 273.054 195.594 273.253C195.534 273.444 195.36 273.574 195.074 273.643C194.953 273.678 194.845 273.686 194.749 273.669C194.654 273.643 194.567 273.604 194.489 273.552C194.411 273.491 194.338 273.422 194.268 273.344C194.199 273.266 194.134 273.188 194.073 273.11C193.865 272.859 193.623 272.69 193.345 272.603C193.068 272.508 192.791 272.486 192.513 272.538C192.245 272.581 191.989 272.694 191.746 272.876C191.512 273.049 191.33 273.275 191.2 273.552C191.062 273.847 190.949 274.172 190.862 274.527C190.784 274.874 190.741 275.229 190.732 275.593C190.724 275.948 190.754 276.295 190.823 276.633C190.901 276.971 191.031 277.27 191.213 277.53C191.352 277.738 191.521 277.907 191.72 278.037C191.928 278.167 192.149 278.258 192.383 278.31C192.617 278.362 192.851 278.371 193.085 278.336C193.328 278.301 193.562 278.223 193.787 278.102C193.857 278.067 193.93 278.02 194.008 277.959C194.095 277.89 194.182 277.82 194.268 277.751C194.355 277.682 194.442 277.617 194.528 277.556C194.624 277.495 194.723 277.452 194.827 277.426C194.983 277.374 195.152 277.378 195.334 277.439C195.525 277.5 195.668 277.625 195.763 277.816ZM201.394 278.219C201.498 278.193 201.602 278.176 201.706 278.167C201.819 278.158 201.919 278.171 202.005 278.206C202.101 278.241 202.179 278.301 202.239 278.388C202.3 278.466 202.33 278.579 202.33 278.726C202.33 278.83 202.304 278.93 202.252 279.025C202.2 279.12 202.135 279.207 202.057 279.285C201.979 279.363 201.893 279.432 201.797 279.493C201.702 279.545 201.611 279.588 201.524 279.623C201.273 279.736 200.983 279.822 200.653 279.883C200.333 279.944 199.999 279.965 199.652 279.948C199.184 279.931 198.734 279.84 198.3 279.675C197.876 279.502 197.542 279.22 197.299 278.83C197.074 278.449 196.94 278.024 196.896 277.556C196.853 277.088 196.875 276.646 196.961 276.23C197.057 275.727 197.217 275.32 197.442 275.008C197.676 274.687 197.954 274.432 198.274 274.241C198.664 274.016 199.102 273.899 199.587 273.89C200.073 273.881 200.536 273.977 200.978 274.176C201.273 274.306 201.537 274.484 201.771 274.709C202.005 274.926 202.183 275.19 202.304 275.502C202.339 275.58 202.365 275.675 202.382 275.788C202.408 275.901 202.426 276.022 202.434 276.152C202.443 276.273 202.443 276.395 202.434 276.516C202.426 276.637 202.404 276.746 202.369 276.841C202.317 276.997 202.252 277.118 202.174 277.205C202.096 277.292 201.997 277.357 201.875 277.4C201.754 277.443 201.607 277.474 201.433 277.491C201.269 277.5 201.069 277.508 200.835 277.517C200.627 277.526 200.432 277.53 200.25 277.53C200.068 277.53 199.882 277.53 199.691 277.53C199.501 277.521 199.301 277.517 199.093 277.517C198.894 277.508 198.669 277.5 198.417 277.491C198.391 277.664 198.413 277.816 198.482 277.946C198.56 278.067 198.664 278.171 198.794 278.258C198.924 278.336 199.072 278.397 199.236 278.44C199.401 278.483 199.561 278.509 199.717 278.518C200.012 278.535 200.294 278.514 200.562 278.453C200.831 278.384 201.108 278.306 201.394 278.219ZM200.835 275.697C200.671 275.506 200.497 275.368 200.315 275.281C200.177 275.22 200.029 275.194 199.873 275.203C199.726 275.203 199.583 275.225 199.444 275.268C199.193 275.329 198.981 275.459 198.807 275.658C198.79 275.675 198.76 275.719 198.716 275.788C198.673 275.849 198.63 275.914 198.586 275.983C198.552 276.052 198.526 276.117 198.508 276.178C198.491 276.239 198.5 276.269 198.534 276.269H201.082C201.074 276.148 201.052 276.048 201.017 275.97C200.983 275.883 200.922 275.792 200.835 275.697ZM208.516 274.267C208.585 274.432 208.589 274.614 208.529 274.813C208.477 275.012 208.377 275.142 208.23 275.203C208.152 275.238 208.048 275.268 207.918 275.294C207.788 275.311 207.645 275.329 207.489 275.346C207.341 275.363 207.194 275.376 207.047 275.385C206.899 275.394 206.774 275.398 206.67 275.398C206.678 275.658 206.687 275.927 206.696 276.204C206.704 276.473 206.713 276.737 206.722 276.997C206.73 277.257 206.735 277.508 206.735 277.751C206.735 277.985 206.73 278.197 206.722 278.388C206.722 278.518 206.722 278.67 206.722 278.843C206.722 279.008 206.709 279.168 206.683 279.324C206.665 279.48 206.635 279.619 206.592 279.74C206.548 279.853 206.483 279.926 206.397 279.961C206.128 280.074 205.881 280.104 205.656 280.052C205.439 280.009 205.283 279.918 205.188 279.779C205.118 279.666 205.066 279.536 205.032 279.389C204.997 279.233 204.971 279.077 204.954 278.921C204.945 278.756 204.941 278.6 204.941 278.453C204.949 278.297 204.954 278.163 204.954 278.05C204.962 277.686 204.967 277.274 204.967 276.815C204.975 276.347 204.98 275.879 204.98 275.411H204.785C204.681 275.411 204.546 275.411 204.382 275.411C204.226 275.402 204.065 275.389 203.901 275.372C203.745 275.346 203.597 275.316 203.459 275.281C203.32 275.238 203.22 275.177 203.16 275.099C203.064 274.986 203.004 274.865 202.978 274.735C202.96 274.605 202.969 274.484 203.004 274.371C203.047 274.25 203.112 274.146 203.199 274.059C203.285 273.964 203.385 273.903 203.498 273.877C203.654 273.834 203.875 273.812 204.161 273.812C204.447 273.803 204.715 273.803 204.967 273.812C204.958 273.725 204.954 273.643 204.954 273.565C204.954 273.478 204.949 273.396 204.941 273.318C204.932 273.214 204.928 273.084 204.928 272.928C204.928 272.763 204.936 272.603 204.954 272.447C204.98 272.282 205.019 272.131 205.071 271.992C205.123 271.845 205.196 271.732 205.292 271.654C205.422 271.55 205.552 271.494 205.682 271.485C205.82 271.468 205.946 271.485 206.059 271.537C206.18 271.589 206.28 271.667 206.358 271.771C206.444 271.866 206.505 271.975 206.54 272.096C206.566 272.2 206.587 272.326 206.605 272.473C206.622 272.612 206.631 272.759 206.631 272.915C206.639 273.071 206.644 273.227 206.644 273.383C206.644 273.539 206.644 273.682 206.644 273.812H206.774C206.904 273.812 207.055 273.808 207.229 273.799C207.402 273.79 207.571 273.795 207.736 273.812C207.909 273.829 208.065 273.873 208.204 273.942C208.342 274.003 208.446 274.111 208.516 274.267ZM210.58 274.527C210.84 274.397 211.113 274.306 211.399 274.254C211.685 274.193 211.966 274.18 212.244 274.215C212.53 274.241 212.803 274.315 213.063 274.436C213.323 274.549 213.565 274.713 213.791 274.93C214.016 275.155 214.189 275.402 214.311 275.671C214.432 275.94 214.519 276.239 214.571 276.568C214.605 276.793 214.662 277.001 214.74 277.192C214.818 277.383 214.9 277.573 214.987 277.764C215.082 277.955 215.169 278.145 215.247 278.336C215.333 278.527 215.403 278.726 215.455 278.934C215.498 279.133 215.481 279.328 215.403 279.519C215.333 279.701 215.186 279.814 214.961 279.857C214.831 279.883 214.705 279.874 214.584 279.831C214.471 279.779 214.367 279.71 214.272 279.623C214.176 279.528 214.09 279.428 214.012 279.324C213.942 279.211 213.877 279.107 213.817 279.012C213.617 279.272 213.401 279.476 213.167 279.623C212.933 279.762 212.651 279.853 212.322 279.896C212.044 279.931 211.78 279.939 211.529 279.922C211.277 279.905 211.009 279.857 210.723 279.779C210.35 279.684 210.042 279.519 209.8 279.285C209.566 279.042 209.384 278.765 209.254 278.453C209.132 278.132 209.067 277.79 209.059 277.426C209.05 277.062 209.093 276.702 209.189 276.347C209.31 275.879 209.492 275.498 209.735 275.203C209.977 274.908 210.259 274.683 210.58 274.527ZM210.905 276.048C210.783 276.169 210.688 276.312 210.619 276.477C210.549 276.642 210.506 276.815 210.489 276.997C210.48 277.179 210.497 277.361 210.541 277.543C210.584 277.725 210.653 277.885 210.749 278.024C210.835 278.145 210.983 278.249 211.191 278.336C211.399 278.414 211.615 278.462 211.841 278.479C212.101 278.496 212.326 278.427 212.517 278.271C212.716 278.115 212.863 277.92 212.959 277.686C213.063 277.443 213.11 277.188 213.102 276.919C213.093 276.642 213.019 276.39 212.881 276.165C212.777 276 212.638 275.879 212.465 275.801C212.3 275.723 212.122 275.684 211.932 275.684C211.741 275.675 211.55 275.706 211.36 275.775C211.178 275.836 211.026 275.927 210.905 276.048ZM219.123 277.01C219.314 277.209 219.452 277.357 219.539 277.452C219.634 277.539 219.699 277.604 219.734 277.647C219.777 277.69 219.808 277.716 219.825 277.725C219.842 277.734 219.873 277.76 219.916 277.803C219.959 277.846 220.029 277.916 220.124 278.011C220.219 278.098 220.362 278.241 220.553 278.44C220.709 278.596 220.835 278.778 220.93 278.986C221.034 279.185 221.025 279.402 220.904 279.636C220.835 279.757 220.757 279.844 220.67 279.896C220.583 279.939 220.488 279.957 220.384 279.948C220.289 279.939 220.185 279.909 220.072 279.857C219.968 279.805 219.864 279.74 219.76 279.662C219.561 279.515 219.37 279.346 219.188 279.155C219.006 278.956 218.859 278.804 218.746 278.7C218.668 278.622 218.62 278.57 218.603 278.544C218.586 278.527 218.568 278.514 218.551 278.505C218.534 278.488 218.516 278.47 218.499 278.453C218.438 278.392 218.373 278.332 218.304 278.271C218.235 278.21 218.165 278.145 218.096 278.076V278.583C218.096 278.678 218.1 278.748 218.109 278.791C218.109 278.878 218.105 278.943 218.096 278.986C218.07 279.081 218.057 279.172 218.057 279.259C218.048 279.302 218.04 279.346 218.031 279.389C218.022 279.424 218.009 279.463 217.992 279.506C217.983 279.523 217.975 279.536 217.966 279.545C217.966 279.554 217.966 279.567 217.966 279.584C217.957 279.601 217.949 279.614 217.94 279.623C217.94 279.632 217.936 279.645 217.927 279.662C217.884 279.749 217.814 279.831 217.719 279.909C217.554 280.004 217.351 280.03 217.108 279.987C216.978 279.961 216.878 279.913 216.809 279.844C216.731 279.792 216.679 279.718 216.653 279.623C216.636 279.58 216.618 279.536 216.601 279.493C216.592 279.441 216.579 279.393 216.562 279.35C216.545 279.307 216.536 279.268 216.536 279.233C216.536 279.19 216.536 279.155 216.536 279.129V271.732C216.536 271.68 216.536 271.628 216.536 271.576C216.536 271.524 216.54 271.472 216.549 271.42C216.558 271.368 216.566 271.32 216.575 271.277C216.592 271.225 216.61 271.177 216.627 271.134C216.662 271.047 216.705 270.978 216.757 270.926C216.8 270.883 216.844 270.852 216.887 270.835C216.939 270.809 216.987 270.787 217.03 270.77C217.073 270.761 217.121 270.757 217.173 270.757C217.234 270.748 217.29 270.744 217.342 270.744C217.463 270.744 217.585 270.779 217.706 270.848C217.819 270.926 217.901 271.026 217.953 271.147C218.022 271.312 218.057 271.472 218.057 271.628C218.066 271.715 218.074 271.849 218.083 272.031C218.092 272.204 218.096 272.334 218.096 272.421V272.473C218.105 272.759 218.109 273.032 218.109 273.292C218.109 273.552 218.109 273.834 218.109 274.137C218.1 274.44 218.096 274.731 218.096 275.008C218.096 275.277 218.096 275.545 218.096 275.814V275.957C218.165 275.888 218.235 275.823 218.304 275.762C218.373 275.701 218.438 275.636 218.499 275.567C218.534 275.541 218.568 275.511 218.603 275.476L218.746 275.333C218.859 275.22 219.006 275.069 219.188 274.878C219.37 274.679 219.561 274.505 219.76 274.358C219.977 274.202 220.185 274.107 220.384 274.072C220.592 274.037 220.765 274.141 220.904 274.384C221.025 274.618 221.034 274.839 220.93 275.047C220.835 275.246 220.709 275.433 220.553 275.606C220.362 275.805 220.219 275.953 220.124 276.048C220.029 276.135 219.959 276.2 219.916 276.243C219.873 276.278 219.842 276.299 219.825 276.308C219.808 276.317 219.777 276.343 219.734 276.386C219.699 276.421 219.634 276.486 219.539 276.581C219.452 276.668 219.314 276.811 219.123 277.01ZM231.065 275.203C231.317 275.368 231.529 275.563 231.702 275.788C231.884 276.005 232.027 276.273 232.131 276.594C232.244 276.949 232.3 277.309 232.3 277.673C232.309 278.028 232.244 278.362 232.105 278.674C231.975 278.977 231.763 279.246 231.468 279.48C231.182 279.705 230.805 279.866 230.337 279.961C230.086 280.022 229.791 280.069 229.453 280.104C229.115 280.139 228.812 280.156 228.543 280.156C228.205 280.165 227.854 280.165 227.49 280.156C227.135 280.156 226.788 280.121 226.45 280.052C226.303 280.009 226.195 279.935 226.125 279.831C226.065 279.718 226.021 279.593 225.995 279.454C225.961 279.376 225.943 279.298 225.943 279.22V271.836C225.943 271.593 225.991 271.407 226.086 271.277C226.19 271.138 226.325 271.039 226.489 270.978C226.654 270.909 226.84 270.87 227.048 270.861C227.256 270.844 227.473 270.835 227.698 270.835C227.872 270.835 228.045 270.835 228.218 270.835C228.4 270.826 228.582 270.826 228.764 270.835C229.05 270.844 229.345 270.87 229.648 270.913C229.96 270.948 230.255 271.017 230.532 271.121C230.662 271.164 230.801 271.225 230.948 271.303C231.096 271.372 231.213 271.459 231.299 271.563C231.577 271.814 231.78 272.109 231.91 272.447C232.049 272.776 232.11 273.114 232.092 273.461C232.075 273.799 231.98 274.124 231.806 274.436C231.642 274.748 231.395 275.004 231.065 275.203ZM228.79 278.648C229.059 278.631 229.332 278.6 229.609 278.557C229.887 278.514 230.077 278.431 230.181 278.31C230.294 278.171 230.372 278.011 230.415 277.829C230.467 277.638 230.48 277.448 230.454 277.257C230.437 277.058 230.381 276.871 230.285 276.698C230.199 276.516 230.082 276.373 229.934 276.269C229.735 276.113 229.505 276.013 229.245 275.97C228.985 275.918 228.73 275.892 228.478 275.892C228.357 275.892 228.244 275.896 228.14 275.905C228.045 275.905 227.958 275.918 227.88 275.944C227.811 275.961 227.759 276 227.724 276.061C227.69 276.122 227.672 276.213 227.672 276.334C227.69 276.559 227.69 276.785 227.672 277.01C227.655 277.235 227.646 277.452 227.646 277.66C227.646 277.781 227.642 277.916 227.633 278.063C227.633 278.202 227.681 278.319 227.776 278.414C227.872 278.509 228.01 278.574 228.192 278.609C228.374 278.644 228.574 278.657 228.79 278.648ZM229.05 272.408C228.782 272.399 228.556 272.395 228.374 272.395C228.201 272.386 228.062 272.399 227.958 272.434C227.863 272.46 227.794 272.525 227.75 272.629C227.716 272.724 227.703 272.872 227.711 273.071C227.711 273.236 227.707 273.4 227.698 273.565C227.698 273.721 227.698 273.877 227.698 274.033C227.698 274.206 227.755 274.336 227.867 274.423C227.98 274.501 228.119 274.549 228.283 274.566C228.457 274.583 228.634 274.583 228.816 274.566C229.007 274.549 229.172 274.527 229.31 274.501C229.622 274.449 229.861 274.345 230.025 274.189C230.199 274.024 230.298 273.786 230.324 273.474C230.359 273.084 230.255 272.815 230.012 272.668C229.778 272.512 229.458 272.425 229.05 272.408ZM234.701 274.527C234.961 274.397 235.234 274.306 235.52 274.254C235.806 274.193 236.087 274.18 236.365 274.215C236.651 274.241 236.924 274.315 237.184 274.436C237.444 274.549 237.686 274.713 237.912 274.93C238.137 275.155 238.31 275.402 238.432 275.671C238.553 275.94 238.64 276.239 238.692 276.568C238.726 276.793 238.783 277.001 238.861 277.192C238.939 277.383 239.021 277.573 239.108 277.764C239.203 277.955 239.29 278.145 239.368 278.336C239.454 278.527 239.524 278.726 239.576 278.934C239.619 279.133 239.602 279.328 239.524 279.519C239.454 279.701 239.307 279.814 239.082 279.857C238.952 279.883 238.826 279.874 238.705 279.831C238.592 279.779 238.488 279.71 238.393 279.623C238.297 279.528 238.211 279.428 238.133 279.324C238.063 279.211 237.998 279.107 237.938 279.012C237.738 279.272 237.522 279.476 237.288 279.623C237.054 279.762 236.772 279.853 236.443 279.896C236.165 279.931 235.901 279.939 235.65 279.922C235.398 279.905 235.13 279.857 234.844 279.779C234.471 279.684 234.163 279.519 233.921 279.285C233.687 279.042 233.505 278.765 233.375 278.453C233.253 278.132 233.188 277.79 233.18 277.426C233.171 277.062 233.214 276.702 233.31 276.347C233.431 275.879 233.613 275.498 233.856 275.203C234.098 274.908 234.38 274.683 234.701 274.527ZM235.026 276.048C234.904 276.169 234.809 276.312 234.74 276.477C234.67 276.642 234.627 276.815 234.61 276.997C234.601 277.179 234.618 277.361 234.662 277.543C234.705 277.725 234.774 277.885 234.87 278.024C234.956 278.145 235.104 278.249 235.312 278.336C235.52 278.414 235.736 278.462 235.962 278.479C236.222 278.496 236.447 278.427 236.638 278.271C236.837 278.115 236.984 277.92 237.08 277.686C237.184 277.443 237.231 277.188 237.223 276.919C237.214 276.642 237.14 276.39 237.002 276.165C236.898 276 236.759 275.879 236.586 275.801C236.421 275.723 236.243 275.684 236.053 275.684C235.862 275.675 235.671 275.706 235.481 275.775C235.299 275.836 235.147 275.927 235.026 276.048ZM240.67 275.398C240.67 275.294 240.67 275.177 240.67 275.047C240.67 274.908 240.675 274.77 240.683 274.631C240.692 274.484 240.705 274.345 240.722 274.215C240.748 274.076 240.783 273.955 240.826 273.851C240.896 273.695 241.004 273.591 241.151 273.539C241.299 273.478 241.459 273.452 241.632 273.461C241.814 273.461 241.957 273.491 242.061 273.552C242.165 273.613 242.243 273.695 242.295 273.799C242.347 273.894 242.378 274.007 242.386 274.137C242.404 274.258 242.412 274.388 242.412 274.527C242.49 274.388 242.594 274.276 242.724 274.189C242.863 274.102 243.002 274.033 243.14 273.981C243.279 273.929 243.405 273.894 243.517 273.877C243.63 273.851 243.695 273.838 243.712 273.838C243.929 273.821 244.124 273.816 244.297 273.825C244.479 273.834 244.679 273.873 244.895 273.942C245.034 273.994 245.177 274.068 245.324 274.163C245.472 274.25 245.602 274.354 245.714 274.475C245.827 274.596 245.901 274.731 245.935 274.878C245.979 275.017 245.961 275.164 245.883 275.32C245.762 275.537 245.628 275.645 245.48 275.645C245.333 275.636 245.173 275.61 244.999 275.567C244.904 275.55 244.791 275.511 244.661 275.45C244.531 275.389 244.419 275.35 244.323 275.333C244.029 275.29 243.769 275.311 243.543 275.398C243.318 275.485 243.123 275.589 242.958 275.71C242.768 275.857 242.603 276.026 242.464 276.217V278.089C242.464 278.323 242.46 278.566 242.451 278.817C242.451 279.068 242.417 279.298 242.347 279.506C242.287 279.705 242.178 279.87 242.022 280C241.875 280.121 241.658 280.173 241.372 280.156C241.216 280.147 241.078 280.074 240.956 279.935C240.835 279.788 240.761 279.645 240.735 279.506C240.718 279.376 240.705 279.22 240.696 279.038C240.688 278.856 240.679 278.665 240.67 278.466C240.67 278.267 240.67 278.067 240.67 277.868C240.67 277.66 240.67 277.469 240.67 277.296V275.398ZM251.066 274.995C251.136 275.116 251.17 275.246 251.17 275.385C251.179 275.524 251.149 275.654 251.079 275.775C251.001 275.931 250.889 276.039 250.741 276.1C250.603 276.152 250.447 276.156 250.273 276.113C250.195 276.096 250.126 276.065 250.065 276.022C250.005 275.979 249.94 275.935 249.87 275.892C249.81 275.84 249.736 275.792 249.649 275.749C249.571 275.706 249.467 275.675 249.337 275.658C249.207 275.641 249.064 275.641 248.908 275.658C248.761 275.675 248.627 275.71 248.505 275.762C248.315 275.857 248.163 276.005 248.05 276.204C247.938 276.395 247.864 276.603 247.829 276.828C247.795 277.045 247.799 277.266 247.842 277.491C247.894 277.716 247.99 277.907 248.128 278.063C248.232 278.184 248.367 278.284 248.531 278.362C248.705 278.44 248.869 278.488 249.025 278.505C249.173 278.522 249.32 278.522 249.467 278.505C249.615 278.479 249.758 278.444 249.896 278.401C250 278.358 250.117 278.301 250.247 278.232C250.377 278.154 250.503 278.106 250.624 278.089C250.78 278.089 250.902 278.132 250.988 278.219C251.075 278.297 251.136 278.397 251.17 278.518C251.205 278.631 251.209 278.752 251.183 278.882C251.166 279.012 251.118 279.125 251.04 279.22C250.936 279.35 250.789 279.476 250.598 279.597C250.408 279.71 250.226 279.792 250.052 279.844C249.844 279.913 249.61 279.952 249.35 279.961C249.099 279.97 248.861 279.961 248.635 279.935C248.531 279.918 248.423 279.896 248.31 279.87C248.198 279.844 248.089 279.814 247.985 279.779C247.604 279.64 247.283 279.445 247.023 279.194C246.772 278.934 246.577 278.644 246.438 278.323C246.308 278.002 246.235 277.66 246.217 277.296C246.2 276.932 246.243 276.572 246.347 276.217C246.443 275.879 246.56 275.593 246.698 275.359C246.846 275.125 247.015 274.934 247.205 274.787C247.405 274.631 247.626 274.51 247.868 274.423C248.111 274.328 248.38 274.245 248.674 274.176C248.978 274.115 249.298 274.115 249.636 274.176C249.974 274.237 250.278 274.349 250.546 274.514C250.754 274.627 250.928 274.787 251.066 274.995ZM253.912 274.124C254.198 273.985 254.497 273.886 254.809 273.825C255.121 273.764 255.429 273.751 255.732 273.786C256.044 273.821 256.343 273.903 256.629 274.033C256.924 274.163 257.193 274.345 257.435 274.579C257.635 274.778 257.808 275.021 257.955 275.307C258.103 275.584 258.211 275.857 258.28 276.126C258.428 276.603 258.449 277.084 258.345 277.569C258.241 278.054 258.064 278.505 257.812 278.921C257.691 279.112 257.539 279.285 257.357 279.441C257.184 279.588 256.998 279.71 256.798 279.805C256.538 279.926 256.257 280.009 255.953 280.052C255.65 280.104 255.355 280.117 255.069 280.091C254.549 280.065 254.09 279.935 253.691 279.701C253.301 279.467 252.985 279.168 252.742 278.804C252.508 278.44 252.352 278.028 252.274 277.569C252.205 277.101 252.235 276.624 252.365 276.139C252.504 275.619 252.703 275.199 252.963 274.878C253.232 274.549 253.548 274.297 253.912 274.124ZM254.302 275.866C254.172 275.987 254.073 276.139 254.003 276.321C253.934 276.503 253.891 276.694 253.873 276.893C253.856 277.084 253.869 277.279 253.912 277.478C253.964 277.669 254.042 277.842 254.146 277.998C254.233 278.128 254.389 278.236 254.614 278.323C254.84 278.41 255.074 278.462 255.316 278.479C255.594 278.496 255.836 278.423 256.044 278.258C256.252 278.085 256.408 277.872 256.512 277.621C256.625 277.37 256.677 277.097 256.668 276.802C256.66 276.507 256.582 276.239 256.434 275.996C256.33 275.823 256.183 275.697 255.992 275.619C255.81 275.532 255.615 275.489 255.407 275.489C255.208 275.48 255.009 275.511 254.809 275.58C254.61 275.641 254.441 275.736 254.302 275.866ZM263.502 270.913C263.667 270.87 263.81 270.865 263.931 270.9C264.061 270.926 264.17 270.982 264.256 271.069C264.352 271.156 264.421 271.264 264.464 271.394C264.516 271.524 264.542 271.667 264.542 271.823C264.551 272.256 264.551 272.594 264.542 272.837C264.542 273.08 264.542 273.292 264.542 273.474V277.465C264.542 277.933 264.542 278.323 264.542 278.635C264.542 278.947 264.525 279.203 264.49 279.402C264.464 279.593 264.412 279.736 264.334 279.831C264.265 279.926 264.157 279.991 264.009 280.026C263.862 280.069 263.667 280.091 263.424 280.091C263.19 280.091 262.896 280.091 262.54 280.091C261.604 280.091 260.863 279.87 260.317 279.428C259.78 278.986 259.494 278.284 259.459 277.322C259.442 276.906 259.494 276.525 259.615 276.178C259.737 275.831 259.914 275.537 260.148 275.294C260.391 275.043 260.686 274.852 261.032 274.722C261.388 274.583 261.791 274.518 262.241 274.527H262.956V272.2C262.956 272.061 262.956 271.927 262.956 271.797C262.956 271.658 262.969 271.533 262.995 271.42C263.021 271.299 263.073 271.195 263.151 271.108C263.229 271.021 263.346 270.956 263.502 270.913ZM261.24 278.128C261.422 278.379 261.752 278.518 262.228 278.544C262.324 278.553 262.415 278.557 262.501 278.557C262.588 278.548 262.666 278.535 262.735 278.518C262.813 278.509 262.887 278.496 262.956 278.479V276.074C262.653 276.022 262.376 275.992 262.124 275.983C261.882 275.966 261.639 276.052 261.396 276.243C261.266 276.347 261.167 276.481 261.097 276.646C261.028 276.802 260.989 276.971 260.98 277.153C260.972 277.326 260.989 277.5 261.032 277.673C261.076 277.846 261.145 277.998 261.24 278.128ZM270.089 278.219C270.193 278.193 270.297 278.176 270.401 278.167C270.513 278.158 270.613 278.171 270.7 278.206C270.795 278.241 270.873 278.301 270.934 278.388C270.994 278.466 271.025 278.579 271.025 278.726C271.025 278.83 270.999 278.93 270.947 279.025C270.895 279.12 270.83 279.207 270.752 279.285C270.674 279.363 270.587 279.432 270.492 279.493C270.396 279.545 270.305 279.588 270.219 279.623C269.967 279.736 269.677 279.822 269.348 279.883C269.027 279.944 268.693 279.965 268.347 279.948C267.879 279.931 267.428 279.84 266.995 279.675C266.57 279.502 266.236 279.22 265.994 278.83C265.768 278.449 265.634 278.024 265.591 277.556C265.547 277.088 265.569 276.646 265.656 276.23C265.751 275.727 265.911 275.32 266.137 275.008C266.371 274.687 266.648 274.432 266.969 274.241C267.359 274.016 267.796 273.899 268.282 273.89C268.767 273.881 269.231 273.977 269.673 274.176C269.967 274.306 270.232 274.484 270.466 274.709C270.7 274.926 270.877 275.19 270.999 275.502C271.033 275.58 271.059 275.675 271.077 275.788C271.103 275.901 271.12 276.022 271.129 276.152C271.137 276.273 271.137 276.395 271.129 276.516C271.12 276.637 271.098 276.746 271.064 276.841C271.012 276.997 270.947 277.118 270.869 277.205C270.791 277.292 270.691 277.357 270.57 277.4C270.448 277.443 270.301 277.474 270.128 277.491C269.963 277.5 269.764 277.508 269.53 277.517C269.322 277.526 269.127 277.53 268.945 277.53C268.763 277.53 268.576 277.53 268.386 277.53C268.195 277.521 267.996 277.517 267.788 277.517C267.588 277.508 267.363 277.5 267.112 277.491C267.086 277.664 267.107 277.816 267.177 277.946C267.255 278.067 267.359 278.171 267.489 278.258C267.619 278.336 267.766 278.397 267.931 278.44C268.095 278.483 268.256 278.509 268.412 278.518C268.706 278.535 268.988 278.514 269.257 278.453C269.525 278.384 269.803 278.306 270.089 278.219ZM269.53 275.697C269.365 275.506 269.192 275.368 269.01 275.281C268.871 275.22 268.724 275.194 268.568 275.203C268.42 275.203 268.277 275.225 268.139 275.268C267.887 275.329 267.675 275.459 267.502 275.658C267.484 275.675 267.454 275.719 267.411 275.788C267.367 275.849 267.324 275.914 267.281 275.983C267.246 276.052 267.22 276.117 267.203 276.178C267.185 276.239 267.194 276.269 267.229 276.269H269.777C269.768 276.148 269.746 276.048 269.712 275.97C269.677 275.883 269.616 275.792 269.53 275.697Z" fill="white"/>
<path d="M220.945 162.356L220.919 164.397H221.439C221.794 164.388 222.111 164.384 222.388 164.384C222.665 164.384 222.973 164.388 223.311 164.397H223.376C223.48 164.397 223.58 164.401 223.675 164.41C223.779 164.41 223.879 164.41 223.974 164.41C224.078 164.419 224.178 164.436 224.273 164.462C224.368 164.479 224.464 164.501 224.559 164.527C224.706 164.579 224.828 164.657 224.923 164.761C225.01 164.874 225.053 164.999 225.053 165.138C225.053 165.181 225.053 165.233 225.053 165.294C225.053 165.346 225.044 165.394 225.027 165.437C225.01 165.532 224.953 165.619 224.858 165.697C224.815 165.758 224.732 165.801 224.611 165.827C224.498 165.862 224.386 165.883 224.273 165.892C224.152 165.918 224.03 165.931 223.909 165.931H223.298L220.893 165.944L220.867 168.492L223.454 168.518H224.065C224.134 168.518 224.199 168.518 224.26 168.518C224.321 168.518 224.377 168.522 224.429 168.531C224.498 168.548 224.559 168.561 224.611 168.57C224.672 168.57 224.728 168.579 224.78 168.596C224.884 168.631 224.971 168.678 225.04 168.739C225.127 168.826 225.183 168.917 225.209 169.012C225.218 169.055 225.222 169.103 225.222 169.155C225.231 169.198 225.231 169.246 225.222 169.298C225.222 169.437 225.179 169.562 225.092 169.675C224.988 169.796 224.867 169.874 224.728 169.909C224.546 169.987 224.347 170.026 224.13 170.026C224.035 170.035 223.935 170.039 223.831 170.039C223.727 170.039 223.627 170.043 223.532 170.052H223.454C222.778 170.069 222.076 170.069 221.348 170.052C221.175 170.052 221.036 170.048 220.932 170.039C220.828 170.039 220.733 170.039 220.646 170.039C220.568 170.039 220.486 170.039 220.399 170.039C220.312 170.039 220.2 170.039 220.061 170.039C219.862 170.056 219.697 170.022 219.567 169.935C219.472 169.874 219.398 169.792 219.346 169.688C219.32 169.662 219.307 169.636 219.307 169.61C219.298 169.593 219.29 169.58 219.281 169.571C219.272 169.562 219.264 169.549 219.255 169.532C219.238 169.489 219.225 169.445 219.216 169.402C219.207 169.35 219.203 169.302 219.203 169.259C219.194 169.216 219.186 169.172 219.177 169.129C219.177 169.086 219.173 169.042 219.164 168.999V168.791C219.164 168.756 219.164 168.722 219.164 168.687C219.173 168.652 219.177 168.618 219.177 168.583V167.569L219.203 165.697V163.968C219.203 163.656 219.203 163.379 219.203 163.136C219.212 162.893 219.22 162.629 219.229 162.343V162.278C219.238 162.183 219.242 162.096 219.242 162.018C219.251 161.931 219.255 161.845 219.255 161.758C219.264 161.585 219.311 161.416 219.398 161.251C219.433 161.182 219.467 161.121 219.502 161.069C219.545 161.017 219.602 160.974 219.671 160.939C219.801 160.861 219.935 160.822 220.074 160.822C220.143 160.822 220.195 160.826 220.23 160.835V160.822C220.386 160.822 220.512 160.822 220.607 160.822C220.702 160.822 220.793 160.822 220.88 160.822C220.975 160.822 221.075 160.822 221.179 160.822C221.283 160.813 221.426 160.809 221.608 160.809C221.955 160.8 222.284 160.796 222.596 160.796C222.908 160.796 223.229 160.8 223.558 160.809H223.61C223.705 160.818 223.805 160.822 223.909 160.822C224.013 160.822 224.113 160.826 224.208 160.835C224.303 160.835 224.399 160.848 224.494 160.874C224.589 160.891 224.685 160.917 224.78 160.952C224.927 160.995 225.049 161.069 225.144 161.173C225.222 161.294 225.261 161.416 225.261 161.537C225.261 161.589 225.261 161.641 225.261 161.693C225.261 161.736 225.252 161.78 225.235 161.823C225.226 161.91 225.174 162.001 225.079 162.096C225.044 162.113 225.005 162.135 224.962 162.161C224.927 162.187 224.884 162.209 224.832 162.226C224.78 162.243 224.724 162.256 224.663 162.265C224.611 162.265 224.559 162.269 224.507 162.278C224.438 162.295 224.373 162.304 224.312 162.304C224.26 162.304 224.199 162.304 224.13 162.304H223.545L220.945 162.317V162.356ZM230.355 160.913C230.519 160.87 230.662 160.865 230.784 160.9C230.914 160.926 231.022 160.982 231.109 161.069C231.204 161.156 231.273 161.264 231.317 161.394C231.369 161.524 231.395 161.667 231.395 161.823C231.403 162.256 231.403 162.594 231.395 162.837C231.395 163.08 231.395 163.292 231.395 163.474V167.465C231.395 167.933 231.395 168.323 231.395 168.635C231.395 168.947 231.377 169.203 231.343 169.402C231.317 169.593 231.265 169.736 231.187 169.831C231.117 169.926 231.009 169.991 230.862 170.026C230.714 170.069 230.519 170.091 230.277 170.091C230.043 170.091 229.748 170.091 229.393 170.091C228.457 170.091 227.716 169.87 227.17 169.428C226.632 168.986 226.346 168.284 226.312 167.322C226.294 166.906 226.346 166.525 226.468 166.178C226.589 165.831 226.767 165.537 227.001 165.294C227.243 165.043 227.538 164.852 227.885 164.722C228.24 164.583 228.643 164.518 229.094 164.527H229.809V162.2C229.809 162.061 229.809 161.927 229.809 161.797C229.809 161.658 229.822 161.533 229.848 161.42C229.874 161.299 229.926 161.195 230.004 161.108C230.082 161.021 230.199 160.956 230.355 160.913ZM228.093 168.128C228.275 168.379 228.604 168.518 229.081 168.544C229.176 168.553 229.267 168.557 229.354 168.557C229.44 168.548 229.518 168.535 229.588 168.518C229.666 168.509 229.739 168.496 229.809 168.479V166.074C229.505 166.022 229.228 165.992 228.977 165.983C228.734 165.966 228.491 166.052 228.249 166.243C228.119 166.347 228.019 166.481 227.95 166.646C227.88 166.802 227.841 166.971 227.833 167.153C227.824 167.326 227.841 167.5 227.885 167.673C227.928 167.846 227.997 167.998 228.093 168.128ZM234.081 165.073C234.081 165.316 234.081 165.589 234.081 165.892C234.09 166.195 234.094 166.512 234.094 166.841C234.094 167.162 234.094 167.482 234.094 167.803C234.094 168.115 234.09 168.405 234.081 168.674C234.073 168.804 234.06 168.947 234.042 169.103C234.025 169.25 233.99 169.389 233.938 169.519C233.886 169.649 233.804 169.757 233.691 169.844C233.587 169.922 233.444 169.957 233.262 169.948C232.994 169.931 232.799 169.814 232.677 169.597C232.565 169.38 232.5 169.077 232.482 168.687C232.482 168.488 232.478 168.258 232.469 167.998C232.469 167.738 232.465 167.474 232.456 167.205C232.456 166.936 232.456 166.676 232.456 166.425C232.456 166.165 232.456 165.931 232.456 165.723C232.456 165.602 232.452 165.454 232.443 165.281C232.443 165.108 232.448 164.93 232.456 164.748C232.465 164.566 232.487 164.393 232.521 164.228C232.556 164.055 232.612 163.912 232.69 163.799C232.751 163.73 232.838 163.678 232.95 163.643C233.063 163.6 233.18 163.578 233.301 163.578C233.431 163.578 233.553 163.6 233.665 163.643C233.787 163.686 233.873 163.747 233.925 163.825C233.96 163.877 233.986 163.951 234.003 164.046C234.021 164.141 234.034 164.25 234.042 164.371C234.06 164.484 234.068 164.605 234.068 164.735C234.077 164.856 234.081 164.969 234.081 165.073ZM233.587 162.447C233.319 162.516 233.093 162.49 232.911 162.369C232.738 162.239 232.63 162.048 232.586 161.797C232.552 161.615 232.565 161.455 232.625 161.316C232.686 161.177 232.777 161.073 232.898 161.004C233.02 160.926 233.158 160.891 233.314 160.9C233.47 160.909 233.626 160.969 233.782 161.082C233.93 161.186 234.034 161.307 234.094 161.446C234.164 161.585 234.185 161.719 234.159 161.849C234.142 161.979 234.086 162.1 233.99 162.213C233.895 162.317 233.761 162.395 233.587 162.447ZM240.775 164.267C240.844 164.432 240.848 164.614 240.788 164.813C240.736 165.012 240.636 165.142 240.489 165.203C240.411 165.238 240.307 165.268 240.177 165.294C240.047 165.311 239.904 165.329 239.748 165.346C239.6 165.363 239.453 165.376 239.306 165.385C239.158 165.394 239.033 165.398 238.929 165.398C238.937 165.658 238.946 165.927 238.955 166.204C238.963 166.473 238.972 166.737 238.981 166.997C238.989 167.257 238.994 167.508 238.994 167.751C238.994 167.985 238.989 168.197 238.981 168.388C238.981 168.518 238.981 168.67 238.981 168.843C238.981 169.008 238.968 169.168 238.942 169.324C238.924 169.48 238.894 169.619 238.851 169.74C238.807 169.853 238.742 169.926 238.656 169.961C238.387 170.074 238.14 170.104 237.915 170.052C237.698 170.009 237.542 169.918 237.447 169.779C237.377 169.666 237.325 169.536 237.291 169.389C237.256 169.233 237.23 169.077 237.213 168.921C237.204 168.756 237.2 168.6 237.2 168.453C237.208 168.297 237.213 168.163 237.213 168.05C237.221 167.686 237.226 167.274 237.226 166.815C237.234 166.347 237.239 165.879 237.239 165.411H237.044C236.94 165.411 236.805 165.411 236.641 165.411C236.485 165.402 236.324 165.389 236.16 165.372C236.004 165.346 235.856 165.316 235.718 165.281C235.579 165.238 235.479 165.177 235.419 165.099C235.323 164.986 235.263 164.865 235.237 164.735C235.219 164.605 235.228 164.484 235.263 164.371C235.306 164.25 235.371 164.146 235.458 164.059C235.544 163.964 235.644 163.903 235.757 163.877C235.913 163.834 236.134 163.812 236.42 163.812C236.706 163.803 236.974 163.803 237.226 163.812C237.217 163.725 237.213 163.643 237.213 163.565C237.213 163.478 237.208 163.396 237.2 163.318C237.191 163.214 237.187 163.084 237.187 162.928C237.187 162.763 237.195 162.603 237.213 162.447C237.239 162.282 237.278 162.131 237.33 161.992C237.382 161.845 237.455 161.732 237.551 161.654C237.681 161.55 237.811 161.494 237.941 161.485C238.079 161.468 238.205 161.485 238.318 161.537C238.439 161.589 238.539 161.667 238.617 161.771C238.703 161.866 238.764 161.975 238.799 162.096C238.825 162.2 238.846 162.326 238.864 162.473C238.881 162.612 238.89 162.759 238.89 162.915C238.898 163.071 238.903 163.227 238.903 163.383C238.903 163.539 238.903 163.682 238.903 163.812H239.033C239.163 163.812 239.314 163.808 239.488 163.799C239.661 163.79 239.83 163.795 239.995 163.812C240.168 163.829 240.324 163.873 240.463 163.942C240.601 164.003 240.705 164.111 240.775 164.267Z" fill="white"/>
<path d="M337.084 34.984C337.188 35.216 337.192 35.444 337.096 35.668C337 35.884 336.848 36.084 336.64 36.268C336.432 36.452 336.192 36.612 335.92 36.748C335.656 36.884 335.404 36.98 335.164 37.036C334.9 37.092 334.62 37.116 334.324 37.108C334.036 37.108 333.744 37.072 333.448 37C333.16 36.936 332.876 36.84 332.596 36.712C332.324 36.576 332.072 36.412 331.84 36.22C331.56 35.988 331.34 35.712 331.18 35.392C331.028 35.064 330.916 34.716 330.844 34.348C330.772 33.98 330.732 33.612 330.724 33.244C330.724 32.868 330.736 32.516 330.76 32.188C330.784 31.892 330.844 31.584 330.94 31.264C331.036 30.944 331.168 30.632 331.336 30.328C331.512 30.016 331.72 29.728 331.96 29.464C332.208 29.2 332.496 28.976 332.824 28.792C333.072 28.648 333.348 28.552 333.652 28.504C333.964 28.448 334.276 28.436 334.588 28.468C334.908 28.492 335.208 28.56 335.488 28.672C335.776 28.776 336.02 28.92 336.22 29.104C336.348 29.216 336.48 29.372 336.616 29.572C336.76 29.772 336.864 29.976 336.928 30.184C336.992 30.392 336.992 30.588 336.928 30.772C336.872 30.948 336.712 31.068 336.448 31.132C336.336 31.164 336.236 31.172 336.148 31.156C336.06 31.132 335.98 31.096 335.908 31.048C335.836 30.992 335.768 30.928 335.704 30.856C335.64 30.784 335.58 30.712 335.524 30.64C335.332 30.408 335.108 30.252 334.852 30.172C334.596 30.084 334.34 30.064 334.084 30.112C333.836 30.152 333.6 30.256 333.376 30.424C333.16 30.584 332.992 30.792 332.872 31.048C332.744 31.32 332.64 31.62 332.56 31.948C332.488 32.268 332.448 32.596 332.44 32.932C332.432 33.26 332.46 33.58 332.524 33.892C332.596 34.204 332.716 34.48 332.884 34.72C333.012 34.912 333.168 35.068 333.352 35.188C333.544 35.308 333.748 35.392 333.964 35.44C334.18 35.488 334.396 35.496 334.612 35.464C334.836 35.432 335.052 35.36 335.26 35.248C335.324 35.216 335.392 35.172 335.464 35.116C335.544 35.052 335.624 34.988 335.704 34.924C335.784 34.86 335.864 34.8 335.944 34.744C336.032 34.688 336.124 34.648 336.22 34.624C336.364 34.576 336.52 34.58 336.688 34.636C336.864 34.692 336.996 34.808 337.084 34.984ZM339.534 31.948C339.774 31.828 340.026 31.744 340.29 31.696C340.554 31.64 340.814 31.628 341.07 31.66C341.334 31.684 341.586 31.752 341.826 31.864C342.066 31.968 342.29 32.12 342.498 32.32C342.706 32.528 342.866 32.756 342.978 33.004C343.09 33.252 343.17 33.528 343.218 33.832C343.25 34.04 343.302 34.232 343.374 34.408C343.446 34.584 343.522 34.76 343.602 34.936C343.69 35.112 343.77 35.288 343.842 35.464C343.922 35.64 343.986 35.824 344.034 36.016C344.074 36.2 344.058 36.38 343.986 36.556C343.922 36.724 343.786 36.828 343.578 36.868C343.458 36.892 343.342 36.884 343.23 36.844C343.126 36.796 343.03 36.732 342.942 36.652C342.854 36.564 342.774 36.472 342.702 36.376C342.638 36.272 342.578 36.176 342.522 36.088C342.338 36.328 342.138 36.516 341.922 36.652C341.706 36.78 341.446 36.864 341.142 36.904C340.886 36.936 340.642 36.944 340.41 36.928C340.178 36.912 339.93 36.868 339.666 36.796C339.322 36.708 339.038 36.556 338.814 36.34C338.598 36.116 338.43 35.86 338.31 35.572C338.198 35.276 338.138 34.96 338.13 34.624C338.122 34.288 338.162 33.956 338.25 33.628C338.362 33.196 338.53 32.844 338.754 32.572C338.978 32.3 339.238 32.092 339.534 31.948ZM339.834 33.352C339.722 33.464 339.634 33.596 339.57 33.748C339.506 33.9 339.466 34.06 339.45 34.228C339.442 34.396 339.458 34.564 339.498 34.732C339.538 34.9 339.602 35.048 339.69 35.176C339.77 35.288 339.906 35.384 340.098 35.464C340.29 35.536 340.49 35.58 340.698 35.596C340.938 35.612 341.146 35.548 341.322 35.404C341.506 35.26 341.642 35.08 341.73 34.864C341.826 34.64 341.87 34.404 341.862 34.156C341.854 33.9 341.786 33.668 341.658 33.46C341.562 33.308 341.434 33.196 341.274 33.124C341.122 33.052 340.958 33.016 340.782 33.016C340.606 33.008 340.43 33.036 340.254 33.1C340.086 33.156 339.946 33.24 339.834 33.352ZM345.045 32.752C345.045 32.656 345.045 32.548 345.045 32.428C345.045 32.3 345.049 32.172 345.057 32.044C345.065 31.908 345.077 31.78 345.093 31.66C345.117 31.532 345.149 31.42 345.189 31.324C345.253 31.18 345.353 31.084 345.489 31.036C345.625 30.98 345.773 30.956 345.933 30.964C346.101 30.964 346.233 30.992 346.329 31.048C346.425 31.104 346.497 31.18 346.545 31.276C346.593 31.364 346.621 31.468 346.629 31.588C346.645 31.7 346.653 31.82 346.653 31.948C346.725 31.82 346.821 31.716 346.941 31.636C347.069 31.556 347.197 31.492 347.325 31.444C347.453 31.396 347.569 31.364 347.673 31.348C347.777 31.324 347.837 31.312 347.853 31.312C348.053 31.296 348.233 31.292 348.393 31.3C348.561 31.308 348.745 31.344 348.945 31.408C349.073 31.456 349.205 31.524 349.341 31.612C349.477 31.692 349.597 31.788 349.701 31.9C349.805 32.012 349.873 32.136 349.905 32.272C349.945 32.4 349.929 32.536 349.857 32.68C349.745 32.88 349.621 32.98 349.485 32.98C349.349 32.972 349.201 32.948 349.041 32.908C348.953 32.892 348.849 32.856 348.729 32.8C348.609 32.744 348.505 32.708 348.417 32.692C348.145 32.652 347.905 32.672 347.697 32.752C347.489 32.832 347.309 32.928 347.157 33.04C346.981 33.176 346.829 33.332 346.701 33.508V35.236C346.701 35.452 346.697 35.676 346.689 35.908C346.689 36.14 346.657 36.352 346.593 36.544C346.537 36.728 346.437 36.88 346.293 37C346.157 37.112 345.957 37.16 345.693 37.144C345.549 37.136 345.421 37.068 345.309 36.94C345.197 36.804 345.129 36.672 345.105 36.544C345.089 36.424 345.077 36.28 345.069 36.112C345.061 35.944 345.053 35.768 345.045 35.584C345.045 35.4 345.045 35.216 345.045 35.032C345.045 34.84 345.045 34.664 345.045 34.504V32.752ZM352.404 32.452C352.404 32.676 352.404 32.928 352.404 33.208C352.412 33.488 352.416 33.78 352.416 34.084C352.416 34.38 352.416 34.676 352.416 34.972C352.416 35.26 352.412 35.528 352.404 35.776C352.396 35.896 352.384 36.028 352.368 36.172C352.352 36.308 352.32 36.436 352.272 36.556C352.224 36.676 352.148 36.776 352.044 36.856C351.948 36.928 351.816 36.96 351.648 36.952C351.4 36.936 351.22 36.828 351.108 36.628C351.004 36.428 350.944 36.148 350.928 35.788C350.928 35.604 350.924 35.392 350.916 35.152C350.916 34.912 350.912 34.668 350.904 34.42C350.904 34.172 350.904 33.932 350.904 33.7C350.904 33.46 350.904 33.244 350.904 33.052C350.904 32.94 350.9 32.804 350.892 32.644C350.892 32.484 350.896 32.32 350.904 32.152C350.912 31.984 350.932 31.824 350.964 31.672C350.996 31.512 351.048 31.38 351.12 31.276C351.176 31.212 351.256 31.164 351.36 31.132C351.464 31.092 351.572 31.072 351.684 31.072C351.804 31.072 351.916 31.092 352.02 31.132C352.132 31.172 352.212 31.228 352.26 31.3C352.292 31.348 352.316 31.416 352.332 31.504C352.348 31.592 352.36 31.692 352.368 31.804C352.384 31.908 352.392 32.02 352.392 32.14C352.4 32.252 352.404 32.356 352.404 32.452ZM351.948 30.028C351.7 30.092 351.492 30.068 351.324 29.956C351.164 29.836 351.064 29.66 351.024 29.428C350.992 29.26 351.004 29.112 351.06 28.984C351.116 28.856 351.2 28.76 351.312 28.696C351.424 28.624 351.552 28.592 351.696 28.6C351.84 28.608 351.984 28.664 352.128 28.768C352.264 28.864 352.36 28.976 352.416 29.104C352.48 29.232 352.5 29.356 352.476 29.476C352.46 29.596 352.408 29.708 352.32 29.812C352.232 29.908 352.108 29.98 351.948 30.028ZM363.584 36.088C363.576 36.224 363.556 36.368 363.524 36.52C363.5 36.672 363.424 36.796 363.296 36.892C363.2 36.972 363.092 37.02 362.972 37.036C362.852 37.052 362.732 37.044 362.612 37.012C362.5 36.988 362.392 36.948 362.288 36.892C362.184 36.828 362.1 36.752 362.036 36.664C361.764 36.328 361.512 35.984 361.28 35.632C361.056 35.272 360.828 34.912 360.596 34.552L359.588 33.028C359.452 32.812 359.308 32.572 359.156 32.308C359.004 32.036 358.848 31.784 358.688 31.552L358.652 36.136V36.244C358.652 36.372 358.628 36.5 358.58 36.628C358.54 36.748 358.468 36.852 358.364 36.94C358.284 37.004 358.18 37.048 358.052 37.072C357.852 37.112 357.684 37.1 357.548 37.036C357.42 36.972 357.316 36.884 357.236 36.772C357.164 36.66 357.112 36.532 357.08 36.388C357.056 36.236 357.052 36.088 357.068 35.944V35.74L357.092 34.804L357.104 33.064C357.112 32.808 357.116 32.548 357.116 32.284C357.116 32.012 357.116 31.736 357.116 31.456C357.108 31.112 357.108 30.748 357.116 30.364C357.132 29.98 357.148 29.62 357.164 29.284C357.18 29.1 357.224 28.944 357.296 28.816C357.328 28.704 357.412 28.608 357.548 28.528C357.636 28.472 357.748 28.436 357.884 28.42C358.028 28.404 358.152 28.408 358.256 28.432C358.296 28.448 358.336 28.468 358.376 28.492C358.416 28.508 358.456 28.528 358.496 28.552C358.536 28.584 358.572 28.616 358.604 28.648C358.644 28.68 358.68 28.716 358.712 28.756C358.752 28.796 358.788 28.84 358.82 28.888C358.852 28.928 358.884 28.968 358.916 29.008C358.94 29.056 358.964 29.1 358.988 29.14C359.012 29.18 359.04 29.22 359.072 29.26L359.204 29.452L361.976 33.82V33.028C361.976 32.772 361.972 32.512 361.964 32.248C361.964 31.976 361.96 31.696 361.952 31.408C361.952 31.072 361.952 30.712 361.952 30.328C361.96 29.944 361.972 29.584 361.988 29.248C361.988 29.112 362.028 28.956 362.108 28.78C362.148 28.676 362.216 28.592 362.312 28.528C362.408 28.464 362.516 28.42 362.636 28.396C362.756 28.372 362.876 28.372 362.996 28.396C363.116 28.42 363.22 28.468 363.308 28.54C363.332 28.564 363.356 28.592 363.38 28.624C363.404 28.656 363.424 28.692 363.44 28.732C363.48 28.836 363.504 28.928 363.512 29.008C363.536 29.12 363.548 29.22 363.548 29.308C363.548 30.308 363.548 31.328 363.548 32.368C363.556 33.408 363.564 34.428 363.572 35.428C363.572 35.54 363.576 35.652 363.584 35.764C363.592 35.868 363.592 35.976 363.584 36.088ZM365.96 31.948C366.2 31.828 366.452 31.744 366.716 31.696C366.98 31.64 367.24 31.628 367.496 31.66C367.76 31.684 368.012 31.752 368.252 31.864C368.492 31.968 368.716 32.12 368.924 32.32C369.132 32.528 369.292 32.756 369.404 33.004C369.516 33.252 369.596 33.528 369.644 33.832C369.676 34.04 369.728 34.232 369.8 34.408C369.872 34.584 369.948 34.76 370.028 34.936C370.116 35.112 370.196 35.288 370.268 35.464C370.348 35.64 370.412 35.824 370.46 36.016C370.5 36.2 370.484 36.38 370.412 36.556C370.348 36.724 370.212 36.828 370.004 36.868C369.884 36.892 369.768 36.884 369.656 36.844C369.552 36.796 369.456 36.732 369.368 36.652C369.28 36.564 369.2 36.472 369.128 36.376C369.064 36.272 369.004 36.176 368.948 36.088C368.764 36.328 368.564 36.516 368.348 36.652C368.132 36.78 367.872 36.864 367.568 36.904C367.312 36.936 367.068 36.944 366.836 36.928C366.604 36.912 366.356 36.868 366.092 36.796C365.748 36.708 365.464 36.556 365.24 36.34C365.024 36.116 364.856 35.86 364.736 35.572C364.624 35.276 364.564 34.96 364.556 34.624C364.548 34.288 364.588 33.956 364.676 33.628C364.788 33.196 364.956 32.844 365.18 32.572C365.404 32.3 365.664 32.092 365.96 31.948ZM366.26 33.352C366.148 33.464 366.06 33.596 365.996 33.748C365.932 33.9 365.892 34.06 365.876 34.228C365.868 34.396 365.884 34.564 365.924 34.732C365.964 34.9 366.028 35.048 366.116 35.176C366.196 35.288 366.332 35.384 366.524 35.464C366.716 35.536 366.916 35.58 367.124 35.596C367.364 35.612 367.572 35.548 367.748 35.404C367.932 35.26 368.068 35.08 368.156 34.864C368.252 34.64 368.296 34.404 368.288 34.156C368.28 33.9 368.212 33.668 368.084 33.46C367.988 33.308 367.86 33.196 367.7 33.124C367.548 33.052 367.384 33.016 367.208 33.016C367.032 33.008 366.856 33.036 366.68 33.1C366.512 33.156 366.372 33.24 366.26 33.352ZM377.963 34.204C377.979 34.46 377.987 34.704 377.987 34.936C377.987 35.16 377.979 35.4 377.963 35.656C377.963 35.752 377.963 35.86 377.963 35.98C377.963 36.1 377.955 36.216 377.939 36.328C377.923 36.44 377.895 36.544 377.855 36.64C377.815 36.736 377.755 36.812 377.675 36.868C377.579 36.932 377.471 36.976 377.351 37C377.231 37.016 377.119 37.008 377.015 36.976C376.911 36.944 376.819 36.884 376.739 36.796C376.667 36.708 376.627 36.584 376.619 36.424C376.595 36.056 376.583 35.688 376.583 35.32C376.583 35.136 376.579 34.96 376.571 34.792C376.571 34.624 376.575 34.388 376.583 34.084C376.583 33.932 376.571 33.76 376.547 33.568C376.523 33.368 376.463 33.228 376.367 33.148C376.295 33.084 376.215 33.048 376.127 33.04C376.039 33.024 375.951 33.032 375.863 33.064C375.783 33.096 375.711 33.156 375.647 33.244C375.583 33.324 375.539 33.428 375.515 33.556C375.515 33.66 375.511 33.768 375.503 33.88C375.503 33.984 375.507 34.084 375.515 34.18C375.523 34.436 375.527 34.68 375.527 34.912C375.527 35.136 375.523 35.376 375.515 35.632C375.507 35.736 375.503 35.848 375.503 35.968C375.511 36.088 375.511 36.208 375.503 36.328C375.495 36.44 375.471 36.544 375.431 36.64C375.399 36.736 375.339 36.812 375.251 36.868C375.155 36.932 375.051 36.972 374.939 36.988C374.835 36.996 374.735 36.98 374.639 36.94C374.551 36.892 374.471 36.82 374.399 36.724C374.335 36.628 374.299 36.5 374.291 36.34C374.275 36.156 374.263 35.988 374.255 35.836C374.255 35.676 374.255 35.508 374.255 35.332C374.255 35.148 374.259 34.96 374.267 34.768C374.275 34.568 374.271 34.376 374.255 34.192C374.255 34.136 374.251 34.072 374.243 34C374.243 33.92 374.239 33.84 374.231 33.76C374.231 33.68 374.223 33.604 374.207 33.532C374.199 33.452 374.183 33.388 374.159 33.34C374.095 33.228 373.979 33.156 373.811 33.124C373.651 33.092 373.515 33.104 373.403 33.16C373.291 33.216 373.207 33.288 373.151 33.376C373.095 33.464 373.055 33.56 373.031 33.664C373.007 33.768 372.995 33.88 372.995 34C372.995 34.112 372.995 34.22 372.995 34.324C372.995 34.844 372.995 35.296 372.995 35.68C373.003 36.056 372.963 36.36 372.875 36.592C372.835 36.712 372.751 36.804 372.623 36.868C372.503 36.932 372.371 36.964 372.227 36.964C372.091 36.964 371.963 36.932 371.843 36.868C371.723 36.804 371.643 36.704 371.603 36.568C371.579 36.48 371.555 36.356 371.531 36.196C371.515 36.028 371.503 35.844 371.495 35.644C371.487 35.444 371.483 35.244 371.483 35.044C371.483 34.836 371.483 34.648 371.483 34.48V32.752C371.475 32.568 371.471 32.368 371.471 32.152C371.471 31.936 371.503 31.74 371.567 31.564C371.623 31.412 371.711 31.316 371.831 31.276C371.951 31.228 372.075 31.208 372.203 31.216C372.347 31.216 372.459 31.256 372.539 31.336C372.627 31.408 372.691 31.5 372.731 31.612C372.771 31.716 372.795 31.836 372.803 31.972C372.811 32.1 372.819 32.224 372.827 32.344C372.915 32.144 373.019 31.98 373.139 31.852C373.267 31.716 373.447 31.628 373.679 31.588C374.271 31.476 374.743 31.628 375.095 32.044C375.255 31.884 375.459 31.752 375.707 31.648C375.899 31.576 376.095 31.544 376.295 31.552C376.495 31.552 376.683 31.588 376.859 31.66C377.043 31.732 377.207 31.836 377.351 31.972C377.503 32.108 377.623 32.272 377.711 32.464C377.831 32.72 377.899 33.004 377.915 33.316C377.931 33.628 377.947 33.924 377.963 34.204ZM380.351 31.948C380.591 31.828 380.843 31.744 381.107 31.696C381.371 31.64 381.631 31.628 381.887 31.66C382.151 31.684 382.403 31.752 382.643 31.864C382.883 31.968 383.107 32.12 383.315 32.32C383.523 32.528 383.683 32.756 383.795 33.004C383.907 33.252 383.987 33.528 384.035 33.832C384.067 34.04 384.119 34.232 384.191 34.408C384.263 34.584 384.339 34.76 384.419 34.936C384.507 35.112 384.587 35.288 384.659 35.464C384.739 35.64 384.803 35.824 384.851 36.016C384.891 36.2 384.875 36.38 384.803 36.556C384.739 36.724 384.603 36.828 384.395 36.868C384.275 36.892 384.159 36.884 384.047 36.844C383.943 36.796 383.847 36.732 383.759 36.652C383.671 36.564 383.591 36.472 383.519 36.376C383.455 36.272 383.395 36.176 383.339 36.088C383.155 36.328 382.955 36.516 382.739 36.652C382.523 36.78 382.263 36.864 381.959 36.904C381.703 36.936 381.459 36.944 381.227 36.928C380.995 36.912 380.747 36.868 380.483 36.796C380.139 36.708 379.855 36.556 379.631 36.34C379.415 36.116 379.247 35.86 379.127 35.572C379.015 35.276 378.955 34.96 378.947 34.624C378.939 34.288 378.979 33.956 379.067 33.628C379.179 33.196 379.347 32.844 379.571 32.572C379.795 32.3 380.055 32.092 380.351 31.948ZM380.651 33.352C380.539 33.464 380.451 33.596 380.387 33.748C380.323 33.9 380.283 34.06 380.267 34.228C380.259 34.396 380.275 34.564 380.315 34.732C380.355 34.9 380.419 35.048 380.507 35.176C380.587 35.288 380.723 35.384 380.915 35.464C381.107 35.536 381.307 35.58 381.515 35.596C381.755 35.612 381.963 35.548 382.139 35.404C382.323 35.26 382.459 35.08 382.547 34.864C382.643 34.64 382.687 34.404 382.679 34.156C382.671 33.9 382.603 33.668 382.475 33.46C382.379 33.308 382.251 33.196 382.091 33.124C381.939 33.052 381.775 33.016 381.599 33.016C381.423 33.008 381.247 33.036 381.071 33.1C380.903 33.156 380.763 33.24 380.651 33.352ZM391.139 35.08C391.139 35.288 391.063 35.468 390.911 35.62C390.767 35.764 390.591 35.836 390.383 35.836C390.175 35.836 389.995 35.764 389.843 35.62C389.699 35.468 389.627 35.288 389.627 35.08C389.627 34.872 389.699 34.692 389.843 34.54C389.995 34.388 390.175 34.312 390.383 34.312C390.591 34.312 390.767 34.388 390.911 34.54C391.063 34.692 391.139 34.872 391.139 35.08ZM391.139 30.64C391.139 30.848 391.063 31.028 390.911 31.18C390.767 31.324 390.591 31.396 390.383 31.396C390.175 31.396 389.995 31.324 389.843 31.18C389.699 31.028 389.627 30.848 389.627 30.64C389.627 30.432 389.699 30.252 389.843 30.1C389.995 29.948 390.175 29.872 390.383 29.872C390.591 29.872 390.767 29.948 390.911 30.1C391.063 30.252 391.139 30.432 391.139 30.64Z" fill="black"/>
<rect x="398" y="24" width="141" height="19" fill="white"/>
<defs>
<linearGradient id="paint0_linear_155_50" x1="47" y1="138.207" x2="147" y2="138.164" gradientUnits="userSpaceOnUse">
<stop stop-color="#35AEFF"/>
</linearGradient>
<linearGradient id="paint1_linear_155_50" x1="47" y1="249.207" x2="147" y2="249.164" gradientUnits="userSpaceOnUse">
<stop stop-color="#35AEFF"/>
</linearGradient>
<linearGradient id="paint2_linear_155_50" x1="180" y1="249.207" x2="280" y2="249.164" gradientUnits="userSpaceOnUse">
<stop stop-color="#35AEFF"/>
</linearGradient>
<linearGradient id="paint3_linear_155_50" x1="180" y1="138.207" x2="280" y2="138.164" gradientUnits="userSpaceOnUse">
<stop stop-color="#35AEFF"/>
</linearGradient>
</defs>
</svg>
